%TF.GenerationSoftware,KiCad,Pcbnew,7.0.8*%
%TF.CreationDate,2024-03-10T12:51:31+01:00*%
%TF.ProjectId,PCB_Christmas_Tree,5043425f-4368-4726-9973-746d61735f54,rev?*%
%TF.SameCoordinates,Original*%
%TF.FileFunction,Legend,Bot*%
%TF.FilePolarity,Positive*%
%FSLAX46Y46*%
G04 Gerber Fmt 4.6, Leading zero omitted, Abs format (unit mm)*
G04 Created by KiCad (PCBNEW 7.0.8) date 2024-03-10 12:51:31*
%MOMM*%
%LPD*%
G01*
G04 APERTURE LIST*
G04 Aperture macros list*
%AMRoundRect*
0 Rectangle with rounded corners*
0 $1 Rounding radius*
0 $2 $3 $4 $5 $6 $7 $8 $9 X,Y pos of 4 corners*
0 Add a 4 corners polygon primitive as box body*
4,1,4,$2,$3,$4,$5,$6,$7,$8,$9,$2,$3,0*
0 Add four circle primitives for the rounded corners*
1,1,$1+$1,$2,$3*
1,1,$1+$1,$4,$5*
1,1,$1+$1,$6,$7*
1,1,$1+$1,$8,$9*
0 Add four rect primitives between the rounded corners*
20,1,$1+$1,$2,$3,$4,$5,0*
20,1,$1+$1,$4,$5,$6,$7,0*
20,1,$1+$1,$6,$7,$8,$9,0*
20,1,$1+$1,$8,$9,$2,$3,0*%
G04 Aperture macros list end*
%ADD10C,0.400000*%
%ADD11C,2.000000*%
%ADD12C,0.150000*%
%ADD13C,0.100000*%
%ADD14C,0.120000*%
%ADD15RoundRect,0.237500X0.250000X0.237500X-0.250000X0.237500X-0.250000X-0.237500X0.250000X-0.237500X0*%
%ADD16RoundRect,0.250000X-0.325000X-0.450000X0.325000X-0.450000X0.325000X0.450000X-0.325000X0.450000X0*%
%ADD17RoundRect,0.250000X0.450000X-0.325000X0.450000X0.325000X-0.450000X0.325000X-0.450000X-0.325000X0*%
%ADD18R,3.000000X2.000000*%
G04 APERTURE END LIST*
D10*
X191050000Y-70910000D02*
X192250000Y-70020000D01*
X215780000Y-104330000D02*
X214210000Y-104320000D01*
X175700000Y-103040000D02*
X176900000Y-102150000D01*
X198070000Y-82250000D02*
X198520000Y-83510000D01*
X218720000Y-87660000D02*
X217150000Y-87650000D01*
X213760000Y-103060000D02*
X213300000Y-104320000D01*
X210220000Y-59670000D02*
X208650000Y-59660000D01*
X187190000Y-123850000D02*
X186510000Y-125630000D01*
X214580000Y-105220000D02*
X215780000Y-104330000D01*
X198070000Y-82250000D02*
X197610000Y-83510000D01*
X208170000Y-61220000D02*
X209640000Y-62300000D01*
X188870000Y-123840000D02*
X189490000Y-125580000D01*
X213730000Y-105880000D02*
X212220000Y-107010000D01*
X188870000Y-123840000D02*
X190070000Y-122950000D01*
X211650000Y-104340000D02*
X213300000Y-104320000D01*
X190230000Y-68750000D02*
X190680000Y-70010000D01*
D11*
X215380000Y-77790000D02*
X227880000Y-77790000D01*
D10*
X216110000Y-133090000D02*
X217360000Y-133980000D01*
X175700000Y-103040000D02*
X176320000Y-104780000D01*
X172770000Y-102160000D02*
X174020000Y-103050000D01*
X213760000Y-103060000D02*
X214210000Y-104320000D01*
X227670000Y-123740000D02*
X226160000Y-124870000D01*
X192250000Y-70020000D02*
X190680000Y-70010000D01*
X214580000Y-105220000D02*
X215200000Y-106960000D01*
X216700000Y-86390000D02*
X217150000Y-87650000D01*
X218220000Y-131810000D02*
X217760000Y-133070000D01*
X162580000Y-137460000D02*
X161900000Y-139240000D01*
X174850000Y-103700000D02*
X173340000Y-104830000D01*
X208200000Y-58400000D02*
X207740000Y-59660000D01*
X216670000Y-89210000D02*
X215160000Y-90340000D01*
X174020000Y-103050000D02*
X173340000Y-104830000D01*
X188050000Y-121680000D02*
X187590000Y-122940000D01*
X174880000Y-100880000D02*
X175330000Y-102140000D01*
X190230000Y-68750000D02*
X189770000Y-70010000D01*
X198040000Y-85070000D02*
X196530000Y-86200000D01*
X225590000Y-122200000D02*
X227240000Y-122180000D01*
X163410000Y-138110000D02*
X161900000Y-139240000D01*
D11*
X242880000Y-107790000D02*
X222880000Y-107790000D01*
D10*
X200090000Y-83520000D02*
X198520000Y-83510000D01*
X227670000Y-123740000D02*
X229140000Y-124820000D01*
X219040000Y-133970000D02*
X220240000Y-133080000D01*
X217520000Y-88550000D02*
X218140000Y-90290000D01*
X190200000Y-71570000D02*
X188690000Y-72700000D01*
D11*
X182880000Y-107790000D02*
X162880000Y-107790000D01*
D10*
X198040000Y-85070000D02*
X199510000Y-86150000D01*
X165460000Y-136560000D02*
X163890000Y-136550000D01*
X211650000Y-104340000D02*
X212900000Y-105230000D01*
X219040000Y-133970000D02*
X219660000Y-135710000D01*
D11*
X202772000Y-42357000D02*
X227880000Y-77790000D01*
D10*
X209020000Y-60560000D02*
X209640000Y-62300000D01*
X161330000Y-136570000D02*
X162980000Y-136550000D01*
X190200000Y-71570000D02*
X191670000Y-72650000D01*
D11*
X182880000Y-107790000D02*
X152880000Y-141790000D01*
D10*
X195960000Y-83530000D02*
X197210000Y-84420000D01*
X218190000Y-134630000D02*
X216680000Y-135760000D01*
X220240000Y-133080000D02*
X218670000Y-133070000D01*
X216670000Y-89210000D02*
X218140000Y-90290000D01*
X226840000Y-123090000D02*
X226160000Y-124870000D01*
X206090000Y-59680000D02*
X207340000Y-60570000D01*
X214590000Y-87670000D02*
X216240000Y-87650000D01*
D11*
X202772000Y-42357000D02*
X178672000Y-76957000D01*
D10*
X188120000Y-70030000D02*
X189770000Y-70010000D01*
X227700000Y-120920000D02*
X227240000Y-122180000D01*
X191050000Y-70910000D02*
X191670000Y-72650000D01*
D11*
X252880000Y-141790000D02*
X152880000Y-141790000D01*
D10*
X214590000Y-87670000D02*
X215840000Y-88560000D01*
X207340000Y-60570000D02*
X206660000Y-62350000D01*
D11*
X190380000Y-77790000D02*
X162880000Y-107790000D01*
D10*
X188020000Y-124500000D02*
X189490000Y-125580000D01*
X216110000Y-133090000D02*
X217760000Y-133070000D01*
X217360000Y-133980000D02*
X216680000Y-135760000D01*
X161330000Y-136570000D02*
X162580000Y-137460000D01*
X228520000Y-123080000D02*
X229140000Y-124820000D01*
X163440000Y-135290000D02*
X163890000Y-136550000D01*
X208200000Y-58400000D02*
X208650000Y-59660000D01*
D11*
X215380000Y-77790000D02*
X242880000Y-107790000D01*
D10*
X189370000Y-70920000D02*
X188690000Y-72700000D01*
X174850000Y-103700000D02*
X176320000Y-104780000D01*
X188120000Y-70030000D02*
X189370000Y-70920000D01*
X195960000Y-83530000D02*
X197610000Y-83510000D01*
X218220000Y-131810000D02*
X218670000Y-133070000D01*
D11*
X222880000Y-107790000D02*
X252880000Y-141790000D01*
D10*
X216700000Y-86390000D02*
X216240000Y-87650000D01*
X190070000Y-122950000D02*
X188500000Y-122940000D01*
X198890000Y-84410000D02*
X199510000Y-86150000D01*
X164260000Y-137450000D02*
X164880000Y-139190000D01*
X213730000Y-105880000D02*
X215200000Y-106960000D01*
X163410000Y-138110000D02*
X164880000Y-139190000D01*
X228520000Y-123080000D02*
X229720000Y-122190000D01*
X206090000Y-59680000D02*
X207740000Y-59660000D01*
X198890000Y-84410000D02*
X200090000Y-83520000D01*
X172770000Y-102160000D02*
X174420000Y-102140000D01*
X176900000Y-102150000D02*
X175330000Y-102140000D01*
X227700000Y-120920000D02*
X228150000Y-122180000D01*
X164260000Y-137450000D02*
X165460000Y-136560000D01*
X209020000Y-60560000D02*
X210220000Y-59670000D01*
D11*
X177880000Y-77790000D02*
X190380000Y-77790000D01*
D10*
X197210000Y-84420000D02*
X196530000Y-86200000D01*
X225590000Y-122200000D02*
X226840000Y-123090000D01*
X174880000Y-100880000D02*
X174420000Y-102140000D01*
X217520000Y-88550000D02*
X218720000Y-87660000D01*
X188050000Y-121680000D02*
X188500000Y-122940000D01*
X208170000Y-61220000D02*
X206660000Y-62350000D01*
X185940000Y-122960000D02*
X187190000Y-123850000D01*
X218190000Y-134630000D02*
X219660000Y-135710000D01*
X215840000Y-88560000D02*
X215160000Y-90340000D01*
X185940000Y-122960000D02*
X187590000Y-122940000D01*
X229720000Y-122190000D02*
X228150000Y-122180000D01*
X163440000Y-135290000D02*
X162980000Y-136550000D01*
X188020000Y-124500000D02*
X186510000Y-125630000D01*
X212900000Y-105230000D02*
X212220000Y-107010000D01*
D12*
X196642857Y-57024819D02*
X196976190Y-56548628D01*
X197214285Y-57024819D02*
X197214285Y-56024819D01*
X197214285Y-56024819D02*
X196833333Y-56024819D01*
X196833333Y-56024819D02*
X196738095Y-56072438D01*
X196738095Y-56072438D02*
X196690476Y-56120057D01*
X196690476Y-56120057D02*
X196642857Y-56215295D01*
X196642857Y-56215295D02*
X196642857Y-56358152D01*
X196642857Y-56358152D02*
X196690476Y-56453390D01*
X196690476Y-56453390D02*
X196738095Y-56501009D01*
X196738095Y-56501009D02*
X196833333Y-56548628D01*
X196833333Y-56548628D02*
X197214285Y-56548628D01*
X196261904Y-56120057D02*
X196214285Y-56072438D01*
X196214285Y-56072438D02*
X196119047Y-56024819D01*
X196119047Y-56024819D02*
X195880952Y-56024819D01*
X195880952Y-56024819D02*
X195785714Y-56072438D01*
X195785714Y-56072438D02*
X195738095Y-56120057D01*
X195738095Y-56120057D02*
X195690476Y-56215295D01*
X195690476Y-56215295D02*
X195690476Y-56310533D01*
X195690476Y-56310533D02*
X195738095Y-56453390D01*
X195738095Y-56453390D02*
X196309523Y-57024819D01*
X196309523Y-57024819D02*
X195690476Y-57024819D01*
X194785714Y-56024819D02*
X195261904Y-56024819D01*
X195261904Y-56024819D02*
X195309523Y-56501009D01*
X195309523Y-56501009D02*
X195261904Y-56453390D01*
X195261904Y-56453390D02*
X195166666Y-56405771D01*
X195166666Y-56405771D02*
X194928571Y-56405771D01*
X194928571Y-56405771D02*
X194833333Y-56453390D01*
X194833333Y-56453390D02*
X194785714Y-56501009D01*
X194785714Y-56501009D02*
X194738095Y-56596247D01*
X194738095Y-56596247D02*
X194738095Y-56834342D01*
X194738095Y-56834342D02*
X194785714Y-56929580D01*
X194785714Y-56929580D02*
X194833333Y-56977200D01*
X194833333Y-56977200D02*
X194928571Y-57024819D01*
X194928571Y-57024819D02*
X195166666Y-57024819D01*
X195166666Y-57024819D02*
X195261904Y-56977200D01*
X195261904Y-56977200D02*
X195309523Y-56929580D01*
X220924285Y-75764819D02*
X220924285Y-74764819D01*
X220924285Y-74764819D02*
X220686190Y-74764819D01*
X220686190Y-74764819D02*
X220543333Y-74812438D01*
X220543333Y-74812438D02*
X220448095Y-74907676D01*
X220448095Y-74907676D02*
X220400476Y-75002914D01*
X220400476Y-75002914D02*
X220352857Y-75193390D01*
X220352857Y-75193390D02*
X220352857Y-75336247D01*
X220352857Y-75336247D02*
X220400476Y-75526723D01*
X220400476Y-75526723D02*
X220448095Y-75621961D01*
X220448095Y-75621961D02*
X220543333Y-75717200D01*
X220543333Y-75717200D02*
X220686190Y-75764819D01*
X220686190Y-75764819D02*
X220924285Y-75764819D01*
X219400476Y-75764819D02*
X219971904Y-75764819D01*
X219686190Y-75764819D02*
X219686190Y-74764819D01*
X219686190Y-74764819D02*
X219781428Y-74907676D01*
X219781428Y-74907676D02*
X219876666Y-75002914D01*
X219876666Y-75002914D02*
X219971904Y-75050533D01*
X218495714Y-74764819D02*
X218971904Y-74764819D01*
X218971904Y-74764819D02*
X219019523Y-75241009D01*
X219019523Y-75241009D02*
X218971904Y-75193390D01*
X218971904Y-75193390D02*
X218876666Y-75145771D01*
X218876666Y-75145771D02*
X218638571Y-75145771D01*
X218638571Y-75145771D02*
X218543333Y-75193390D01*
X218543333Y-75193390D02*
X218495714Y-75241009D01*
X218495714Y-75241009D02*
X218448095Y-75336247D01*
X218448095Y-75336247D02*
X218448095Y-75574342D01*
X218448095Y-75574342D02*
X218495714Y-75669580D01*
X218495714Y-75669580D02*
X218543333Y-75717200D01*
X218543333Y-75717200D02*
X218638571Y-75764819D01*
X218638571Y-75764819D02*
X218876666Y-75764819D01*
X218876666Y-75764819D02*
X218971904Y-75717200D01*
X218971904Y-75717200D02*
X219019523Y-75669580D01*
X181104819Y-118760714D02*
X180104819Y-118760714D01*
X180104819Y-118760714D02*
X180104819Y-118998809D01*
X180104819Y-118998809D02*
X180152438Y-119141666D01*
X180152438Y-119141666D02*
X180247676Y-119236904D01*
X180247676Y-119236904D02*
X180342914Y-119284523D01*
X180342914Y-119284523D02*
X180533390Y-119332142D01*
X180533390Y-119332142D02*
X180676247Y-119332142D01*
X180676247Y-119332142D02*
X180866723Y-119284523D01*
X180866723Y-119284523D02*
X180961961Y-119236904D01*
X180961961Y-119236904D02*
X181057200Y-119141666D01*
X181057200Y-119141666D02*
X181104819Y-118998809D01*
X181104819Y-118998809D02*
X181104819Y-118760714D01*
X181104819Y-120284523D02*
X181104819Y-119713095D01*
X181104819Y-119998809D02*
X180104819Y-119998809D01*
X180104819Y-119998809D02*
X180247676Y-119903571D01*
X180247676Y-119903571D02*
X180342914Y-119808333D01*
X180342914Y-119808333D02*
X180390533Y-119713095D01*
X180104819Y-120617857D02*
X180104819Y-121284523D01*
X180104819Y-121284523D02*
X181104819Y-120855952D01*
X239990857Y-137454819D02*
X240324190Y-136978628D01*
X240562285Y-137454819D02*
X240562285Y-136454819D01*
X240562285Y-136454819D02*
X240181333Y-136454819D01*
X240181333Y-136454819D02*
X240086095Y-136502438D01*
X240086095Y-136502438D02*
X240038476Y-136550057D01*
X240038476Y-136550057D02*
X239990857Y-136645295D01*
X239990857Y-136645295D02*
X239990857Y-136788152D01*
X239990857Y-136788152D02*
X240038476Y-136883390D01*
X240038476Y-136883390D02*
X240086095Y-136931009D01*
X240086095Y-136931009D02*
X240181333Y-136978628D01*
X240181333Y-136978628D02*
X240562285Y-136978628D01*
X239038476Y-137454819D02*
X239609904Y-137454819D01*
X239324190Y-137454819D02*
X239324190Y-136454819D01*
X239324190Y-136454819D02*
X239419428Y-136597676D01*
X239419428Y-136597676D02*
X239514666Y-136692914D01*
X239514666Y-136692914D02*
X239609904Y-136740533D01*
X238181333Y-136454819D02*
X238371809Y-136454819D01*
X238371809Y-136454819D02*
X238467047Y-136502438D01*
X238467047Y-136502438D02*
X238514666Y-136550057D01*
X238514666Y-136550057D02*
X238609904Y-136692914D01*
X238609904Y-136692914D02*
X238657523Y-136883390D01*
X238657523Y-136883390D02*
X238657523Y-137264342D01*
X238657523Y-137264342D02*
X238609904Y-137359580D01*
X238609904Y-137359580D02*
X238562285Y-137407200D01*
X238562285Y-137407200D02*
X238467047Y-137454819D01*
X238467047Y-137454819D02*
X238276571Y-137454819D01*
X238276571Y-137454819D02*
X238181333Y-137407200D01*
X238181333Y-137407200D02*
X238133714Y-137359580D01*
X238133714Y-137359580D02*
X238086095Y-137264342D01*
X238086095Y-137264342D02*
X238086095Y-137026247D01*
X238086095Y-137026247D02*
X238133714Y-136931009D01*
X238133714Y-136931009D02*
X238181333Y-136883390D01*
X238181333Y-136883390D02*
X238276571Y-136835771D01*
X238276571Y-136835771D02*
X238467047Y-136835771D01*
X238467047Y-136835771D02*
X238562285Y-136883390D01*
X238562285Y-136883390D02*
X238609904Y-136931009D01*
X238609904Y-136931009D02*
X238657523Y-137026247D01*
X245562285Y-140534819D02*
X245562285Y-139534819D01*
X245562285Y-139534819D02*
X245324190Y-139534819D01*
X245324190Y-139534819D02*
X245181333Y-139582438D01*
X245181333Y-139582438D02*
X245086095Y-139677676D01*
X245086095Y-139677676D02*
X245038476Y-139772914D01*
X245038476Y-139772914D02*
X244990857Y-139963390D01*
X244990857Y-139963390D02*
X244990857Y-140106247D01*
X244990857Y-140106247D02*
X245038476Y-140296723D01*
X245038476Y-140296723D02*
X245086095Y-140391961D01*
X245086095Y-140391961D02*
X245181333Y-140487200D01*
X245181333Y-140487200D02*
X245324190Y-140534819D01*
X245324190Y-140534819D02*
X245562285Y-140534819D01*
X244038476Y-140534819D02*
X244609904Y-140534819D01*
X244324190Y-140534819D02*
X244324190Y-139534819D01*
X244324190Y-139534819D02*
X244419428Y-139677676D01*
X244419428Y-139677676D02*
X244514666Y-139772914D01*
X244514666Y-139772914D02*
X244609904Y-139820533D01*
X243086095Y-140534819D02*
X243657523Y-140534819D01*
X243371809Y-140534819D02*
X243371809Y-139534819D01*
X243371809Y-139534819D02*
X243467047Y-139677676D01*
X243467047Y-139677676D02*
X243562285Y-139772914D01*
X243562285Y-139772914D02*
X243657523Y-139820533D01*
X229830857Y-103926819D02*
X230164190Y-103450628D01*
X230402285Y-103926819D02*
X230402285Y-102926819D01*
X230402285Y-102926819D02*
X230021333Y-102926819D01*
X230021333Y-102926819D02*
X229926095Y-102974438D01*
X229926095Y-102974438D02*
X229878476Y-103022057D01*
X229878476Y-103022057D02*
X229830857Y-103117295D01*
X229830857Y-103117295D02*
X229830857Y-103260152D01*
X229830857Y-103260152D02*
X229878476Y-103355390D01*
X229878476Y-103355390D02*
X229926095Y-103403009D01*
X229926095Y-103403009D02*
X230021333Y-103450628D01*
X230021333Y-103450628D02*
X230402285Y-103450628D01*
X229449904Y-103022057D02*
X229402285Y-102974438D01*
X229402285Y-102974438D02*
X229307047Y-102926819D01*
X229307047Y-102926819D02*
X229068952Y-102926819D01*
X229068952Y-102926819D02*
X228973714Y-102974438D01*
X228973714Y-102974438D02*
X228926095Y-103022057D01*
X228926095Y-103022057D02*
X228878476Y-103117295D01*
X228878476Y-103117295D02*
X228878476Y-103212533D01*
X228878476Y-103212533D02*
X228926095Y-103355390D01*
X228926095Y-103355390D02*
X229497523Y-103926819D01*
X229497523Y-103926819D02*
X228878476Y-103926819D01*
X228402285Y-103926819D02*
X228211809Y-103926819D01*
X228211809Y-103926819D02*
X228116571Y-103879200D01*
X228116571Y-103879200D02*
X228068952Y-103831580D01*
X228068952Y-103831580D02*
X227973714Y-103688723D01*
X227973714Y-103688723D02*
X227926095Y-103498247D01*
X227926095Y-103498247D02*
X227926095Y-103117295D01*
X227926095Y-103117295D02*
X227973714Y-103022057D01*
X227973714Y-103022057D02*
X228021333Y-102974438D01*
X228021333Y-102974438D02*
X228116571Y-102926819D01*
X228116571Y-102926819D02*
X228307047Y-102926819D01*
X228307047Y-102926819D02*
X228402285Y-102974438D01*
X228402285Y-102974438D02*
X228449904Y-103022057D01*
X228449904Y-103022057D02*
X228497523Y-103117295D01*
X228497523Y-103117295D02*
X228497523Y-103355390D01*
X228497523Y-103355390D02*
X228449904Y-103450628D01*
X228449904Y-103450628D02*
X228402285Y-103498247D01*
X228402285Y-103498247D02*
X228307047Y-103545866D01*
X228307047Y-103545866D02*
X228116571Y-103545866D01*
X228116571Y-103545866D02*
X228021333Y-103498247D01*
X228021333Y-103498247D02*
X227973714Y-103450628D01*
X227973714Y-103450628D02*
X227926095Y-103355390D01*
X216288857Y-72684819D02*
X216622190Y-72208628D01*
X216860285Y-72684819D02*
X216860285Y-71684819D01*
X216860285Y-71684819D02*
X216479333Y-71684819D01*
X216479333Y-71684819D02*
X216384095Y-71732438D01*
X216384095Y-71732438D02*
X216336476Y-71780057D01*
X216336476Y-71780057D02*
X216288857Y-71875295D01*
X216288857Y-71875295D02*
X216288857Y-72018152D01*
X216288857Y-72018152D02*
X216336476Y-72113390D01*
X216336476Y-72113390D02*
X216384095Y-72161009D01*
X216384095Y-72161009D02*
X216479333Y-72208628D01*
X216479333Y-72208628D02*
X216860285Y-72208628D01*
X215907904Y-71780057D02*
X215860285Y-71732438D01*
X215860285Y-71732438D02*
X215765047Y-71684819D01*
X215765047Y-71684819D02*
X215526952Y-71684819D01*
X215526952Y-71684819D02*
X215431714Y-71732438D01*
X215431714Y-71732438D02*
X215384095Y-71780057D01*
X215384095Y-71780057D02*
X215336476Y-71875295D01*
X215336476Y-71875295D02*
X215336476Y-71970533D01*
X215336476Y-71970533D02*
X215384095Y-72113390D01*
X215384095Y-72113390D02*
X215955523Y-72684819D01*
X215955523Y-72684819D02*
X215336476Y-72684819D01*
X214717428Y-71684819D02*
X214622190Y-71684819D01*
X214622190Y-71684819D02*
X214526952Y-71732438D01*
X214526952Y-71732438D02*
X214479333Y-71780057D01*
X214479333Y-71780057D02*
X214431714Y-71875295D01*
X214431714Y-71875295D02*
X214384095Y-72065771D01*
X214384095Y-72065771D02*
X214384095Y-72303866D01*
X214384095Y-72303866D02*
X214431714Y-72494342D01*
X214431714Y-72494342D02*
X214479333Y-72589580D01*
X214479333Y-72589580D02*
X214526952Y-72637200D01*
X214526952Y-72637200D02*
X214622190Y-72684819D01*
X214622190Y-72684819D02*
X214717428Y-72684819D01*
X214717428Y-72684819D02*
X214812666Y-72637200D01*
X214812666Y-72637200D02*
X214860285Y-72589580D01*
X214860285Y-72589580D02*
X214907904Y-72494342D01*
X214907904Y-72494342D02*
X214955523Y-72303866D01*
X214955523Y-72303866D02*
X214955523Y-72065771D01*
X214955523Y-72065771D02*
X214907904Y-71875295D01*
X214907904Y-71875295D02*
X214860285Y-71780057D01*
X214860285Y-71780057D02*
X214812666Y-71732438D01*
X214812666Y-71732438D02*
X214717428Y-71684819D01*
X235402285Y-107006819D02*
X235402285Y-106006819D01*
X235402285Y-106006819D02*
X235164190Y-106006819D01*
X235164190Y-106006819D02*
X235021333Y-106054438D01*
X235021333Y-106054438D02*
X234926095Y-106149676D01*
X234926095Y-106149676D02*
X234878476Y-106244914D01*
X234878476Y-106244914D02*
X234830857Y-106435390D01*
X234830857Y-106435390D02*
X234830857Y-106578247D01*
X234830857Y-106578247D02*
X234878476Y-106768723D01*
X234878476Y-106768723D02*
X234926095Y-106863961D01*
X234926095Y-106863961D02*
X235021333Y-106959200D01*
X235021333Y-106959200D02*
X235164190Y-107006819D01*
X235164190Y-107006819D02*
X235402285Y-107006819D01*
X234449904Y-106102057D02*
X234402285Y-106054438D01*
X234402285Y-106054438D02*
X234307047Y-106006819D01*
X234307047Y-106006819D02*
X234068952Y-106006819D01*
X234068952Y-106006819D02*
X233973714Y-106054438D01*
X233973714Y-106054438D02*
X233926095Y-106102057D01*
X233926095Y-106102057D02*
X233878476Y-106197295D01*
X233878476Y-106197295D02*
X233878476Y-106292533D01*
X233878476Y-106292533D02*
X233926095Y-106435390D01*
X233926095Y-106435390D02*
X234497523Y-107006819D01*
X234497523Y-107006819D02*
X233878476Y-107006819D01*
X233021333Y-106340152D02*
X233021333Y-107006819D01*
X233259428Y-105959200D02*
X233497523Y-106673485D01*
X233497523Y-106673485D02*
X232878476Y-106673485D01*
X189104819Y-86785714D02*
X188104819Y-86785714D01*
X188104819Y-86785714D02*
X188104819Y-87023809D01*
X188104819Y-87023809D02*
X188152438Y-87166666D01*
X188152438Y-87166666D02*
X188247676Y-87261904D01*
X188247676Y-87261904D02*
X188342914Y-87309523D01*
X188342914Y-87309523D02*
X188533390Y-87357142D01*
X188533390Y-87357142D02*
X188676247Y-87357142D01*
X188676247Y-87357142D02*
X188866723Y-87309523D01*
X188866723Y-87309523D02*
X188961961Y-87261904D01*
X188961961Y-87261904D02*
X189057200Y-87166666D01*
X189057200Y-87166666D02*
X189104819Y-87023809D01*
X189104819Y-87023809D02*
X189104819Y-86785714D01*
X189104819Y-88309523D02*
X189104819Y-87738095D01*
X189104819Y-88023809D02*
X188104819Y-88023809D01*
X188104819Y-88023809D02*
X188247676Y-87928571D01*
X188247676Y-87928571D02*
X188342914Y-87833333D01*
X188342914Y-87833333D02*
X188390533Y-87738095D01*
X188104819Y-88642857D02*
X188104819Y-89261904D01*
X188104819Y-89261904D02*
X188485771Y-88928571D01*
X188485771Y-88928571D02*
X188485771Y-89071428D01*
X188485771Y-89071428D02*
X188533390Y-89166666D01*
X188533390Y-89166666D02*
X188581009Y-89214285D01*
X188581009Y-89214285D02*
X188676247Y-89261904D01*
X188676247Y-89261904D02*
X188914342Y-89261904D01*
X188914342Y-89261904D02*
X189009580Y-89214285D01*
X189009580Y-89214285D02*
X189057200Y-89166666D01*
X189057200Y-89166666D02*
X189104819Y-89071428D01*
X189104819Y-89071428D02*
X189104819Y-88785714D01*
X189104819Y-88785714D02*
X189057200Y-88690476D01*
X189057200Y-88690476D02*
X189009580Y-88642857D01*
X185642857Y-90999819D02*
X185976190Y-90523628D01*
X186214285Y-90999819D02*
X186214285Y-89999819D01*
X186214285Y-89999819D02*
X185833333Y-89999819D01*
X185833333Y-89999819D02*
X185738095Y-90047438D01*
X185738095Y-90047438D02*
X185690476Y-90095057D01*
X185690476Y-90095057D02*
X185642857Y-90190295D01*
X185642857Y-90190295D02*
X185642857Y-90333152D01*
X185642857Y-90333152D02*
X185690476Y-90428390D01*
X185690476Y-90428390D02*
X185738095Y-90476009D01*
X185738095Y-90476009D02*
X185833333Y-90523628D01*
X185833333Y-90523628D02*
X186214285Y-90523628D01*
X184690476Y-90999819D02*
X185261904Y-90999819D01*
X184976190Y-90999819D02*
X184976190Y-89999819D01*
X184976190Y-89999819D02*
X185071428Y-90142676D01*
X185071428Y-90142676D02*
X185166666Y-90237914D01*
X185166666Y-90237914D02*
X185261904Y-90285533D01*
X184119047Y-90428390D02*
X184214285Y-90380771D01*
X184214285Y-90380771D02*
X184261904Y-90333152D01*
X184261904Y-90333152D02*
X184309523Y-90237914D01*
X184309523Y-90237914D02*
X184309523Y-90190295D01*
X184309523Y-90190295D02*
X184261904Y-90095057D01*
X184261904Y-90095057D02*
X184214285Y-90047438D01*
X184214285Y-90047438D02*
X184119047Y-89999819D01*
X184119047Y-89999819D02*
X183928571Y-89999819D01*
X183928571Y-89999819D02*
X183833333Y-90047438D01*
X183833333Y-90047438D02*
X183785714Y-90095057D01*
X183785714Y-90095057D02*
X183738095Y-90190295D01*
X183738095Y-90190295D02*
X183738095Y-90237914D01*
X183738095Y-90237914D02*
X183785714Y-90333152D01*
X183785714Y-90333152D02*
X183833333Y-90380771D01*
X183833333Y-90380771D02*
X183928571Y-90428390D01*
X183928571Y-90428390D02*
X184119047Y-90428390D01*
X184119047Y-90428390D02*
X184214285Y-90476009D01*
X184214285Y-90476009D02*
X184261904Y-90523628D01*
X184261904Y-90523628D02*
X184309523Y-90618866D01*
X184309523Y-90618866D02*
X184309523Y-90809342D01*
X184309523Y-90809342D02*
X184261904Y-90904580D01*
X184261904Y-90904580D02*
X184214285Y-90952200D01*
X184214285Y-90952200D02*
X184119047Y-90999819D01*
X184119047Y-90999819D02*
X183928571Y-90999819D01*
X183928571Y-90999819D02*
X183833333Y-90952200D01*
X183833333Y-90952200D02*
X183785714Y-90904580D01*
X183785714Y-90904580D02*
X183738095Y-90809342D01*
X183738095Y-90809342D02*
X183738095Y-90618866D01*
X183738095Y-90618866D02*
X183785714Y-90523628D01*
X183785714Y-90523628D02*
X183833333Y-90476009D01*
X183833333Y-90476009D02*
X183928571Y-90428390D01*
X176730357Y-124024819D02*
X177063690Y-123548628D01*
X177301785Y-124024819D02*
X177301785Y-123024819D01*
X177301785Y-123024819D02*
X176920833Y-123024819D01*
X176920833Y-123024819D02*
X176825595Y-123072438D01*
X176825595Y-123072438D02*
X176777976Y-123120057D01*
X176777976Y-123120057D02*
X176730357Y-123215295D01*
X176730357Y-123215295D02*
X176730357Y-123358152D01*
X176730357Y-123358152D02*
X176777976Y-123453390D01*
X176777976Y-123453390D02*
X176825595Y-123501009D01*
X176825595Y-123501009D02*
X176920833Y-123548628D01*
X176920833Y-123548628D02*
X177301785Y-123548628D01*
X176349404Y-123120057D02*
X176301785Y-123072438D01*
X176301785Y-123072438D02*
X176206547Y-123024819D01*
X176206547Y-123024819D02*
X175968452Y-123024819D01*
X175968452Y-123024819D02*
X175873214Y-123072438D01*
X175873214Y-123072438D02*
X175825595Y-123120057D01*
X175825595Y-123120057D02*
X175777976Y-123215295D01*
X175777976Y-123215295D02*
X175777976Y-123310533D01*
X175777976Y-123310533D02*
X175825595Y-123453390D01*
X175825595Y-123453390D02*
X176397023Y-124024819D01*
X176397023Y-124024819D02*
X175777976Y-124024819D01*
X175397023Y-123120057D02*
X175349404Y-123072438D01*
X175349404Y-123072438D02*
X175254166Y-123024819D01*
X175254166Y-123024819D02*
X175016071Y-123024819D01*
X175016071Y-123024819D02*
X174920833Y-123072438D01*
X174920833Y-123072438D02*
X174873214Y-123120057D01*
X174873214Y-123120057D02*
X174825595Y-123215295D01*
X174825595Y-123215295D02*
X174825595Y-123310533D01*
X174825595Y-123310533D02*
X174873214Y-123453390D01*
X174873214Y-123453390D02*
X175444642Y-124024819D01*
X175444642Y-124024819D02*
X174825595Y-124024819D01*
X200104819Y-52760714D02*
X199104819Y-52760714D01*
X199104819Y-52760714D02*
X199104819Y-52998809D01*
X199104819Y-52998809D02*
X199152438Y-53141666D01*
X199152438Y-53141666D02*
X199247676Y-53236904D01*
X199247676Y-53236904D02*
X199342914Y-53284523D01*
X199342914Y-53284523D02*
X199533390Y-53332142D01*
X199533390Y-53332142D02*
X199676247Y-53332142D01*
X199676247Y-53332142D02*
X199866723Y-53284523D01*
X199866723Y-53284523D02*
X199961961Y-53236904D01*
X199961961Y-53236904D02*
X200057200Y-53141666D01*
X200057200Y-53141666D02*
X200104819Y-52998809D01*
X200104819Y-52998809D02*
X200104819Y-52760714D01*
X199200057Y-53713095D02*
X199152438Y-53760714D01*
X199152438Y-53760714D02*
X199104819Y-53855952D01*
X199104819Y-53855952D02*
X199104819Y-54094047D01*
X199104819Y-54094047D02*
X199152438Y-54189285D01*
X199152438Y-54189285D02*
X199200057Y-54236904D01*
X199200057Y-54236904D02*
X199295295Y-54284523D01*
X199295295Y-54284523D02*
X199390533Y-54284523D01*
X199390533Y-54284523D02*
X199533390Y-54236904D01*
X199533390Y-54236904D02*
X200104819Y-53665476D01*
X200104819Y-53665476D02*
X200104819Y-54284523D01*
X199104819Y-54903571D02*
X199104819Y-54998809D01*
X199104819Y-54998809D02*
X199152438Y-55094047D01*
X199152438Y-55094047D02*
X199200057Y-55141666D01*
X199200057Y-55141666D02*
X199295295Y-55189285D01*
X199295295Y-55189285D02*
X199485771Y-55236904D01*
X199485771Y-55236904D02*
X199723866Y-55236904D01*
X199723866Y-55236904D02*
X199914342Y-55189285D01*
X199914342Y-55189285D02*
X200009580Y-55141666D01*
X200009580Y-55141666D02*
X200057200Y-55094047D01*
X200057200Y-55094047D02*
X200104819Y-54998809D01*
X200104819Y-54998809D02*
X200104819Y-54903571D01*
X200104819Y-54903571D02*
X200057200Y-54808333D01*
X200057200Y-54808333D02*
X200009580Y-54760714D01*
X200009580Y-54760714D02*
X199914342Y-54713095D01*
X199914342Y-54713095D02*
X199723866Y-54665476D01*
X199723866Y-54665476D02*
X199485771Y-54665476D01*
X199485771Y-54665476D02*
X199295295Y-54713095D01*
X199295295Y-54713095D02*
X199200057Y-54760714D01*
X199200057Y-54760714D02*
X199152438Y-54808333D01*
X199152438Y-54808333D02*
X199104819Y-54903571D01*
D13*
X203505419Y-100380666D02*
X204219704Y-100380666D01*
X204219704Y-100380666D02*
X204362561Y-100333047D01*
X204362561Y-100333047D02*
X204457800Y-100237809D01*
X204457800Y-100237809D02*
X204505419Y-100094952D01*
X204505419Y-100094952D02*
X204505419Y-99999714D01*
X203505419Y-100761619D02*
X203505419Y-101380666D01*
X203505419Y-101380666D02*
X203886371Y-101047333D01*
X203886371Y-101047333D02*
X203886371Y-101190190D01*
X203886371Y-101190190D02*
X203933990Y-101285428D01*
X203933990Y-101285428D02*
X203981609Y-101333047D01*
X203981609Y-101333047D02*
X204076847Y-101380666D01*
X204076847Y-101380666D02*
X204314942Y-101380666D01*
X204314942Y-101380666D02*
X204410180Y-101333047D01*
X204410180Y-101333047D02*
X204457800Y-101285428D01*
X204457800Y-101285428D02*
X204505419Y-101190190D01*
X204505419Y-101190190D02*
X204505419Y-100904476D01*
X204505419Y-100904476D02*
X204457800Y-100809238D01*
X204457800Y-100809238D02*
X204410180Y-100761619D01*
D14*
%TO.C,R25*%
X196254724Y-58522500D02*
X195745276Y-58522500D01*
X196254724Y-57477500D02*
X195745276Y-57477500D01*
%TO.C,D15*%
X217850000Y-72700000D02*
X220710000Y-72700000D01*
X217850000Y-74620000D02*
X217850000Y-72700000D01*
X220710000Y-74620000D02*
X217850000Y-74620000D01*
%TO.C,D17*%
X178040000Y-121835000D02*
X178040000Y-118975000D01*
X179960000Y-121835000D02*
X178040000Y-121835000D01*
X179960000Y-118975000D02*
X179960000Y-121835000D01*
%TO.C,R16*%
X239602724Y-138952500D02*
X239093276Y-138952500D01*
X239602724Y-137907500D02*
X239093276Y-137907500D01*
%TO.C,D11*%
X242488000Y-137470000D02*
X245348000Y-137470000D01*
X242488000Y-139390000D02*
X242488000Y-137470000D01*
X245348000Y-139390000D02*
X242488000Y-139390000D01*
%TO.C,R29*%
X229442724Y-105424500D02*
X228933276Y-105424500D01*
X229442724Y-104379500D02*
X228933276Y-104379500D01*
%TO.C,R20*%
X215900724Y-74182500D02*
X215391276Y-74182500D01*
X215900724Y-73137500D02*
X215391276Y-73137500D01*
%TO.C,D24*%
X232328000Y-103942000D02*
X235188000Y-103942000D01*
X232328000Y-105862000D02*
X232328000Y-103942000D01*
X235188000Y-105862000D02*
X232328000Y-105862000D01*
%TO.C,D13*%
X186040000Y-89860000D02*
X186040000Y-87000000D01*
X187960000Y-89860000D02*
X186040000Y-89860000D01*
X187960000Y-87000000D02*
X187960000Y-89860000D01*
%TO.C,R18*%
X185254724Y-92497500D02*
X184745276Y-92497500D01*
X185254724Y-91452500D02*
X184745276Y-91452500D01*
%TO.C,R22*%
X176342224Y-125522500D02*
X175832776Y-125522500D01*
X176342224Y-124477500D02*
X175832776Y-124477500D01*
%TO.C,D20*%
X197040000Y-55835000D02*
X197040000Y-52975000D01*
X198960000Y-55835000D02*
X197040000Y-55835000D01*
X198960000Y-52975000D02*
X198960000Y-55835000D01*
%TD*%
%LPC*%
D15*
%TO.C,R25*%
X196912500Y-58000000D03*
X195087500Y-58000000D03*
%TD*%
D16*
%TO.C,D15*%
X218685000Y-73660000D03*
X220735000Y-73660000D03*
%TD*%
D17*
%TO.C,D17*%
X179000000Y-121000000D03*
X179000000Y-118950000D03*
%TD*%
D15*
%TO.C,R16*%
X240260500Y-138430000D03*
X238435500Y-138430000D03*
%TD*%
D16*
%TO.C,D11*%
X243323000Y-138430000D03*
X245373000Y-138430000D03*
%TD*%
D15*
%TO.C,R29*%
X230100500Y-104902000D03*
X228275500Y-104902000D03*
%TD*%
%TO.C,R20*%
X216558500Y-73660000D03*
X214733500Y-73660000D03*
%TD*%
D16*
%TO.C,D24*%
X233163000Y-104902000D03*
X235213000Y-104902000D03*
%TD*%
D17*
%TO.C,D13*%
X187000000Y-89025000D03*
X187000000Y-86975000D03*
%TD*%
D15*
%TO.C,R18*%
X185912500Y-91975000D03*
X184087500Y-91975000D03*
%TD*%
%TO.C,R22*%
X177000000Y-125000000D03*
X175175000Y-125000000D03*
%TD*%
D17*
%TO.C,D20*%
X198000000Y-55000000D03*
X198000000Y-52950000D03*
%TD*%
D18*
%TO.C,J3*%
X201000000Y-94110000D03*
X201000000Y-97412000D03*
X201000000Y-100714000D03*
X201000000Y-103762000D03*
%TD*%
%LPD*%
M02*
