M48
; DRILL file {KiCad 7.0.8} date Sun Mar 10 12:51:42 2024
; FORMAT={-:-/ absolute / metric / decimal}
; #@! TF.CreationDate,2024-03-10T12:51:42+01:00
; #@! TF.GenerationSoftware,Kicad,Pcbnew,7.0.8
; #@! TF.FileFunction,Plated,1,2,PTH
FMAT,2
METRIC
; #@! TA.AperFunction,Plated,PTH,ViaDrill
T1C0.400
%
G90
G05
T1
X172.466Y-125.095
X179.823Y-103.632
X181.737Y-92.202
X192.521Y-73.463
X193.167Y-59.309
X197.358Y-97.536
X197.358Y-100.584
X197.612Y-94.234
X197.866Y-90.678
X198.374Y-103.759
X200.914Y-106.68
X205.232Y-106.807
X207.899Y-103.759
X209.55Y-82.042
X209.55Y-92.456
X212.344Y-59.309
X212.8Y-73.606
X212.852Y-99.06
X217.678Y-99.06
X227.156Y-104.013
X232.918Y-125.095
X236.505Y-137.876
T0
M30
