%TF.GenerationSoftware,KiCad,Pcbnew,7.0.8*%
%TF.CreationDate,2024-03-10T12:51:43+01:00*%
%TF.ProjectId,PCB_Christmas_Tree,5043425f-4368-4726-9973-746d61735f54,rev?*%
%TF.SameCoordinates,Original*%
%TF.FileFunction,Drillmap*%
%TF.FilePolarity,Positive*%
%FSLAX45Y45*%
G04 Gerber Fmt 4.5, Leading zero omitted, Abs format (unit mm)*
G04 Created by KiCad (PCBNEW 7.0.8) date 2024-03-10 12:51:43*
%MOMM*%
%LPD*%
G01*
G04 APERTURE LIST*
%ADD10C,0.100000*%
%ADD11C,0.200000*%
%ADD12C,0.040000*%
G04 APERTURE END LIST*
D10*
X15300000Y-14200000D02*
X19800000Y-14200000D01*
X17800000Y-7800000D02*
X19050000Y-7800000D01*
X19800000Y-11000000D02*
X19800000Y-14200000D01*
X19050000Y-7800000D02*
X16300000Y-10800000D01*
X24300000Y-10800000D02*
X22300000Y-10800000D01*
X18300000Y-10800000D02*
X16300000Y-10800000D01*
X21550000Y-7800000D02*
X24300000Y-10800000D01*
X18300000Y-10800000D02*
X15300000Y-14200000D01*
X21550000Y-7800000D02*
X22800000Y-7800000D01*
X20390000Y-4340000D02*
X20210000Y-4340000D01*
X20210000Y-4340000D02*
X17800000Y-7800000D01*
X21100000Y-14200000D02*
X25300000Y-14200000D01*
X21100000Y-11000000D02*
X19800000Y-11000000D01*
X20390000Y-4340000D02*
X22800000Y-7800000D01*
X22300000Y-10800000D02*
X25300000Y-14200000D01*
X21100000Y-14200000D02*
X21100000Y-11000000D01*
D11*
D12*
X17226600Y-12489500D02*
X17266600Y-12529500D01*
X17266600Y-12489500D02*
X17226600Y-12529500D01*
X17962300Y-10343200D02*
X18002300Y-10383200D01*
X18002300Y-10343200D02*
X17962300Y-10383200D01*
X18153700Y-9200200D02*
X18193700Y-9240200D01*
X18193700Y-9200200D02*
X18153700Y-9240200D01*
X19232100Y-7326300D02*
X19272100Y-7366300D01*
X19272100Y-7326300D02*
X19232100Y-7366300D01*
X19296700Y-5910900D02*
X19336700Y-5950900D01*
X19336700Y-5910900D02*
X19296700Y-5950900D01*
X19715800Y-9733600D02*
X19755800Y-9773600D01*
X19755800Y-9733600D02*
X19715800Y-9773600D01*
X19715800Y-10038400D02*
X19755800Y-10078400D01*
X19755800Y-10038400D02*
X19715800Y-10078400D01*
X19741200Y-9403400D02*
X19781200Y-9443400D01*
X19781200Y-9403400D02*
X19741200Y-9443400D01*
X19766600Y-9047800D02*
X19806600Y-9087800D01*
X19806600Y-9047800D02*
X19766600Y-9087800D01*
X19817400Y-10355900D02*
X19857400Y-10395900D01*
X19857400Y-10355900D02*
X19817400Y-10395900D01*
X20071400Y-10648000D02*
X20111400Y-10688000D01*
X20111400Y-10648000D02*
X20071400Y-10688000D01*
X20503200Y-10660700D02*
X20543200Y-10700700D01*
X20543200Y-10660700D02*
X20503200Y-10700700D01*
X20769900Y-10355900D02*
X20809900Y-10395900D01*
X20809900Y-10355900D02*
X20769900Y-10395900D01*
X20935000Y-8184200D02*
X20975000Y-8224200D01*
X20975000Y-8184200D02*
X20935000Y-8224200D01*
X20935000Y-9225600D02*
X20975000Y-9265600D01*
X20975000Y-9225600D02*
X20935000Y-9265600D01*
X21214400Y-5910900D02*
X21254400Y-5950900D01*
X21254400Y-5910900D02*
X21214400Y-5950900D01*
X21260000Y-7340600D02*
X21300000Y-7380600D01*
X21300000Y-7340600D02*
X21260000Y-7380600D01*
X21265200Y-9886000D02*
X21305200Y-9926000D01*
X21305200Y-9886000D02*
X21265200Y-9926000D01*
X21747800Y-9886000D02*
X21787800Y-9926000D01*
X21787800Y-9886000D02*
X21747800Y-9926000D01*
X22695600Y-10381300D02*
X22735600Y-10421300D01*
X22735600Y-10381300D02*
X22695600Y-10421300D01*
X23271800Y-12489500D02*
X23311800Y-12529500D01*
X23311800Y-12489500D02*
X23271800Y-12529500D01*
X23630500Y-13767600D02*
X23670500Y-13807600D01*
X23670500Y-13767600D02*
X23630500Y-13807600D01*
D11*
X15555777Y-14516484D02*
X15555777Y-14316484D01*
X15555777Y-14316484D02*
X15603396Y-14316484D01*
X15603396Y-14316484D02*
X15631967Y-14326008D01*
X15631967Y-14326008D02*
X15651015Y-14345055D01*
X15651015Y-14345055D02*
X15660539Y-14364103D01*
X15660539Y-14364103D02*
X15670062Y-14402198D01*
X15670062Y-14402198D02*
X15670062Y-14430769D01*
X15670062Y-14430769D02*
X15660539Y-14468865D01*
X15660539Y-14468865D02*
X15651015Y-14487912D01*
X15651015Y-14487912D02*
X15631967Y-14506960D01*
X15631967Y-14506960D02*
X15603396Y-14516484D01*
X15603396Y-14516484D02*
X15555777Y-14516484D01*
X15755777Y-14516484D02*
X15755777Y-14383150D01*
X15755777Y-14421246D02*
X15765301Y-14402198D01*
X15765301Y-14402198D02*
X15774824Y-14392674D01*
X15774824Y-14392674D02*
X15793872Y-14383150D01*
X15793872Y-14383150D02*
X15812920Y-14383150D01*
X15879586Y-14516484D02*
X15879586Y-14383150D01*
X15879586Y-14316484D02*
X15870062Y-14326008D01*
X15870062Y-14326008D02*
X15879586Y-14335531D01*
X15879586Y-14335531D02*
X15889110Y-14326008D01*
X15889110Y-14326008D02*
X15879586Y-14316484D01*
X15879586Y-14316484D02*
X15879586Y-14335531D01*
X16003396Y-14516484D02*
X15984348Y-14506960D01*
X15984348Y-14506960D02*
X15974824Y-14487912D01*
X15974824Y-14487912D02*
X15974824Y-14316484D01*
X16108158Y-14516484D02*
X16089110Y-14506960D01*
X16089110Y-14506960D02*
X16079586Y-14487912D01*
X16079586Y-14487912D02*
X16079586Y-14316484D01*
X16336729Y-14516484D02*
X16336729Y-14316484D01*
X16336729Y-14316484D02*
X16403396Y-14459341D01*
X16403396Y-14459341D02*
X16470062Y-14316484D01*
X16470062Y-14316484D02*
X16470062Y-14516484D01*
X16651015Y-14516484D02*
X16651015Y-14411722D01*
X16651015Y-14411722D02*
X16641491Y-14392674D01*
X16641491Y-14392674D02*
X16622443Y-14383150D01*
X16622443Y-14383150D02*
X16584348Y-14383150D01*
X16584348Y-14383150D02*
X16565301Y-14392674D01*
X16651015Y-14506960D02*
X16631967Y-14516484D01*
X16631967Y-14516484D02*
X16584348Y-14516484D01*
X16584348Y-14516484D02*
X16565301Y-14506960D01*
X16565301Y-14506960D02*
X16555777Y-14487912D01*
X16555777Y-14487912D02*
X16555777Y-14468865D01*
X16555777Y-14468865D02*
X16565301Y-14449817D01*
X16565301Y-14449817D02*
X16584348Y-14440293D01*
X16584348Y-14440293D02*
X16631967Y-14440293D01*
X16631967Y-14440293D02*
X16651015Y-14430769D01*
X16746253Y-14383150D02*
X16746253Y-14583150D01*
X16746253Y-14392674D02*
X16765301Y-14383150D01*
X16765301Y-14383150D02*
X16803396Y-14383150D01*
X16803396Y-14383150D02*
X16822444Y-14392674D01*
X16822444Y-14392674D02*
X16831967Y-14402198D01*
X16831967Y-14402198D02*
X16841491Y-14421246D01*
X16841491Y-14421246D02*
X16841491Y-14478388D01*
X16841491Y-14478388D02*
X16831967Y-14497436D01*
X16831967Y-14497436D02*
X16822444Y-14506960D01*
X16822444Y-14506960D02*
X16803396Y-14516484D01*
X16803396Y-14516484D02*
X16765301Y-14516484D01*
X16765301Y-14516484D02*
X16746253Y-14506960D01*
X16927205Y-14497436D02*
X16936729Y-14506960D01*
X16936729Y-14506960D02*
X16927205Y-14516484D01*
X16927205Y-14516484D02*
X16917682Y-14506960D01*
X16917682Y-14506960D02*
X16927205Y-14497436D01*
X16927205Y-14497436D02*
X16927205Y-14516484D01*
X16927205Y-14392674D02*
X16936729Y-14402198D01*
X16936729Y-14402198D02*
X16927205Y-14411722D01*
X16927205Y-14411722D02*
X16917682Y-14402198D01*
X16917682Y-14402198D02*
X16927205Y-14392674D01*
X16927205Y-14392674D02*
X16927205Y-14411722D01*
D12*
X15255000Y-14825000D02*
X15295000Y-14865000D01*
X15295000Y-14825000D02*
X15255000Y-14865000D01*
D11*
X15593872Y-14736484D02*
X15612920Y-14736484D01*
X15612920Y-14736484D02*
X15631967Y-14746008D01*
X15631967Y-14746008D02*
X15641491Y-14755531D01*
X15641491Y-14755531D02*
X15651015Y-14774579D01*
X15651015Y-14774579D02*
X15660539Y-14812674D01*
X15660539Y-14812674D02*
X15660539Y-14860293D01*
X15660539Y-14860293D02*
X15651015Y-14898388D01*
X15651015Y-14898388D02*
X15641491Y-14917436D01*
X15641491Y-14917436D02*
X15631967Y-14926960D01*
X15631967Y-14926960D02*
X15612920Y-14936484D01*
X15612920Y-14936484D02*
X15593872Y-14936484D01*
X15593872Y-14936484D02*
X15574824Y-14926960D01*
X15574824Y-14926960D02*
X15565301Y-14917436D01*
X15565301Y-14917436D02*
X15555777Y-14898388D01*
X15555777Y-14898388D02*
X15546253Y-14860293D01*
X15546253Y-14860293D02*
X15546253Y-14812674D01*
X15546253Y-14812674D02*
X15555777Y-14774579D01*
X15555777Y-14774579D02*
X15565301Y-14755531D01*
X15565301Y-14755531D02*
X15574824Y-14746008D01*
X15574824Y-14746008D02*
X15593872Y-14736484D01*
X15746253Y-14917436D02*
X15755777Y-14926960D01*
X15755777Y-14926960D02*
X15746253Y-14936484D01*
X15746253Y-14936484D02*
X15736729Y-14926960D01*
X15736729Y-14926960D02*
X15746253Y-14917436D01*
X15746253Y-14917436D02*
X15746253Y-14936484D01*
X15927205Y-14803150D02*
X15927205Y-14936484D01*
X15879586Y-14726960D02*
X15831967Y-14869817D01*
X15831967Y-14869817D02*
X15955777Y-14869817D01*
X16070062Y-14736484D02*
X16089110Y-14736484D01*
X16089110Y-14736484D02*
X16108158Y-14746008D01*
X16108158Y-14746008D02*
X16117682Y-14755531D01*
X16117682Y-14755531D02*
X16127205Y-14774579D01*
X16127205Y-14774579D02*
X16136729Y-14812674D01*
X16136729Y-14812674D02*
X16136729Y-14860293D01*
X16136729Y-14860293D02*
X16127205Y-14898388D01*
X16127205Y-14898388D02*
X16117682Y-14917436D01*
X16117682Y-14917436D02*
X16108158Y-14926960D01*
X16108158Y-14926960D02*
X16089110Y-14936484D01*
X16089110Y-14936484D02*
X16070062Y-14936484D01*
X16070062Y-14936484D02*
X16051015Y-14926960D01*
X16051015Y-14926960D02*
X16041491Y-14917436D01*
X16041491Y-14917436D02*
X16031967Y-14898388D01*
X16031967Y-14898388D02*
X16022443Y-14860293D01*
X16022443Y-14860293D02*
X16022443Y-14812674D01*
X16022443Y-14812674D02*
X16031967Y-14774579D01*
X16031967Y-14774579D02*
X16041491Y-14755531D01*
X16041491Y-14755531D02*
X16051015Y-14746008D01*
X16051015Y-14746008D02*
X16070062Y-14736484D01*
X16260539Y-14736484D02*
X16279586Y-14736484D01*
X16279586Y-14736484D02*
X16298634Y-14746008D01*
X16298634Y-14746008D02*
X16308158Y-14755531D01*
X16308158Y-14755531D02*
X16317682Y-14774579D01*
X16317682Y-14774579D02*
X16327205Y-14812674D01*
X16327205Y-14812674D02*
X16327205Y-14860293D01*
X16327205Y-14860293D02*
X16317682Y-14898388D01*
X16317682Y-14898388D02*
X16308158Y-14917436D01*
X16308158Y-14917436D02*
X16298634Y-14926960D01*
X16298634Y-14926960D02*
X16279586Y-14936484D01*
X16279586Y-14936484D02*
X16260539Y-14936484D01*
X16260539Y-14936484D02*
X16241491Y-14926960D01*
X16241491Y-14926960D02*
X16231967Y-14917436D01*
X16231967Y-14917436D02*
X16222443Y-14898388D01*
X16222443Y-14898388D02*
X16212920Y-14860293D01*
X16212920Y-14860293D02*
X16212920Y-14812674D01*
X16212920Y-14812674D02*
X16222443Y-14774579D01*
X16222443Y-14774579D02*
X16231967Y-14755531D01*
X16231967Y-14755531D02*
X16241491Y-14746008D01*
X16241491Y-14746008D02*
X16260539Y-14736484D01*
X16412920Y-14936484D02*
X16412920Y-14803150D01*
X16412920Y-14822198D02*
X16422443Y-14812674D01*
X16422443Y-14812674D02*
X16441491Y-14803150D01*
X16441491Y-14803150D02*
X16470063Y-14803150D01*
X16470063Y-14803150D02*
X16489110Y-14812674D01*
X16489110Y-14812674D02*
X16498634Y-14831722D01*
X16498634Y-14831722D02*
X16498634Y-14936484D01*
X16498634Y-14831722D02*
X16508158Y-14812674D01*
X16508158Y-14812674D02*
X16527205Y-14803150D01*
X16527205Y-14803150D02*
X16555777Y-14803150D01*
X16555777Y-14803150D02*
X16574824Y-14812674D01*
X16574824Y-14812674D02*
X16584348Y-14831722D01*
X16584348Y-14831722D02*
X16584348Y-14936484D01*
X16679586Y-14936484D02*
X16679586Y-14803150D01*
X16679586Y-14822198D02*
X16689110Y-14812674D01*
X16689110Y-14812674D02*
X16708158Y-14803150D01*
X16708158Y-14803150D02*
X16736729Y-14803150D01*
X16736729Y-14803150D02*
X16755777Y-14812674D01*
X16755777Y-14812674D02*
X16765301Y-14831722D01*
X16765301Y-14831722D02*
X16765301Y-14936484D01*
X16765301Y-14831722D02*
X16774824Y-14812674D01*
X16774824Y-14812674D02*
X16793872Y-14803150D01*
X16793872Y-14803150D02*
X16822444Y-14803150D01*
X16822444Y-14803150D02*
X16841491Y-14812674D01*
X16841491Y-14812674D02*
X16851015Y-14831722D01*
X16851015Y-14831722D02*
X16851015Y-14936484D01*
X17241491Y-14726960D02*
X17070063Y-14984103D01*
X17498634Y-14736484D02*
X17517682Y-14736484D01*
X17517682Y-14736484D02*
X17536729Y-14746008D01*
X17536729Y-14746008D02*
X17546253Y-14755531D01*
X17546253Y-14755531D02*
X17555777Y-14774579D01*
X17555777Y-14774579D02*
X17565301Y-14812674D01*
X17565301Y-14812674D02*
X17565301Y-14860293D01*
X17565301Y-14860293D02*
X17555777Y-14898388D01*
X17555777Y-14898388D02*
X17546253Y-14917436D01*
X17546253Y-14917436D02*
X17536729Y-14926960D01*
X17536729Y-14926960D02*
X17517682Y-14936484D01*
X17517682Y-14936484D02*
X17498634Y-14936484D01*
X17498634Y-14936484D02*
X17479587Y-14926960D01*
X17479587Y-14926960D02*
X17470063Y-14917436D01*
X17470063Y-14917436D02*
X17460539Y-14898388D01*
X17460539Y-14898388D02*
X17451015Y-14860293D01*
X17451015Y-14860293D02*
X17451015Y-14812674D01*
X17451015Y-14812674D02*
X17460539Y-14774579D01*
X17460539Y-14774579D02*
X17470063Y-14755531D01*
X17470063Y-14755531D02*
X17479587Y-14746008D01*
X17479587Y-14746008D02*
X17498634Y-14736484D01*
X17651015Y-14917436D02*
X17660539Y-14926960D01*
X17660539Y-14926960D02*
X17651015Y-14936484D01*
X17651015Y-14936484D02*
X17641491Y-14926960D01*
X17641491Y-14926960D02*
X17651015Y-14917436D01*
X17651015Y-14917436D02*
X17651015Y-14936484D01*
X17784348Y-14736484D02*
X17803396Y-14736484D01*
X17803396Y-14736484D02*
X17822444Y-14746008D01*
X17822444Y-14746008D02*
X17831968Y-14755531D01*
X17831968Y-14755531D02*
X17841491Y-14774579D01*
X17841491Y-14774579D02*
X17851015Y-14812674D01*
X17851015Y-14812674D02*
X17851015Y-14860293D01*
X17851015Y-14860293D02*
X17841491Y-14898388D01*
X17841491Y-14898388D02*
X17831968Y-14917436D01*
X17831968Y-14917436D02*
X17822444Y-14926960D01*
X17822444Y-14926960D02*
X17803396Y-14936484D01*
X17803396Y-14936484D02*
X17784348Y-14936484D01*
X17784348Y-14936484D02*
X17765301Y-14926960D01*
X17765301Y-14926960D02*
X17755777Y-14917436D01*
X17755777Y-14917436D02*
X17746253Y-14898388D01*
X17746253Y-14898388D02*
X17736729Y-14860293D01*
X17736729Y-14860293D02*
X17736729Y-14812674D01*
X17736729Y-14812674D02*
X17746253Y-14774579D01*
X17746253Y-14774579D02*
X17755777Y-14755531D01*
X17755777Y-14755531D02*
X17765301Y-14746008D01*
X17765301Y-14746008D02*
X17784348Y-14736484D01*
X18041491Y-14936484D02*
X17927206Y-14936484D01*
X17984348Y-14936484D02*
X17984348Y-14736484D01*
X17984348Y-14736484D02*
X17965301Y-14765055D01*
X17965301Y-14765055D02*
X17946253Y-14784103D01*
X17946253Y-14784103D02*
X17927206Y-14793627D01*
X18222444Y-14736484D02*
X18127206Y-14736484D01*
X18127206Y-14736484D02*
X18117682Y-14831722D01*
X18117682Y-14831722D02*
X18127206Y-14822198D01*
X18127206Y-14822198D02*
X18146253Y-14812674D01*
X18146253Y-14812674D02*
X18193872Y-14812674D01*
X18193872Y-14812674D02*
X18212920Y-14822198D01*
X18212920Y-14822198D02*
X18222444Y-14831722D01*
X18222444Y-14831722D02*
X18231968Y-14850769D01*
X18231968Y-14850769D02*
X18231968Y-14898388D01*
X18231968Y-14898388D02*
X18222444Y-14917436D01*
X18222444Y-14917436D02*
X18212920Y-14926960D01*
X18212920Y-14926960D02*
X18193872Y-14936484D01*
X18193872Y-14936484D02*
X18146253Y-14936484D01*
X18146253Y-14936484D02*
X18127206Y-14926960D01*
X18127206Y-14926960D02*
X18117682Y-14917436D01*
X18298634Y-14736484D02*
X18431968Y-14736484D01*
X18431968Y-14736484D02*
X18346253Y-14936484D01*
X18498634Y-14736484D02*
X18498634Y-14774579D01*
X18574825Y-14736484D02*
X18574825Y-14774579D01*
X18870063Y-15012674D02*
X18860539Y-15003150D01*
X18860539Y-15003150D02*
X18841491Y-14974579D01*
X18841491Y-14974579D02*
X18831968Y-14955531D01*
X18831968Y-14955531D02*
X18822444Y-14926960D01*
X18822444Y-14926960D02*
X18812920Y-14879341D01*
X18812920Y-14879341D02*
X18812920Y-14841246D01*
X18812920Y-14841246D02*
X18822444Y-14793627D01*
X18822444Y-14793627D02*
X18831968Y-14765055D01*
X18831968Y-14765055D02*
X18841491Y-14746008D01*
X18841491Y-14746008D02*
X18860539Y-14717436D01*
X18860539Y-14717436D02*
X18870063Y-14707912D01*
X18936730Y-14755531D02*
X18946253Y-14746008D01*
X18946253Y-14746008D02*
X18965301Y-14736484D01*
X18965301Y-14736484D02*
X19012920Y-14736484D01*
X19012920Y-14736484D02*
X19031968Y-14746008D01*
X19031968Y-14746008D02*
X19041491Y-14755531D01*
X19041491Y-14755531D02*
X19051015Y-14774579D01*
X19051015Y-14774579D02*
X19051015Y-14793627D01*
X19051015Y-14793627D02*
X19041491Y-14822198D01*
X19041491Y-14822198D02*
X18927206Y-14936484D01*
X18927206Y-14936484D02*
X19051015Y-14936484D01*
X19127206Y-14755531D02*
X19136730Y-14746008D01*
X19136730Y-14746008D02*
X19155777Y-14736484D01*
X19155777Y-14736484D02*
X19203396Y-14736484D01*
X19203396Y-14736484D02*
X19222444Y-14746008D01*
X19222444Y-14746008D02*
X19231968Y-14755531D01*
X19231968Y-14755531D02*
X19241491Y-14774579D01*
X19241491Y-14774579D02*
X19241491Y-14793627D01*
X19241491Y-14793627D02*
X19231968Y-14822198D01*
X19231968Y-14822198D02*
X19117682Y-14936484D01*
X19117682Y-14936484D02*
X19241491Y-14936484D01*
X19479587Y-14936484D02*
X19479587Y-14736484D01*
X19565301Y-14936484D02*
X19565301Y-14831722D01*
X19565301Y-14831722D02*
X19555777Y-14812674D01*
X19555777Y-14812674D02*
X19536730Y-14803150D01*
X19536730Y-14803150D02*
X19508158Y-14803150D01*
X19508158Y-14803150D02*
X19489111Y-14812674D01*
X19489111Y-14812674D02*
X19479587Y-14822198D01*
X19689111Y-14936484D02*
X19670063Y-14926960D01*
X19670063Y-14926960D02*
X19660539Y-14917436D01*
X19660539Y-14917436D02*
X19651015Y-14898388D01*
X19651015Y-14898388D02*
X19651015Y-14841246D01*
X19651015Y-14841246D02*
X19660539Y-14822198D01*
X19660539Y-14822198D02*
X19670063Y-14812674D01*
X19670063Y-14812674D02*
X19689111Y-14803150D01*
X19689111Y-14803150D02*
X19717682Y-14803150D01*
X19717682Y-14803150D02*
X19736730Y-14812674D01*
X19736730Y-14812674D02*
X19746253Y-14822198D01*
X19746253Y-14822198D02*
X19755777Y-14841246D01*
X19755777Y-14841246D02*
X19755777Y-14898388D01*
X19755777Y-14898388D02*
X19746253Y-14917436D01*
X19746253Y-14917436D02*
X19736730Y-14926960D01*
X19736730Y-14926960D02*
X19717682Y-14936484D01*
X19717682Y-14936484D02*
X19689111Y-14936484D01*
X19870063Y-14936484D02*
X19851015Y-14926960D01*
X19851015Y-14926960D02*
X19841492Y-14907912D01*
X19841492Y-14907912D02*
X19841492Y-14736484D01*
X20022444Y-14926960D02*
X20003396Y-14936484D01*
X20003396Y-14936484D02*
X19965301Y-14936484D01*
X19965301Y-14936484D02*
X19946253Y-14926960D01*
X19946253Y-14926960D02*
X19936730Y-14907912D01*
X19936730Y-14907912D02*
X19936730Y-14831722D01*
X19936730Y-14831722D02*
X19946253Y-14812674D01*
X19946253Y-14812674D02*
X19965301Y-14803150D01*
X19965301Y-14803150D02*
X20003396Y-14803150D01*
X20003396Y-14803150D02*
X20022444Y-14812674D01*
X20022444Y-14812674D02*
X20031968Y-14831722D01*
X20031968Y-14831722D02*
X20031968Y-14850769D01*
X20031968Y-14850769D02*
X19936730Y-14869817D01*
X20108158Y-14926960D02*
X20127206Y-14936484D01*
X20127206Y-14936484D02*
X20165301Y-14936484D01*
X20165301Y-14936484D02*
X20184349Y-14926960D01*
X20184349Y-14926960D02*
X20193873Y-14907912D01*
X20193873Y-14907912D02*
X20193873Y-14898388D01*
X20193873Y-14898388D02*
X20184349Y-14879341D01*
X20184349Y-14879341D02*
X20165301Y-14869817D01*
X20165301Y-14869817D02*
X20136730Y-14869817D01*
X20136730Y-14869817D02*
X20117682Y-14860293D01*
X20117682Y-14860293D02*
X20108158Y-14841246D01*
X20108158Y-14841246D02*
X20108158Y-14831722D01*
X20108158Y-14831722D02*
X20117682Y-14812674D01*
X20117682Y-14812674D02*
X20136730Y-14803150D01*
X20136730Y-14803150D02*
X20165301Y-14803150D01*
X20165301Y-14803150D02*
X20184349Y-14812674D01*
X20260539Y-15012674D02*
X20270063Y-15003150D01*
X20270063Y-15003150D02*
X20289111Y-14974579D01*
X20289111Y-14974579D02*
X20298634Y-14955531D01*
X20298634Y-14955531D02*
X20308158Y-14926960D01*
X20308158Y-14926960D02*
X20317682Y-14879341D01*
X20317682Y-14879341D02*
X20317682Y-14841246D01*
X20317682Y-14841246D02*
X20308158Y-14793627D01*
X20308158Y-14793627D02*
X20298634Y-14765055D01*
X20298634Y-14765055D02*
X20289111Y-14746008D01*
X20289111Y-14746008D02*
X20270063Y-14717436D01*
X20270063Y-14717436D02*
X20260539Y-14707912D01*
M02*
