%TF.GenerationSoftware,KiCad,Pcbnew,7.0.8*%
%TF.CreationDate,2024-03-10T12:51:31+01:00*%
%TF.ProjectId,PCB_Christmas_Tree,5043425f-4368-4726-9973-746d61735f54,rev?*%
%TF.SameCoordinates,Original*%
%TF.FileFunction,Legend,Top*%
%TF.FilePolarity,Positive*%
%FSLAX46Y46*%
G04 Gerber Fmt 4.6, Leading zero omitted, Abs format (unit mm)*
G04 Created by KiCad (PCBNEW 7.0.8) date 2024-03-10 12:51:31*
%MOMM*%
%LPD*%
G01*
G04 APERTURE LIST*
G04 Aperture macros list*
%AMRoundRect*
0 Rectangle with rounded corners*
0 $1 Rounding radius*
0 $2 $3 $4 $5 $6 $7 $8 $9 X,Y pos of 4 corners*
0 Add a 4 corners polygon primitive as box body*
4,1,4,$2,$3,$4,$5,$6,$7,$8,$9,$2,$3,0*
0 Add four circle primitives for the rounded corners*
1,1,$1+$1,$2,$3*
1,1,$1+$1,$4,$5*
1,1,$1+$1,$6,$7*
1,1,$1+$1,$8,$9*
0 Add four rect primitives between the rounded corners*
20,1,$1+$1,$2,$3,$4,$5,0*
20,1,$1+$1,$4,$5,$6,$7,0*
20,1,$1+$1,$6,$7,$8,$9,0*
20,1,$1+$1,$8,$9,$2,$3,0*%
G04 Aperture macros list end*
%ADD10C,0.400000*%
%ADD11C,2.000000*%
%ADD12C,0.150000*%
%ADD13C,0.100000*%
%ADD14C,0.120000*%
%ADD15RoundRect,0.250000X0.325000X0.450000X-0.325000X0.450000X-0.325000X-0.450000X0.325000X-0.450000X0*%
%ADD16RoundRect,0.237500X-0.250000X-0.237500X0.250000X-0.237500X0.250000X0.237500X-0.250000X0.237500X0*%
%ADD17RoundRect,0.250000X0.450000X-0.325000X0.450000X0.325000X-0.450000X0.325000X-0.450000X-0.325000X0*%
%ADD18R,3.000000X2.000000*%
G04 APERTURE END LIST*
D10*
X203140000Y-73570000D02*
X201570000Y-73560000D01*
X193030000Y-113470000D02*
X192570000Y-114730000D01*
X219710000Y-122820000D02*
X218200000Y-123950000D01*
X210760000Y-66050000D02*
X209190000Y-66040000D01*
X210330000Y-86760000D02*
X211530000Y-85870000D01*
D11*
X203285000Y-42065000D02*
X177900000Y-77780000D01*
D10*
X201120000Y-72300000D02*
X200660000Y-73560000D01*
X208710000Y-67600000D02*
X210180000Y-68680000D01*
X240870000Y-134590000D02*
X241320000Y-135850000D01*
X189320000Y-131830000D02*
X188860000Y-133090000D01*
X177670000Y-124850000D02*
X179140000Y-125930000D01*
X219760000Y-73000000D02*
X220960000Y-72110000D01*
X210660000Y-131520000D02*
X212310000Y-131500000D01*
X230790000Y-103000000D02*
X230110000Y-104780000D01*
X184030000Y-90730000D02*
X183350000Y-92510000D01*
X212770000Y-130240000D02*
X213220000Y-131500000D01*
X212570000Y-107250000D02*
X211890000Y-109030000D01*
X190140000Y-133990000D02*
X190690000Y-135650000D01*
X189320000Y-131830000D02*
X189770000Y-133090000D01*
X191170000Y-103940000D02*
X192640000Y-105020000D01*
X220960000Y-72110000D02*
X219390000Y-72100000D01*
X194590000Y-62340000D02*
X193080000Y-63470000D01*
X201940000Y-74460000D02*
X202490000Y-76120000D01*
X213430000Y-105080000D02*
X213880000Y-106340000D01*
X229540000Y-102110000D02*
X230790000Y-103000000D01*
X217630000Y-121280000D02*
X219280000Y-121260000D01*
X182780000Y-89840000D02*
X184030000Y-90730000D01*
X229540000Y-102110000D02*
X231190000Y-102090000D01*
X218910000Y-73660000D02*
X217400000Y-74790000D01*
X240010000Y-136760000D02*
X239330000Y-138540000D01*
X193000000Y-116290000D02*
X194470000Y-117370000D01*
X190920000Y-114750000D02*
X192170000Y-115640000D01*
X212740000Y-133060000D02*
X214210000Y-134140000D01*
X201090000Y-75120000D02*
X202560000Y-76200000D01*
X209510000Y-84600000D02*
X209050000Y-85860000D01*
X190340000Y-103290000D02*
X189660000Y-105070000D01*
X192020000Y-103280000D02*
X193220000Y-102390000D01*
X216830000Y-72120000D02*
X218480000Y-72100000D01*
X220560000Y-122160000D02*
X221760000Y-121270000D01*
D11*
X252900000Y-141780000D02*
X152900000Y-141780000D01*
X182920000Y-107660000D02*
X162900000Y-107780000D01*
D10*
X231620000Y-103650000D02*
X230110000Y-104780000D01*
X178520000Y-124190000D02*
X179720000Y-123300000D01*
X175590000Y-123310000D02*
X176840000Y-124200000D01*
X184860000Y-91380000D02*
X186330000Y-92460000D01*
X184890000Y-88560000D02*
X185340000Y-89820000D01*
X213590000Y-132400000D02*
X214790000Y-131510000D01*
X209560000Y-66940000D02*
X210110000Y-68600000D01*
X177700000Y-122030000D02*
X178150000Y-123290000D01*
X201090000Y-75120000D02*
X199580000Y-76250000D01*
X221760000Y-121270000D02*
X220190000Y-121260000D01*
X195440000Y-61680000D02*
X195990000Y-63340000D01*
X177670000Y-124850000D02*
X176160000Y-125980000D01*
X213400000Y-107900000D02*
X214870000Y-108980000D01*
D11*
X190400000Y-77780000D02*
X162900000Y-107780000D01*
D10*
X209560000Y-66940000D02*
X210760000Y-66050000D01*
X241690000Y-136750000D02*
X242240000Y-138410000D01*
X218080000Y-73010000D02*
X217400000Y-74790000D01*
X231620000Y-103650000D02*
X233090000Y-104730000D01*
X209510000Y-84600000D02*
X209960000Y-85860000D01*
X233670000Y-102100000D02*
X232100000Y-102090000D01*
X207400000Y-85880000D02*
X209050000Y-85860000D01*
X176840000Y-124200000D02*
X176160000Y-125980000D01*
X213590000Y-132400000D02*
X214140000Y-134060000D01*
X191200000Y-101120000D02*
X190740000Y-102380000D01*
X208740000Y-64780000D02*
X208280000Y-66040000D01*
X201120000Y-72300000D02*
X201570000Y-73560000D01*
X194620000Y-59520000D02*
X194160000Y-60780000D01*
X207400000Y-85880000D02*
X208650000Y-86770000D01*
X195440000Y-61680000D02*
X196640000Y-60790000D01*
X192020000Y-103280000D02*
X192570000Y-104940000D01*
X218940000Y-70840000D02*
X218480000Y-72100000D01*
X212740000Y-133060000D02*
X211230000Y-134190000D01*
X185710000Y-90720000D02*
X186260000Y-92380000D01*
X219740000Y-120000000D02*
X220190000Y-121260000D01*
X215450000Y-106350000D02*
X213880000Y-106340000D01*
X177700000Y-122030000D02*
X177240000Y-123290000D01*
X192170000Y-115640000D02*
X191490000Y-117420000D01*
D11*
X177900000Y-77780000D02*
X190400000Y-77780000D01*
D10*
X214790000Y-131510000D02*
X213220000Y-131500000D01*
X201940000Y-74460000D02*
X203140000Y-73570000D01*
D11*
X222900000Y-107780000D02*
X252900000Y-141780000D01*
X182900000Y-107780000D02*
X152900000Y-141780000D01*
D10*
X187210000Y-133110000D02*
X188460000Y-134000000D01*
X190920000Y-114750000D02*
X192570000Y-114730000D01*
X185710000Y-90720000D02*
X186910000Y-89830000D01*
X219740000Y-120000000D02*
X219280000Y-121260000D01*
X220560000Y-122160000D02*
X221110000Y-123820000D01*
X214250000Y-107240000D02*
X215450000Y-106350000D01*
X211320000Y-106360000D02*
X212970000Y-106340000D01*
X190140000Y-133990000D02*
X191340000Y-133100000D01*
X179720000Y-123300000D02*
X178150000Y-123290000D01*
X241690000Y-136750000D02*
X242890000Y-135860000D01*
X211320000Y-106360000D02*
X212570000Y-107250000D01*
X219710000Y-122820000D02*
X221180000Y-123900000D01*
X194620000Y-59520000D02*
X195070000Y-60780000D01*
D11*
X215400000Y-77780000D02*
X242900000Y-107780000D01*
D10*
X218910000Y-73660000D02*
X220380000Y-74740000D01*
X231650000Y-100830000D02*
X231190000Y-102090000D01*
X232470000Y-102990000D02*
X233020000Y-104650000D01*
X192510000Y-60800000D02*
X193760000Y-61690000D01*
X216830000Y-72120000D02*
X218080000Y-73010000D01*
X213400000Y-107900000D02*
X211890000Y-109030000D01*
X240840000Y-137410000D02*
X242310000Y-138490000D01*
X184890000Y-88560000D02*
X184430000Y-89820000D01*
X209480000Y-87420000D02*
X210950000Y-88500000D01*
X206630000Y-66060000D02*
X207880000Y-66950000D01*
X240840000Y-137410000D02*
X239330000Y-138540000D01*
X218880000Y-122170000D02*
X218200000Y-123950000D01*
X194590000Y-62340000D02*
X196060000Y-63420000D01*
X178520000Y-124190000D02*
X179070000Y-125850000D01*
X212770000Y-130240000D02*
X212310000Y-131500000D01*
X240870000Y-134590000D02*
X240410000Y-135850000D01*
X200260000Y-74470000D02*
X199580000Y-76250000D01*
X191200000Y-101120000D02*
X191650000Y-102380000D01*
X210330000Y-86760000D02*
X210880000Y-88420000D01*
X238760000Y-135870000D02*
X240010000Y-136760000D01*
X189290000Y-134650000D02*
X187780000Y-135780000D01*
X211530000Y-85870000D02*
X209960000Y-85860000D01*
X242890000Y-135860000D02*
X241320000Y-135850000D01*
X184860000Y-91380000D02*
X183350000Y-92510000D01*
X206630000Y-66060000D02*
X208280000Y-66040000D01*
X193220000Y-102390000D02*
X191650000Y-102380000D01*
X191170000Y-103940000D02*
X189660000Y-105070000D01*
X193030000Y-113470000D02*
X193480000Y-114730000D01*
X191340000Y-133100000D02*
X189770000Y-133090000D01*
X213430000Y-105080000D02*
X212970000Y-106340000D01*
X208740000Y-64780000D02*
X209190000Y-66040000D01*
X231650000Y-100830000D02*
X232100000Y-102090000D01*
X193760000Y-61690000D02*
X193080000Y-63470000D01*
X193000000Y-116290000D02*
X191490000Y-117420000D01*
X208650000Y-86770000D02*
X207970000Y-88550000D01*
X209480000Y-87420000D02*
X207970000Y-88550000D01*
D11*
X203285000Y-42065000D02*
X227900000Y-77780000D01*
D10*
X217630000Y-121280000D02*
X218880000Y-122170000D01*
X189090000Y-102400000D02*
X190340000Y-103290000D01*
X192510000Y-60800000D02*
X194160000Y-60780000D01*
X218940000Y-70840000D02*
X219390000Y-72100000D01*
X186910000Y-89830000D02*
X185340000Y-89820000D01*
X189290000Y-134650000D02*
X190760000Y-135730000D01*
X187210000Y-133110000D02*
X188860000Y-133090000D01*
X189090000Y-102400000D02*
X190740000Y-102380000D01*
X214250000Y-107240000D02*
X214800000Y-108900000D01*
X208710000Y-67600000D02*
X207200000Y-68730000D01*
D12*
X203835000Y-43434000D02*
X202057000Y-43434000D01*
D10*
X188460000Y-134000000D02*
X187780000Y-135780000D01*
X238760000Y-135870000D02*
X240410000Y-135850000D01*
X199010000Y-73580000D02*
X200660000Y-73560000D01*
X232470000Y-102990000D02*
X233670000Y-102100000D01*
X182780000Y-89840000D02*
X184430000Y-89820000D01*
X211910000Y-132410000D02*
X211230000Y-134190000D01*
D11*
X215400000Y-77780000D02*
X227900000Y-77780000D01*
X242900000Y-107780000D02*
X222900000Y-107780000D01*
D10*
X207880000Y-66950000D02*
X207200000Y-68730000D01*
X193850000Y-115630000D02*
X194400000Y-117290000D01*
X196640000Y-60790000D02*
X195070000Y-60780000D01*
X175590000Y-123310000D02*
X177240000Y-123290000D01*
X199010000Y-73580000D02*
X200260000Y-74470000D01*
X193850000Y-115630000D02*
X195050000Y-114740000D01*
X210660000Y-131520000D02*
X211910000Y-132410000D01*
X195050000Y-114740000D02*
X193480000Y-114730000D01*
X219760000Y-73000000D02*
X220310000Y-74660000D01*
D12*
X184196714Y-75764819D02*
X184196714Y-74764819D01*
X184196714Y-74764819D02*
X184434809Y-74764819D01*
X184434809Y-74764819D02*
X184577666Y-74812438D01*
X184577666Y-74812438D02*
X184672904Y-74907676D01*
X184672904Y-74907676D02*
X184720523Y-75002914D01*
X184720523Y-75002914D02*
X184768142Y-75193390D01*
X184768142Y-75193390D02*
X184768142Y-75336247D01*
X184768142Y-75336247D02*
X184720523Y-75526723D01*
X184720523Y-75526723D02*
X184672904Y-75621961D01*
X184672904Y-75621961D02*
X184577666Y-75717200D01*
X184577666Y-75717200D02*
X184434809Y-75764819D01*
X184434809Y-75764819D02*
X184196714Y-75764819D01*
X185720523Y-75764819D02*
X185149095Y-75764819D01*
X185434809Y-75764819D02*
X185434809Y-74764819D01*
X185434809Y-74764819D02*
X185339571Y-74907676D01*
X185339571Y-74907676D02*
X185244333Y-75002914D01*
X185244333Y-75002914D02*
X185149095Y-75050533D01*
X186577666Y-75098152D02*
X186577666Y-75764819D01*
X186339571Y-74717200D02*
X186101476Y-75431485D01*
X186101476Y-75431485D02*
X186720523Y-75431485D01*
X175846333Y-103672819D02*
X175513000Y-103196628D01*
X175274905Y-103672819D02*
X175274905Y-102672819D01*
X175274905Y-102672819D02*
X175655857Y-102672819D01*
X175655857Y-102672819D02*
X175751095Y-102720438D01*
X175751095Y-102720438D02*
X175798714Y-102768057D01*
X175798714Y-102768057D02*
X175846333Y-102863295D01*
X175846333Y-102863295D02*
X175846333Y-103006152D01*
X175846333Y-103006152D02*
X175798714Y-103101390D01*
X175798714Y-103101390D02*
X175751095Y-103149009D01*
X175751095Y-103149009D02*
X175655857Y-103196628D01*
X175655857Y-103196628D02*
X175274905Y-103196628D01*
X176417762Y-103101390D02*
X176322524Y-103053771D01*
X176322524Y-103053771D02*
X176274905Y-103006152D01*
X176274905Y-103006152D02*
X176227286Y-102910914D01*
X176227286Y-102910914D02*
X176227286Y-102863295D01*
X176227286Y-102863295D02*
X176274905Y-102768057D01*
X176274905Y-102768057D02*
X176322524Y-102720438D01*
X176322524Y-102720438D02*
X176417762Y-102672819D01*
X176417762Y-102672819D02*
X176608238Y-102672819D01*
X176608238Y-102672819D02*
X176703476Y-102720438D01*
X176703476Y-102720438D02*
X176751095Y-102768057D01*
X176751095Y-102768057D02*
X176798714Y-102863295D01*
X176798714Y-102863295D02*
X176798714Y-102910914D01*
X176798714Y-102910914D02*
X176751095Y-103006152D01*
X176751095Y-103006152D02*
X176703476Y-103053771D01*
X176703476Y-103053771D02*
X176608238Y-103101390D01*
X176608238Y-103101390D02*
X176417762Y-103101390D01*
X176417762Y-103101390D02*
X176322524Y-103149009D01*
X176322524Y-103149009D02*
X176274905Y-103196628D01*
X176274905Y-103196628D02*
X176227286Y-103291866D01*
X176227286Y-103291866D02*
X176227286Y-103482342D01*
X176227286Y-103482342D02*
X176274905Y-103577580D01*
X176274905Y-103577580D02*
X176322524Y-103625200D01*
X176322524Y-103625200D02*
X176417762Y-103672819D01*
X176417762Y-103672819D02*
X176608238Y-103672819D01*
X176608238Y-103672819D02*
X176703476Y-103625200D01*
X176703476Y-103625200D02*
X176751095Y-103577580D01*
X176751095Y-103577580D02*
X176798714Y-103482342D01*
X176798714Y-103482342D02*
X176798714Y-103291866D01*
X176798714Y-103291866D02*
X176751095Y-103196628D01*
X176751095Y-103196628D02*
X176703476Y-103149009D01*
X176703476Y-103149009D02*
X176608238Y-103101390D01*
X206804819Y-54738094D02*
X205804819Y-54738094D01*
X205804819Y-54738094D02*
X205804819Y-54499999D01*
X205804819Y-54499999D02*
X205852438Y-54357142D01*
X205852438Y-54357142D02*
X205947676Y-54261904D01*
X205947676Y-54261904D02*
X206042914Y-54214285D01*
X206042914Y-54214285D02*
X206233390Y-54166666D01*
X206233390Y-54166666D02*
X206376247Y-54166666D01*
X206376247Y-54166666D02*
X206566723Y-54214285D01*
X206566723Y-54214285D02*
X206661961Y-54261904D01*
X206661961Y-54261904D02*
X206757200Y-54357142D01*
X206757200Y-54357142D02*
X206804819Y-54499999D01*
X206804819Y-54499999D02*
X206804819Y-54738094D01*
X206138152Y-53309523D02*
X206804819Y-53309523D01*
X205757200Y-53547618D02*
X206471485Y-53785713D01*
X206471485Y-53785713D02*
X206471485Y-53166666D01*
X188841142Y-72684819D02*
X188507809Y-72208628D01*
X188269714Y-72684819D02*
X188269714Y-71684819D01*
X188269714Y-71684819D02*
X188650666Y-71684819D01*
X188650666Y-71684819D02*
X188745904Y-71732438D01*
X188745904Y-71732438D02*
X188793523Y-71780057D01*
X188793523Y-71780057D02*
X188841142Y-71875295D01*
X188841142Y-71875295D02*
X188841142Y-72018152D01*
X188841142Y-72018152D02*
X188793523Y-72113390D01*
X188793523Y-72113390D02*
X188745904Y-72161009D01*
X188745904Y-72161009D02*
X188650666Y-72208628D01*
X188650666Y-72208628D02*
X188269714Y-72208628D01*
X189793523Y-72684819D02*
X189222095Y-72684819D01*
X189507809Y-72684819D02*
X189507809Y-71684819D01*
X189507809Y-71684819D02*
X189412571Y-71827676D01*
X189412571Y-71827676D02*
X189317333Y-71922914D01*
X189317333Y-71922914D02*
X189222095Y-71970533D01*
X190269714Y-72684819D02*
X190460190Y-72684819D01*
X190460190Y-72684819D02*
X190555428Y-72637200D01*
X190555428Y-72637200D02*
X190603047Y-72589580D01*
X190603047Y-72589580D02*
X190698285Y-72446723D01*
X190698285Y-72446723D02*
X190745904Y-72256247D01*
X190745904Y-72256247D02*
X190745904Y-71875295D01*
X190745904Y-71875295D02*
X190698285Y-71780057D01*
X190698285Y-71780057D02*
X190650666Y-71732438D01*
X190650666Y-71732438D02*
X190555428Y-71684819D01*
X190555428Y-71684819D02*
X190364952Y-71684819D01*
X190364952Y-71684819D02*
X190269714Y-71732438D01*
X190269714Y-71732438D02*
X190222095Y-71780057D01*
X190222095Y-71780057D02*
X190174476Y-71875295D01*
X190174476Y-71875295D02*
X190174476Y-72113390D01*
X190174476Y-72113390D02*
X190222095Y-72208628D01*
X190222095Y-72208628D02*
X190269714Y-72256247D01*
X190269714Y-72256247D02*
X190364952Y-72303866D01*
X190364952Y-72303866D02*
X190555428Y-72303866D01*
X190555428Y-72303866D02*
X190650666Y-72256247D01*
X190650666Y-72256247D02*
X190698285Y-72208628D01*
X190698285Y-72208628D02*
X190745904Y-72113390D01*
D13*
X202494580Y-100380666D02*
X201780295Y-100380666D01*
X201780295Y-100380666D02*
X201637438Y-100333047D01*
X201637438Y-100333047D02*
X201542200Y-100237809D01*
X201542200Y-100237809D02*
X201494580Y-100094952D01*
X201494580Y-100094952D02*
X201494580Y-99999714D01*
X202161247Y-101285428D02*
X201494580Y-101285428D01*
X202542200Y-101047333D02*
X201827914Y-100809238D01*
X201827914Y-100809238D02*
X201827914Y-101428285D01*
D12*
X171210905Y-106752819D02*
X171210905Y-105752819D01*
X171210905Y-105752819D02*
X171449000Y-105752819D01*
X171449000Y-105752819D02*
X171591857Y-105800438D01*
X171591857Y-105800438D02*
X171687095Y-105895676D01*
X171687095Y-105895676D02*
X171734714Y-105990914D01*
X171734714Y-105990914D02*
X171782333Y-106181390D01*
X171782333Y-106181390D02*
X171782333Y-106324247D01*
X171782333Y-106324247D02*
X171734714Y-106514723D01*
X171734714Y-106514723D02*
X171687095Y-106609961D01*
X171687095Y-106609961D02*
X171591857Y-106705200D01*
X171591857Y-106705200D02*
X171449000Y-106752819D01*
X171449000Y-106752819D02*
X171210905Y-106752819D01*
X172115667Y-105752819D02*
X172734714Y-105752819D01*
X172734714Y-105752819D02*
X172401381Y-106133771D01*
X172401381Y-106133771D02*
X172544238Y-106133771D01*
X172544238Y-106133771D02*
X172639476Y-106181390D01*
X172639476Y-106181390D02*
X172687095Y-106229009D01*
X172687095Y-106229009D02*
X172734714Y-106324247D01*
X172734714Y-106324247D02*
X172734714Y-106562342D01*
X172734714Y-106562342D02*
X172687095Y-106657580D01*
X172687095Y-106657580D02*
X172639476Y-106705200D01*
X172639476Y-106705200D02*
X172544238Y-106752819D01*
X172544238Y-106752819D02*
X172258524Y-106752819D01*
X172258524Y-106752819D02*
X172163286Y-106705200D01*
X172163286Y-106705200D02*
X172115667Y-106657580D01*
X161821905Y-140026819D02*
X161821905Y-139026819D01*
X161821905Y-139026819D02*
X162060000Y-139026819D01*
X162060000Y-139026819D02*
X162202857Y-139074438D01*
X162202857Y-139074438D02*
X162298095Y-139169676D01*
X162298095Y-139169676D02*
X162345714Y-139264914D01*
X162345714Y-139264914D02*
X162393333Y-139455390D01*
X162393333Y-139455390D02*
X162393333Y-139598247D01*
X162393333Y-139598247D02*
X162345714Y-139788723D01*
X162345714Y-139788723D02*
X162298095Y-139883961D01*
X162298095Y-139883961D02*
X162202857Y-139979200D01*
X162202857Y-139979200D02*
X162060000Y-140026819D01*
X162060000Y-140026819D02*
X161821905Y-140026819D01*
X163298095Y-139026819D02*
X162821905Y-139026819D01*
X162821905Y-139026819D02*
X162774286Y-139503009D01*
X162774286Y-139503009D02*
X162821905Y-139455390D01*
X162821905Y-139455390D02*
X162917143Y-139407771D01*
X162917143Y-139407771D02*
X163155238Y-139407771D01*
X163155238Y-139407771D02*
X163250476Y-139455390D01*
X163250476Y-139455390D02*
X163298095Y-139503009D01*
X163298095Y-139503009D02*
X163345714Y-139598247D01*
X163345714Y-139598247D02*
X163345714Y-139836342D01*
X163345714Y-139836342D02*
X163298095Y-139931580D01*
X163298095Y-139931580D02*
X163250476Y-139979200D01*
X163250476Y-139979200D02*
X163155238Y-140026819D01*
X163155238Y-140026819D02*
X162917143Y-140026819D01*
X162917143Y-140026819D02*
X162821905Y-139979200D01*
X162821905Y-139979200D02*
X162774286Y-139931580D01*
X165981142Y-136946819D02*
X165647809Y-136470628D01*
X165409714Y-136946819D02*
X165409714Y-135946819D01*
X165409714Y-135946819D02*
X165790666Y-135946819D01*
X165790666Y-135946819D02*
X165885904Y-135994438D01*
X165885904Y-135994438D02*
X165933523Y-136042057D01*
X165933523Y-136042057D02*
X165981142Y-136137295D01*
X165981142Y-136137295D02*
X165981142Y-136280152D01*
X165981142Y-136280152D02*
X165933523Y-136375390D01*
X165933523Y-136375390D02*
X165885904Y-136423009D01*
X165885904Y-136423009D02*
X165790666Y-136470628D01*
X165790666Y-136470628D02*
X165409714Y-136470628D01*
X166933523Y-136946819D02*
X166362095Y-136946819D01*
X166647809Y-136946819D02*
X166647809Y-135946819D01*
X166647809Y-135946819D02*
X166552571Y-136089676D01*
X166552571Y-136089676D02*
X166457333Y-136184914D01*
X166457333Y-136184914D02*
X166362095Y-136232533D01*
X167552571Y-135946819D02*
X167647809Y-135946819D01*
X167647809Y-135946819D02*
X167743047Y-135994438D01*
X167743047Y-135994438D02*
X167790666Y-136042057D01*
X167790666Y-136042057D02*
X167838285Y-136137295D01*
X167838285Y-136137295D02*
X167885904Y-136327771D01*
X167885904Y-136327771D02*
X167885904Y-136565866D01*
X167885904Y-136565866D02*
X167838285Y-136756342D01*
X167838285Y-136756342D02*
X167790666Y-136851580D01*
X167790666Y-136851580D02*
X167743047Y-136899200D01*
X167743047Y-136899200D02*
X167647809Y-136946819D01*
X167647809Y-136946819D02*
X167552571Y-136946819D01*
X167552571Y-136946819D02*
X167457333Y-136899200D01*
X167457333Y-136899200D02*
X167409714Y-136851580D01*
X167409714Y-136851580D02*
X167362095Y-136756342D01*
X167362095Y-136756342D02*
X167314476Y-136565866D01*
X167314476Y-136565866D02*
X167314476Y-136327771D01*
X167314476Y-136327771D02*
X167362095Y-136137295D01*
X167362095Y-136137295D02*
X167409714Y-136042057D01*
X167409714Y-136042057D02*
X167457333Y-135994438D01*
X167457333Y-135994438D02*
X167552571Y-135946819D01*
X226804819Y-121239285D02*
X225804819Y-121239285D01*
X225804819Y-121239285D02*
X225804819Y-121001190D01*
X225804819Y-121001190D02*
X225852438Y-120858333D01*
X225852438Y-120858333D02*
X225947676Y-120763095D01*
X225947676Y-120763095D02*
X226042914Y-120715476D01*
X226042914Y-120715476D02*
X226233390Y-120667857D01*
X226233390Y-120667857D02*
X226376247Y-120667857D01*
X226376247Y-120667857D02*
X226566723Y-120715476D01*
X226566723Y-120715476D02*
X226661961Y-120763095D01*
X226661961Y-120763095D02*
X226757200Y-120858333D01*
X226757200Y-120858333D02*
X226804819Y-121001190D01*
X226804819Y-121001190D02*
X226804819Y-121239285D01*
X226804819Y-119715476D02*
X226804819Y-120286904D01*
X226804819Y-120001190D02*
X225804819Y-120001190D01*
X225804819Y-120001190D02*
X225947676Y-120096428D01*
X225947676Y-120096428D02*
X226042914Y-120191666D01*
X226042914Y-120191666D02*
X226090533Y-120286904D01*
X225804819Y-118858333D02*
X225804819Y-119048809D01*
X225804819Y-119048809D02*
X225852438Y-119144047D01*
X225852438Y-119144047D02*
X225900057Y-119191666D01*
X225900057Y-119191666D02*
X226042914Y-119286904D01*
X226042914Y-119286904D02*
X226233390Y-119334523D01*
X226233390Y-119334523D02*
X226614342Y-119334523D01*
X226614342Y-119334523D02*
X226709580Y-119286904D01*
X226709580Y-119286904D02*
X226757200Y-119239285D01*
X226757200Y-119239285D02*
X226804819Y-119144047D01*
X226804819Y-119144047D02*
X226804819Y-118953571D01*
X226804819Y-118953571D02*
X226757200Y-118858333D01*
X226757200Y-118858333D02*
X226709580Y-118810714D01*
X226709580Y-118810714D02*
X226614342Y-118763095D01*
X226614342Y-118763095D02*
X226376247Y-118763095D01*
X226376247Y-118763095D02*
X226281009Y-118810714D01*
X226281009Y-118810714D02*
X226233390Y-118858333D01*
X226233390Y-118858333D02*
X226185771Y-118953571D01*
X226185771Y-118953571D02*
X226185771Y-119144047D01*
X226185771Y-119144047D02*
X226233390Y-119239285D01*
X226233390Y-119239285D02*
X226281009Y-119286904D01*
X226281009Y-119286904D02*
X226376247Y-119334523D01*
X221833333Y-91024819D02*
X221500000Y-90548628D01*
X221261905Y-91024819D02*
X221261905Y-90024819D01*
X221261905Y-90024819D02*
X221642857Y-90024819D01*
X221642857Y-90024819D02*
X221738095Y-90072438D01*
X221738095Y-90072438D02*
X221785714Y-90120057D01*
X221785714Y-90120057D02*
X221833333Y-90215295D01*
X221833333Y-90215295D02*
X221833333Y-90358152D01*
X221833333Y-90358152D02*
X221785714Y-90453390D01*
X221785714Y-90453390D02*
X221738095Y-90501009D01*
X221738095Y-90501009D02*
X221642857Y-90548628D01*
X221642857Y-90548628D02*
X221261905Y-90548628D01*
X222166667Y-90024819D02*
X222833333Y-90024819D01*
X222833333Y-90024819D02*
X222404762Y-91024819D01*
X209833333Y-57024819D02*
X209500000Y-56548628D01*
X209261905Y-57024819D02*
X209261905Y-56024819D01*
X209261905Y-56024819D02*
X209642857Y-56024819D01*
X209642857Y-56024819D02*
X209738095Y-56072438D01*
X209738095Y-56072438D02*
X209785714Y-56120057D01*
X209785714Y-56120057D02*
X209833333Y-56215295D01*
X209833333Y-56215295D02*
X209833333Y-56358152D01*
X209833333Y-56358152D02*
X209785714Y-56453390D01*
X209785714Y-56453390D02*
X209738095Y-56501009D01*
X209738095Y-56501009D02*
X209642857Y-56548628D01*
X209642857Y-56548628D02*
X209261905Y-56548628D01*
X210309524Y-57024819D02*
X210500000Y-57024819D01*
X210500000Y-57024819D02*
X210595238Y-56977200D01*
X210595238Y-56977200D02*
X210642857Y-56929580D01*
X210642857Y-56929580D02*
X210738095Y-56786723D01*
X210738095Y-56786723D02*
X210785714Y-56596247D01*
X210785714Y-56596247D02*
X210785714Y-56215295D01*
X210785714Y-56215295D02*
X210738095Y-56120057D01*
X210738095Y-56120057D02*
X210690476Y-56072438D01*
X210690476Y-56072438D02*
X210595238Y-56024819D01*
X210595238Y-56024819D02*
X210404762Y-56024819D01*
X210404762Y-56024819D02*
X210309524Y-56072438D01*
X210309524Y-56072438D02*
X210261905Y-56120057D01*
X210261905Y-56120057D02*
X210214286Y-56215295D01*
X210214286Y-56215295D02*
X210214286Y-56453390D01*
X210214286Y-56453390D02*
X210261905Y-56548628D01*
X210261905Y-56548628D02*
X210309524Y-56596247D01*
X210309524Y-56596247D02*
X210404762Y-56643866D01*
X210404762Y-56643866D02*
X210595238Y-56643866D01*
X210595238Y-56643866D02*
X210690476Y-56596247D01*
X210690476Y-56596247D02*
X210738095Y-56548628D01*
X210738095Y-56548628D02*
X210785714Y-56453390D01*
X218804819Y-88738094D02*
X217804819Y-88738094D01*
X217804819Y-88738094D02*
X217804819Y-88499999D01*
X217804819Y-88499999D02*
X217852438Y-88357142D01*
X217852438Y-88357142D02*
X217947676Y-88261904D01*
X217947676Y-88261904D02*
X218042914Y-88214285D01*
X218042914Y-88214285D02*
X218233390Y-88166666D01*
X218233390Y-88166666D02*
X218376247Y-88166666D01*
X218376247Y-88166666D02*
X218566723Y-88214285D01*
X218566723Y-88214285D02*
X218661961Y-88261904D01*
X218661961Y-88261904D02*
X218757200Y-88357142D01*
X218757200Y-88357142D02*
X218804819Y-88499999D01*
X218804819Y-88499999D02*
X218804819Y-88738094D01*
X217900057Y-87785713D02*
X217852438Y-87738094D01*
X217852438Y-87738094D02*
X217804819Y-87642856D01*
X217804819Y-87642856D02*
X217804819Y-87404761D01*
X217804819Y-87404761D02*
X217852438Y-87309523D01*
X217852438Y-87309523D02*
X217900057Y-87261904D01*
X217900057Y-87261904D02*
X217995295Y-87214285D01*
X217995295Y-87214285D02*
X218090533Y-87214285D01*
X218090533Y-87214285D02*
X218233390Y-87261904D01*
X218233390Y-87261904D02*
X218804819Y-87833332D01*
X218804819Y-87833332D02*
X218804819Y-87214285D01*
X229357142Y-123024819D02*
X229023809Y-122548628D01*
X228785714Y-123024819D02*
X228785714Y-122024819D01*
X228785714Y-122024819D02*
X229166666Y-122024819D01*
X229166666Y-122024819D02*
X229261904Y-122072438D01*
X229261904Y-122072438D02*
X229309523Y-122120057D01*
X229309523Y-122120057D02*
X229357142Y-122215295D01*
X229357142Y-122215295D02*
X229357142Y-122358152D01*
X229357142Y-122358152D02*
X229309523Y-122453390D01*
X229309523Y-122453390D02*
X229261904Y-122501009D01*
X229261904Y-122501009D02*
X229166666Y-122548628D01*
X229166666Y-122548628D02*
X228785714Y-122548628D01*
X229738095Y-122120057D02*
X229785714Y-122072438D01*
X229785714Y-122072438D02*
X229880952Y-122024819D01*
X229880952Y-122024819D02*
X230119047Y-122024819D01*
X230119047Y-122024819D02*
X230214285Y-122072438D01*
X230214285Y-122072438D02*
X230261904Y-122120057D01*
X230261904Y-122120057D02*
X230309523Y-122215295D01*
X230309523Y-122215295D02*
X230309523Y-122310533D01*
X230309523Y-122310533D02*
X230261904Y-122453390D01*
X230261904Y-122453390D02*
X229690476Y-123024819D01*
X229690476Y-123024819D02*
X230309523Y-123024819D01*
X231261904Y-123024819D02*
X230690476Y-123024819D01*
X230976190Y-123024819D02*
X230976190Y-122024819D01*
X230976190Y-122024819D02*
X230880952Y-122167676D01*
X230880952Y-122167676D02*
X230785714Y-122262914D01*
X230785714Y-122262914D02*
X230690476Y-122310533D01*
D14*
%TO.C,D14*%
X187271000Y-74620000D02*
X187271000Y-72700000D01*
X187271000Y-72700000D02*
X184411000Y-72700000D01*
X184411000Y-74620000D02*
X187271000Y-74620000D01*
%TO.C,R8*%
X175758276Y-104125500D02*
X176267724Y-104125500D01*
X175758276Y-105170500D02*
X176267724Y-105170500D01*
%TO.C,D4*%
X207040000Y-55860000D02*
X208960000Y-55860000D01*
X208960000Y-55860000D02*
X208960000Y-53000000D01*
X207040000Y-53000000D02*
X207040000Y-55860000D01*
%TO.C,R19*%
X189229276Y-73137500D02*
X189738724Y-73137500D01*
X189229276Y-74182500D02*
X189738724Y-74182500D01*
%TO.C,D3*%
X173809000Y-105608000D02*
X173809000Y-103688000D01*
X173809000Y-103688000D02*
X170949000Y-103688000D01*
X170949000Y-105608000D02*
X173809000Y-105608000D01*
%TO.C,D5*%
X164420000Y-138882000D02*
X164420000Y-136962000D01*
X164420000Y-136962000D02*
X161560000Y-136962000D01*
X161560000Y-138882000D02*
X164420000Y-138882000D01*
%TO.C,R10*%
X166369276Y-137399500D02*
X166878724Y-137399500D01*
X166369276Y-138444500D02*
X166878724Y-138444500D01*
%TO.C,D16*%
X227040000Y-121885000D02*
X228960000Y-121885000D01*
X228960000Y-121885000D02*
X228960000Y-119025000D01*
X227040000Y-119025000D02*
X227040000Y-121885000D01*
%TO.C,R7*%
X221745276Y-91477500D02*
X222254724Y-91477500D01*
X221745276Y-92522500D02*
X222254724Y-92522500D01*
%TO.C,R9*%
X209745276Y-57477500D02*
X210254724Y-57477500D01*
X209745276Y-58522500D02*
X210254724Y-58522500D01*
%TO.C,D2*%
X219040000Y-89860000D02*
X220960000Y-89860000D01*
X220960000Y-89860000D02*
X220960000Y-87000000D01*
X219040000Y-87000000D02*
X219040000Y-89860000D01*
%TO.C,R21*%
X229745276Y-123477500D02*
X230254724Y-123477500D01*
X229745276Y-124522500D02*
X230254724Y-124522500D01*
%TD*%
%LPC*%
D15*
%TO.C,D14*%
X186436000Y-73660000D03*
X184386000Y-73660000D03*
%TD*%
D16*
%TO.C,R8*%
X175100500Y-104648000D03*
X176925500Y-104648000D03*
%TD*%
D17*
%TO.C,D4*%
X208000000Y-55025000D03*
X208000000Y-52975000D03*
%TD*%
D16*
%TO.C,R19*%
X188571500Y-73660000D03*
X190396500Y-73660000D03*
%TD*%
D18*
%TO.C,J4*%
X205000000Y-94110000D03*
X205000000Y-97412000D03*
X205000000Y-100714000D03*
X205000000Y-103762000D03*
%TD*%
D15*
%TO.C,D3*%
X172974000Y-104648000D03*
X170924000Y-104648000D03*
%TD*%
%TO.C,D5*%
X163585000Y-137922000D03*
X161535000Y-137922000D03*
%TD*%
D16*
%TO.C,R10*%
X165711500Y-137922000D03*
X167536500Y-137922000D03*
%TD*%
D17*
%TO.C,D16*%
X228000000Y-121050000D03*
X228000000Y-119000000D03*
%TD*%
D16*
%TO.C,R7*%
X221087500Y-92000000D03*
X222912500Y-92000000D03*
%TD*%
%TO.C,R9*%
X209087500Y-58000000D03*
X210912500Y-58000000D03*
%TD*%
D17*
%TO.C,D2*%
X220000000Y-89025000D03*
X220000000Y-86975000D03*
%TD*%
D16*
%TO.C,R21*%
X229087500Y-124000000D03*
X230912500Y-124000000D03*
%TD*%
%LPD*%
M02*
