G04 #@! TF.GenerationSoftware,KiCad,Pcbnew,7.0.8*
G04 #@! TF.CreationDate,2024-06-18T20:24:05+02:00*
G04 #@! TF.ProjectId,PCB_Christmas_Tree,5043425f-4368-4726-9973-746d61735f54,rev?*
G04 #@! TF.SameCoordinates,Original*
G04 #@! TF.FileFunction,Soldermask,Top*
G04 #@! TF.FilePolarity,Negative*
%FSLAX46Y46*%
G04 Gerber Fmt 4.6, Leading zero omitted, Abs format (unit mm)*
G04 Created by KiCad (PCBNEW 7.0.8) date 2024-06-18 20:24:05*
%MOMM*%
%LPD*%
G01*
G04 APERTURE LIST*
G04 Aperture macros list*
%AMRoundRect*
0 Rectangle with rounded corners*
0 $1 Rounding radius*
0 $2 $3 $4 $5 $6 $7 $8 $9 X,Y pos of 4 corners*
0 Add a 4 corners polygon primitive as box body*
4,1,4,$2,$3,$4,$5,$6,$7,$8,$9,$2,$3,0*
0 Add four circle primitives for the rounded corners*
1,1,$1+$1,$2,$3*
1,1,$1+$1,$4,$5*
1,1,$1+$1,$6,$7*
1,1,$1+$1,$8,$9*
0 Add four rect primitives between the rounded corners*
20,1,$1+$1,$2,$3,$4,$5,0*
20,1,$1+$1,$4,$5,$6,$7,0*
20,1,$1+$1,$6,$7,$8,$9,0*
20,1,$1+$1,$8,$9,$2,$3,0*%
G04 Aperture macros list end*
%ADD10R,1.700000X1.700000*%
%ADD11O,1.700000X1.700000*%
%ADD12RoundRect,0.237500X-0.250000X-0.237500X0.250000X-0.237500X0.250000X0.237500X-0.250000X0.237500X0*%
%ADD13C,3.000000*%
%ADD14R,5.000000X5.000000*%
%ADD15R,1.550000X1.300000*%
%ADD16RoundRect,0.250000X0.450000X-0.325000X0.450000X0.325000X-0.450000X0.325000X-0.450000X-0.325000X0*%
%ADD17RoundRect,0.250000X0.325000X0.450000X-0.325000X0.450000X-0.325000X-0.450000X0.325000X-0.450000X0*%
%ADD18RoundRect,0.250000X-0.250000X-0.750000X0.250000X-0.750000X0.250000X0.750000X-0.250000X0.750000X0*%
%ADD19R,3.000000X2.000000*%
G04 APERTURE END LIST*
D10*
X129620124Y-133498248D03*
D11*
X127080124Y-133498248D03*
X124540124Y-133498248D03*
D12*
X136182624Y-118498248D03*
X138007624Y-118498248D03*
D13*
X99739124Y-125125248D03*
X120821124Y-125125248D03*
D14*
X110280124Y-125125248D03*
D15*
X95032124Y-132511248D03*
X87082124Y-132511248D03*
X95032124Y-128011248D03*
X87082124Y-128011248D03*
D16*
X134095124Y-114523248D03*
X134095124Y-112473248D03*
D12*
X115182624Y-52498248D03*
X117007624Y-52498248D03*
D17*
X68460124Y-132928248D03*
X66410124Y-132928248D03*
D12*
X81997624Y-98638248D03*
X83822624Y-98638248D03*
D16*
X114095124Y-48523248D03*
X114095124Y-46473248D03*
D18*
X108583124Y-43139248D03*
D12*
X70840624Y-132928248D03*
X72665624Y-132928248D03*
D16*
X127095124Y-84523248D03*
X127095124Y-82473248D03*
D19*
X107595124Y-88466248D03*
X107595124Y-91768248D03*
X107595124Y-95070248D03*
X107595124Y-98118248D03*
D12*
X128095124Y-88498248D03*
X129920124Y-88498248D03*
D17*
X80135124Y-98638248D03*
X78085124Y-98638248D03*
D18*
X111504124Y-43139248D03*
D12*
X96494624Y-68412248D03*
X98319624Y-68412248D03*
D17*
X94622124Y-68412248D03*
X92572124Y-68412248D03*
M02*
