G04 #@! TF.GenerationSoftware,KiCad,Pcbnew,7.0.8*
G04 #@! TF.CreationDate,2024-06-18T20:24:05+02:00*
G04 #@! TF.ProjectId,PCB_Christmas_Tree,5043425f-4368-4726-9973-746d61735f54,rev?*
G04 #@! TF.SameCoordinates,Original*
G04 #@! TF.FileFunction,Paste,Bot*
G04 #@! TF.FilePolarity,Positive*
%FSLAX46Y46*%
G04 Gerber Fmt 4.6, Leading zero omitted, Abs format (unit mm)*
G04 Created by KiCad (PCBNEW 7.0.8) date 2024-06-18 20:24:05*
%MOMM*%
%LPD*%
G01*
G04 APERTURE LIST*
G04 Aperture macros list*
%AMRoundRect*
0 Rectangle with rounded corners*
0 $1 Rounding radius*
0 $2 $3 $4 $5 $6 $7 $8 $9 X,Y pos of 4 corners*
0 Add a 4 corners polygon primitive as box body*
4,1,4,$2,$3,$4,$5,$6,$7,$8,$9,$2,$3,0*
0 Add four circle primitives for the rounded corners*
1,1,$1+$1,$2,$3*
1,1,$1+$1,$4,$5*
1,1,$1+$1,$6,$7*
1,1,$1+$1,$8,$9*
0 Add four rect primitives between the rounded corners*
20,1,$1+$1,$2,$3,$4,$5,0*
20,1,$1+$1,$4,$5,$6,$7,0*
20,1,$1+$1,$6,$7,$8,$9,0*
20,1,$1+$1,$8,$9,$2,$3,0*%
G04 Aperture macros list end*
%ADD10RoundRect,0.250000X0.450000X-0.325000X0.450000X0.325000X-0.450000X0.325000X-0.450000X-0.325000X0*%
%ADD11RoundRect,0.237500X-0.250000X-0.237500X0.250000X-0.237500X0.250000X0.237500X-0.250000X0.237500X0*%
%ADD12RoundRect,0.250000X0.250000X0.750000X-0.250000X0.750000X-0.250000X-0.750000X0.250000X-0.750000X0*%
%ADD13RoundRect,0.237500X0.250000X0.237500X-0.250000X0.237500X-0.250000X-0.237500X0.250000X-0.237500X0*%
%ADD14RoundRect,0.150000X0.587500X0.150000X-0.587500X0.150000X-0.587500X-0.150000X0.587500X-0.150000X0*%
%ADD15R,3.000000X2.000000*%
%ADD16RoundRect,0.250000X-0.325000X-0.450000X0.325000X-0.450000X0.325000X0.450000X-0.325000X0.450000X0*%
%ADD17RoundRect,0.237500X0.237500X-0.250000X0.237500X0.250000X-0.237500X0.250000X-0.237500X-0.250000X0*%
%ADD18R,0.450000X1.500000*%
%ADD19RoundRect,0.237500X-0.237500X0.250000X-0.237500X-0.250000X0.237500X-0.250000X0.237500X0.250000X0*%
%ADD20RoundRect,0.150000X-0.825000X-0.150000X0.825000X-0.150000X0.825000X0.150000X-0.825000X0.150000X0*%
G04 APERTURE END LIST*
D10*
X86095124Y-115523248D03*
X86095124Y-113473248D03*
D11*
X112346124Y-127848248D03*
X114171124Y-127848248D03*
D12*
X111504124Y-43139248D03*
D13*
X105007624Y-52498248D03*
X103182624Y-52498248D03*
X148611624Y-132674248D03*
X146786624Y-132674248D03*
D14*
X103678624Y-129692248D03*
X103678624Y-131592248D03*
X101803624Y-130642248D03*
D15*
X112495124Y-88472248D03*
X112495124Y-91774248D03*
X112495124Y-95076248D03*
X112495124Y-98124248D03*
D13*
X138705624Y-98638248D03*
X136880624Y-98638248D03*
D11*
X101828624Y-133690248D03*
X103653624Y-133690248D03*
D16*
X150738124Y-132674248D03*
X152788124Y-132674248D03*
D10*
X94095124Y-84523248D03*
X94095124Y-82473248D03*
X106095124Y-48498248D03*
X106095124Y-46448248D03*
D17*
X116711124Y-132443748D03*
X116711124Y-130618748D03*
D13*
X93007624Y-88498248D03*
X91182624Y-88498248D03*
D16*
X140832124Y-98638248D03*
X142882124Y-98638248D03*
D14*
X98423124Y-131912248D03*
X98423124Y-133812248D03*
X96548124Y-132862248D03*
D13*
X85007624Y-119498248D03*
X83182624Y-119498248D03*
D18*
X104915124Y-127400248D03*
X103615124Y-127400248D03*
X104265124Y-124740248D03*
X117427124Y-125700748D03*
X116127124Y-125700748D03*
X116777124Y-123040748D03*
X108791124Y-125192748D03*
X107491124Y-125192748D03*
X108141124Y-122532748D03*
X113087124Y-125114248D03*
X111787124Y-125114248D03*
X112437124Y-122454248D03*
D11*
X107670624Y-127848248D03*
X109495624Y-127848248D03*
D13*
X123456624Y-68412248D03*
X121631624Y-68412248D03*
D16*
X125338124Y-68412248D03*
X127388124Y-68412248D03*
D19*
X96899124Y-127951748D03*
X96899124Y-129776748D03*
D12*
X108583124Y-43139248D03*
D20*
X107864124Y-134037248D03*
X107864124Y-132767248D03*
X107864124Y-131497248D03*
X107864124Y-130227248D03*
X112814124Y-130227248D03*
X112814124Y-131497248D03*
X112814124Y-132767248D03*
X112814124Y-134037248D03*
M02*
