G04 #@! TF.GenerationSoftware,KiCad,Pcbnew,7.0.8*
G04 #@! TF.CreationDate,2024-06-18T20:24:05+02:00*
G04 #@! TF.ProjectId,PCB_Christmas_Tree,5043425f-4368-4726-9973-746d61735f54,rev?*
G04 #@! TF.SameCoordinates,Original*
G04 #@! TF.FileFunction,Copper,L1,Top*
G04 #@! TF.FilePolarity,Positive*
%FSLAX46Y46*%
G04 Gerber Fmt 4.6, Leading zero omitted, Abs format (unit mm)*
G04 Created by KiCad (PCBNEW 7.0.8) date 2024-06-18 20:24:05*
%MOMM*%
%LPD*%
G01*
G04 APERTURE LIST*
G04 Aperture macros list*
%AMRoundRect*
0 Rectangle with rounded corners*
0 $1 Rounding radius*
0 $2 $3 $4 $5 $6 $7 $8 $9 X,Y pos of 4 corners*
0 Add a 4 corners polygon primitive as box body*
4,1,4,$2,$3,$4,$5,$6,$7,$8,$9,$2,$3,0*
0 Add four circle primitives for the rounded corners*
1,1,$1+$1,$2,$3*
1,1,$1+$1,$4,$5*
1,1,$1+$1,$6,$7*
1,1,$1+$1,$8,$9*
0 Add four rect primitives between the rounded corners*
20,1,$1+$1,$2,$3,$4,$5,0*
20,1,$1+$1,$4,$5,$6,$7,0*
20,1,$1+$1,$6,$7,$8,$9,0*
20,1,$1+$1,$8,$9,$2,$3,0*%
G04 Aperture macros list end*
G04 #@! TA.AperFunction,ComponentPad*
%ADD10R,1.700000X1.700000*%
G04 #@! TD*
G04 #@! TA.AperFunction,ComponentPad*
%ADD11O,1.700000X1.700000*%
G04 #@! TD*
G04 #@! TA.AperFunction,SMDPad,CuDef*
%ADD12RoundRect,0.237500X-0.250000X-0.237500X0.250000X-0.237500X0.250000X0.237500X-0.250000X0.237500X0*%
G04 #@! TD*
G04 #@! TA.AperFunction,ComponentPad*
%ADD13C,3.000000*%
G04 #@! TD*
G04 #@! TA.AperFunction,SMDPad,CuDef*
%ADD14R,5.000000X5.000000*%
G04 #@! TD*
G04 #@! TA.AperFunction,SMDPad,CuDef*
%ADD15R,1.550000X1.300000*%
G04 #@! TD*
G04 #@! TA.AperFunction,SMDPad,CuDef*
%ADD16RoundRect,0.250000X0.450000X-0.325000X0.450000X0.325000X-0.450000X0.325000X-0.450000X-0.325000X0*%
G04 #@! TD*
G04 #@! TA.AperFunction,SMDPad,CuDef*
%ADD17RoundRect,0.250000X0.325000X0.450000X-0.325000X0.450000X-0.325000X-0.450000X0.325000X-0.450000X0*%
G04 #@! TD*
G04 #@! TA.AperFunction,SMDPad,CuDef*
%ADD18RoundRect,0.250000X-0.250000X-0.750000X0.250000X-0.750000X0.250000X0.750000X-0.250000X0.750000X0*%
G04 #@! TD*
G04 #@! TA.AperFunction,SMDPad,CuDef*
%ADD19R,3.000000X2.000000*%
G04 #@! TD*
G04 #@! TA.AperFunction,ViaPad*
%ADD20C,0.800000*%
G04 #@! TD*
G04 #@! TA.AperFunction,Conductor*
%ADD21C,0.250000*%
G04 #@! TD*
G04 #@! TA.AperFunction,Conductor*
%ADD22C,0.600000*%
G04 #@! TD*
G04 #@! TA.AperFunction,Conductor*
%ADD23C,1.500000*%
G04 #@! TD*
G04 #@! TA.AperFunction,Conductor*
%ADD24C,1.000000*%
G04 #@! TD*
G04 APERTURE END LIST*
D10*
X129620124Y-133498248D03*
D11*
X127080124Y-133498248D03*
X124540124Y-133498248D03*
D12*
X136182624Y-118498248D03*
X138007624Y-118498248D03*
D13*
X99739124Y-125125248D03*
X120821124Y-125125248D03*
D14*
X110280124Y-125125248D03*
D15*
X95032124Y-132511248D03*
X87082124Y-132511248D03*
X95032124Y-128011248D03*
X87082124Y-128011248D03*
D16*
X134095124Y-114523248D03*
X134095124Y-112473248D03*
D12*
X115182624Y-52498248D03*
X117007624Y-52498248D03*
D17*
X68460124Y-132928248D03*
X66410124Y-132928248D03*
D12*
X81997624Y-98638248D03*
X83822624Y-98638248D03*
D16*
X114095124Y-48523248D03*
X114095124Y-46473248D03*
D18*
X108583124Y-43139248D03*
D12*
X70840624Y-132928248D03*
X72665624Y-132928248D03*
D16*
X127095124Y-84523248D03*
X127095124Y-82473248D03*
D19*
X107595124Y-88466248D03*
X107595124Y-91768248D03*
X107595124Y-95070248D03*
X107595124Y-98118248D03*
D12*
X128095124Y-88498248D03*
X129920124Y-88498248D03*
D17*
X80135124Y-98638248D03*
X78085124Y-98638248D03*
D18*
X111504124Y-43139248D03*
D12*
X96494624Y-68412248D03*
X98319624Y-68412248D03*
D17*
X94622124Y-68412248D03*
X92572124Y-68412248D03*
D20*
X114069524Y-123174648D03*
X146733924Y-134909448D03*
X140536324Y-118602648D03*
X106043124Y-127086248D03*
X138097924Y-116164248D03*
X114526724Y-125714648D03*
X106093924Y-123022248D03*
X105484324Y-134350648D03*
X95070324Y-130235848D03*
X112189924Y-83753848D03*
X111986724Y-102295848D03*
X95019524Y-134706248D03*
X83843524Y-100670248D03*
X83132324Y-117535848D03*
X119098724Y-129829448D03*
X105941524Y-118653448D03*
X84199124Y-132420248D03*
X92733524Y-132521848D03*
X136878724Y-100873448D03*
X118235124Y-120025048D03*
X103757124Y-120482248D03*
X136929524Y-96555448D03*
X111326324Y-118501048D03*
X103147524Y-54340648D03*
X117015924Y-54340648D03*
X115136324Y-86547848D03*
X113307524Y-100568648D03*
X72718324Y-134909448D03*
X81151124Y-119466248D03*
X119962324Y-68412248D03*
X108024324Y-102346648D03*
X91463524Y-130286648D03*
X87094724Y-130235848D03*
X95222724Y-126019448D03*
X121029124Y-128305448D03*
X122603924Y-129829448D03*
X83792724Y-96707848D03*
X90244324Y-132420248D03*
X118539924Y-121650648D03*
X113155124Y-54188248D03*
X113155124Y-56728248D03*
X113155124Y-77048248D03*
X106805124Y-74508248D03*
X113155124Y-61808248D03*
X113155124Y-71968248D03*
X113155124Y-59268248D03*
X106805124Y-71968248D03*
X106805124Y-77048248D03*
X113155124Y-64348248D03*
X106805124Y-79588248D03*
X106805124Y-69428248D03*
X113155124Y-74508248D03*
X106805124Y-82128248D03*
X113155124Y-69428248D03*
X113155124Y-66888248D03*
X113155124Y-79588248D03*
X106805124Y-64348248D03*
X106805124Y-56728248D03*
X106805124Y-66888248D03*
X106805124Y-61808248D03*
X106805124Y-59268248D03*
X106805124Y-54188248D03*
X115060124Y-93431248D03*
X83183124Y-121498248D03*
X88771124Y-88605248D03*
X96949924Y-125460648D03*
X144460124Y-132934248D03*
X111885124Y-86141448D03*
X100302724Y-134299848D03*
X108075124Y-98638248D03*
X112139124Y-97622248D03*
X114933124Y-134071248D03*
X118539924Y-123479448D03*
X112139124Y-92288248D03*
X85773924Y-98638248D03*
X108176724Y-100568648D03*
X113409124Y-91272248D03*
X121664124Y-133563248D03*
X113409124Y-97622248D03*
X102690324Y-123327048D03*
X74547124Y-132928248D03*
X100099524Y-68310648D03*
X116660324Y-91774248D03*
X108075124Y-91272248D03*
X106805124Y-91272248D03*
X104061924Y-100721048D03*
X107973524Y-86039848D03*
X119124124Y-133563248D03*
X112139124Y-98638248D03*
X108075124Y-97622248D03*
X106805124Y-92288248D03*
X114475924Y-118196248D03*
X86942324Y-134757048D03*
X113409124Y-98638248D03*
X104061924Y-91768248D03*
X112139124Y-91272248D03*
X114933124Y-90256248D03*
X106805124Y-97622248D03*
X111885124Y-100568648D03*
X113409124Y-92288248D03*
X115758624Y-99844748D03*
X138047124Y-120990248D03*
X106805124Y-98638248D03*
X108075124Y-92288248D03*
X106754324Y-100619448D03*
X109802324Y-118501048D03*
X134948324Y-98587448D03*
X116761924Y-95076248D03*
X108075124Y-118704248D03*
X108075124Y-88986248D03*
X112139124Y-88986248D03*
X108075124Y-87970248D03*
X112139124Y-87970248D03*
X106805124Y-88986248D03*
X103045924Y-101787848D03*
X113409124Y-88986248D03*
X105179524Y-95070248D03*
X106805124Y-87970248D03*
X108075124Y-94574248D03*
X113409124Y-95590248D03*
X115187124Y-88472248D03*
X106805124Y-94574248D03*
X112901124Y-121117248D03*
X108075124Y-95590248D03*
X112139124Y-95590248D03*
X116838124Y-112473248D03*
X112139124Y-94574248D03*
X99820124Y-130515248D03*
X104671524Y-88466248D03*
X113409124Y-94574248D03*
X106805124Y-95590248D03*
X113409124Y-87970248D03*
X108075124Y-120990248D03*
D21*
X115847524Y-89132648D02*
X115187124Y-88472248D01*
X116838124Y-112473248D02*
X116838124Y-99146248D01*
X115847524Y-98155648D02*
X115847524Y-89132648D01*
X116838124Y-99146248D02*
X115847524Y-98155648D01*
X111427924Y-105750248D02*
X115758624Y-101419548D01*
X115758624Y-101419548D02*
X115758624Y-99844748D01*
X108710124Y-105750248D02*
X111427924Y-105750248D01*
X104061924Y-101102048D02*
X108710124Y-105750248D01*
X104061924Y-100721048D02*
X104061924Y-101102048D01*
X103045924Y-101787848D02*
X112901124Y-111643048D01*
X112901124Y-111643048D02*
X112901124Y-112473248D01*
X106055124Y-88466248D02*
X106551124Y-87970248D01*
X106551124Y-87970248D02*
X106805124Y-87970248D01*
X104671524Y-88466248D02*
X106055124Y-88466248D01*
X104061924Y-91768248D02*
X107595124Y-91768248D01*
X80541524Y-130896248D02*
X98964524Y-112473248D01*
X66410124Y-132928248D02*
X66410124Y-131921248D01*
X66410124Y-131921248D02*
X67435124Y-130896248D01*
X67435124Y-130896248D02*
X80541524Y-130896248D01*
D22*
X115182624Y-51262748D02*
X115182624Y-52498248D01*
X114095124Y-50175248D02*
X115182624Y-51262748D01*
X114095124Y-48523248D02*
X114095124Y-50175248D01*
D21*
X103553924Y-75067048D02*
X99185124Y-70698248D01*
X103553924Y-91323048D02*
X103553924Y-75067048D01*
X92572124Y-69419248D02*
X92572124Y-68412248D01*
X103999124Y-91768248D02*
X103553924Y-91323048D01*
X104061924Y-91768248D02*
X103999124Y-91768248D01*
X93851124Y-70698248D02*
X92572124Y-69419248D01*
X99185124Y-70698248D02*
X93851124Y-70698248D01*
X108024324Y-112473248D02*
X112901124Y-112473248D01*
X98964524Y-112473248D02*
X108024324Y-112473248D01*
X120887324Y-82473248D02*
X127095124Y-82473248D01*
X117473124Y-94365048D02*
X117473124Y-85887448D01*
X116761924Y-95076248D02*
X117473124Y-94365048D01*
X117473124Y-85887448D02*
X120887324Y-82473248D01*
X113250124Y-46473248D02*
X114095124Y-46473248D01*
X116660324Y-91774248D02*
X116660324Y-85760448D01*
X111885124Y-47838248D02*
X113250124Y-46473248D01*
X116660324Y-85760448D02*
X111885124Y-80985248D01*
X111885124Y-80985248D02*
X111885124Y-47838248D01*
X134095124Y-112473248D02*
X116838124Y-112473248D01*
X114425124Y-112473248D02*
X112901124Y-112473248D01*
X116838124Y-112473248D02*
X114425124Y-112473248D01*
D22*
X135174124Y-118498248D02*
X136182624Y-118498248D01*
X134095124Y-114523248D02*
X134095124Y-117419248D01*
X134095124Y-117419248D02*
X135174124Y-118498248D01*
D21*
X112901124Y-121117248D02*
X112901124Y-112473248D01*
X108075124Y-118704248D02*
X108075124Y-120990248D01*
D22*
X128095124Y-87035248D02*
X128095124Y-88498248D01*
X127095124Y-86035248D02*
X128095124Y-87035248D01*
X127095124Y-84523248D02*
X127095124Y-86035248D01*
D21*
X78085124Y-96878248D02*
X78085124Y-98638248D01*
X79893124Y-95070248D02*
X78085124Y-96878248D01*
X105179524Y-95070248D02*
X79893124Y-95070248D01*
X106309124Y-95070248D02*
X106805124Y-94574248D01*
X105179524Y-95070248D02*
X106309124Y-95070248D01*
D23*
X104494124Y-129880248D02*
X99739124Y-125125248D01*
X116066124Y-129880248D02*
X104494124Y-129880248D01*
X120821124Y-125125248D02*
X116066124Y-129880248D01*
D22*
X70840624Y-132928248D02*
X68460124Y-132928248D01*
D21*
X80135124Y-98638248D02*
X81997624Y-98638248D01*
X106805124Y-91272248D02*
X107301124Y-91768248D01*
X107301124Y-91768248D02*
X107595124Y-91768248D01*
X94622124Y-68412248D02*
X96494624Y-68412248D01*
X106309124Y-91768248D02*
X106805124Y-91272248D01*
X107301124Y-95070248D02*
X107595124Y-95070248D01*
X106805124Y-94574248D02*
X107301124Y-95070248D01*
X107047124Y-88466248D02*
X108075124Y-88986248D01*
X107567124Y-88986248D02*
X107567124Y-87970248D01*
X107567124Y-87970248D02*
X108075124Y-87970248D01*
X106551124Y-87970248D02*
X106551124Y-87970248D01*
D24*
X87082124Y-128011248D02*
X95032124Y-128011248D01*
D21*
X106805124Y-87970248D02*
X106805124Y-88224248D01*
D22*
X99820124Y-130515248D02*
X97316124Y-128011248D01*
X97316124Y-128011248D02*
X95032124Y-128011248D01*
D21*
X108075124Y-88986248D02*
X107567124Y-88986248D01*
X108075124Y-87970248D02*
X107595124Y-88466248D01*
X106805124Y-88224248D02*
X107047124Y-88466248D01*
G04 #@! TA.AperFunction,Conductor*
G36*
X111150827Y-38001105D02*
G01*
X111171371Y-38023943D01*
X121932303Y-53473247D01*
X134908432Y-72102876D01*
X134930596Y-72169137D01*
X134913418Y-72236862D01*
X134862352Y-72284549D01*
X134806682Y-72297748D01*
X122546076Y-72297748D01*
X122545130Y-72297706D01*
X122545026Y-72297748D01*
X122545025Y-72297748D01*
X122544945Y-72297780D01*
X122544758Y-72297849D01*
X122544757Y-72297849D01*
X122544745Y-72297854D01*
X122544669Y-72298039D01*
X122544577Y-72298235D01*
X122544662Y-72298441D01*
X122544727Y-72298618D01*
X122545422Y-72299313D01*
X137749794Y-88885900D01*
X149749150Y-101976107D01*
X149853514Y-102089958D01*
X149884304Y-102152678D01*
X149876297Y-102222087D01*
X149832035Y-102276149D01*
X149765572Y-102297700D01*
X149762107Y-102297748D01*
X130047772Y-102297748D01*
X130045146Y-102297664D01*
X130044709Y-102297828D01*
X130044531Y-102298221D01*
X130044691Y-102298640D01*
X130046494Y-102300557D01*
X159862214Y-136091707D01*
X159891808Y-136154999D01*
X159882486Y-136224244D01*
X159837208Y-136277457D01*
X159770348Y-136297743D01*
X159769234Y-136297748D01*
X60321013Y-136297748D01*
X60253974Y-136278063D01*
X60208219Y-136225259D01*
X60198275Y-136156101D01*
X60227300Y-136092545D01*
X60228033Y-136091707D01*
X62578143Y-133428249D01*
X65334624Y-133428249D01*
X65334625Y-133428267D01*
X65345124Y-133531044D01*
X65345125Y-133531047D01*
X65400309Y-133697579D01*
X65400311Y-133697584D01*
X65419533Y-133728748D01*
X65492412Y-133846904D01*
X65616468Y-133970960D01*
X65765790Y-134063062D01*
X65932327Y-134118247D01*
X66035115Y-134128748D01*
X66785132Y-134128747D01*
X66785140Y-134128746D01*
X66785143Y-134128746D01*
X66841426Y-134122996D01*
X66887921Y-134118247D01*
X67054458Y-134063062D01*
X67203780Y-133970960D01*
X67327836Y-133846904D01*
X67329585Y-133844067D01*
X67331293Y-133842531D01*
X67332317Y-133841237D01*
X67332538Y-133841411D01*
X67381530Y-133797344D01*
X67450492Y-133786120D01*
X67514575Y-133813961D01*
X67540661Y-133844065D01*
X67542412Y-133846904D01*
X67666468Y-133970960D01*
X67815790Y-134063062D01*
X67982327Y-134118247D01*
X68085115Y-134128748D01*
X68835132Y-134128747D01*
X68835140Y-134128746D01*
X68835143Y-134128746D01*
X68891426Y-134122996D01*
X68937921Y-134118247D01*
X69104458Y-134063062D01*
X69253780Y-133970960D01*
X69377836Y-133846904D01*
X69414383Y-133787650D01*
X69466331Y-133740927D01*
X69519922Y-133728748D01*
X70062442Y-133728748D01*
X70127539Y-133747209D01*
X70129772Y-133748586D01*
X70129774Y-133748588D01*
X70276608Y-133839156D01*
X70440371Y-133893422D01*
X70541447Y-133903748D01*
X71139800Y-133903747D01*
X71139808Y-133903746D01*
X71139811Y-133903746D01*
X71195154Y-133898092D01*
X71240877Y-133893422D01*
X71404640Y-133839156D01*
X71551474Y-133748588D01*
X71665799Y-133634262D01*
X71727118Y-133600780D01*
X71796810Y-133605764D01*
X71841158Y-133634265D01*
X71955085Y-133748192D01*
X71955089Y-133748195D01*
X72101812Y-133838696D01*
X72101823Y-133838701D01*
X72265471Y-133892928D01*
X72366475Y-133903247D01*
X72415623Y-133903246D01*
X72415624Y-133903246D01*
X72415624Y-133178248D01*
X72915624Y-133178248D01*
X72915624Y-133903247D01*
X72964764Y-133903247D01*
X72964778Y-133903246D01*
X73065776Y-133892928D01*
X73229424Y-133838701D01*
X73229435Y-133838696D01*
X73376072Y-133748248D01*
X123209488Y-133748248D01*
X123266691Y-133961734D01*
X123266694Y-133961740D01*
X123366523Y-134175826D01*
X123502018Y-134369330D01*
X123669041Y-134536353D01*
X123862545Y-134671848D01*
X124076631Y-134771677D01*
X124076640Y-134771681D01*
X124290124Y-134828882D01*
X124290124Y-133933749D01*
X124397809Y-133982928D01*
X124504361Y-133998248D01*
X124575887Y-133998248D01*
X124682439Y-133982928D01*
X124790124Y-133933749D01*
X124790124Y-134828881D01*
X125003607Y-134771681D01*
X125003616Y-134771677D01*
X125217702Y-134671848D01*
X125411206Y-134536353D01*
X125578229Y-134369330D01*
X125708243Y-134183653D01*
X125762820Y-134140029D01*
X125832319Y-134132836D01*
X125894673Y-134164358D01*
X125911393Y-134183653D01*
X126041629Y-134369649D01*
X126208723Y-134536743D01*
X126305508Y-134604513D01*
X126402289Y-134672280D01*
X126402291Y-134672281D01*
X126402294Y-134672283D01*
X126616461Y-134772151D01*
X126844716Y-134833311D01*
X127021158Y-134848748D01*
X127080123Y-134853907D01*
X127080124Y-134853907D01*
X127080125Y-134853907D01*
X127139090Y-134848748D01*
X127315532Y-134833311D01*
X127543787Y-134772151D01*
X127757954Y-134672283D01*
X127951525Y-134536743D01*
X128073453Y-134414814D01*
X128134772Y-134381332D01*
X128204464Y-134386316D01*
X128260398Y-134428187D01*
X128277313Y-134459165D01*
X128326326Y-134590576D01*
X128326330Y-134590583D01*
X128412576Y-134705792D01*
X128412579Y-134705795D01*
X128527788Y-134792041D01*
X128527795Y-134792045D01*
X128662641Y-134842339D01*
X128662640Y-134842339D01*
X128669568Y-134843083D01*
X128722251Y-134848748D01*
X130517996Y-134848747D01*
X130577607Y-134842339D01*
X130712455Y-134792044D01*
X130827670Y-134705794D01*
X130913920Y-134590579D01*
X130964215Y-134455731D01*
X130970624Y-134396121D01*
X130970623Y-132600376D01*
X130964215Y-132540765D01*
X130964114Y-132540495D01*
X130913921Y-132405919D01*
X130913917Y-132405912D01*
X130827671Y-132290703D01*
X130827668Y-132290700D01*
X130712459Y-132204454D01*
X130712452Y-132204450D01*
X130577606Y-132154156D01*
X130577607Y-132154156D01*
X130518007Y-132147749D01*
X130518005Y-132147748D01*
X130517997Y-132147748D01*
X130517988Y-132147748D01*
X128722253Y-132147748D01*
X128722247Y-132147749D01*
X128662640Y-132154156D01*
X128527795Y-132204450D01*
X128527788Y-132204454D01*
X128412579Y-132290700D01*
X128412576Y-132290703D01*
X128326330Y-132405912D01*
X128326327Y-132405917D01*
X128277313Y-132537331D01*
X128235441Y-132593264D01*
X128169977Y-132617681D01*
X128101704Y-132602829D01*
X128073450Y-132581678D01*
X127951526Y-132459754D01*
X127951519Y-132459749D01*
X127757958Y-132324215D01*
X127757954Y-132324213D01*
X127757952Y-132324212D01*
X127543787Y-132224345D01*
X127543783Y-132224344D01*
X127543779Y-132224342D01*
X127315537Y-132163186D01*
X127315527Y-132163184D01*
X127080125Y-132142589D01*
X127080123Y-132142589D01*
X126844720Y-132163184D01*
X126844710Y-132163186D01*
X126616468Y-132224342D01*
X126616459Y-132224346D01*
X126402295Y-132324212D01*
X126402293Y-132324213D01*
X126208721Y-132459753D01*
X126041632Y-132626842D01*
X125911393Y-132812843D01*
X125856816Y-132856467D01*
X125787317Y-132863660D01*
X125724963Y-132832138D01*
X125708243Y-132812842D01*
X125578237Y-132627174D01*
X125578232Y-132627168D01*
X125411206Y-132460142D01*
X125217702Y-132324647D01*
X125003616Y-132224818D01*
X125003610Y-132224815D01*
X124790124Y-132167612D01*
X124790124Y-133062746D01*
X124682439Y-133013568D01*
X124575887Y-132998248D01*
X124504361Y-132998248D01*
X124397809Y-133013568D01*
X124290124Y-133062746D01*
X124290124Y-132167612D01*
X124290123Y-132167612D01*
X124076637Y-132224815D01*
X124076631Y-132224818D01*
X123862546Y-132324647D01*
X123862544Y-132324648D01*
X123669050Y-132460134D01*
X123669044Y-132460139D01*
X123502015Y-132627168D01*
X123502010Y-132627174D01*
X123366524Y-132820668D01*
X123366523Y-132820670D01*
X123266694Y-133034755D01*
X123266691Y-133034761D01*
X123209488Y-133248247D01*
X123209488Y-133248248D01*
X124106438Y-133248248D01*
X124080631Y-133288404D01*
X124040124Y-133426359D01*
X124040124Y-133570137D01*
X124080631Y-133708092D01*
X124106438Y-133748248D01*
X123209488Y-133748248D01*
X73376072Y-133748248D01*
X73376158Y-133748195D01*
X73376162Y-133748192D01*
X73498068Y-133626286D01*
X73498071Y-133626282D01*
X73588572Y-133479559D01*
X73588577Y-133479548D01*
X73642804Y-133315900D01*
X73653123Y-133214902D01*
X73653124Y-133214889D01*
X73653124Y-133178248D01*
X72915624Y-133178248D01*
X72415624Y-133178248D01*
X72415624Y-132761248D01*
X85807124Y-132761248D01*
X85807124Y-133209092D01*
X85813525Y-133268620D01*
X85813527Y-133268627D01*
X85863769Y-133403334D01*
X85863773Y-133403341D01*
X85949933Y-133518435D01*
X85949936Y-133518438D01*
X86065030Y-133604598D01*
X86065037Y-133604602D01*
X86199744Y-133654844D01*
X86199751Y-133654846D01*
X86259279Y-133661247D01*
X86259296Y-133661248D01*
X86832124Y-133661248D01*
X86832124Y-132761248D01*
X87332124Y-132761248D01*
X87332124Y-133661248D01*
X87904952Y-133661248D01*
X87904968Y-133661247D01*
X87964496Y-133654846D01*
X87964503Y-133654844D01*
X88099210Y-133604602D01*
X88099217Y-133604598D01*
X88214311Y-133518438D01*
X88214314Y-133518435D01*
X88300474Y-133403341D01*
X88300478Y-133403334D01*
X88350720Y-133268627D01*
X88350722Y-133268620D01*
X88357123Y-133209092D01*
X88357124Y-133209075D01*
X88357124Y-132761248D01*
X93757124Y-132761248D01*
X93757124Y-133209092D01*
X93763525Y-133268620D01*
X93763527Y-133268627D01*
X93813769Y-133403334D01*
X93813773Y-133403341D01*
X93899933Y-133518435D01*
X93899936Y-133518438D01*
X94015030Y-133604598D01*
X94015037Y-133604602D01*
X94149744Y-133654844D01*
X94149751Y-133654846D01*
X94209279Y-133661247D01*
X94209296Y-133661248D01*
X94782124Y-133661248D01*
X94782124Y-132761248D01*
X95282124Y-132761248D01*
X95282124Y-133661248D01*
X95854952Y-133661248D01*
X95854968Y-133661247D01*
X95914496Y-133654846D01*
X95914503Y-133654844D01*
X96049210Y-133604602D01*
X96049217Y-133604598D01*
X96164311Y-133518438D01*
X96164314Y-133518435D01*
X96250474Y-133403341D01*
X96250478Y-133403334D01*
X96300720Y-133268627D01*
X96300722Y-133268620D01*
X96307123Y-133209092D01*
X96307124Y-133209075D01*
X96307124Y-132761248D01*
X95282124Y-132761248D01*
X94782124Y-132761248D01*
X93757124Y-132761248D01*
X88357124Y-132761248D01*
X87332124Y-132761248D01*
X86832124Y-132761248D01*
X85807124Y-132761248D01*
X72415624Y-132761248D01*
X72415624Y-131953248D01*
X72915624Y-131953248D01*
X72915624Y-132678248D01*
X73653123Y-132678248D01*
X73653123Y-132641608D01*
X73653122Y-132641593D01*
X73642804Y-132540595D01*
X73588577Y-132376947D01*
X73588572Y-132376936D01*
X73517214Y-132261248D01*
X85807124Y-132261248D01*
X86832124Y-132261248D01*
X86832124Y-131361248D01*
X87332124Y-131361248D01*
X87332124Y-132261248D01*
X88357124Y-132261248D01*
X93757124Y-132261248D01*
X94782124Y-132261248D01*
X94782124Y-131361248D01*
X95282124Y-131361248D01*
X95282124Y-132261248D01*
X96307124Y-132261248D01*
X96307124Y-131813420D01*
X96307123Y-131813403D01*
X96300722Y-131753875D01*
X96300720Y-131753868D01*
X96250478Y-131619161D01*
X96250474Y-131619154D01*
X96164314Y-131504060D01*
X96164311Y-131504057D01*
X96049217Y-131417897D01*
X96049210Y-131417893D01*
X95914503Y-131367651D01*
X95914496Y-131367649D01*
X95854968Y-131361248D01*
X95282124Y-131361248D01*
X94782124Y-131361248D01*
X94209279Y-131361248D01*
X94149751Y-131367649D01*
X94149744Y-131367651D01*
X94015037Y-131417893D01*
X94015030Y-131417897D01*
X93899936Y-131504057D01*
X93899933Y-131504060D01*
X93813773Y-131619154D01*
X93813769Y-131619161D01*
X93763527Y-131753868D01*
X93763525Y-131753875D01*
X93757124Y-131813403D01*
X93757124Y-132261248D01*
X88357124Y-132261248D01*
X88357124Y-131813420D01*
X88357123Y-131813403D01*
X88350722Y-131753875D01*
X88350720Y-131753868D01*
X88300478Y-131619161D01*
X88300474Y-131619154D01*
X88214314Y-131504060D01*
X88214311Y-131504057D01*
X88099217Y-131417897D01*
X88099210Y-131417893D01*
X87964503Y-131367651D01*
X87964496Y-131367649D01*
X87904968Y-131361248D01*
X87332124Y-131361248D01*
X86832124Y-131361248D01*
X86259279Y-131361248D01*
X86199751Y-131367649D01*
X86199744Y-131367651D01*
X86065037Y-131417893D01*
X86065030Y-131417897D01*
X85949936Y-131504057D01*
X85949933Y-131504060D01*
X85863773Y-131619154D01*
X85863769Y-131619161D01*
X85813527Y-131753868D01*
X85813525Y-131753875D01*
X85807124Y-131813403D01*
X85807124Y-132261248D01*
X73517214Y-132261248D01*
X73498071Y-132230213D01*
X73498068Y-132230209D01*
X73376162Y-132108303D01*
X73376158Y-132108300D01*
X73229435Y-132017799D01*
X73229424Y-132017794D01*
X73065776Y-131963567D01*
X72964778Y-131953248D01*
X72915624Y-131953248D01*
X72415624Y-131953248D01*
X72415623Y-131953247D01*
X72366485Y-131953248D01*
X72366467Y-131953249D01*
X72265471Y-131963567D01*
X72101823Y-132017794D01*
X72101812Y-132017799D01*
X71955089Y-132108300D01*
X71841158Y-132222231D01*
X71779835Y-132255715D01*
X71710143Y-132250731D01*
X71665796Y-132222230D01*
X71551475Y-132107909D01*
X71551474Y-132107908D01*
X71460253Y-132051643D01*
X71404642Y-132017341D01*
X71404637Y-132017339D01*
X71381252Y-132009590D01*
X71240877Y-131963074D01*
X71240875Y-131963073D01*
X71139802Y-131952748D01*
X70541454Y-131952748D01*
X70541436Y-131952749D01*
X70440371Y-131963073D01*
X70276608Y-132017340D01*
X70276605Y-132017341D01*
X70193105Y-132068845D01*
X70129774Y-132107908D01*
X70129772Y-132107909D01*
X70127539Y-132109287D01*
X70062442Y-132127748D01*
X69519922Y-132127748D01*
X69452883Y-132108063D01*
X69414383Y-132068845D01*
X69377836Y-132009592D01*
X69253780Y-131885536D01*
X69112989Y-131798696D01*
X69104460Y-131793435D01*
X69104455Y-131793433D01*
X69071443Y-131782494D01*
X69013981Y-131763453D01*
X68956538Y-131723681D01*
X68929715Y-131659166D01*
X68942030Y-131590390D01*
X68989573Y-131539190D01*
X69052987Y-131521748D01*
X80458781Y-131521748D01*
X80474401Y-131523472D01*
X80474428Y-131523187D01*
X80482184Y-131523919D01*
X80482191Y-131523921D01*
X80551338Y-131521748D01*
X80580874Y-131521748D01*
X80587752Y-131520878D01*
X80593565Y-131520420D01*
X80640151Y-131518957D01*
X80659393Y-131513365D01*
X80678436Y-131509422D01*
X80698316Y-131506912D01*
X80741646Y-131489755D01*
X80747170Y-131487865D01*
X80750920Y-131486775D01*
X80791914Y-131474866D01*
X80809153Y-131464670D01*
X80826627Y-131456110D01*
X80845251Y-131448736D01*
X80845251Y-131448735D01*
X80845256Y-131448734D01*
X80882973Y-131421330D01*
X80887829Y-131418140D01*
X80927944Y-131394418D01*
X80942113Y-131380247D01*
X80956903Y-131367616D01*
X80973111Y-131355842D01*
X81002823Y-131319924D01*
X81006736Y-131315624D01*
X83613242Y-128709118D01*
X85806624Y-128709118D01*
X85806625Y-128709124D01*
X85813032Y-128768731D01*
X85863326Y-128903576D01*
X85863330Y-128903583D01*
X85949576Y-129018792D01*
X85949579Y-129018795D01*
X86064788Y-129105041D01*
X86064795Y-129105045D01*
X86199641Y-129155339D01*
X86199640Y-129155339D01*
X86206568Y-129156083D01*
X86259251Y-129161748D01*
X87904996Y-129161747D01*
X87964607Y-129155339D01*
X88099455Y-129105044D01*
X88157943Y-129061259D01*
X88191044Y-129036481D01*
X88256509Y-129012064D01*
X88265355Y-129011748D01*
X93848893Y-129011748D01*
X93915932Y-129031433D01*
X93923204Y-129036481D01*
X94014792Y-129105043D01*
X94014795Y-129105045D01*
X94149641Y-129155339D01*
X94149640Y-129155339D01*
X94156568Y-129156083D01*
X94209251Y-129161748D01*
X95854996Y-129161747D01*
X95914607Y-129155339D01*
X96049455Y-129105044D01*
X96164670Y-129018794D01*
X96250920Y-128903579D01*
X96255084Y-128892413D01*
X96296953Y-128836482D01*
X96362417Y-128812064D01*
X96371265Y-128811748D01*
X96933184Y-128811748D01*
X97000223Y-128831433D01*
X97020865Y-128848067D01*
X98941386Y-130768588D01*
X98971636Y-130817951D01*
X98992942Y-130883525D01*
X98992945Y-130883532D01*
X99087591Y-131047464D01*
X99166846Y-131135485D01*
X99214253Y-131188136D01*
X99367389Y-131299396D01*
X99367394Y-131299399D01*
X99540316Y-131376390D01*
X99540321Y-131376392D01*
X99725478Y-131415748D01*
X99725479Y-131415748D01*
X99914768Y-131415748D01*
X99914770Y-131415748D01*
X100099927Y-131376392D01*
X100272854Y-131299399D01*
X100425995Y-131188136D01*
X100552657Y-131047464D01*
X100647303Y-130883532D01*
X100705798Y-130703504D01*
X100725584Y-130515248D01*
X100705798Y-130326992D01*
X100647303Y-130146964D01*
X100552657Y-129983032D01*
X100425995Y-129842360D01*
X100425994Y-129842359D01*
X100272858Y-129731099D01*
X100272853Y-129731096D01*
X100104933Y-129656332D01*
X100067688Y-129630734D01*
X97818386Y-127381432D01*
X97818383Y-127381430D01*
X97783028Y-127359214D01*
X97777353Y-127355188D01*
X97744713Y-127329158D01*
X97707083Y-127311035D01*
X97700996Y-127307670D01*
X97665649Y-127285460D01*
X97626238Y-127271669D01*
X97619812Y-127269007D01*
X97582185Y-127250887D01*
X97541469Y-127241593D01*
X97534786Y-127239668D01*
X97495383Y-127225880D01*
X97453887Y-127221203D01*
X97447032Y-127220039D01*
X97406324Y-127210749D01*
X97406320Y-127210748D01*
X97406318Y-127210748D01*
X97406315Y-127210748D01*
X96371265Y-127210748D01*
X96304226Y-127191063D01*
X96258471Y-127138259D01*
X96255093Y-127130107D01*
X96250920Y-127118917D01*
X96250917Y-127118913D01*
X96250917Y-127118912D01*
X96164671Y-127003703D01*
X96164668Y-127003700D01*
X96049459Y-126917454D01*
X96049452Y-126917450D01*
X95914606Y-126867156D01*
X95914607Y-126867156D01*
X95855007Y-126860749D01*
X95855005Y-126860748D01*
X95854997Y-126860748D01*
X95854988Y-126860748D01*
X94209253Y-126860748D01*
X94209247Y-126860749D01*
X94149640Y-126867156D01*
X94014795Y-126917450D01*
X94014792Y-126917452D01*
X93923204Y-126986015D01*
X93857739Y-127010432D01*
X93848893Y-127010748D01*
X88265355Y-127010748D01*
X88198316Y-126991063D01*
X88191044Y-126986015D01*
X88099455Y-126917452D01*
X88099452Y-126917450D01*
X87964606Y-126867156D01*
X87964607Y-126867156D01*
X87905007Y-126860749D01*
X87905005Y-126860748D01*
X87904997Y-126860748D01*
X87904988Y-126860748D01*
X86259253Y-126860748D01*
X86259247Y-126860749D01*
X86199640Y-126867156D01*
X86064795Y-126917450D01*
X86064788Y-126917454D01*
X85949579Y-127003700D01*
X85949576Y-127003703D01*
X85863330Y-127118912D01*
X85863326Y-127118919D01*
X85813032Y-127253765D01*
X85806625Y-127313364D01*
X85806624Y-127313383D01*
X85806624Y-128709118D01*
X83613242Y-128709118D01*
X87197112Y-125125249D01*
X97733514Y-125125249D01*
X97753928Y-125410681D01*
X97814752Y-125690285D01*
X97914759Y-125958414D01*
X98051894Y-126209557D01*
X98051899Y-126209565D01*
X98223378Y-126438635D01*
X98223394Y-126438653D01*
X98425718Y-126640977D01*
X98425736Y-126640993D01*
X98654806Y-126812472D01*
X98654814Y-126812477D01*
X98905957Y-126949612D01*
X98905956Y-126949612D01*
X98905960Y-126949613D01*
X98905963Y-126949615D01*
X99174078Y-127049617D01*
X99174084Y-127049618D01*
X99174086Y-127049619D01*
X99453690Y-127110443D01*
X99453692Y-127110443D01*
X99453696Y-127110444D01*
X99707344Y-127128585D01*
X99739123Y-127130858D01*
X99739123Y-127130857D01*
X99739124Y-127130858D01*
X99903946Y-127119069D01*
X99972219Y-127133921D01*
X100000474Y-127155072D01*
X103557766Y-130712364D01*
X103562403Y-130717552D01*
X103586616Y-130747914D01*
X103638091Y-130792887D01*
X103641124Y-130795722D01*
X103649594Y-130804192D01*
X103675436Y-130825767D01*
X103681938Y-130831195D01*
X103756128Y-130896013D01*
X103759874Y-130898251D01*
X103775748Y-130909513D01*
X103779105Y-130912316D01*
X103864783Y-130960931D01*
X103949360Y-131011463D01*
X103953451Y-131012998D01*
X103971079Y-131021244D01*
X103974879Y-131023401D01*
X104043647Y-131047464D01*
X104067870Y-131055940D01*
X104157054Y-131089412D01*
X104160100Y-131090555D01*
X104162689Y-131091024D01*
X104164398Y-131091335D01*
X104183213Y-131096301D01*
X104187341Y-131097746D01*
X104284651Y-131113158D01*
X104381574Y-131130748D01*
X104381577Y-131130748D01*
X104385952Y-131130748D01*
X104405355Y-131132276D01*
X104407062Y-131132545D01*
X104409664Y-131132958D01*
X104508126Y-131130748D01*
X115992417Y-131130748D01*
X115999355Y-131131137D01*
X116037951Y-131135486D01*
X116037953Y-131135485D01*
X116037954Y-131135486D01*
X116055710Y-131134288D01*
X116106156Y-131130887D01*
X116110312Y-131130748D01*
X116122271Y-131130748D01*
X116122279Y-131130748D01*
X116164247Y-131126970D01*
X116262536Y-131120344D01*
X116266770Y-131119276D01*
X116285965Y-131116015D01*
X116290312Y-131115625D01*
X116385289Y-131089412D01*
X116480807Y-131065344D01*
X116484779Y-131063539D01*
X116503086Y-131056902D01*
X116507294Y-131055741D01*
X116596059Y-131012994D01*
X116685750Y-130972255D01*
X116689344Y-130969764D01*
X116706159Y-130959972D01*
X116710097Y-130958077D01*
X116789800Y-130900169D01*
X116870778Y-130844068D01*
X116873867Y-130840978D01*
X116888669Y-130828336D01*
X116892202Y-130825770D01*
X116960277Y-130754568D01*
X120559774Y-127155070D01*
X120621095Y-127121587D01*
X120656299Y-127119069D01*
X120821123Y-127130858D01*
X120821124Y-127130858D01*
X121106552Y-127110444D01*
X121386170Y-127049617D01*
X121654285Y-126949615D01*
X121905439Y-126812474D01*
X122134519Y-126640987D01*
X122336863Y-126438643D01*
X122508350Y-126209563D01*
X122645491Y-125958409D01*
X122745493Y-125690294D01*
X122806320Y-125410676D01*
X122826734Y-125125248D01*
X122806320Y-124839820D01*
X122745493Y-124560202D01*
X122645491Y-124292087D01*
X122508350Y-124040933D01*
X122508348Y-124040930D01*
X122336869Y-123811860D01*
X122336853Y-123811842D01*
X122134529Y-123609518D01*
X122134511Y-123609502D01*
X121905441Y-123438023D01*
X121905433Y-123438018D01*
X121654290Y-123300883D01*
X121654291Y-123300883D01*
X121547039Y-123260880D01*
X121386170Y-123200879D01*
X121386167Y-123200878D01*
X121386161Y-123200876D01*
X121106557Y-123140052D01*
X120821125Y-123119638D01*
X120821123Y-123119638D01*
X120535690Y-123140052D01*
X120256086Y-123200876D01*
X119987957Y-123300883D01*
X119736814Y-123438018D01*
X119736806Y-123438023D01*
X119507736Y-123609502D01*
X119507718Y-123609518D01*
X119305394Y-123811842D01*
X119305378Y-123811860D01*
X119133899Y-124040930D01*
X119133894Y-124040938D01*
X118996759Y-124292081D01*
X118896752Y-124560210D01*
X118835928Y-124839814D01*
X118815514Y-125125247D01*
X118815514Y-125125248D01*
X118827302Y-125290070D01*
X118812450Y-125358343D01*
X118791299Y-125386597D01*
X115584469Y-128593429D01*
X115523146Y-128626914D01*
X115496788Y-128629748D01*
X105063460Y-128629748D01*
X104996421Y-128610063D01*
X104975779Y-128593429D01*
X101768948Y-125386598D01*
X101762750Y-125375248D01*
X107280124Y-125375248D01*
X107280124Y-127673092D01*
X107286525Y-127732620D01*
X107286527Y-127732627D01*
X107336769Y-127867334D01*
X107336773Y-127867341D01*
X107422933Y-127982435D01*
X107422936Y-127982438D01*
X107538030Y-128068598D01*
X107538037Y-128068602D01*
X107672744Y-128118844D01*
X107672751Y-128118846D01*
X107732279Y-128125247D01*
X107732296Y-128125248D01*
X110030124Y-128125248D01*
X110030124Y-125375248D01*
X110530124Y-125375248D01*
X110530124Y-128125248D01*
X112827952Y-128125248D01*
X112827968Y-128125247D01*
X112887496Y-128118846D01*
X112887503Y-128118844D01*
X113022210Y-128068602D01*
X113022217Y-128068598D01*
X113137311Y-127982438D01*
X113137314Y-127982435D01*
X113223474Y-127867341D01*
X113223478Y-127867334D01*
X113273720Y-127732627D01*
X113273722Y-127732620D01*
X113280123Y-127673092D01*
X113280124Y-127673075D01*
X113280124Y-125375248D01*
X110530124Y-125375248D01*
X110030124Y-125375248D01*
X107280124Y-125375248D01*
X101762750Y-125375248D01*
X101735463Y-125325275D01*
X101732945Y-125290070D01*
X101744734Y-125125247D01*
X101742461Y-125093468D01*
X101724320Y-124839820D01*
X101663493Y-124560202D01*
X101563491Y-124292087D01*
X101426350Y-124040933D01*
X101426348Y-124040930D01*
X101254869Y-123811860D01*
X101254853Y-123811842D01*
X101052529Y-123609518D01*
X101052511Y-123609502D01*
X100823441Y-123438023D01*
X100823433Y-123438018D01*
X100572290Y-123300883D01*
X100572291Y-123300883D01*
X100465039Y-123260880D01*
X100304170Y-123200879D01*
X100304167Y-123200878D01*
X100304161Y-123200876D01*
X100024557Y-123140052D01*
X99739125Y-123119638D01*
X99739123Y-123119638D01*
X99453690Y-123140052D01*
X99174086Y-123200876D01*
X98905957Y-123300883D01*
X98654814Y-123438018D01*
X98654806Y-123438023D01*
X98425736Y-123609502D01*
X98425718Y-123609518D01*
X98223394Y-123811842D01*
X98223378Y-123811860D01*
X98051899Y-124040930D01*
X98051894Y-124040938D01*
X97914759Y-124292081D01*
X97814752Y-124560210D01*
X97753928Y-124839814D01*
X97733514Y-125125246D01*
X97733514Y-125125249D01*
X87197112Y-125125249D01*
X91332114Y-120990248D01*
X107169664Y-120990248D01*
X107189450Y-121178504D01*
X107189451Y-121178507D01*
X107247942Y-121358525D01*
X107247945Y-121358532D01*
X107342591Y-121522464D01*
X107456941Y-121649462D01*
X107469253Y-121663136D01*
X107622389Y-121774396D01*
X107622394Y-121774399D01*
X107795316Y-121851390D01*
X107795321Y-121851392D01*
X107929715Y-121879958D01*
X107991197Y-121913150D01*
X108024973Y-121974313D01*
X108020321Y-122044028D01*
X107978716Y-122100160D01*
X107913369Y-122124889D01*
X107903934Y-122125248D01*
X107732279Y-122125248D01*
X107672751Y-122131649D01*
X107672744Y-122131651D01*
X107538037Y-122181893D01*
X107538030Y-122181897D01*
X107422936Y-122268057D01*
X107422933Y-122268060D01*
X107336773Y-122383154D01*
X107336769Y-122383161D01*
X107286527Y-122517868D01*
X107286525Y-122517875D01*
X107280124Y-122577403D01*
X107280124Y-124875248D01*
X110030124Y-124875248D01*
X110030124Y-122125248D01*
X108246314Y-122125248D01*
X108179275Y-122105563D01*
X108133520Y-122052759D01*
X108123576Y-121983601D01*
X108152601Y-121920045D01*
X108211379Y-121882271D01*
X108220533Y-121879958D01*
X108354927Y-121851392D01*
X108527854Y-121774399D01*
X108680995Y-121663136D01*
X108807657Y-121522464D01*
X108902303Y-121358532D01*
X108960798Y-121178504D01*
X108980584Y-120990248D01*
X108960798Y-120801992D01*
X108902303Y-120621964D01*
X108807657Y-120458032D01*
X108790106Y-120438540D01*
X108732474Y-120374532D01*
X108702244Y-120311540D01*
X108700624Y-120291560D01*
X108700624Y-119402935D01*
X108720309Y-119335896D01*
X108732474Y-119319963D01*
X108760993Y-119288289D01*
X108807657Y-119236464D01*
X108902303Y-119072532D01*
X108960798Y-118892504D01*
X108980584Y-118704248D01*
X108960798Y-118515992D01*
X108902303Y-118335964D01*
X108807657Y-118172032D01*
X108680995Y-118031360D01*
X108680994Y-118031359D01*
X108527858Y-117920099D01*
X108527853Y-117920096D01*
X108354931Y-117843105D01*
X108354926Y-117843103D01*
X108185427Y-117807076D01*
X108169770Y-117803748D01*
X107980478Y-117803748D01*
X107964821Y-117807076D01*
X107795321Y-117843103D01*
X107795316Y-117843105D01*
X107622394Y-117920096D01*
X107622389Y-117920099D01*
X107469253Y-118031359D01*
X107342590Y-118172033D01*
X107247945Y-118335963D01*
X107247942Y-118335970D01*
X107189451Y-118515988D01*
X107189450Y-118515992D01*
X107169664Y-118704248D01*
X107189450Y-118892504D01*
X107189451Y-118892507D01*
X107247942Y-119072525D01*
X107247945Y-119072532D01*
X107342591Y-119236464D01*
X107372628Y-119269823D01*
X107417774Y-119319963D01*
X107448004Y-119382954D01*
X107449624Y-119402935D01*
X107449624Y-120291560D01*
X107429939Y-120358599D01*
X107417774Y-120374532D01*
X107342590Y-120458032D01*
X107247945Y-120621963D01*
X107247942Y-120621970D01*
X107189451Y-120801988D01*
X107189450Y-120801992D01*
X107169664Y-120990248D01*
X91332114Y-120990248D01*
X99187296Y-113135067D01*
X99248619Y-113101582D01*
X99274977Y-113098748D01*
X107945305Y-113098748D01*
X112151624Y-113098748D01*
X112218663Y-113118433D01*
X112264418Y-113171237D01*
X112275624Y-113222748D01*
X112275624Y-120418560D01*
X112255939Y-120485599D01*
X112243774Y-120501532D01*
X112168590Y-120585032D01*
X112073945Y-120748963D01*
X112073942Y-120748970D01*
X112015451Y-120928988D01*
X112015450Y-120928992D01*
X111995664Y-121117248D01*
X112015450Y-121305504D01*
X112015451Y-121305507D01*
X112073942Y-121485525D01*
X112073945Y-121485532D01*
X112168591Y-121649464D01*
X112281081Y-121774396D01*
X112295253Y-121790136D01*
X112447748Y-121900930D01*
X112490414Y-121956260D01*
X112496393Y-122025873D01*
X112463787Y-122087668D01*
X112402949Y-122122025D01*
X112374863Y-122125248D01*
X110530124Y-122125248D01*
X110530124Y-124875248D01*
X113280124Y-124875248D01*
X113280124Y-122577420D01*
X113280123Y-122577403D01*
X113273722Y-122517875D01*
X113273720Y-122517868D01*
X113223478Y-122383161D01*
X113223474Y-122383154D01*
X113137314Y-122268060D01*
X113064321Y-122213417D01*
X113022451Y-122157483D01*
X113017467Y-122087792D01*
X113050953Y-122026469D01*
X113112276Y-121992984D01*
X113180927Y-121978392D01*
X113353854Y-121901399D01*
X113506995Y-121790136D01*
X113633657Y-121649464D01*
X113728303Y-121485532D01*
X113786798Y-121305504D01*
X113806584Y-121117248D01*
X113786798Y-120928992D01*
X113728303Y-120748964D01*
X113633657Y-120585032D01*
X113558474Y-120501532D01*
X113528244Y-120438540D01*
X113526624Y-120418560D01*
X113526624Y-113222748D01*
X113546309Y-113155709D01*
X113599113Y-113109954D01*
X113650624Y-113098748D01*
X114346105Y-113098748D01*
X116134376Y-113098748D01*
X116201415Y-113118433D01*
X116226524Y-113139774D01*
X116232250Y-113146133D01*
X116232254Y-113146137D01*
X116385389Y-113257396D01*
X116385394Y-113257399D01*
X116558316Y-113334390D01*
X116558321Y-113334392D01*
X116743478Y-113373748D01*
X116743479Y-113373748D01*
X116932768Y-113373748D01*
X116932770Y-113373748D01*
X117117927Y-113334392D01*
X117290854Y-113257399D01*
X117443995Y-113146136D01*
X117446912Y-113142895D01*
X117449724Y-113139774D01*
X117509211Y-113103127D01*
X117541872Y-113098748D01*
X132879486Y-113098748D01*
X132946525Y-113118433D01*
X132985023Y-113157649D01*
X133052412Y-113266904D01*
X133052413Y-113266905D01*
X133176470Y-113390962D01*
X133179306Y-113392711D01*
X133180841Y-113394418D01*
X133182135Y-113395441D01*
X133181960Y-113395662D01*
X133226029Y-113444659D01*
X133237250Y-113513622D01*
X133209406Y-113577704D01*
X133179306Y-113603785D01*
X133176470Y-113605533D01*
X133052413Y-113729590D01*
X132960311Y-113878911D01*
X132960310Y-113878914D01*
X132905125Y-114045451D01*
X132905125Y-114045452D01*
X132905124Y-114045452D01*
X132894624Y-114148231D01*
X132894624Y-114898249D01*
X132894625Y-114898267D01*
X132905124Y-115001044D01*
X132905125Y-115001047D01*
X132960309Y-115167579D01*
X132960310Y-115167582D01*
X133052412Y-115316904D01*
X133176468Y-115440960D01*
X133235720Y-115477506D01*
X133282445Y-115529452D01*
X133294624Y-115583045D01*
X133294624Y-117509439D01*
X133294625Y-117509448D01*
X133303915Y-117550156D01*
X133305079Y-117557011D01*
X133309756Y-117598507D01*
X133323544Y-117637910D01*
X133325469Y-117644593D01*
X133334763Y-117685309D01*
X133352883Y-117722936D01*
X133355545Y-117729362D01*
X133369336Y-117768773D01*
X133391546Y-117804120D01*
X133394911Y-117810207D01*
X133413034Y-117847837D01*
X133439064Y-117880477D01*
X133443090Y-117886152D01*
X133465306Y-117921507D01*
X133465308Y-117921510D01*
X134671864Y-119128066D01*
X134684914Y-119136265D01*
X134707228Y-119150286D01*
X134712881Y-119154297D01*
X134745537Y-119180339D01*
X134783168Y-119198461D01*
X134789230Y-119201811D01*
X134824602Y-119224037D01*
X134864022Y-119237831D01*
X134870450Y-119240493D01*
X134908063Y-119258607D01*
X134948779Y-119267900D01*
X134955448Y-119269822D01*
X134994869Y-119283616D01*
X135036375Y-119288292D01*
X135043200Y-119289451D01*
X135083929Y-119298748D01*
X135129170Y-119298748D01*
X135404442Y-119298748D01*
X135469539Y-119317209D01*
X135471772Y-119318586D01*
X135471774Y-119318588D01*
X135618608Y-119409156D01*
X135782371Y-119463422D01*
X135883447Y-119473748D01*
X136481800Y-119473747D01*
X136481808Y-119473746D01*
X136481811Y-119473746D01*
X136537154Y-119468092D01*
X136582877Y-119463422D01*
X136746640Y-119409156D01*
X136893474Y-119318588D01*
X137007799Y-119204262D01*
X137069118Y-119170780D01*
X137138810Y-119175764D01*
X137183158Y-119204265D01*
X137297085Y-119318192D01*
X137297089Y-119318195D01*
X137443812Y-119408696D01*
X137443823Y-119408701D01*
X137607471Y-119462928D01*
X137708475Y-119473247D01*
X137757623Y-119473246D01*
X137757624Y-119473246D01*
X137757624Y-118748248D01*
X138257624Y-118748248D01*
X138257624Y-119473247D01*
X138306764Y-119473247D01*
X138306778Y-119473246D01*
X138407776Y-119462928D01*
X138571424Y-119408701D01*
X138571435Y-119408696D01*
X138718158Y-119318195D01*
X138718162Y-119318192D01*
X138840068Y-119196286D01*
X138840071Y-119196282D01*
X138930572Y-119049559D01*
X138930577Y-119049548D01*
X138984804Y-118885900D01*
X138995123Y-118784902D01*
X138995124Y-118784889D01*
X138995124Y-118748248D01*
X138257624Y-118748248D01*
X137757624Y-118748248D01*
X137757624Y-117523248D01*
X138257624Y-117523248D01*
X138257624Y-118248248D01*
X138995123Y-118248248D01*
X138995123Y-118211608D01*
X138995122Y-118211593D01*
X138984804Y-118110595D01*
X138930577Y-117946947D01*
X138930572Y-117946936D01*
X138840071Y-117800213D01*
X138840068Y-117800209D01*
X138718162Y-117678303D01*
X138718158Y-117678300D01*
X138571435Y-117587799D01*
X138571424Y-117587794D01*
X138407776Y-117533567D01*
X138306778Y-117523248D01*
X138257624Y-117523248D01*
X137757624Y-117523248D01*
X137757623Y-117523247D01*
X137708485Y-117523248D01*
X137708467Y-117523249D01*
X137607471Y-117533567D01*
X137443823Y-117587794D01*
X137443812Y-117587799D01*
X137297089Y-117678300D01*
X137183158Y-117792231D01*
X137121835Y-117825715D01*
X137052143Y-117820731D01*
X137007796Y-117792230D01*
X136893475Y-117677909D01*
X136893474Y-117677908D01*
X136764738Y-117598503D01*
X136746642Y-117587341D01*
X136746637Y-117587339D01*
X136745193Y-117586860D01*
X136582877Y-117533074D01*
X136582875Y-117533073D01*
X136481802Y-117522748D01*
X135883454Y-117522748D01*
X135883436Y-117522749D01*
X135782371Y-117533073D01*
X135618608Y-117587340D01*
X135618601Y-117587343D01*
X135563935Y-117621062D01*
X135496543Y-117639502D01*
X135429879Y-117618579D01*
X135411158Y-117603204D01*
X134931943Y-117123989D01*
X134898458Y-117062666D01*
X134895624Y-117036308D01*
X134895624Y-115583045D01*
X134915309Y-115516006D01*
X134954527Y-115477506D01*
X135013780Y-115440960D01*
X135137836Y-115316904D01*
X135229938Y-115167582D01*
X135285123Y-115001045D01*
X135295624Y-114898257D01*
X135295623Y-114148240D01*
X135285123Y-114045451D01*
X135229938Y-113878914D01*
X135137836Y-113729592D01*
X135013780Y-113605536D01*
X135010943Y-113603786D01*
X135009407Y-113602078D01*
X135008113Y-113601055D01*
X135008287Y-113600833D01*
X134964220Y-113551842D01*
X134952996Y-113482880D01*
X134980837Y-113418797D01*
X135010941Y-113392710D01*
X135013780Y-113390960D01*
X135137836Y-113266904D01*
X135229938Y-113117582D01*
X135285123Y-112951045D01*
X135295624Y-112848257D01*
X135295623Y-112098240D01*
X135291091Y-112053879D01*
X135285123Y-111995451D01*
X135285122Y-111995448D01*
X135229938Y-111828914D01*
X135137836Y-111679592D01*
X135013780Y-111555536D01*
X134864458Y-111463434D01*
X134697921Y-111408249D01*
X134697919Y-111408248D01*
X134595134Y-111397748D01*
X133595122Y-111397748D01*
X133595104Y-111397749D01*
X133492327Y-111408248D01*
X133492324Y-111408249D01*
X133325792Y-111463433D01*
X133325787Y-111463435D01*
X133176466Y-111555537D01*
X133052413Y-111679590D01*
X133052412Y-111679592D01*
X132993405Y-111775259D01*
X132985025Y-111788845D01*
X132933077Y-111835569D01*
X132879486Y-111847748D01*
X117587624Y-111847748D01*
X117520585Y-111828063D01*
X117474830Y-111775259D01*
X117463624Y-111723748D01*
X117463624Y-99228990D01*
X117465348Y-99213370D01*
X117465063Y-99213344D01*
X117465795Y-99205588D01*
X117465797Y-99205581D01*
X117463624Y-99136433D01*
X117463624Y-99106898D01*
X117462755Y-99100020D01*
X117462296Y-99094191D01*
X117460833Y-99047620D01*
X117455246Y-99028392D01*
X117451298Y-99009332D01*
X117448787Y-98989452D01*
X117431636Y-98946135D01*
X117429743Y-98940606D01*
X117416742Y-98895857D01*
X117416740Y-98895854D01*
X117406547Y-98878619D01*
X117397985Y-98861142D01*
X117390611Y-98842518D01*
X117390610Y-98842516D01*
X117363203Y-98804793D01*
X117360012Y-98799934D01*
X117336296Y-98759831D01*
X117336289Y-98759822D01*
X117322130Y-98745663D01*
X117309492Y-98730867D01*
X117297718Y-98714661D01*
X117261812Y-98684957D01*
X117257500Y-98681034D01*
X116509343Y-97932876D01*
X116475858Y-97871553D01*
X116473024Y-97845195D01*
X116473024Y-96088585D01*
X116492709Y-96021546D01*
X116545513Y-95975791D01*
X116614671Y-95965847D01*
X116622804Y-95967295D01*
X116630313Y-95968891D01*
X116667278Y-95976748D01*
X116667279Y-95976748D01*
X116856568Y-95976748D01*
X116856570Y-95976748D01*
X117041727Y-95937392D01*
X117214654Y-95860399D01*
X117367795Y-95749136D01*
X117494457Y-95608464D01*
X117589103Y-95444532D01*
X117647598Y-95264504D01*
X117665245Y-95096593D01*
X117691829Y-95031980D01*
X117700876Y-95021884D01*
X117856910Y-94865850D01*
X117869172Y-94856028D01*
X117868989Y-94855807D01*
X117874991Y-94850840D01*
X117875001Y-94850834D01*
X117922365Y-94800396D01*
X117943244Y-94779518D01*
X117947497Y-94774034D01*
X117951274Y-94769611D01*
X117983186Y-94735630D01*
X117992838Y-94718071D01*
X118003513Y-94701820D01*
X118015798Y-94685984D01*
X118034310Y-94643200D01*
X118036866Y-94637983D01*
X118059321Y-94597140D01*
X118064304Y-94577728D01*
X118070601Y-94559339D01*
X118078562Y-94540943D01*
X118085853Y-94494901D01*
X118087032Y-94489210D01*
X118098624Y-94444067D01*
X118098624Y-94424031D01*
X118100151Y-94404630D01*
X118100295Y-94403722D01*
X118103284Y-94384852D01*
X118098899Y-94338463D01*
X118098624Y-94332625D01*
X118098624Y-86197900D01*
X118118309Y-86130861D01*
X118134943Y-86110219D01*
X121110096Y-83135067D01*
X121171419Y-83101582D01*
X121197777Y-83098748D01*
X125879486Y-83098748D01*
X125946525Y-83118433D01*
X125985025Y-83157651D01*
X126052413Y-83266905D01*
X126176470Y-83390962D01*
X126179306Y-83392711D01*
X126180841Y-83394418D01*
X126182135Y-83395441D01*
X126181960Y-83395662D01*
X126226029Y-83444659D01*
X126237250Y-83513622D01*
X126209406Y-83577704D01*
X126179306Y-83603785D01*
X126176470Y-83605533D01*
X126052413Y-83729590D01*
X125960311Y-83878911D01*
X125960310Y-83878914D01*
X125905125Y-84045451D01*
X125905125Y-84045452D01*
X125905124Y-84045452D01*
X125894624Y-84148231D01*
X125894624Y-84898249D01*
X125894625Y-84898267D01*
X125905124Y-85001044D01*
X125905125Y-85001047D01*
X125960309Y-85167579D01*
X125960310Y-85167582D01*
X126052412Y-85316904D01*
X126176468Y-85440960D01*
X126235720Y-85477506D01*
X126282445Y-85529452D01*
X126294624Y-85583045D01*
X126294624Y-86125439D01*
X126294625Y-86125448D01*
X126303915Y-86166156D01*
X126305079Y-86173011D01*
X126309756Y-86214507D01*
X126323544Y-86253910D01*
X126325469Y-86260593D01*
X126334763Y-86301309D01*
X126352883Y-86338936D01*
X126355545Y-86345362D01*
X126369336Y-86384773D01*
X126391546Y-86420120D01*
X126394911Y-86426207D01*
X126413034Y-86463837D01*
X126439064Y-86496477D01*
X126443090Y-86502152D01*
X126465306Y-86537507D01*
X126465308Y-86537510D01*
X127258305Y-87330507D01*
X127291790Y-87391830D01*
X127294624Y-87418188D01*
X127294624Y-87716196D01*
X127274939Y-87783235D01*
X127266342Y-87793903D01*
X127266762Y-87794235D01*
X127262285Y-87799895D01*
X127171717Y-87946729D01*
X127171715Y-87946734D01*
X127144343Y-88029336D01*
X127117450Y-88110495D01*
X127117450Y-88110496D01*
X127117449Y-88110496D01*
X127107124Y-88211563D01*
X127107124Y-88784917D01*
X127107125Y-88784935D01*
X127117449Y-88886000D01*
X127150669Y-88986248D01*
X127171716Y-89049764D01*
X127262284Y-89196598D01*
X127384274Y-89318588D01*
X127531108Y-89409156D01*
X127694871Y-89463422D01*
X127795947Y-89473748D01*
X128394300Y-89473747D01*
X128394308Y-89473746D01*
X128394311Y-89473746D01*
X128449654Y-89468092D01*
X128495377Y-89463422D01*
X128659140Y-89409156D01*
X128805974Y-89318588D01*
X128920299Y-89204262D01*
X128981618Y-89170780D01*
X129051310Y-89175764D01*
X129095658Y-89204265D01*
X129209585Y-89318192D01*
X129209589Y-89318195D01*
X129356312Y-89408696D01*
X129356323Y-89408701D01*
X129519971Y-89462928D01*
X129620975Y-89473247D01*
X129670123Y-89473246D01*
X129670124Y-89473246D01*
X129670124Y-88748248D01*
X130170124Y-88748248D01*
X130170124Y-89473247D01*
X130219264Y-89473247D01*
X130219278Y-89473246D01*
X130320276Y-89462928D01*
X130483924Y-89408701D01*
X130483935Y-89408696D01*
X130630658Y-89318195D01*
X130630662Y-89318192D01*
X130752568Y-89196286D01*
X130752571Y-89196282D01*
X130843072Y-89049559D01*
X130843077Y-89049548D01*
X130897304Y-88885900D01*
X130907623Y-88784902D01*
X130907624Y-88784889D01*
X130907624Y-88748248D01*
X130170124Y-88748248D01*
X129670124Y-88748248D01*
X129670124Y-87523248D01*
X130170124Y-87523248D01*
X130170124Y-88248248D01*
X130907623Y-88248248D01*
X130907623Y-88211608D01*
X130907622Y-88211593D01*
X130897304Y-88110595D01*
X130843077Y-87946947D01*
X130843072Y-87946936D01*
X130752571Y-87800213D01*
X130752568Y-87800209D01*
X130630662Y-87678303D01*
X130630658Y-87678300D01*
X130483935Y-87587799D01*
X130483924Y-87587794D01*
X130320276Y-87533567D01*
X130219278Y-87523248D01*
X130170124Y-87523248D01*
X129670124Y-87523248D01*
X129670123Y-87523247D01*
X129620985Y-87523248D01*
X129620967Y-87523249D01*
X129519971Y-87533567D01*
X129356323Y-87587794D01*
X129356312Y-87587799D01*
X129209589Y-87678300D01*
X129107305Y-87780584D01*
X129045982Y-87814068D01*
X128976290Y-87809084D01*
X128920357Y-87767212D01*
X128895940Y-87701747D01*
X128895624Y-87692902D01*
X128895624Y-86945055D01*
X128895624Y-86945054D01*
X128886331Y-86904341D01*
X128885166Y-86897481D01*
X128880492Y-86855993D01*
X128880491Y-86855990D01*
X128866700Y-86816576D01*
X128864774Y-86809889D01*
X128855484Y-86769187D01*
X128837362Y-86731555D01*
X128834707Y-86725147D01*
X128820913Y-86685726D01*
X128798698Y-86650371D01*
X128795332Y-86644281D01*
X128777216Y-86606663D01*
X128777214Y-86606659D01*
X128751184Y-86574018D01*
X128747157Y-86568344D01*
X128724940Y-86532986D01*
X127931943Y-85739989D01*
X127898458Y-85678666D01*
X127895624Y-85652308D01*
X127895624Y-85583045D01*
X127915309Y-85516006D01*
X127954527Y-85477506D01*
X128013780Y-85440960D01*
X128137836Y-85316904D01*
X128229938Y-85167582D01*
X128285123Y-85001045D01*
X128295624Y-84898257D01*
X128295623Y-84148240D01*
X128285123Y-84045451D01*
X128229938Y-83878914D01*
X128137836Y-83729592D01*
X128013780Y-83605536D01*
X128010943Y-83603786D01*
X128009407Y-83602078D01*
X128008113Y-83601055D01*
X128008287Y-83600833D01*
X127964220Y-83551842D01*
X127952996Y-83482880D01*
X127980837Y-83418797D01*
X128010941Y-83392710D01*
X128013780Y-83390960D01*
X128137836Y-83266904D01*
X128229938Y-83117582D01*
X128285123Y-82951045D01*
X128295624Y-82848257D01*
X128295623Y-82098240D01*
X128291091Y-82053879D01*
X128285123Y-81995451D01*
X128285122Y-81995448D01*
X128278372Y-81975077D01*
X128229938Y-81828914D01*
X128137836Y-81679592D01*
X128013780Y-81555536D01*
X127864458Y-81463434D01*
X127697921Y-81408249D01*
X127697919Y-81408248D01*
X127595134Y-81397748D01*
X126595122Y-81397748D01*
X126595104Y-81397749D01*
X126492327Y-81408248D01*
X126492324Y-81408249D01*
X126325792Y-81463433D01*
X126325787Y-81463435D01*
X126176466Y-81555537D01*
X126052413Y-81679590D01*
X125985025Y-81788845D01*
X125933077Y-81835569D01*
X125879486Y-81847748D01*
X120970067Y-81847748D01*
X120954446Y-81846023D01*
X120954420Y-81846309D01*
X120946658Y-81845575D01*
X120946657Y-81845575D01*
X120877510Y-81847748D01*
X120847973Y-81847748D01*
X120841090Y-81848617D01*
X120835273Y-81849074D01*
X120788697Y-81850538D01*
X120769453Y-81856129D01*
X120750403Y-81860073D01*
X120730535Y-81862582D01*
X120687208Y-81879736D01*
X120681682Y-81881627D01*
X120636938Y-81894627D01*
X120636934Y-81894629D01*
X120619690Y-81904827D01*
X120602229Y-81913381D01*
X120583598Y-81920758D01*
X120583586Y-81920765D01*
X120545894Y-81948150D01*
X120541011Y-81951357D01*
X120500904Y-81975077D01*
X120486738Y-81989243D01*
X120471948Y-82001875D01*
X120455738Y-82013652D01*
X120455735Y-82013655D01*
X120426034Y-82049557D01*
X120422101Y-82053879D01*
X117217904Y-85258076D01*
X117156581Y-85291561D01*
X117086889Y-85286577D01*
X117042542Y-85258076D01*
X112546943Y-80762476D01*
X112513458Y-80701153D01*
X112510624Y-80674795D01*
X112510624Y-48148699D01*
X112530309Y-48081660D01*
X112546939Y-48061022D01*
X112704964Y-47902997D01*
X112766286Y-47869513D01*
X112835978Y-47874497D01*
X112891911Y-47916369D01*
X112916328Y-47981833D01*
X112910351Y-48029681D01*
X112905124Y-48045453D01*
X112894624Y-48148231D01*
X112894624Y-48898249D01*
X112894625Y-48898267D01*
X112905124Y-49001044D01*
X112905125Y-49001047D01*
X112960309Y-49167579D01*
X112960310Y-49167582D01*
X113052412Y-49316904D01*
X113176468Y-49440960D01*
X113235720Y-49477506D01*
X113282445Y-49529452D01*
X113294624Y-49583045D01*
X113294624Y-50265439D01*
X113294625Y-50265448D01*
X113303915Y-50306156D01*
X113305079Y-50313011D01*
X113309756Y-50354507D01*
X113323544Y-50393910D01*
X113325469Y-50400593D01*
X113334763Y-50441309D01*
X113352883Y-50478936D01*
X113355545Y-50485362D01*
X113369336Y-50524773D01*
X113391546Y-50560120D01*
X113394911Y-50566207D01*
X113413034Y-50603837D01*
X113439064Y-50636477D01*
X113443090Y-50642152D01*
X113465306Y-50677507D01*
X113465308Y-50677510D01*
X114345805Y-51558007D01*
X114379290Y-51619330D01*
X114382124Y-51645688D01*
X114382124Y-51716196D01*
X114362439Y-51783235D01*
X114353842Y-51793903D01*
X114354262Y-51794235D01*
X114349785Y-51799895D01*
X114259217Y-51946729D01*
X114259215Y-51946734D01*
X114231843Y-52029336D01*
X114204950Y-52110495D01*
X114204950Y-52110496D01*
X114204949Y-52110496D01*
X114194624Y-52211563D01*
X114194624Y-52784917D01*
X114194625Y-52784935D01*
X114204949Y-52886000D01*
X114241233Y-52995497D01*
X114259216Y-53049764D01*
X114349784Y-53196598D01*
X114471774Y-53318588D01*
X114618608Y-53409156D01*
X114782371Y-53463422D01*
X114883447Y-53473748D01*
X115481800Y-53473747D01*
X115481808Y-53473746D01*
X115481811Y-53473746D01*
X115537154Y-53468092D01*
X115582877Y-53463422D01*
X115746640Y-53409156D01*
X115893474Y-53318588D01*
X116007799Y-53204262D01*
X116069118Y-53170780D01*
X116138810Y-53175764D01*
X116183158Y-53204265D01*
X116297085Y-53318192D01*
X116297089Y-53318195D01*
X116443812Y-53408696D01*
X116443823Y-53408701D01*
X116607471Y-53462928D01*
X116708475Y-53473247D01*
X116757623Y-53473246D01*
X116757624Y-53473246D01*
X116757624Y-52748248D01*
X117257624Y-52748248D01*
X117257624Y-53473247D01*
X117306764Y-53473247D01*
X117306778Y-53473246D01*
X117407776Y-53462928D01*
X117571424Y-53408701D01*
X117571435Y-53408696D01*
X117718158Y-53318195D01*
X117718162Y-53318192D01*
X117840068Y-53196286D01*
X117840071Y-53196282D01*
X117930572Y-53049559D01*
X117930577Y-53049548D01*
X117984804Y-52885900D01*
X117995123Y-52784902D01*
X117995124Y-52784889D01*
X117995124Y-52748248D01*
X117257624Y-52748248D01*
X116757624Y-52748248D01*
X116757624Y-51523248D01*
X117257624Y-51523248D01*
X117257624Y-52248248D01*
X117995123Y-52248248D01*
X117995123Y-52211608D01*
X117995122Y-52211593D01*
X117984804Y-52110595D01*
X117930577Y-51946947D01*
X117930572Y-51946936D01*
X117840071Y-51800213D01*
X117840068Y-51800209D01*
X117718162Y-51678303D01*
X117718158Y-51678300D01*
X117571435Y-51587799D01*
X117571424Y-51587794D01*
X117407776Y-51533567D01*
X117306778Y-51523248D01*
X117257624Y-51523248D01*
X116757624Y-51523248D01*
X116757623Y-51523247D01*
X116708485Y-51523248D01*
X116708467Y-51523249D01*
X116607471Y-51533567D01*
X116443823Y-51587794D01*
X116443812Y-51587799D01*
X116297089Y-51678300D01*
X116194805Y-51780584D01*
X116133482Y-51814068D01*
X116063790Y-51809084D01*
X116007857Y-51767212D01*
X115983440Y-51701747D01*
X115983124Y-51692902D01*
X115983124Y-51172555D01*
X115983124Y-51172554D01*
X115973831Y-51131841D01*
X115972666Y-51124981D01*
X115967992Y-51083493D01*
X115967991Y-51083490D01*
X115954200Y-51044076D01*
X115952274Y-51037389D01*
X115942985Y-50996689D01*
X115924868Y-50959068D01*
X115922205Y-50952639D01*
X115908413Y-50913225D01*
X115897201Y-50895383D01*
X115886191Y-50877860D01*
X115882830Y-50871778D01*
X115864715Y-50834160D01*
X115864714Y-50834159D01*
X115838679Y-50801513D01*
X115834652Y-50795837D01*
X115812440Y-50760486D01*
X115684886Y-50632932D01*
X114931943Y-49879989D01*
X114898458Y-49818666D01*
X114895624Y-49792308D01*
X114895624Y-49583045D01*
X114915309Y-49516006D01*
X114954527Y-49477506D01*
X115013780Y-49440960D01*
X115137836Y-49316904D01*
X115229938Y-49167582D01*
X115285123Y-49001045D01*
X115295624Y-48898257D01*
X115295623Y-48148240D01*
X115285123Y-48045451D01*
X115229938Y-47878914D01*
X115137836Y-47729592D01*
X115013780Y-47605536D01*
X115010943Y-47603786D01*
X115009407Y-47602078D01*
X115008113Y-47601055D01*
X115008287Y-47600833D01*
X114964220Y-47551842D01*
X114952996Y-47482880D01*
X114980837Y-47418797D01*
X115010941Y-47392710D01*
X115013780Y-47390960D01*
X115137836Y-47266904D01*
X115229938Y-47117582D01*
X115285123Y-46951045D01*
X115295624Y-46848257D01*
X115295623Y-46098240D01*
X115291091Y-46053879D01*
X115285123Y-45995451D01*
X115285122Y-45995448D01*
X115229938Y-45828914D01*
X115137836Y-45679592D01*
X115013780Y-45555536D01*
X114864458Y-45463434D01*
X114697921Y-45408249D01*
X114697919Y-45408248D01*
X114595134Y-45397748D01*
X113595122Y-45397748D01*
X113595104Y-45397749D01*
X113492327Y-45408248D01*
X113492324Y-45408249D01*
X113325792Y-45463433D01*
X113325787Y-45463435D01*
X113176466Y-45555537D01*
X113052413Y-45679590D01*
X112960308Y-45828916D01*
X112938224Y-45895560D01*
X112898451Y-45953004D01*
X112883643Y-45963284D01*
X112863705Y-45975075D01*
X112849532Y-45989248D01*
X112834747Y-46001876D01*
X112818536Y-46013655D01*
X112788833Y-46049558D01*
X112784901Y-46053879D01*
X111501332Y-47337447D01*
X111489075Y-47347268D01*
X111489258Y-47347489D01*
X111483247Y-47352461D01*
X111435896Y-47402884D01*
X111415013Y-47423767D01*
X111415001Y-47423780D01*
X111410745Y-47429265D01*
X111406961Y-47433695D01*
X111375061Y-47467666D01*
X111375060Y-47467668D01*
X111365408Y-47485224D01*
X111354734Y-47501474D01*
X111342453Y-47517309D01*
X111342448Y-47517316D01*
X111323939Y-47560086D01*
X111321369Y-47565332D01*
X111298927Y-47606154D01*
X111293946Y-47625555D01*
X111287645Y-47643958D01*
X111279686Y-47662350D01*
X111279685Y-47662353D01*
X111272395Y-47708375D01*
X111271211Y-47714094D01*
X111259625Y-47759220D01*
X111259624Y-47759230D01*
X111259624Y-47779264D01*
X111258097Y-47798663D01*
X111254964Y-47818442D01*
X111254964Y-47818443D01*
X111259349Y-47864831D01*
X111259624Y-47870669D01*
X111259624Y-80902503D01*
X111257899Y-80918120D01*
X111258185Y-80918147D01*
X111257450Y-80925913D01*
X111259624Y-80995062D01*
X111259624Y-81024591D01*
X111259625Y-81024608D01*
X111260492Y-81031479D01*
X111260950Y-81037298D01*
X111262414Y-81083872D01*
X111262415Y-81083875D01*
X111268004Y-81103115D01*
X111271948Y-81122159D01*
X111274460Y-81142039D01*
X111291614Y-81185367D01*
X111293506Y-81190895D01*
X111306505Y-81235636D01*
X111316704Y-81252882D01*
X111325262Y-81270351D01*
X111332638Y-81288980D01*
X111360022Y-81326671D01*
X111363230Y-81331555D01*
X111386951Y-81371664D01*
X111386957Y-81371672D01*
X111401114Y-81385828D01*
X111413752Y-81400624D01*
X111425529Y-81416834D01*
X111425530Y-81416835D01*
X111461433Y-81446536D01*
X111465744Y-81450458D01*
X113744876Y-83729590D01*
X115998505Y-85983219D01*
X116031990Y-86044542D01*
X116034824Y-86070900D01*
X116034824Y-87744907D01*
X116015139Y-87811946D01*
X115962335Y-87857701D01*
X115893177Y-87867645D01*
X115829621Y-87838620D01*
X115818675Y-87827880D01*
X115792995Y-87799360D01*
X115792994Y-87799359D01*
X115639858Y-87688099D01*
X115639853Y-87688096D01*
X115466931Y-87611105D01*
X115466926Y-87611103D01*
X115321125Y-87580113D01*
X115281770Y-87571748D01*
X115092478Y-87571748D01*
X115060021Y-87578646D01*
X114907321Y-87611103D01*
X114907316Y-87611105D01*
X114734394Y-87688096D01*
X114734389Y-87688099D01*
X114581253Y-87799359D01*
X114581252Y-87799360D01*
X114512732Y-87875459D01*
X114453245Y-87912107D01*
X114383388Y-87910776D01*
X114325340Y-87871889D01*
X114297531Y-87807792D01*
X114297273Y-87805544D01*
X114294798Y-87781992D01*
X114245817Y-87631245D01*
X114236305Y-87601970D01*
X114236304Y-87601969D01*
X114236303Y-87601964D01*
X114141657Y-87438032D01*
X114014995Y-87297360D01*
X114003556Y-87289049D01*
X113861858Y-87186099D01*
X113861853Y-87186096D01*
X113688931Y-87109105D01*
X113688926Y-87109103D01*
X113543125Y-87078113D01*
X113503770Y-87069748D01*
X113314478Y-87069748D01*
X113282021Y-87076646D01*
X113129321Y-87109103D01*
X113129316Y-87109105D01*
X112956394Y-87186096D01*
X112956389Y-87186099D01*
X112847009Y-87265569D01*
X112781203Y-87289049D01*
X112713149Y-87273223D01*
X112701239Y-87265569D01*
X112591858Y-87186099D01*
X112591853Y-87186096D01*
X112418931Y-87109105D01*
X112418926Y-87109103D01*
X112273125Y-87078113D01*
X112233770Y-87069748D01*
X112044478Y-87069748D01*
X112012021Y-87076646D01*
X111859321Y-87109103D01*
X111859316Y-87109105D01*
X111686394Y-87186096D01*
X111686389Y-87186099D01*
X111533253Y-87297359D01*
X111406590Y-87438033D01*
X111311945Y-87601963D01*
X111311942Y-87601970D01*
X111258252Y-87767212D01*
X111253450Y-87781992D01*
X111233664Y-87970248D01*
X111253450Y-88158504D01*
X111253451Y-88158507D01*
X111311944Y-88338531D01*
X111356814Y-88416249D01*
X111373286Y-88484149D01*
X111356814Y-88540247D01*
X111311944Y-88617964D01*
X111253451Y-88797988D01*
X111253450Y-88797992D01*
X111233664Y-88986248D01*
X111253450Y-89174504D01*
X111253451Y-89174506D01*
X111253451Y-89174507D01*
X111311942Y-89354525D01*
X111311945Y-89354532D01*
X111406591Y-89518464D01*
X111456354Y-89573731D01*
X111533253Y-89659136D01*
X111686389Y-89770396D01*
X111686394Y-89770399D01*
X111859316Y-89847390D01*
X111859321Y-89847392D01*
X112044478Y-89886748D01*
X112044479Y-89886748D01*
X112233768Y-89886748D01*
X112233770Y-89886748D01*
X112418927Y-89847392D01*
X112591854Y-89770399D01*
X112701241Y-89690924D01*
X112767044Y-89667446D01*
X112835098Y-89683271D01*
X112846995Y-89690916D01*
X112956390Y-89770396D01*
X112956394Y-89770399D01*
X113129316Y-89847390D01*
X113129321Y-89847392D01*
X113314478Y-89886748D01*
X113314479Y-89886748D01*
X113503768Y-89886748D01*
X113503770Y-89886748D01*
X113688927Y-89847392D01*
X113861854Y-89770399D01*
X114014995Y-89659136D01*
X114141657Y-89518464D01*
X114236303Y-89354532D01*
X114294798Y-89174504D01*
X114298392Y-89140300D01*
X114324974Y-89075689D01*
X114382270Y-89035703D01*
X114452089Y-89033041D01*
X114512263Y-89068549D01*
X114513862Y-89070291D01*
X114581253Y-89145136D01*
X114734389Y-89256396D01*
X114734394Y-89256399D01*
X114907316Y-89333390D01*
X114907321Y-89333392D01*
X115092478Y-89372748D01*
X115098024Y-89372748D01*
X115165063Y-89392433D01*
X115210818Y-89445237D01*
X115222024Y-89496748D01*
X115222024Y-98072903D01*
X115220299Y-98088520D01*
X115220585Y-98088547D01*
X115219850Y-98096313D01*
X115222024Y-98165462D01*
X115222024Y-98194991D01*
X115222025Y-98195008D01*
X115222892Y-98201879D01*
X115223350Y-98207698D01*
X115224814Y-98254272D01*
X115224815Y-98254275D01*
X115230404Y-98273515D01*
X115234348Y-98292559D01*
X115236860Y-98312439D01*
X115254014Y-98355767D01*
X115255906Y-98361295D01*
X115268905Y-98406036D01*
X115279104Y-98423282D01*
X115287662Y-98440751D01*
X115295038Y-98459380D01*
X115322422Y-98497071D01*
X115325630Y-98501955D01*
X115349351Y-98542064D01*
X115349357Y-98542072D01*
X115363514Y-98556228D01*
X115376152Y-98571024D01*
X115387929Y-98587234D01*
X115387930Y-98587235D01*
X115423833Y-98616936D01*
X115428144Y-98620858D01*
X115521945Y-98714659D01*
X115574697Y-98767411D01*
X115608182Y-98828734D01*
X115603198Y-98898426D01*
X115561326Y-98954359D01*
X115512797Y-98976382D01*
X115478821Y-98983603D01*
X115478816Y-98983605D01*
X115305894Y-99060596D01*
X115305889Y-99060599D01*
X115152753Y-99171859D01*
X115026090Y-99312533D01*
X114931445Y-99476463D01*
X114931442Y-99476470D01*
X114885376Y-99618248D01*
X114872950Y-99656492D01*
X114853164Y-99844748D01*
X114872950Y-100033004D01*
X114872951Y-100033007D01*
X114931442Y-100213025D01*
X114931445Y-100213032D01*
X115026091Y-100376964D01*
X115069396Y-100425058D01*
X115101274Y-100460463D01*
X115131504Y-100523454D01*
X115133124Y-100543435D01*
X115133124Y-101109095D01*
X115113439Y-101176134D01*
X115096805Y-101196776D01*
X111205152Y-105088429D01*
X111143829Y-105121914D01*
X111117471Y-105124748D01*
X109020577Y-105124748D01*
X108953538Y-105105063D01*
X108932896Y-105088429D01*
X104953795Y-101109328D01*
X104920310Y-101048005D01*
X104923544Y-100983331D01*
X104947598Y-100909304D01*
X104967384Y-100721048D01*
X104947598Y-100532792D01*
X104889103Y-100352764D01*
X104794457Y-100188832D01*
X104667795Y-100048160D01*
X104646939Y-100033007D01*
X104514658Y-99936899D01*
X104514653Y-99936896D01*
X104341731Y-99859905D01*
X104341726Y-99859903D01*
X104192791Y-99828247D01*
X104156570Y-99820548D01*
X103967278Y-99820548D01*
X103934821Y-99827446D01*
X103782121Y-99859903D01*
X103782116Y-99859905D01*
X103609194Y-99936896D01*
X103609189Y-99936899D01*
X103456053Y-100048159D01*
X103329390Y-100188833D01*
X103234745Y-100352763D01*
X103234742Y-100352770D01*
X103199751Y-100460463D01*
X103176250Y-100532792D01*
X103156464Y-100721048D01*
X103159547Y-100750388D01*
X103146979Y-100819116D01*
X103099247Y-100870140D01*
X103036227Y-100887348D01*
X102951278Y-100887348D01*
X102918821Y-100894246D01*
X102766121Y-100926703D01*
X102766116Y-100926705D01*
X102593194Y-101003696D01*
X102593189Y-101003699D01*
X102440053Y-101114959D01*
X102313390Y-101255633D01*
X102218745Y-101419563D01*
X102218742Y-101419570D01*
X102160251Y-101599588D01*
X102160250Y-101599592D01*
X102140464Y-101787848D01*
X102160250Y-101976104D01*
X102160251Y-101976107D01*
X102218742Y-102156125D01*
X102218745Y-102156132D01*
X102313391Y-102320064D01*
X102440053Y-102460736D01*
X102593189Y-102571996D01*
X102593194Y-102571999D01*
X102766116Y-102648990D01*
X102766121Y-102648992D01*
X102951278Y-102688348D01*
X103010472Y-102688348D01*
X103077511Y-102708033D01*
X103098153Y-102724667D01*
X112009552Y-111636067D01*
X112043037Y-111697390D01*
X112038053Y-111767082D01*
X111996181Y-111823015D01*
X111930717Y-111847432D01*
X111921871Y-111847748D01*
X99047261Y-111847748D01*
X99031644Y-111846024D01*
X99031617Y-111846310D01*
X99023855Y-111845575D01*
X98954727Y-111847748D01*
X98925174Y-111847748D01*
X98924453Y-111847838D01*
X98918281Y-111848617D01*
X98912469Y-111849074D01*
X98865896Y-111850538D01*
X98865893Y-111850539D01*
X98846650Y-111856129D01*
X98827607Y-111860073D01*
X98807728Y-111862584D01*
X98807727Y-111862585D01*
X98764402Y-111879738D01*
X98758876Y-111881630D01*
X98714132Y-111894631D01*
X98714128Y-111894633D01*
X98696889Y-111904828D01*
X98679422Y-111913385D01*
X98660793Y-111920760D01*
X98660791Y-111920761D01*
X98623088Y-111948154D01*
X98618206Y-111951360D01*
X98578104Y-111975076D01*
X98563932Y-111989248D01*
X98549147Y-112001876D01*
X98532936Y-112013655D01*
X98503233Y-112049558D01*
X98499301Y-112053879D01*
X80318752Y-130234429D01*
X80257429Y-130267914D01*
X80231071Y-130270748D01*
X67517867Y-130270748D01*
X67502246Y-130269023D01*
X67502220Y-130269309D01*
X67494458Y-130268575D01*
X67494457Y-130268575D01*
X67425310Y-130270748D01*
X67395773Y-130270748D01*
X67388890Y-130271617D01*
X67383073Y-130272074D01*
X67336497Y-130273538D01*
X67317253Y-130279129D01*
X67298203Y-130283073D01*
X67278335Y-130285582D01*
X67235008Y-130302736D01*
X67229482Y-130304627D01*
X67184738Y-130317627D01*
X67184734Y-130317629D01*
X67167490Y-130327827D01*
X67150029Y-130336381D01*
X67131398Y-130343758D01*
X67131386Y-130343765D01*
X67093694Y-130371150D01*
X67088811Y-130374357D01*
X67048704Y-130398077D01*
X67034538Y-130412243D01*
X67019748Y-130424875D01*
X67003538Y-130436652D01*
X67003535Y-130436655D01*
X66973834Y-130472557D01*
X66969901Y-130476879D01*
X66026332Y-131420447D01*
X66014075Y-131430268D01*
X66014258Y-131430489D01*
X66008247Y-131435461D01*
X65960896Y-131485884D01*
X65940013Y-131506767D01*
X65940001Y-131506780D01*
X65935745Y-131512265D01*
X65931961Y-131516695D01*
X65900061Y-131550666D01*
X65900060Y-131550668D01*
X65890408Y-131568224D01*
X65879734Y-131584474D01*
X65867453Y-131600309D01*
X65867448Y-131600316D01*
X65848939Y-131643086D01*
X65846369Y-131648332D01*
X65823927Y-131689154D01*
X65818946Y-131708555D01*
X65812643Y-131726963D01*
X65805960Y-131742406D01*
X65761269Y-131796113D01*
X65757256Y-131798696D01*
X65616471Y-131885533D01*
X65616467Y-131885536D01*
X65492413Y-132009590D01*
X65400311Y-132158911D01*
X65400309Y-132158916D01*
X65376788Y-132229898D01*
X65345125Y-132325451D01*
X65345125Y-132325452D01*
X65345124Y-132325452D01*
X65334624Y-132428231D01*
X65334624Y-133428249D01*
X62578143Y-133428249D01*
X63581862Y-132290700D01*
X90043788Y-102300516D01*
X90045587Y-102298600D01*
X90045720Y-102298246D01*
X90045718Y-102298156D01*
X90045565Y-102297816D01*
X90045551Y-102297804D01*
X90045183Y-102297665D01*
X90042520Y-102297748D01*
X70328142Y-102297748D01*
X70261103Y-102278063D01*
X70215348Y-102225259D01*
X70205404Y-102156101D01*
X70234429Y-102092545D01*
X70236735Y-102089958D01*
X70293225Y-102028333D01*
X97543037Y-72301262D01*
X97545424Y-72298954D01*
X97545667Y-72298328D01*
X97545663Y-72298148D01*
X97545662Y-72298137D01*
X97545568Y-72297923D01*
X97545542Y-72297899D01*
X97545496Y-72297852D01*
X97545318Y-72297787D01*
X97545097Y-72297696D01*
X97542794Y-72297748D01*
X85283567Y-72297748D01*
X85216528Y-72278063D01*
X85170773Y-72225259D01*
X85160829Y-72156101D01*
X85181817Y-72102876D01*
X98265671Y-53318586D01*
X108918875Y-38023943D01*
X108973343Y-37980185D01*
X109042823Y-37972820D01*
X109105255Y-38004189D01*
X109140818Y-38064331D01*
X109144624Y-38094817D01*
X109144624Y-41530118D01*
X109124939Y-41597157D01*
X109072135Y-41642912D01*
X109002977Y-41652856D01*
X108992592Y-41650409D01*
X108992538Y-41650666D01*
X108985919Y-41649248D01*
X108883134Y-41638748D01*
X108283122Y-41638748D01*
X108283104Y-41638749D01*
X108180327Y-41649248D01*
X108180324Y-41649249D01*
X108013792Y-41704433D01*
X108013787Y-41704435D01*
X107864466Y-41796537D01*
X107740413Y-41920590D01*
X107648311Y-42069911D01*
X107648310Y-42069914D01*
X107593125Y-42236451D01*
X107593125Y-42236452D01*
X107593124Y-42236452D01*
X107582624Y-42339231D01*
X107582624Y-43939249D01*
X107582625Y-43939266D01*
X107593124Y-44042044D01*
X107593125Y-44042047D01*
X107648309Y-44208579D01*
X107648310Y-44208582D01*
X107740412Y-44357904D01*
X107864468Y-44481960D01*
X108013790Y-44574062D01*
X108180327Y-44629247D01*
X108283115Y-44639748D01*
X108883132Y-44639747D01*
X108883140Y-44639746D01*
X108883143Y-44639746D01*
X108915163Y-44636475D01*
X108985921Y-44629247D01*
X108985928Y-44629244D01*
X108992538Y-44627830D01*
X108993063Y-44630285D01*
X109051405Y-44628258D01*
X109111460Y-44663968D01*
X109142675Y-44726478D01*
X109144624Y-44748377D01*
X109144624Y-86841748D01*
X109124939Y-86908787D01*
X109072135Y-86954542D01*
X109020624Y-86965748D01*
X106047253Y-86965748D01*
X106047247Y-86965749D01*
X105987640Y-86972156D01*
X105852795Y-87022450D01*
X105852788Y-87022454D01*
X105737579Y-87108700D01*
X105737576Y-87108703D01*
X105651330Y-87223912D01*
X105651326Y-87223919D01*
X105601032Y-87358765D01*
X105594625Y-87418364D01*
X105594624Y-87418383D01*
X105594624Y-87716748D01*
X105574939Y-87783787D01*
X105522135Y-87829542D01*
X105470624Y-87840748D01*
X105375272Y-87840748D01*
X105308233Y-87821063D01*
X105283124Y-87799722D01*
X105277397Y-87793362D01*
X105277393Y-87793358D01*
X105124258Y-87682099D01*
X105124253Y-87682096D01*
X104951331Y-87605105D01*
X104951326Y-87605103D01*
X104794398Y-87571748D01*
X104766170Y-87565748D01*
X104576878Y-87565748D01*
X104548650Y-87571748D01*
X104391721Y-87605103D01*
X104391720Y-87605103D01*
X104353859Y-87621961D01*
X104284609Y-87631245D01*
X104221333Y-87601616D01*
X104184120Y-87542481D01*
X104179424Y-87508681D01*
X104179424Y-75149785D01*
X104181148Y-75134171D01*
X104180862Y-75134144D01*
X104181596Y-75126381D01*
X104179424Y-75057251D01*
X104179424Y-75027699D01*
X104179424Y-75027698D01*
X104178553Y-75020807D01*
X104178096Y-75014993D01*
X104176633Y-74968420D01*
X104171046Y-74949192D01*
X104167098Y-74930132D01*
X104164588Y-74910256D01*
X104147431Y-74866923D01*
X104145543Y-74861407D01*
X104132543Y-74816660D01*
X104122342Y-74799411D01*
X104113784Y-74781942D01*
X104106410Y-74763316D01*
X104106407Y-74763312D01*
X104106407Y-74763311D01*
X104079022Y-74725619D01*
X104075814Y-74720735D01*
X104052096Y-74680630D01*
X104052087Y-74680619D01*
X104037929Y-74666461D01*
X104025294Y-74651668D01*
X104013517Y-74635460D01*
X103977617Y-74605761D01*
X103973305Y-74601838D01*
X99685927Y-70314460D01*
X99676104Y-70302198D01*
X99675883Y-70302382D01*
X99670910Y-70296371D01*
X99620488Y-70249021D01*
X99610043Y-70238576D01*
X99599599Y-70228131D01*
X99594110Y-70223873D01*
X99589685Y-70220095D01*
X99555706Y-70188186D01*
X99555704Y-70188184D01*
X99555701Y-70188183D01*
X99538153Y-70178536D01*
X99521887Y-70167852D01*
X99506057Y-70155573D01*
X99463292Y-70137066D01*
X99458046Y-70134496D01*
X99417217Y-70112051D01*
X99417216Y-70112050D01*
X99397817Y-70107070D01*
X99379405Y-70100766D01*
X99361022Y-70092810D01*
X99361016Y-70092808D01*
X99314998Y-70085520D01*
X99309276Y-70084335D01*
X99264145Y-70072748D01*
X99264143Y-70072748D01*
X99244108Y-70072748D01*
X99224710Y-70071221D01*
X99217286Y-70070045D01*
X99204929Y-70068088D01*
X99204928Y-70068088D01*
X99158540Y-70072473D01*
X99152702Y-70072748D01*
X94161577Y-70072748D01*
X94094538Y-70053063D01*
X94073896Y-70036429D01*
X93701672Y-69664205D01*
X93668187Y-69602882D01*
X93673171Y-69533190D01*
X93715043Y-69477257D01*
X93780507Y-69452840D01*
X93848780Y-69467692D01*
X93854429Y-69470973D01*
X93977790Y-69547062D01*
X94144327Y-69602247D01*
X94247115Y-69612748D01*
X94997132Y-69612747D01*
X94997140Y-69612746D01*
X94997143Y-69612746D01*
X95053426Y-69606996D01*
X95099921Y-69602247D01*
X95266458Y-69547062D01*
X95415780Y-69454960D01*
X95539836Y-69330904D01*
X95588075Y-69252694D01*
X95640022Y-69205969D01*
X95708984Y-69194746D01*
X95773067Y-69222589D01*
X95781295Y-69230109D01*
X95783774Y-69232588D01*
X95930608Y-69323156D01*
X96094371Y-69377422D01*
X96195447Y-69387748D01*
X96793800Y-69387747D01*
X96793808Y-69387746D01*
X96793811Y-69387746D01*
X96849154Y-69382092D01*
X96894877Y-69377422D01*
X97058640Y-69323156D01*
X97205474Y-69232588D01*
X97319799Y-69118262D01*
X97381118Y-69084780D01*
X97450810Y-69089764D01*
X97495158Y-69118265D01*
X97609085Y-69232192D01*
X97609089Y-69232195D01*
X97755812Y-69322696D01*
X97755823Y-69322701D01*
X97919471Y-69376928D01*
X98020475Y-69387247D01*
X98069623Y-69387246D01*
X98069624Y-69387246D01*
X98069624Y-68662248D01*
X98569624Y-68662248D01*
X98569624Y-69387247D01*
X98618764Y-69387247D01*
X98618778Y-69387246D01*
X98719776Y-69376928D01*
X98883424Y-69322701D01*
X98883435Y-69322696D01*
X99030158Y-69232195D01*
X99030162Y-69232192D01*
X99152068Y-69110286D01*
X99152071Y-69110282D01*
X99242572Y-68963559D01*
X99242577Y-68963548D01*
X99296804Y-68799900D01*
X99307123Y-68698902D01*
X99307124Y-68698889D01*
X99307124Y-68662248D01*
X98569624Y-68662248D01*
X98069624Y-68662248D01*
X98069624Y-67437248D01*
X98569624Y-67437248D01*
X98569624Y-68162248D01*
X99307123Y-68162248D01*
X99307123Y-68125608D01*
X99307122Y-68125593D01*
X99296804Y-68024595D01*
X99242577Y-67860947D01*
X99242572Y-67860936D01*
X99152071Y-67714213D01*
X99152068Y-67714209D01*
X99030162Y-67592303D01*
X99030158Y-67592300D01*
X98883435Y-67501799D01*
X98883424Y-67501794D01*
X98719776Y-67447567D01*
X98618778Y-67437248D01*
X98569624Y-67437248D01*
X98069624Y-67437248D01*
X98069623Y-67437247D01*
X98020485Y-67437248D01*
X98020467Y-67437249D01*
X97919471Y-67447567D01*
X97755823Y-67501794D01*
X97755812Y-67501799D01*
X97609089Y-67592300D01*
X97495158Y-67706231D01*
X97433835Y-67739715D01*
X97364143Y-67734731D01*
X97319796Y-67706230D01*
X97205475Y-67591909D01*
X97205474Y-67591908D01*
X97114253Y-67535643D01*
X97058642Y-67501341D01*
X97058637Y-67501339D01*
X97035252Y-67493590D01*
X96894877Y-67447074D01*
X96894875Y-67447073D01*
X96793802Y-67436748D01*
X96195454Y-67436748D01*
X96195436Y-67436749D01*
X96094371Y-67447073D01*
X95930608Y-67501340D01*
X95930605Y-67501341D01*
X95783771Y-67591909D01*
X95783770Y-67591910D01*
X95781289Y-67594392D01*
X95779168Y-67595549D01*
X95778111Y-67596386D01*
X95777967Y-67596205D01*
X95719964Y-67627873D01*
X95650273Y-67622884D01*
X95594342Y-67581009D01*
X95588075Y-67571801D01*
X95539836Y-67493592D01*
X95415781Y-67369537D01*
X95415780Y-67369536D01*
X95266458Y-67277434D01*
X95099921Y-67222249D01*
X95099919Y-67222248D01*
X94997134Y-67211748D01*
X94247122Y-67211748D01*
X94247104Y-67211749D01*
X94144327Y-67222248D01*
X94144324Y-67222249D01*
X93977792Y-67277433D01*
X93977787Y-67277435D01*
X93828466Y-67369537D01*
X93704409Y-67493594D01*
X93702661Y-67496430D01*
X93700953Y-67497965D01*
X93699931Y-67499259D01*
X93699709Y-67499084D01*
X93650713Y-67543153D01*
X93581750Y-67554374D01*
X93517668Y-67526530D01*
X93491587Y-67496430D01*
X93489838Y-67493594D01*
X93365781Y-67369537D01*
X93365780Y-67369536D01*
X93216458Y-67277434D01*
X93049921Y-67222249D01*
X93049919Y-67222248D01*
X92947134Y-67211748D01*
X92197122Y-67211748D01*
X92197104Y-67211749D01*
X92094327Y-67222248D01*
X92094324Y-67222249D01*
X91927792Y-67277433D01*
X91927787Y-67277435D01*
X91778466Y-67369537D01*
X91654413Y-67493590D01*
X91562311Y-67642911D01*
X91562310Y-67642914D01*
X91507125Y-67809451D01*
X91507125Y-67809452D01*
X91507124Y-67809452D01*
X91496624Y-67912231D01*
X91496624Y-68912249D01*
X91496625Y-68912267D01*
X91507124Y-69015044D01*
X91507125Y-69015047D01*
X91562309Y-69181579D01*
X91562311Y-69181584D01*
X91593526Y-69232192D01*
X91654412Y-69330904D01*
X91778468Y-69454960D01*
X91922118Y-69543563D01*
X91968842Y-69595509D01*
X91972314Y-69603456D01*
X91978613Y-69619367D01*
X91980506Y-69624895D01*
X91993505Y-69669636D01*
X92003704Y-69686882D01*
X92012262Y-69704351D01*
X92019638Y-69722980D01*
X92047022Y-69760671D01*
X92050230Y-69765555D01*
X92073951Y-69805664D01*
X92073957Y-69805672D01*
X92088114Y-69819828D01*
X92100752Y-69834624D01*
X92112529Y-69850834D01*
X92112530Y-69850835D01*
X92148433Y-69880536D01*
X92152744Y-69884458D01*
X92456469Y-70188183D01*
X93350321Y-71082036D01*
X93360146Y-71094299D01*
X93360367Y-71094117D01*
X93365338Y-71100126D01*
X93391341Y-71124543D01*
X93415759Y-71147474D01*
X93436653Y-71168368D01*
X93442135Y-71172621D01*
X93446567Y-71176405D01*
X93480542Y-71208310D01*
X93498100Y-71217962D01*
X93514359Y-71228643D01*
X93530188Y-71240921D01*
X93572962Y-71259430D01*
X93578180Y-71261986D01*
X93619032Y-71284445D01*
X93638440Y-71289428D01*
X93656841Y-71295728D01*
X93675228Y-71303685D01*
X93718612Y-71310556D01*
X93721243Y-71310973D01*
X93726963Y-71312157D01*
X93772105Y-71323748D01*
X93792140Y-71323748D01*
X93811538Y-71325274D01*
X93831318Y-71328407D01*
X93831319Y-71328408D01*
X93831319Y-71328407D01*
X93831320Y-71328408D01*
X93877708Y-71324023D01*
X93883546Y-71323748D01*
X98874672Y-71323748D01*
X98941711Y-71343433D01*
X98962353Y-71360067D01*
X102892105Y-75289819D01*
X102925590Y-75351142D01*
X102928424Y-75377500D01*
X102928424Y-91240303D01*
X102926699Y-91255920D01*
X102926985Y-91255947D01*
X102926250Y-91263713D01*
X102928424Y-91332862D01*
X102928424Y-91362391D01*
X102928425Y-91362408D01*
X102929292Y-91369279D01*
X102929750Y-91375098D01*
X102931214Y-91421672D01*
X102931215Y-91421675D01*
X102936804Y-91440915D01*
X102940748Y-91459959D01*
X102940818Y-91460507D01*
X102943260Y-91479839D01*
X102960414Y-91523167D01*
X102962306Y-91528695D01*
X102975305Y-91573436D01*
X102985504Y-91590682D01*
X102994062Y-91608151D01*
X103001438Y-91626780D01*
X103028822Y-91664471D01*
X103032030Y-91669355D01*
X103055751Y-91709464D01*
X103055757Y-91709472D01*
X103069914Y-91723628D01*
X103082552Y-91738424D01*
X103094329Y-91754634D01*
X103094330Y-91754635D01*
X103121821Y-91777377D01*
X103160929Y-91835277D01*
X103166102Y-91859958D01*
X103176250Y-91956506D01*
X103176251Y-91956508D01*
X103234742Y-92136525D01*
X103234745Y-92136532D01*
X103329391Y-92300464D01*
X103431109Y-92413433D01*
X103456053Y-92441136D01*
X103609189Y-92552396D01*
X103609194Y-92552399D01*
X103782116Y-92629390D01*
X103782121Y-92629392D01*
X103967278Y-92668748D01*
X103967279Y-92668748D01*
X104156568Y-92668748D01*
X104156570Y-92668748D01*
X104341727Y-92629392D01*
X104514654Y-92552399D01*
X104667795Y-92441136D01*
X104670712Y-92437895D01*
X104673524Y-92434774D01*
X104733011Y-92398127D01*
X104765672Y-92393748D01*
X105470625Y-92393748D01*
X105537664Y-92413433D01*
X105583419Y-92466237D01*
X105594625Y-92517748D01*
X105594625Y-92816124D01*
X105601032Y-92875731D01*
X105651326Y-93010576D01*
X105651330Y-93010583D01*
X105737576Y-93125792D01*
X105737579Y-93125795D01*
X105852788Y-93212041D01*
X105852795Y-93212045D01*
X105987641Y-93262339D01*
X105987640Y-93262339D01*
X105994568Y-93263083D01*
X106047251Y-93268748D01*
X109020624Y-93268747D01*
X109087663Y-93288432D01*
X109133418Y-93341236D01*
X109144624Y-93392747D01*
X109144624Y-93445748D01*
X109124939Y-93512787D01*
X109072135Y-93558542D01*
X109020624Y-93569748D01*
X106047253Y-93569748D01*
X106047247Y-93569749D01*
X105987640Y-93576156D01*
X105852795Y-93626450D01*
X105852788Y-93626454D01*
X105737579Y-93712700D01*
X105737576Y-93712703D01*
X105651330Y-93827912D01*
X105651326Y-93827919D01*
X105601032Y-93962765D01*
X105594625Y-94022364D01*
X105594624Y-94022383D01*
X105594624Y-94084735D01*
X105574939Y-94151774D01*
X105522135Y-94197529D01*
X105452977Y-94207473D01*
X105444844Y-94206025D01*
X105274170Y-94169748D01*
X105084878Y-94169748D01*
X105056650Y-94175748D01*
X104899721Y-94209103D01*
X104899716Y-94209105D01*
X104726794Y-94286096D01*
X104726789Y-94286099D01*
X104573654Y-94397358D01*
X104573650Y-94397362D01*
X104567924Y-94403722D01*
X104508437Y-94440369D01*
X104475776Y-94444748D01*
X79975862Y-94444748D01*
X79960245Y-94443024D01*
X79960218Y-94443310D01*
X79952456Y-94442575D01*
X79883328Y-94444748D01*
X79853774Y-94444748D01*
X79853053Y-94444838D01*
X79846881Y-94445617D01*
X79841069Y-94446074D01*
X79794497Y-94447538D01*
X79794496Y-94447538D01*
X79775253Y-94453129D01*
X79756203Y-94457073D01*
X79736335Y-94459582D01*
X79736333Y-94459583D01*
X79693008Y-94476736D01*
X79687481Y-94478628D01*
X79642734Y-94491629D01*
X79642733Y-94491630D01*
X79625491Y-94501827D01*
X79608023Y-94510385D01*
X79589393Y-94517761D01*
X79589391Y-94517762D01*
X79551700Y-94545146D01*
X79546818Y-94548353D01*
X79506703Y-94572078D01*
X79492532Y-94586248D01*
X79477747Y-94598876D01*
X79461536Y-94610655D01*
X79431833Y-94646558D01*
X79427901Y-94650879D01*
X77701332Y-96377447D01*
X77689075Y-96387268D01*
X77689258Y-96387489D01*
X77683247Y-96392461D01*
X77635896Y-96442884D01*
X77615013Y-96463767D01*
X77615001Y-96463780D01*
X77610745Y-96469265D01*
X77606961Y-96473695D01*
X77575061Y-96507666D01*
X77575060Y-96507668D01*
X77565408Y-96525224D01*
X77554734Y-96541474D01*
X77542453Y-96557309D01*
X77542448Y-96557316D01*
X77523939Y-96600086D01*
X77521369Y-96605332D01*
X77498927Y-96646154D01*
X77493946Y-96665555D01*
X77487645Y-96683958D01*
X77479686Y-96702350D01*
X77479685Y-96702353D01*
X77472395Y-96748375D01*
X77471211Y-96754094D01*
X77459625Y-96799220D01*
X77459624Y-96799230D01*
X77459624Y-96819264D01*
X77458097Y-96838663D01*
X77454964Y-96858442D01*
X77454964Y-96858443D01*
X77459349Y-96904831D01*
X77459624Y-96910669D01*
X77459624Y-97422610D01*
X77439939Y-97489649D01*
X77400722Y-97528147D01*
X77332412Y-97570281D01*
X77291466Y-97595537D01*
X77167413Y-97719590D01*
X77075311Y-97868911D01*
X77075309Y-97868916D01*
X77066150Y-97896557D01*
X77020125Y-98035451D01*
X77020125Y-98035452D01*
X77020124Y-98035452D01*
X77009624Y-98138231D01*
X77009624Y-99138249D01*
X77009625Y-99138267D01*
X77020124Y-99241044D01*
X77020125Y-99241047D01*
X77075309Y-99407579D01*
X77075311Y-99407584D01*
X77104086Y-99454235D01*
X77167412Y-99556904D01*
X77291468Y-99680960D01*
X77440790Y-99773062D01*
X77607327Y-99828247D01*
X77710115Y-99838748D01*
X78460132Y-99838747D01*
X78460140Y-99838746D01*
X78460143Y-99838746D01*
X78516426Y-99832996D01*
X78562921Y-99828247D01*
X78729458Y-99773062D01*
X78878780Y-99680960D01*
X79002836Y-99556904D01*
X79004585Y-99554067D01*
X79006293Y-99552531D01*
X79007317Y-99551237D01*
X79007538Y-99551411D01*
X79056530Y-99507344D01*
X79125492Y-99496120D01*
X79189575Y-99523961D01*
X79215661Y-99554065D01*
X79217412Y-99556904D01*
X79341468Y-99680960D01*
X79490790Y-99773062D01*
X79657327Y-99828247D01*
X79760115Y-99838748D01*
X80510132Y-99838747D01*
X80510140Y-99838746D01*
X80510143Y-99838746D01*
X80566426Y-99832996D01*
X80612921Y-99828247D01*
X80779458Y-99773062D01*
X80928780Y-99680960D01*
X81052836Y-99556904D01*
X81097262Y-99484876D01*
X81149207Y-99438154D01*
X81218169Y-99426931D01*
X81281011Y-99454235D01*
X81281111Y-99454110D01*
X81281583Y-99454483D01*
X81282252Y-99454774D01*
X81284185Y-99456540D01*
X81286771Y-99458586D01*
X81286773Y-99458587D01*
X81286774Y-99458588D01*
X81433608Y-99549156D01*
X81597371Y-99603422D01*
X81698447Y-99613748D01*
X82296800Y-99613747D01*
X82296808Y-99613746D01*
X82296811Y-99613746D01*
X82352154Y-99608092D01*
X82397877Y-99603422D01*
X82561640Y-99549156D01*
X82708474Y-99458588D01*
X82822799Y-99344262D01*
X82884118Y-99310780D01*
X82953810Y-99315764D01*
X82998158Y-99344265D01*
X83112085Y-99458192D01*
X83112089Y-99458195D01*
X83258812Y-99548696D01*
X83258823Y-99548701D01*
X83422471Y-99602928D01*
X83523475Y-99613247D01*
X83572623Y-99613246D01*
X83572624Y-99613246D01*
X83572624Y-98888248D01*
X84072624Y-98888248D01*
X84072624Y-99613247D01*
X84121764Y-99613247D01*
X84121778Y-99613246D01*
X84222776Y-99602928D01*
X84386424Y-99548701D01*
X84386435Y-99548696D01*
X84533158Y-99458195D01*
X84533162Y-99458192D01*
X84655068Y-99336286D01*
X84655071Y-99336282D01*
X84745572Y-99189559D01*
X84745577Y-99189548D01*
X84799804Y-99025900D01*
X84810123Y-98924902D01*
X84810124Y-98924889D01*
X84810124Y-98888248D01*
X84072624Y-98888248D01*
X83572624Y-98888248D01*
X83572624Y-97663248D01*
X84072624Y-97663248D01*
X84072624Y-98388248D01*
X84810123Y-98388248D01*
X84810123Y-98351608D01*
X84810122Y-98351593D01*
X84799804Y-98250595D01*
X84745577Y-98086947D01*
X84745572Y-98086936D01*
X84655071Y-97940213D01*
X84655068Y-97940209D01*
X84533162Y-97818303D01*
X84533158Y-97818300D01*
X84386435Y-97727799D01*
X84386424Y-97727794D01*
X84222776Y-97673567D01*
X84121778Y-97663248D01*
X84072624Y-97663248D01*
X83572624Y-97663248D01*
X83572623Y-97663247D01*
X83523485Y-97663248D01*
X83523467Y-97663249D01*
X83422471Y-97673567D01*
X83258823Y-97727794D01*
X83258812Y-97727799D01*
X83112089Y-97818300D01*
X82998158Y-97932231D01*
X82936835Y-97965715D01*
X82867143Y-97960731D01*
X82822796Y-97932230D01*
X82708475Y-97817909D01*
X82708474Y-97817908D01*
X82617253Y-97761643D01*
X82561642Y-97727341D01*
X82561637Y-97727339D01*
X82538252Y-97719590D01*
X82397877Y-97673074D01*
X82397875Y-97673073D01*
X82296802Y-97662748D01*
X81698454Y-97662748D01*
X81698436Y-97662749D01*
X81597371Y-97673073D01*
X81433608Y-97727340D01*
X81433605Y-97727341D01*
X81286771Y-97817909D01*
X81281111Y-97822386D01*
X81279421Y-97820249D01*
X81229114Y-97847696D01*
X81159424Y-97842686D01*
X81103505Y-97800795D01*
X81097260Y-97791616D01*
X81052836Y-97719592D01*
X80928781Y-97595537D01*
X80928780Y-97595536D01*
X80779458Y-97503434D01*
X80612921Y-97448249D01*
X80612919Y-97448248D01*
X80510134Y-97437748D01*
X79760122Y-97437748D01*
X79760104Y-97437749D01*
X79657327Y-97448248D01*
X79657324Y-97448249D01*
X79490792Y-97503433D01*
X79490787Y-97503435D01*
X79341466Y-97595537D01*
X79217409Y-97719594D01*
X79215661Y-97722430D01*
X79213953Y-97723965D01*
X79212931Y-97725259D01*
X79212709Y-97725084D01*
X79163713Y-97769153D01*
X79094750Y-97780374D01*
X79030668Y-97752530D01*
X79004587Y-97722430D01*
X79002838Y-97719594D01*
X78878781Y-97595537D01*
X78878780Y-97595536D01*
X78769526Y-97528148D01*
X78722803Y-97476201D01*
X78710624Y-97422610D01*
X78710624Y-97188700D01*
X78730309Y-97121661D01*
X78746943Y-97101019D01*
X80115896Y-95732067D01*
X80177219Y-95698582D01*
X80203577Y-95695748D01*
X104475776Y-95695748D01*
X104542815Y-95715433D01*
X104567924Y-95736774D01*
X104573650Y-95743133D01*
X104573654Y-95743137D01*
X104726789Y-95854396D01*
X104726794Y-95854399D01*
X104899716Y-95931390D01*
X104899721Y-95931392D01*
X105084878Y-95970748D01*
X105084879Y-95970748D01*
X105274168Y-95970748D01*
X105274170Y-95970748D01*
X105444845Y-95934470D01*
X105514510Y-95939786D01*
X105570244Y-95981923D01*
X105594349Y-96047503D01*
X105594624Y-96055758D01*
X105594624Y-96118117D01*
X105594625Y-96118124D01*
X105601032Y-96177731D01*
X105651326Y-96312576D01*
X105651330Y-96312583D01*
X105737576Y-96427792D01*
X105737579Y-96427795D01*
X105827745Y-96495294D01*
X105869616Y-96551228D01*
X105874600Y-96620919D01*
X105841114Y-96682242D01*
X105827746Y-96693826D01*
X105737933Y-96761060D01*
X105651773Y-96876154D01*
X105651769Y-96876161D01*
X105601527Y-97010868D01*
X105601525Y-97010875D01*
X105595124Y-97070403D01*
X105595124Y-99166092D01*
X105601525Y-99225620D01*
X105601527Y-99225627D01*
X105651769Y-99360334D01*
X105651773Y-99360341D01*
X105737932Y-99475433D01*
X105737941Y-99475442D01*
X105821684Y-99538133D01*
X105821686Y-99538132D01*
X107507443Y-97852376D01*
X107568766Y-97818891D01*
X107638458Y-97823875D01*
X107682805Y-97852376D01*
X107860995Y-98030566D01*
X107894480Y-98091889D01*
X107889496Y-98161581D01*
X107860995Y-98205928D01*
X106448676Y-99618247D01*
X106448677Y-99618248D01*
X109020624Y-99618248D01*
X109087663Y-99637933D01*
X109133418Y-99690737D01*
X109144624Y-99742248D01*
X109144624Y-104473715D01*
X109144540Y-104474137D01*
X109144583Y-104498249D01*
X109144624Y-104498347D01*
X109144740Y-104498630D01*
X109144742Y-104498632D01*
X109144932Y-104498710D01*
X109145124Y-104498789D01*
X109145126Y-104498787D01*
X109169740Y-104498772D01*
X109169740Y-104498776D01*
X109169884Y-104498748D01*
X110920364Y-104498748D01*
X110920507Y-104498776D01*
X110920508Y-104498772D01*
X110945121Y-104498787D01*
X110945124Y-104498789D01*
X110945507Y-104498631D01*
X110945624Y-104498347D01*
X110945665Y-104498248D01*
X110945664Y-104498245D01*
X110945707Y-104474137D01*
X110945624Y-104473715D01*
X110945624Y-95590248D01*
X111233664Y-95590248D01*
X111253450Y-95778504D01*
X111253451Y-95778507D01*
X111311942Y-95958525D01*
X111311945Y-95958532D01*
X111406591Y-96122464D01*
X111456354Y-96177731D01*
X111533253Y-96263136D01*
X111686389Y-96374396D01*
X111686394Y-96374399D01*
X111859316Y-96451390D01*
X111859321Y-96451392D01*
X112044478Y-96490748D01*
X112044479Y-96490748D01*
X112233768Y-96490748D01*
X112233770Y-96490748D01*
X112418927Y-96451392D01*
X112591854Y-96374399D01*
X112701241Y-96294924D01*
X112767044Y-96271446D01*
X112835098Y-96287271D01*
X112846995Y-96294916D01*
X112956390Y-96374396D01*
X112956394Y-96374399D01*
X113129316Y-96451390D01*
X113129321Y-96451392D01*
X113314478Y-96490748D01*
X113314479Y-96490748D01*
X113503768Y-96490748D01*
X113503770Y-96490748D01*
X113688927Y-96451392D01*
X113861854Y-96374399D01*
X114014995Y-96263136D01*
X114141657Y-96122464D01*
X114236303Y-95958532D01*
X114294798Y-95778504D01*
X114314584Y-95590248D01*
X114294798Y-95401992D01*
X114236303Y-95221964D01*
X114191432Y-95144245D01*
X114174960Y-95076348D01*
X114191433Y-95020249D01*
X114236303Y-94942532D01*
X114294798Y-94762504D01*
X114314584Y-94574248D01*
X114294798Y-94385992D01*
X114236303Y-94205964D01*
X114141657Y-94042032D01*
X114014995Y-93901360D01*
X114003556Y-93893049D01*
X113861858Y-93790099D01*
X113861853Y-93790096D01*
X113688931Y-93713105D01*
X113688926Y-93713103D01*
X113543125Y-93682113D01*
X113503770Y-93673748D01*
X113314478Y-93673748D01*
X113282021Y-93680646D01*
X113129321Y-93713103D01*
X113129316Y-93713105D01*
X112956394Y-93790096D01*
X112956389Y-93790099D01*
X112847009Y-93869569D01*
X112781203Y-93893049D01*
X112713149Y-93877223D01*
X112701239Y-93869569D01*
X112591858Y-93790099D01*
X112591853Y-93790096D01*
X112418931Y-93713105D01*
X112418926Y-93713103D01*
X112273125Y-93682113D01*
X112233770Y-93673748D01*
X112044478Y-93673748D01*
X112012021Y-93680646D01*
X111859321Y-93713103D01*
X111859316Y-93713105D01*
X111686394Y-93790096D01*
X111686389Y-93790099D01*
X111533253Y-93901359D01*
X111406590Y-94042033D01*
X111311945Y-94205963D01*
X111311942Y-94205970D01*
X111285907Y-94286099D01*
X111253450Y-94385992D01*
X111233664Y-94574248D01*
X111253450Y-94762504D01*
X111253451Y-94762507D01*
X111311944Y-94942531D01*
X111356814Y-95020249D01*
X111373286Y-95088149D01*
X111356814Y-95144247D01*
X111311944Y-95221964D01*
X111253451Y-95401988D01*
X111253450Y-95401992D01*
X111233664Y-95590248D01*
X110945624Y-95590248D01*
X110945624Y-92288248D01*
X111233664Y-92288248D01*
X111253450Y-92476504D01*
X111253451Y-92476507D01*
X111311942Y-92656525D01*
X111311945Y-92656532D01*
X111406591Y-92820464D01*
X111456354Y-92875731D01*
X111533253Y-92961136D01*
X111686389Y-93072396D01*
X111686394Y-93072399D01*
X111859316Y-93149390D01*
X111859321Y-93149392D01*
X112044478Y-93188748D01*
X112044479Y-93188748D01*
X112233768Y-93188748D01*
X112233770Y-93188748D01*
X112418927Y-93149392D01*
X112591854Y-93072399D01*
X112701241Y-92992924D01*
X112767044Y-92969446D01*
X112835098Y-92985271D01*
X112846995Y-92992916D01*
X112956390Y-93072396D01*
X112956394Y-93072399D01*
X113129316Y-93149390D01*
X113129321Y-93149392D01*
X113314478Y-93188748D01*
X113314479Y-93188748D01*
X113503768Y-93188748D01*
X113503770Y-93188748D01*
X113688927Y-93149392D01*
X113861854Y-93072399D01*
X114014995Y-92961136D01*
X114141657Y-92820464D01*
X114236303Y-92656532D01*
X114294798Y-92476504D01*
X114314584Y-92288248D01*
X114294798Y-92099992D01*
X114236303Y-91919964D01*
X114191432Y-91842245D01*
X114174960Y-91774348D01*
X114191433Y-91718249D01*
X114236303Y-91640532D01*
X114294798Y-91460504D01*
X114314584Y-91272248D01*
X114294798Y-91083992D01*
X114236303Y-90903964D01*
X114141657Y-90740032D01*
X114014995Y-90599360D01*
X114003556Y-90591049D01*
X113861858Y-90488099D01*
X113861853Y-90488096D01*
X113688931Y-90411105D01*
X113688926Y-90411103D01*
X113543125Y-90380113D01*
X113503770Y-90371748D01*
X113314478Y-90371748D01*
X113282021Y-90378646D01*
X113129321Y-90411103D01*
X113129316Y-90411105D01*
X112956394Y-90488096D01*
X112956389Y-90488099D01*
X112847009Y-90567569D01*
X112781203Y-90591049D01*
X112713149Y-90575223D01*
X112701239Y-90567569D01*
X112591858Y-90488099D01*
X112591853Y-90488096D01*
X112418931Y-90411105D01*
X112418926Y-90411103D01*
X112273125Y-90380113D01*
X112233770Y-90371748D01*
X112044478Y-90371748D01*
X112012021Y-90378646D01*
X111859321Y-90411103D01*
X111859316Y-90411105D01*
X111686394Y-90488096D01*
X111686389Y-90488099D01*
X111533253Y-90599359D01*
X111406590Y-90740033D01*
X111311945Y-90903963D01*
X111311942Y-90903970D01*
X111285907Y-90984099D01*
X111253450Y-91083992D01*
X111233664Y-91272248D01*
X111253450Y-91460504D01*
X111253451Y-91460507D01*
X111311944Y-91640531D01*
X111356814Y-91718249D01*
X111373286Y-91786149D01*
X111356814Y-91842247D01*
X111311944Y-91919964D01*
X111253451Y-92099988D01*
X111253450Y-92099992D01*
X111233664Y-92288248D01*
X110945624Y-92288248D01*
X110945624Y-44749269D01*
X110965309Y-44682230D01*
X111018113Y-44636475D01*
X111087271Y-44626531D01*
X111095588Y-44628018D01*
X111101327Y-44629247D01*
X111204115Y-44639748D01*
X111804132Y-44639747D01*
X111804140Y-44639746D01*
X111804143Y-44639746D01*
X111860426Y-44633996D01*
X111906921Y-44629247D01*
X112073458Y-44574062D01*
X112222780Y-44481960D01*
X112346836Y-44357904D01*
X112438938Y-44208582D01*
X112494123Y-44042045D01*
X112504624Y-43939257D01*
X112504623Y-42339240D01*
X112494123Y-42236451D01*
X112438938Y-42069914D01*
X112346836Y-41920592D01*
X112222780Y-41796536D01*
X112073458Y-41704434D01*
X111906921Y-41649249D01*
X111906919Y-41649248D01*
X111804134Y-41638748D01*
X111204122Y-41638748D01*
X111204104Y-41638749D01*
X111101323Y-41649249D01*
X111095567Y-41650481D01*
X111025893Y-41645258D01*
X110970103Y-41603195D01*
X110945910Y-41537648D01*
X110945624Y-41529225D01*
X110945624Y-38094818D01*
X110965309Y-38027779D01*
X111018113Y-37982024D01*
X111087271Y-37972080D01*
X111150827Y-38001105D01*
G37*
G04 #@! TD.AperFunction*
M02*
