M48
; DRILL file {KiCad 7.0.8} date Tue Jun 18 20:24:32 2024
; FORMAT={-:-/ absolute / metric / decimal}
; #@! TF.CreationDate,2024-06-18T20:24:32+02:00
; #@! TF.GenerationSoftware,Kicad,Pcbnew,7.0.8
; #@! TF.FileFunction,Plated,1,2,PTH
FMAT,2
METRIC
; #@! TA.AperFunction,Plated,PTH,ViaDrill
T1C0.400
; #@! TA.AperFunction,Plated,PTH,ComponentDrill
T2C1.000
; #@! TA.AperFunction,Plated,PTH,ComponentDrill
T3C1.800
%
G90
G05
T1
X72.718Y-134.909
X74.547Y-132.928
X81.151Y-119.466
X83.132Y-117.536
X83.183Y-121.498
X83.793Y-96.708
X83.844Y-100.67
X84.199Y-132.42
X85.774Y-98.638
X86.942Y-134.757
X87.095Y-130.236
X88.771Y-88.605
X90.244Y-132.42
X91.464Y-130.287
X92.734Y-132.522
X95.02Y-134.706
X95.07Y-130.236
X95.223Y-126.019
X96.95Y-125.461
X99.82Y-130.515
X100.1Y-68.311
X100.303Y-134.3
X102.69Y-123.327
X103.046Y-101.788
X103.148Y-54.341
X103.757Y-120.482
X104.062Y-91.768
X104.062Y-100.721
X104.672Y-88.466
X105.18Y-95.07
X105.484Y-134.351
X105.942Y-118.653
X106.043Y-127.086
X106.094Y-123.022
X106.754Y-100.619
X106.805Y-54.188
X106.805Y-56.728
X106.805Y-59.268
X106.805Y-61.808
X106.805Y-64.348
X106.805Y-66.888
X106.805Y-69.428
X106.805Y-71.968
X106.805Y-74.508
X106.805Y-77.048
X106.805Y-79.588
X106.805Y-82.128
X106.805Y-87.97
X106.805Y-88.986
X106.805Y-91.272
X106.805Y-92.288
X106.805Y-94.574
X106.805Y-95.59
X106.805Y-97.622
X106.805Y-98.638
X107.974Y-86.04
X108.024Y-102.347
X108.075Y-87.97
X108.075Y-88.986
X108.075Y-91.272
X108.075Y-92.288
X108.075Y-94.574
X108.075Y-95.59
X108.075Y-97.622
X108.075Y-98.638
X108.075Y-118.704
X108.075Y-120.99
X108.177Y-100.569
X109.802Y-118.501
X111.326Y-118.501
X111.885Y-86.141
X111.885Y-100.569
X111.987Y-102.296
X112.139Y-87.97
X112.139Y-88.986
X112.139Y-91.272
X112.139Y-92.288
X112.139Y-94.574
X112.139Y-95.59
X112.139Y-97.622
X112.139Y-98.638
X112.19Y-83.754
X112.901Y-121.117
X113.155Y-54.188
X113.155Y-56.728
X113.155Y-59.268
X113.155Y-61.808
X113.155Y-64.348
X113.155Y-66.888
X113.155Y-69.428
X113.155Y-71.968
X113.155Y-74.508
X113.155Y-77.048
X113.155Y-79.588
X113.308Y-100.569
X113.409Y-87.97
X113.409Y-88.986
X113.409Y-91.272
X113.409Y-92.288
X113.409Y-94.574
X113.409Y-95.59
X113.409Y-97.622
X113.409Y-98.638
X114.07Y-123.175
X114.476Y-118.196
X114.527Y-125.715
X114.933Y-90.256
X114.933Y-134.071
X115.06Y-93.431
X115.136Y-86.548
X115.187Y-88.472
X115.759Y-99.845
X116.66Y-91.774
X116.762Y-95.076
X116.838Y-112.473
X117.016Y-54.341
X118.235Y-120.025
X118.54Y-121.651
X118.54Y-123.479
X119.099Y-129.829
X119.124Y-133.563
X119.962Y-68.412
X121.029Y-128.305
X121.664Y-133.563
X122.604Y-129.829
X134.948Y-98.587
X136.879Y-100.873
X136.93Y-96.555
X138.047Y-120.99
X138.098Y-116.164
X140.536Y-118.603
X144.46Y-132.934
X146.734Y-134.909
T2
X124.54Y-133.498
X127.08Y-133.498
X129.62Y-133.498
T3
X99.739Y-125.125
X120.821Y-125.125
T0
M30
