%TF.GenerationSoftware,KiCad,Pcbnew,7.0.8*%
%TF.CreationDate,2024-06-18T20:24:33+02:00*%
%TF.ProjectId,PCB_Christmas_Tree,5043425f-4368-4726-9973-746d61735f54,rev?*%
%TF.SameCoordinates,Original*%
%TF.FileFunction,Drillmap*%
%TF.FilePolarity,Positive*%
%FSLAX45Y45*%
G04 Gerber Fmt 4.5, Leading zero omitted, Abs format (unit mm)*
G04 Created by KiCad (PCBNEW 7.0.8) date 2024-06-18 20:24:33*
%MOMM*%
%LPD*%
G01*
G04 APERTURE LIST*
%ADD10C,0.100000*%
%ADD11C,0.200000*%
G04 APERTURE END LIST*
D10*
X13004512Y-10229825D02*
X16004512Y-13629825D01*
X10914512Y-3769825D02*
X8504512Y-7229825D01*
X16004512Y-13629825D02*
X6004512Y-13629825D01*
X9004512Y-10229825D02*
X7004512Y-10229825D01*
X11094512Y-10449825D02*
X10914512Y-10449825D01*
X9754512Y-7229825D02*
X7004512Y-10229825D01*
X9004512Y-10229825D02*
X6004512Y-13629825D01*
X11094512Y-3769825D02*
X11094512Y-10449825D01*
X11094512Y-3769825D02*
X13504512Y-7229825D01*
X8504512Y-7229825D02*
X9754512Y-7229825D01*
X15004512Y-10229825D02*
X13004512Y-10229825D01*
X10914512Y-10449825D02*
X10914512Y-3769825D01*
X12254512Y-7229825D02*
X15004512Y-10229825D01*
X12254512Y-7229825D02*
X13504512Y-7229825D01*
D11*
X6260289Y-13946309D02*
X6260289Y-13746309D01*
X6260289Y-13746309D02*
X6307908Y-13746309D01*
X6307908Y-13746309D02*
X6336480Y-13755832D01*
X6336480Y-13755832D02*
X6355527Y-13774880D01*
X6355527Y-13774880D02*
X6365051Y-13793928D01*
X6365051Y-13793928D02*
X6374575Y-13832023D01*
X6374575Y-13832023D02*
X6374575Y-13860594D01*
X6374575Y-13860594D02*
X6365051Y-13898689D01*
X6365051Y-13898689D02*
X6355527Y-13917737D01*
X6355527Y-13917737D02*
X6336480Y-13936785D01*
X6336480Y-13936785D02*
X6307908Y-13946309D01*
X6307908Y-13946309D02*
X6260289Y-13946309D01*
X6460289Y-13946309D02*
X6460289Y-13812975D01*
X6460289Y-13851070D02*
X6469813Y-13832023D01*
X6469813Y-13832023D02*
X6479337Y-13822499D01*
X6479337Y-13822499D02*
X6498384Y-13812975D01*
X6498384Y-13812975D02*
X6517432Y-13812975D01*
X6584099Y-13946309D02*
X6584099Y-13812975D01*
X6584099Y-13746309D02*
X6574575Y-13755832D01*
X6574575Y-13755832D02*
X6584099Y-13765356D01*
X6584099Y-13765356D02*
X6593622Y-13755832D01*
X6593622Y-13755832D02*
X6584099Y-13746309D01*
X6584099Y-13746309D02*
X6584099Y-13765356D01*
X6707908Y-13946309D02*
X6688861Y-13936785D01*
X6688861Y-13936785D02*
X6679337Y-13917737D01*
X6679337Y-13917737D02*
X6679337Y-13746309D01*
X6812670Y-13946309D02*
X6793622Y-13936785D01*
X6793622Y-13936785D02*
X6784099Y-13917737D01*
X6784099Y-13917737D02*
X6784099Y-13746309D01*
X7041242Y-13946309D02*
X7041242Y-13746309D01*
X7041242Y-13746309D02*
X7107908Y-13889166D01*
X7107908Y-13889166D02*
X7174575Y-13746309D01*
X7174575Y-13746309D02*
X7174575Y-13946309D01*
X7355527Y-13946309D02*
X7355527Y-13841547D01*
X7355527Y-13841547D02*
X7346003Y-13822499D01*
X7346003Y-13822499D02*
X7326956Y-13812975D01*
X7326956Y-13812975D02*
X7288861Y-13812975D01*
X7288861Y-13812975D02*
X7269813Y-13822499D01*
X7355527Y-13936785D02*
X7336480Y-13946309D01*
X7336480Y-13946309D02*
X7288861Y-13946309D01*
X7288861Y-13946309D02*
X7269813Y-13936785D01*
X7269813Y-13936785D02*
X7260289Y-13917737D01*
X7260289Y-13917737D02*
X7260289Y-13898689D01*
X7260289Y-13898689D02*
X7269813Y-13879642D01*
X7269813Y-13879642D02*
X7288861Y-13870118D01*
X7288861Y-13870118D02*
X7336480Y-13870118D01*
X7336480Y-13870118D02*
X7355527Y-13860594D01*
X7450765Y-13812975D02*
X7450765Y-14012975D01*
X7450765Y-13822499D02*
X7469813Y-13812975D01*
X7469813Y-13812975D02*
X7507908Y-13812975D01*
X7507908Y-13812975D02*
X7526956Y-13822499D01*
X7526956Y-13822499D02*
X7536480Y-13832023D01*
X7536480Y-13832023D02*
X7546003Y-13851070D01*
X7546003Y-13851070D02*
X7546003Y-13908213D01*
X7546003Y-13908213D02*
X7536480Y-13927261D01*
X7536480Y-13927261D02*
X7526956Y-13936785D01*
X7526956Y-13936785D02*
X7507908Y-13946309D01*
X7507908Y-13946309D02*
X7469813Y-13946309D01*
X7469813Y-13946309D02*
X7450765Y-13936785D01*
X7631718Y-13927261D02*
X7641242Y-13936785D01*
X7641242Y-13936785D02*
X7631718Y-13946309D01*
X7631718Y-13946309D02*
X7622194Y-13936785D01*
X7622194Y-13936785D02*
X7631718Y-13927261D01*
X7631718Y-13927261D02*
X7631718Y-13946309D01*
X7631718Y-13822499D02*
X7641242Y-13832023D01*
X7641242Y-13832023D02*
X7631718Y-13841547D01*
X7631718Y-13841547D02*
X7622194Y-13832023D01*
X7622194Y-13832023D02*
X7631718Y-13822499D01*
X7631718Y-13822499D02*
X7631718Y-13841547D01*
M02*
