G04 #@! TF.GenerationSoftware,KiCad,Pcbnew,7.0.8*
G04 #@! TF.CreationDate,2024-06-18T20:24:05+02:00*
G04 #@! TF.ProjectId,PCB_Christmas_Tree,5043425f-4368-4726-9973-746d61735f54,rev?*
G04 #@! TF.SameCoordinates,Original*
G04 #@! TF.FileFunction,Copper,L2,Bot*
G04 #@! TF.FilePolarity,Positive*
%FSLAX46Y46*%
G04 Gerber Fmt 4.6, Leading zero omitted, Abs format (unit mm)*
G04 Created by KiCad (PCBNEW 7.0.8) date 2024-06-18 20:24:05*
%MOMM*%
%LPD*%
G01*
G04 APERTURE LIST*
G04 Aperture macros list*
%AMRoundRect*
0 Rectangle with rounded corners*
0 $1 Rounding radius*
0 $2 $3 $4 $5 $6 $7 $8 $9 X,Y pos of 4 corners*
0 Add a 4 corners polygon primitive as box body*
4,1,4,$2,$3,$4,$5,$6,$7,$8,$9,$2,$3,0*
0 Add four circle primitives for the rounded corners*
1,1,$1+$1,$2,$3*
1,1,$1+$1,$4,$5*
1,1,$1+$1,$6,$7*
1,1,$1+$1,$8,$9*
0 Add four rect primitives between the rounded corners*
20,1,$1+$1,$2,$3,$4,$5,0*
20,1,$1+$1,$4,$5,$6,$7,0*
20,1,$1+$1,$6,$7,$8,$9,0*
20,1,$1+$1,$8,$9,$2,$3,0*%
G04 Aperture macros list end*
G04 #@! TA.AperFunction,SMDPad,CuDef*
%ADD10RoundRect,0.250000X0.450000X-0.325000X0.450000X0.325000X-0.450000X0.325000X-0.450000X-0.325000X0*%
G04 #@! TD*
G04 #@! TA.AperFunction,SMDPad,CuDef*
%ADD11RoundRect,0.237500X-0.250000X-0.237500X0.250000X-0.237500X0.250000X0.237500X-0.250000X0.237500X0*%
G04 #@! TD*
G04 #@! TA.AperFunction,SMDPad,CuDef*
%ADD12RoundRect,0.250000X0.250000X0.750000X-0.250000X0.750000X-0.250000X-0.750000X0.250000X-0.750000X0*%
G04 #@! TD*
G04 #@! TA.AperFunction,SMDPad,CuDef*
%ADD13RoundRect,0.237500X0.250000X0.237500X-0.250000X0.237500X-0.250000X-0.237500X0.250000X-0.237500X0*%
G04 #@! TD*
G04 #@! TA.AperFunction,SMDPad,CuDef*
%ADD14RoundRect,0.150000X0.587500X0.150000X-0.587500X0.150000X-0.587500X-0.150000X0.587500X-0.150000X0*%
G04 #@! TD*
G04 #@! TA.AperFunction,SMDPad,CuDef*
%ADD15R,3.000000X2.000000*%
G04 #@! TD*
G04 #@! TA.AperFunction,SMDPad,CuDef*
%ADD16RoundRect,0.250000X-0.325000X-0.450000X0.325000X-0.450000X0.325000X0.450000X-0.325000X0.450000X0*%
G04 #@! TD*
G04 #@! TA.AperFunction,SMDPad,CuDef*
%ADD17RoundRect,0.237500X0.237500X-0.250000X0.237500X0.250000X-0.237500X0.250000X-0.237500X-0.250000X0*%
G04 #@! TD*
G04 #@! TA.AperFunction,ComponentPad*
%ADD18R,1.700000X1.700000*%
G04 #@! TD*
G04 #@! TA.AperFunction,ComponentPad*
%ADD19O,1.700000X1.700000*%
G04 #@! TD*
G04 #@! TA.AperFunction,ComponentPad*
%ADD20C,3.000000*%
G04 #@! TD*
G04 #@! TA.AperFunction,SMDPad,CuDef*
%ADD21R,0.450000X1.500000*%
G04 #@! TD*
G04 #@! TA.AperFunction,SMDPad,CuDef*
%ADD22RoundRect,0.237500X-0.237500X0.250000X-0.237500X-0.250000X0.237500X-0.250000X0.237500X0.250000X0*%
G04 #@! TD*
G04 #@! TA.AperFunction,SMDPad,CuDef*
%ADD23RoundRect,0.150000X-0.825000X-0.150000X0.825000X-0.150000X0.825000X0.150000X-0.825000X0.150000X0*%
G04 #@! TD*
G04 #@! TA.AperFunction,ViaPad*
%ADD24C,0.800000*%
G04 #@! TD*
G04 #@! TA.AperFunction,Conductor*
%ADD25C,0.250000*%
G04 #@! TD*
G04 #@! TA.AperFunction,Conductor*
%ADD26C,0.450000*%
G04 #@! TD*
G04 #@! TA.AperFunction,Conductor*
%ADD27C,0.600000*%
G04 #@! TD*
G04 APERTURE END LIST*
D10*
X86095124Y-115523248D03*
X86095124Y-113473248D03*
D11*
X112346124Y-127848248D03*
X114171124Y-127848248D03*
D12*
X111504124Y-43139248D03*
D13*
X105007624Y-52498248D03*
X103182624Y-52498248D03*
X148611624Y-132674248D03*
X146786624Y-132674248D03*
D14*
X103678624Y-129692248D03*
X103678624Y-131592248D03*
X101803624Y-130642248D03*
D15*
X112495124Y-88472248D03*
X112495124Y-91774248D03*
X112495124Y-95076248D03*
X112495124Y-98124248D03*
D13*
X138705624Y-98638248D03*
X136880624Y-98638248D03*
D11*
X101828624Y-133690248D03*
X103653624Y-133690248D03*
D16*
X150738124Y-132674248D03*
X152788124Y-132674248D03*
D10*
X94095124Y-84523248D03*
X94095124Y-82473248D03*
X106095124Y-48498248D03*
X106095124Y-46448248D03*
D17*
X116711124Y-132443748D03*
X116711124Y-130618748D03*
D18*
X129620124Y-133498248D03*
D19*
X127080124Y-133498248D03*
X124540124Y-133498248D03*
D13*
X93007624Y-88498248D03*
X91182624Y-88498248D03*
D16*
X140832124Y-98638248D03*
X142882124Y-98638248D03*
D14*
X98423124Y-131912248D03*
X98423124Y-133812248D03*
X96548124Y-132862248D03*
D13*
X85007624Y-119498248D03*
X83182624Y-119498248D03*
D20*
X99739124Y-125125248D03*
X120821124Y-125125248D03*
D21*
X104915124Y-127400248D03*
X103615124Y-127400248D03*
X104265124Y-124740248D03*
X117427124Y-125700748D03*
X116127124Y-125700748D03*
X116777124Y-123040748D03*
X108791124Y-125192748D03*
X107491124Y-125192748D03*
X108141124Y-122532748D03*
X113087124Y-125114248D03*
X111787124Y-125114248D03*
X112437124Y-122454248D03*
D11*
X107670624Y-127848248D03*
X109495624Y-127848248D03*
D13*
X123456624Y-68412248D03*
X121631624Y-68412248D03*
D16*
X125338124Y-68412248D03*
X127388124Y-68412248D03*
D22*
X96899124Y-127951748D03*
X96899124Y-129776748D03*
D12*
X108583124Y-43139248D03*
D23*
X107864124Y-134037248D03*
X107864124Y-132767248D03*
X107864124Y-131497248D03*
X107864124Y-130227248D03*
X112814124Y-130227248D03*
X112814124Y-131497248D03*
X112814124Y-132767248D03*
X112814124Y-134037248D03*
D24*
X114069524Y-123174648D03*
X146733924Y-134909448D03*
X140536324Y-118602648D03*
X106043124Y-127086248D03*
X138097924Y-116164248D03*
X114526724Y-125714648D03*
X106093924Y-123022248D03*
X105484324Y-134350648D03*
X95070324Y-130235848D03*
X112189924Y-83753848D03*
X111986724Y-102295848D03*
X95019524Y-134706248D03*
X83843524Y-100670248D03*
X83132324Y-117535848D03*
X119098724Y-129829448D03*
X105941524Y-118653448D03*
X84199124Y-132420248D03*
X92733524Y-132521848D03*
X136878724Y-100873448D03*
X118235124Y-120025048D03*
X103757124Y-120482248D03*
X136929524Y-96555448D03*
X111326324Y-118501048D03*
X103147524Y-54340648D03*
X117015924Y-54340648D03*
X115136324Y-86547848D03*
X113307524Y-100568648D03*
X72718324Y-134909448D03*
X81151124Y-119466248D03*
X119962324Y-68412248D03*
X108024324Y-102346648D03*
X91463524Y-130286648D03*
X87094724Y-130235848D03*
X95222724Y-126019448D03*
X121029124Y-128305448D03*
X122603924Y-129829448D03*
X83792724Y-96707848D03*
X90244324Y-132420248D03*
X118539924Y-121650648D03*
X113155124Y-54188248D03*
X113155124Y-56728248D03*
X113155124Y-77048248D03*
X106805124Y-74508248D03*
X113155124Y-61808248D03*
X113155124Y-71968248D03*
X113155124Y-59268248D03*
X106805124Y-71968248D03*
X106805124Y-77048248D03*
X113155124Y-64348248D03*
X106805124Y-79588248D03*
X106805124Y-69428248D03*
X113155124Y-74508248D03*
X106805124Y-82128248D03*
X113155124Y-69428248D03*
X113155124Y-66888248D03*
X113155124Y-79588248D03*
X106805124Y-64348248D03*
X106805124Y-56728248D03*
X106805124Y-66888248D03*
X106805124Y-61808248D03*
X106805124Y-59268248D03*
X106805124Y-54188248D03*
X115060124Y-93431248D03*
X83183124Y-121498248D03*
X88771124Y-88605248D03*
X96949924Y-125460648D03*
X144460124Y-132934248D03*
X111885124Y-86141448D03*
X100302724Y-134299848D03*
X108075124Y-98638248D03*
X112139124Y-97622248D03*
X114933124Y-134071248D03*
X118539924Y-123479448D03*
X112139124Y-92288248D03*
X85773924Y-98638248D03*
X108176724Y-100568648D03*
X113409124Y-91272248D03*
X121664124Y-133563248D03*
X113409124Y-97622248D03*
X102690324Y-123327048D03*
X74547124Y-132928248D03*
X100099524Y-68310648D03*
X116660324Y-91774248D03*
X108075124Y-91272248D03*
X106805124Y-91272248D03*
X104061924Y-100721048D03*
X107973524Y-86039848D03*
X119124124Y-133563248D03*
X112139124Y-98638248D03*
X108075124Y-97622248D03*
X106805124Y-92288248D03*
X114475924Y-118196248D03*
X86942324Y-134757048D03*
X113409124Y-98638248D03*
X104061924Y-91768248D03*
X112139124Y-91272248D03*
X114933124Y-90256248D03*
X106805124Y-97622248D03*
X111885124Y-100568648D03*
X113409124Y-92288248D03*
X115758624Y-99844748D03*
X138047124Y-120990248D03*
X106805124Y-98638248D03*
X108075124Y-92288248D03*
X106754324Y-100619448D03*
X109802324Y-118501048D03*
X134948324Y-98587448D03*
X116761924Y-95076248D03*
X108075124Y-118704248D03*
X108075124Y-88986248D03*
X112139124Y-88986248D03*
X108075124Y-87970248D03*
X112139124Y-87970248D03*
X106805124Y-88986248D03*
X103045924Y-101787848D03*
X113409124Y-88986248D03*
X105179524Y-95070248D03*
X106805124Y-87970248D03*
X108075124Y-94574248D03*
X113409124Y-95590248D03*
X115187124Y-88472248D03*
X106805124Y-94574248D03*
X112901124Y-121117248D03*
X108075124Y-95590248D03*
X112139124Y-95590248D03*
X116838124Y-112473248D03*
X112139124Y-94574248D03*
X99820124Y-130515248D03*
X104671524Y-88466248D03*
X113409124Y-94574248D03*
X106805124Y-95590248D03*
X113409124Y-87970248D03*
X108075124Y-120990248D03*
D25*
X116761924Y-95076248D02*
X115441124Y-95076248D01*
D26*
X113087124Y-125114248D02*
X113087124Y-126129248D01*
X114171124Y-127213248D02*
X114171124Y-127848248D01*
X113087124Y-126129248D02*
X114171124Y-127213248D01*
X112814124Y-131497248D02*
X112848124Y-131531248D01*
X112848124Y-131531248D02*
X125113124Y-131531248D01*
X125113124Y-131531248D02*
X127080124Y-133498248D01*
D27*
X109980124Y-119974248D02*
X106932124Y-119974248D01*
D25*
X104061924Y-91768248D02*
X104061924Y-100721048D01*
X105179524Y-95070248D02*
X105179524Y-101406848D01*
X105179524Y-101406848D02*
X104773124Y-101813248D01*
X108075124Y-106055048D02*
X108938724Y-105191448D01*
X108075124Y-118704248D02*
X108075124Y-106055048D01*
X114806124Y-101457648D02*
X114806124Y-95076248D01*
X114806124Y-95076248D02*
X115441124Y-95076248D01*
X108938724Y-105191448D02*
X111072324Y-105191448D01*
X111072324Y-105191448D02*
X114806124Y-101457648D01*
X105166824Y-101419548D02*
X108938724Y-105191448D01*
X104773124Y-101813248D02*
X105166824Y-101419548D01*
X137634724Y-91774248D02*
X122807124Y-91774248D01*
X142882124Y-98638248D02*
X142882124Y-97021648D01*
X142882124Y-97021648D02*
X137634724Y-91774248D01*
D27*
X94095124Y-84523248D02*
X94095124Y-86075248D01*
X93007624Y-87162748D02*
X93007624Y-88498248D01*
X94095124Y-86075248D02*
X93007624Y-87162748D01*
X85007624Y-117895748D02*
X85007624Y-119498248D01*
X86095124Y-116808248D02*
X85007624Y-117895748D01*
X86095124Y-115523248D02*
X86095124Y-116808248D01*
X105007624Y-51159748D02*
X105007624Y-52498248D01*
X106095124Y-48498248D02*
X106095124Y-50072248D01*
X106095124Y-50072248D02*
X105007624Y-51159748D01*
D25*
X104671524Y-88466248D02*
X104659524Y-88466248D01*
X104659524Y-88466248D02*
X98666524Y-82473248D01*
X98666524Y-82473248D02*
X94095124Y-82473248D01*
X104632724Y-88466248D02*
X104671524Y-88466248D01*
X103045924Y-101787848D02*
X103045924Y-90053048D01*
X103045924Y-90053048D02*
X104632724Y-88466248D01*
X126490124Y-70698248D02*
X127388124Y-69800248D01*
X116660324Y-74559048D02*
X120521124Y-70698248D01*
X127388124Y-69800248D02*
X127388124Y-68412248D01*
X120521124Y-70698248D02*
X126490124Y-70698248D01*
X116660324Y-91774248D02*
X116660324Y-74559048D01*
X116660324Y-91774248D02*
X116209124Y-91774248D01*
X115758624Y-99844748D02*
X118235124Y-97368248D01*
X118235124Y-91774248D02*
X122807124Y-91774248D01*
X118235124Y-97368248D02*
X118235124Y-91774248D01*
X115822124Y-118640748D02*
X116777124Y-119595748D01*
X116777124Y-119595748D02*
X116777124Y-123433248D01*
X115822124Y-99908248D02*
X115822124Y-118640748D01*
X115758624Y-99844748D02*
X115822124Y-99908248D01*
X151636124Y-130261248D02*
X152788124Y-131413248D01*
X116838124Y-116545248D02*
X130554124Y-130261248D01*
X130554124Y-130261248D02*
X151636124Y-130261248D01*
X116838124Y-112473248D02*
X116838124Y-116545248D01*
X152788124Y-131413248D02*
X152788124Y-132674248D01*
D27*
X111885124Y-119974248D02*
X113917124Y-119974248D01*
D26*
X112437124Y-121581248D02*
X112437124Y-122846748D01*
X112901124Y-121117248D02*
X112437124Y-121581248D01*
X108791124Y-127143748D02*
X109495624Y-127848248D01*
X108791124Y-125192748D02*
X108791124Y-127143748D01*
D27*
X111123124Y-119974248D02*
X111885124Y-119974248D01*
X110615124Y-119974248D02*
X109980124Y-119974248D01*
X109980124Y-119974248D02*
X111885124Y-119974248D01*
D26*
X115094124Y-132767248D02*
X115441124Y-132420248D01*
D27*
X116687624Y-132420248D02*
X116711124Y-132443748D01*
D26*
X115441124Y-132420248D02*
X116687624Y-132420248D01*
X112814124Y-132767248D02*
X115094124Y-132767248D01*
X111787124Y-125114248D02*
X111787124Y-126168248D01*
D27*
X110869124Y-127086248D02*
X110869124Y-132674248D01*
D26*
X111787124Y-126168248D02*
X110869124Y-127086248D01*
X103615124Y-127400248D02*
X103615124Y-126436248D01*
X103615124Y-126436248D02*
X102304124Y-125125248D01*
X104265124Y-124740248D02*
X104265124Y-122641248D01*
X104265124Y-122641248D02*
X106932124Y-119974248D01*
X102304124Y-125125248D02*
X99739124Y-125125248D01*
D27*
X110869124Y-120228248D02*
X110615124Y-119974248D01*
D26*
X117427124Y-127767248D02*
X116711124Y-128483248D01*
X116711124Y-128483248D02*
X116711124Y-130618748D01*
X117427124Y-125700748D02*
X117427124Y-127767248D01*
X98169124Y-129776748D02*
X96899124Y-129776748D01*
X98553624Y-129392248D02*
X98169124Y-129776748D01*
X102244374Y-129392248D02*
X98553624Y-129392248D01*
X102544374Y-129692248D02*
X102244374Y-129392248D01*
X103678624Y-129692248D02*
X102544374Y-129692248D01*
D25*
X108202124Y-83779248D02*
X108202124Y-47584248D01*
X105535124Y-86446248D02*
X108202124Y-83779248D01*
X105535124Y-94714648D02*
X105535124Y-86446248D01*
X105179524Y-95070248D02*
X105535124Y-94714648D01*
D27*
X105440124Y-131592248D02*
X103678624Y-131592248D01*
X105535124Y-131497248D02*
X105440124Y-131592248D01*
X107864124Y-131497248D02*
X105535124Y-131497248D01*
D25*
X107066124Y-46448248D02*
X106095124Y-46448248D01*
X108202124Y-47584248D02*
X107066124Y-46448248D01*
X120821124Y-124451852D02*
X120821124Y-125125248D01*
D27*
X109472124Y-134037248D02*
X109489124Y-134054248D01*
D25*
X140832124Y-98638248D02*
X138705624Y-98638248D01*
D27*
X100050624Y-131912248D02*
X101828624Y-133690248D01*
X112774124Y-128276248D02*
X112774124Y-130187248D01*
X104576624Y-132767248D02*
X107864124Y-132767248D01*
X103653624Y-133690248D02*
X104576624Y-132767248D01*
D25*
X112774124Y-130187248D02*
X112814124Y-130227248D01*
D27*
X98423124Y-131912248D02*
X100050624Y-131912248D01*
X96912624Y-127951748D02*
X99739124Y-125125248D01*
D25*
X125338124Y-68412248D02*
X123456624Y-68412248D01*
D27*
X112346124Y-127848248D02*
X112774124Y-128276248D01*
X107864124Y-134037248D02*
X109472124Y-134037248D01*
X110869124Y-132674248D02*
X109489124Y-134054248D01*
D25*
X96899124Y-127951748D02*
X96912624Y-127951748D01*
D27*
X110869124Y-135434248D02*
X129135124Y-135434248D01*
X129620124Y-134949248D02*
X129620124Y-133498248D01*
D25*
X122807124Y-91774248D02*
X116209124Y-91774248D01*
X104265124Y-124292248D02*
X104265124Y-125132748D01*
X113409124Y-92288248D02*
X112895124Y-91774248D01*
D27*
X129135124Y-135434248D02*
X129620124Y-134949248D01*
D25*
X116209124Y-91774248D02*
X113923124Y-91774248D01*
X112895124Y-91774248D02*
X112495124Y-91774248D01*
X113923124Y-91774248D02*
X113409124Y-92288248D01*
D27*
X109489124Y-134054248D02*
X110869124Y-135434248D01*
D25*
X113911124Y-95076248D02*
X113409124Y-94574248D01*
X104773124Y-101813248D02*
X93113124Y-113473248D01*
D27*
X108141124Y-121056248D02*
X108075124Y-120990248D01*
D26*
X108141124Y-122925248D02*
X108141124Y-121056248D01*
D25*
X150738124Y-132674248D02*
X148611624Y-132674248D01*
X112907124Y-95076248D02*
X112495124Y-95076248D01*
X93113124Y-113473248D02*
X86095124Y-113473248D01*
X115441124Y-95076248D02*
X113911124Y-95076248D01*
X113409124Y-94574248D02*
X112907124Y-95076248D01*
X115187124Y-88472248D02*
X113911124Y-88472248D01*
X113409124Y-87970248D02*
X112907124Y-88472248D01*
X113911124Y-88472248D02*
X113409124Y-87970248D01*
X112907124Y-88472248D02*
X112495124Y-88472248D01*
D27*
X99820124Y-130515248D02*
X99947124Y-130642248D01*
X99947124Y-130642248D02*
X101803624Y-130642248D01*
X96645124Y-132765248D02*
X96645124Y-131277248D01*
D25*
X96548124Y-132862248D02*
X96645124Y-132765248D01*
D27*
X96899124Y-131023248D02*
X96899124Y-129776748D01*
X96645124Y-131277248D02*
X96899124Y-131023248D01*
D26*
X105983124Y-124740248D02*
X104265124Y-124740248D01*
X106435624Y-125192748D02*
X105983124Y-124740248D01*
X107491124Y-125192748D02*
X106435624Y-125192748D01*
X104915124Y-129357248D02*
X104580124Y-129692248D01*
X104580124Y-129692248D02*
X103678624Y-129692248D01*
X104915124Y-127400248D02*
X104915124Y-129357248D01*
X107670624Y-129178748D02*
X107864124Y-129372248D01*
X107670624Y-127848248D02*
X107670624Y-129178748D01*
X107864124Y-129372248D02*
X107864124Y-130227248D01*
D27*
X110869124Y-120228248D02*
X111123124Y-119974248D01*
X110869124Y-127086248D02*
X110869124Y-120228248D01*
D26*
X115314124Y-121117248D02*
X114171124Y-119974248D01*
X116127124Y-125700748D02*
X116127124Y-124851248D01*
X115314124Y-124038248D02*
X115314124Y-121117248D01*
X116127124Y-124851248D02*
X115314124Y-124038248D01*
X114171124Y-119974248D02*
X113917124Y-119974248D01*
G04 #@! TA.AperFunction,Conductor*
G36*
X109105255Y-38004189D02*
G01*
X109140818Y-38064331D01*
X109144624Y-38094817D01*
X109144624Y-41530118D01*
X109124939Y-41597157D01*
X109072135Y-41642912D01*
X109002977Y-41652856D01*
X108992592Y-41650409D01*
X108992538Y-41650666D01*
X108985919Y-41649248D01*
X108883134Y-41638748D01*
X108283122Y-41638748D01*
X108283104Y-41638749D01*
X108180327Y-41649248D01*
X108180324Y-41649249D01*
X108013792Y-41704433D01*
X108013787Y-41704435D01*
X107864466Y-41796537D01*
X107740413Y-41920590D01*
X107648311Y-42069911D01*
X107648310Y-42069914D01*
X107593125Y-42236451D01*
X107593125Y-42236452D01*
X107593124Y-42236452D01*
X107582624Y-42339231D01*
X107582624Y-43939249D01*
X107582625Y-43939266D01*
X107593124Y-44042044D01*
X107593125Y-44042047D01*
X107648309Y-44208579D01*
X107648310Y-44208582D01*
X107740412Y-44357904D01*
X107864468Y-44481960D01*
X108013790Y-44574062D01*
X108180327Y-44629247D01*
X108283115Y-44639748D01*
X108883132Y-44639747D01*
X108883140Y-44639746D01*
X108883143Y-44639746D01*
X108915163Y-44636475D01*
X108985921Y-44629247D01*
X108985928Y-44629244D01*
X108992538Y-44627830D01*
X108993063Y-44630285D01*
X109051405Y-44628258D01*
X109111460Y-44663968D01*
X109142675Y-44726478D01*
X109144624Y-44748377D01*
X109144624Y-87564845D01*
X109124939Y-87631884D01*
X109072135Y-87677639D01*
X109002977Y-87687583D01*
X108939421Y-87658558D01*
X108905635Y-87607601D01*
X108904949Y-87607907D01*
X108903131Y-87603825D01*
X108902693Y-87603164D01*
X108902304Y-87601967D01*
X108902303Y-87601966D01*
X108902303Y-87601964D01*
X108807657Y-87438032D01*
X108680995Y-87297360D01*
X108669556Y-87289049D01*
X108527858Y-87186099D01*
X108527853Y-87186096D01*
X108354931Y-87109105D01*
X108354926Y-87109103D01*
X108182971Y-87072554D01*
X108169770Y-87069748D01*
X107980478Y-87069748D01*
X107967277Y-87072554D01*
X107795321Y-87109103D01*
X107795316Y-87109105D01*
X107622394Y-87186096D01*
X107622389Y-87186099D01*
X107513009Y-87265569D01*
X107447203Y-87289049D01*
X107379149Y-87273223D01*
X107367239Y-87265569D01*
X107257858Y-87186099D01*
X107257853Y-87186096D01*
X107084931Y-87109105D01*
X107084926Y-87109103D01*
X106912971Y-87072554D01*
X106899770Y-87069748D01*
X106710478Y-87069748D01*
X106697277Y-87072554D01*
X106525321Y-87109103D01*
X106525316Y-87109105D01*
X106352394Y-87186096D01*
X106346761Y-87189349D01*
X106345269Y-87186765D01*
X106291607Y-87205865D01*
X106223565Y-87189987D01*
X106174909Y-87139843D01*
X106160624Y-87082062D01*
X106160624Y-86756699D01*
X106180309Y-86689660D01*
X106196938Y-86669023D01*
X108585910Y-84280050D01*
X108598172Y-84270228D01*
X108597989Y-84270007D01*
X108603991Y-84265040D01*
X108604001Y-84265034D01*
X108651365Y-84214596D01*
X108672244Y-84193718D01*
X108676497Y-84188234D01*
X108680274Y-84183811D01*
X108712186Y-84149830D01*
X108721838Y-84132271D01*
X108732513Y-84116020D01*
X108744798Y-84100184D01*
X108763310Y-84057400D01*
X108765866Y-84052183D01*
X108788321Y-84011340D01*
X108793304Y-83991928D01*
X108799601Y-83973539D01*
X108807562Y-83955143D01*
X108814853Y-83909101D01*
X108816032Y-83903410D01*
X108827624Y-83858267D01*
X108827624Y-83838231D01*
X108829151Y-83818830D01*
X108832284Y-83799052D01*
X108827899Y-83752663D01*
X108827624Y-83746825D01*
X108827624Y-47666990D01*
X108829348Y-47651370D01*
X108829063Y-47651343D01*
X108829797Y-47643581D01*
X108827624Y-47574420D01*
X108827624Y-47544904D01*
X108827624Y-47544898D01*
X108826755Y-47538027D01*
X108826297Y-47532200D01*
X108824834Y-47485621D01*
X108819243Y-47466378D01*
X108815297Y-47447326D01*
X108812788Y-47427456D01*
X108795628Y-47384115D01*
X108793748Y-47378627D01*
X108780742Y-47333858D01*
X108770546Y-47316618D01*
X108761985Y-47299142D01*
X108754611Y-47280518D01*
X108754610Y-47280516D01*
X108727203Y-47242793D01*
X108724012Y-47237934D01*
X108700296Y-47197831D01*
X108700289Y-47197822D01*
X108686130Y-47183663D01*
X108673492Y-47168867D01*
X108661718Y-47152661D01*
X108625812Y-47122957D01*
X108621500Y-47119034D01*
X107566927Y-46064460D01*
X107557104Y-46052198D01*
X107556883Y-46052382D01*
X107551910Y-46046371D01*
X107501488Y-45999021D01*
X107491043Y-45988576D01*
X107480599Y-45978131D01*
X107475110Y-45973873D01*
X107470685Y-45970095D01*
X107436706Y-45938186D01*
X107436704Y-45938184D01*
X107436701Y-45938183D01*
X107419153Y-45928536D01*
X107402887Y-45917852D01*
X107387057Y-45905573D01*
X107344292Y-45887066D01*
X107339046Y-45884496D01*
X107298217Y-45862051D01*
X107293602Y-45860224D01*
X107238516Y-45817244D01*
X107233708Y-45810027D01*
X107137836Y-45654592D01*
X107013781Y-45530537D01*
X107013780Y-45530536D01*
X106864458Y-45438434D01*
X106697921Y-45383249D01*
X106697919Y-45383248D01*
X106595134Y-45372748D01*
X105595122Y-45372748D01*
X105595104Y-45372749D01*
X105492327Y-45383248D01*
X105492324Y-45383249D01*
X105325792Y-45438433D01*
X105325787Y-45438435D01*
X105176466Y-45530537D01*
X105052413Y-45654590D01*
X104960311Y-45803911D01*
X104960310Y-45803914D01*
X104905125Y-45970451D01*
X104905125Y-45970452D01*
X104905124Y-45970452D01*
X104894624Y-46073231D01*
X104894624Y-46823249D01*
X104894625Y-46823267D01*
X104905124Y-46926044D01*
X104905125Y-46926047D01*
X104960309Y-47092579D01*
X104960310Y-47092582D01*
X105049963Y-47237934D01*
X105052413Y-47241905D01*
X105176470Y-47365962D01*
X105179306Y-47367711D01*
X105180841Y-47369418D01*
X105182135Y-47370441D01*
X105181960Y-47370662D01*
X105226029Y-47419659D01*
X105237250Y-47488622D01*
X105209406Y-47552704D01*
X105179306Y-47578785D01*
X105176470Y-47580533D01*
X105052413Y-47704590D01*
X104960311Y-47853911D01*
X104960310Y-47853914D01*
X104905125Y-48020451D01*
X104905125Y-48020452D01*
X104905124Y-48020452D01*
X104894624Y-48123231D01*
X104894624Y-48873249D01*
X104894625Y-48873267D01*
X104905124Y-48976044D01*
X104905125Y-48976047D01*
X104960309Y-49142579D01*
X104960310Y-49142582D01*
X105052412Y-49291904D01*
X105176468Y-49415960D01*
X105235720Y-49452506D01*
X105282445Y-49504452D01*
X105294624Y-49558045D01*
X105294624Y-49689308D01*
X105274939Y-49756347D01*
X105258305Y-49776989D01*
X104377810Y-50657483D01*
X104377807Y-50657487D01*
X104355590Y-50692844D01*
X104351565Y-50698517D01*
X104325534Y-50731158D01*
X104307415Y-50768781D01*
X104304051Y-50774868D01*
X104281836Y-50810224D01*
X104281832Y-50810231D01*
X104268040Y-50849643D01*
X104265379Y-50856068D01*
X104247263Y-50893687D01*
X104237968Y-50934407D01*
X104236043Y-50941089D01*
X104222256Y-50980492D01*
X104217579Y-51021983D01*
X104216415Y-51028837D01*
X104207124Y-51069554D01*
X104207124Y-51692903D01*
X104187439Y-51759942D01*
X104134635Y-51805697D01*
X104065477Y-51815641D01*
X104001921Y-51786616D01*
X103995443Y-51780584D01*
X103893162Y-51678303D01*
X103893158Y-51678300D01*
X103746435Y-51587799D01*
X103746424Y-51587794D01*
X103582776Y-51533567D01*
X103481778Y-51523248D01*
X103432624Y-51523248D01*
X103432624Y-53473247D01*
X103481764Y-53473247D01*
X103481778Y-53473246D01*
X103582776Y-53462928D01*
X103746424Y-53408701D01*
X103746435Y-53408696D01*
X103893157Y-53318196D01*
X104007088Y-53204265D01*
X104068411Y-53170780D01*
X104138103Y-53175764D01*
X104182451Y-53204265D01*
X104296774Y-53318588D01*
X104443608Y-53409156D01*
X104607371Y-53463422D01*
X104708447Y-53473748D01*
X105306800Y-53473747D01*
X105306808Y-53473746D01*
X105306811Y-53473746D01*
X105362154Y-53468092D01*
X105407877Y-53463422D01*
X105571640Y-53409156D01*
X105718474Y-53318588D01*
X105840464Y-53196598D01*
X105931032Y-53049764D01*
X105985298Y-52886001D01*
X105995624Y-52784925D01*
X105995623Y-52211572D01*
X105985298Y-52110495D01*
X105931032Y-51946732D01*
X105840464Y-51799898D01*
X105840463Y-51799897D01*
X105840462Y-51799895D01*
X105835986Y-51794235D01*
X105838215Y-51792472D01*
X105810958Y-51742554D01*
X105808124Y-51716196D01*
X105808124Y-51542688D01*
X105827809Y-51475649D01*
X105844443Y-51455007D01*
X106229896Y-51069554D01*
X106692950Y-50606500D01*
X106724940Y-50574510D01*
X106747161Y-50539143D01*
X106751176Y-50533484D01*
X106777215Y-50500835D01*
X106795333Y-50463209D01*
X106798689Y-50457137D01*
X106820913Y-50421770D01*
X106834704Y-50382353D01*
X106837360Y-50375941D01*
X106855484Y-50338309D01*
X106864782Y-50297569D01*
X106866695Y-50290928D01*
X106880492Y-50251503D01*
X106885167Y-50210008D01*
X106886332Y-50203153D01*
X106887850Y-50196497D01*
X106895624Y-50162442D01*
X106895624Y-49982054D01*
X106895624Y-49558045D01*
X106915309Y-49491006D01*
X106954527Y-49452506D01*
X107013780Y-49415960D01*
X107137836Y-49291904D01*
X107229938Y-49142582D01*
X107285123Y-48976045D01*
X107295624Y-48873257D01*
X107295623Y-48123240D01*
X107285123Y-48020451D01*
X107229938Y-47853914D01*
X107211805Y-47824516D01*
X107193366Y-47757125D01*
X107214289Y-47690462D01*
X107267931Y-47645692D01*
X107337262Y-47637031D01*
X107400269Y-47667228D01*
X107405026Y-47671740D01*
X107540305Y-47807019D01*
X107573790Y-47868342D01*
X107576624Y-47894700D01*
X107576624Y-83468794D01*
X107556939Y-83535833D01*
X107540305Y-83556475D01*
X105151332Y-85945447D01*
X105139075Y-85955268D01*
X105139258Y-85955489D01*
X105133247Y-85960461D01*
X105085896Y-86010884D01*
X105065013Y-86031767D01*
X105065001Y-86031780D01*
X105060745Y-86037265D01*
X105056961Y-86041695D01*
X105025061Y-86075666D01*
X105025060Y-86075668D01*
X105015408Y-86093224D01*
X105004734Y-86109474D01*
X104992453Y-86125309D01*
X104992448Y-86125316D01*
X104973939Y-86168086D01*
X104971369Y-86173332D01*
X104948927Y-86214154D01*
X104943946Y-86233555D01*
X104937645Y-86251958D01*
X104929686Y-86270350D01*
X104929685Y-86270353D01*
X104922395Y-86316375D01*
X104921211Y-86322094D01*
X104909625Y-86367220D01*
X104909624Y-86367230D01*
X104909624Y-86387264D01*
X104908097Y-86406663D01*
X104904964Y-86426442D01*
X104904964Y-86426443D01*
X104909349Y-86472831D01*
X104909624Y-86478669D01*
X104909624Y-87443112D01*
X104889939Y-87510151D01*
X104837135Y-87555906D01*
X104772771Y-87565160D01*
X104772638Y-87566427D01*
X104766175Y-87565748D01*
X104766170Y-87565748D01*
X104694976Y-87565748D01*
X104627937Y-87546063D01*
X104607295Y-87529429D01*
X99167327Y-82089460D01*
X99157504Y-82077198D01*
X99157283Y-82077382D01*
X99152310Y-82071371D01*
X99101888Y-82024021D01*
X99091443Y-82013576D01*
X99080999Y-82003131D01*
X99075510Y-81998873D01*
X99071085Y-81995095D01*
X99037106Y-81963186D01*
X99037104Y-81963184D01*
X99037101Y-81963183D01*
X99019553Y-81953536D01*
X99003287Y-81942852D01*
X98987457Y-81930573D01*
X98944692Y-81912066D01*
X98939446Y-81909496D01*
X98898617Y-81887051D01*
X98898616Y-81887050D01*
X98879217Y-81882070D01*
X98860805Y-81875766D01*
X98842422Y-81867810D01*
X98842416Y-81867808D01*
X98796398Y-81860520D01*
X98790676Y-81859335D01*
X98745545Y-81847748D01*
X98745543Y-81847748D01*
X98725508Y-81847748D01*
X98706110Y-81846221D01*
X98698686Y-81845045D01*
X98686329Y-81843088D01*
X98686328Y-81843088D01*
X98639940Y-81847473D01*
X98634102Y-81847748D01*
X95310762Y-81847748D01*
X95243723Y-81828063D01*
X95205223Y-81788845D01*
X95137836Y-81679592D01*
X95013780Y-81555536D01*
X94864458Y-81463434D01*
X94697921Y-81408249D01*
X94697919Y-81408248D01*
X94595134Y-81397748D01*
X93595122Y-81397748D01*
X93595104Y-81397749D01*
X93492327Y-81408248D01*
X93492324Y-81408249D01*
X93325792Y-81463433D01*
X93325787Y-81463435D01*
X93176466Y-81555537D01*
X93052413Y-81679590D01*
X92960311Y-81828911D01*
X92960309Y-81828916D01*
X92941045Y-81887051D01*
X92905125Y-81995451D01*
X92905125Y-81995452D01*
X92905124Y-81995452D01*
X92894624Y-82098231D01*
X92894624Y-82848249D01*
X92894625Y-82848267D01*
X92905124Y-82951044D01*
X92905125Y-82951047D01*
X92960309Y-83117579D01*
X92960311Y-83117584D01*
X93052413Y-83266905D01*
X93176470Y-83390962D01*
X93179306Y-83392711D01*
X93180841Y-83394418D01*
X93182135Y-83395441D01*
X93181960Y-83395662D01*
X93226029Y-83444659D01*
X93237250Y-83513622D01*
X93209406Y-83577704D01*
X93179306Y-83603785D01*
X93176470Y-83605533D01*
X93052413Y-83729590D01*
X92960311Y-83878911D01*
X92960310Y-83878914D01*
X92905125Y-84045451D01*
X92905125Y-84045452D01*
X92905124Y-84045452D01*
X92894624Y-84148231D01*
X92894624Y-84898249D01*
X92894625Y-84898267D01*
X92905124Y-85001044D01*
X92905125Y-85001047D01*
X92960309Y-85167579D01*
X92960310Y-85167582D01*
X93052412Y-85316904D01*
X93176468Y-85440960D01*
X93235720Y-85477506D01*
X93282445Y-85529452D01*
X93294624Y-85583045D01*
X93294624Y-85692308D01*
X93274939Y-85759347D01*
X93258305Y-85779989D01*
X92377810Y-86660483D01*
X92377807Y-86660487D01*
X92355590Y-86695844D01*
X92351565Y-86701517D01*
X92325534Y-86734158D01*
X92307415Y-86771781D01*
X92304051Y-86777868D01*
X92281836Y-86813224D01*
X92281832Y-86813231D01*
X92268040Y-86852643D01*
X92265379Y-86859068D01*
X92247263Y-86896687D01*
X92237968Y-86937407D01*
X92236043Y-86944089D01*
X92222256Y-86983492D01*
X92217579Y-87024983D01*
X92216415Y-87031837D01*
X92207124Y-87072554D01*
X92207124Y-87692903D01*
X92187439Y-87759942D01*
X92134635Y-87805697D01*
X92065477Y-87815641D01*
X92001921Y-87786616D01*
X91995443Y-87780584D01*
X91893162Y-87678303D01*
X91893158Y-87678300D01*
X91746435Y-87587799D01*
X91746424Y-87587794D01*
X91582776Y-87533567D01*
X91481778Y-87523248D01*
X91432624Y-87523248D01*
X91432624Y-89473247D01*
X91481764Y-89473247D01*
X91481778Y-89473246D01*
X91582776Y-89462928D01*
X91746424Y-89408701D01*
X91746435Y-89408696D01*
X91893157Y-89318196D01*
X92007088Y-89204265D01*
X92068411Y-89170780D01*
X92138103Y-89175764D01*
X92182451Y-89204265D01*
X92296774Y-89318588D01*
X92443608Y-89409156D01*
X92607371Y-89463422D01*
X92708447Y-89473748D01*
X93306800Y-89473747D01*
X93306808Y-89473746D01*
X93306811Y-89473746D01*
X93362154Y-89468092D01*
X93407877Y-89463422D01*
X93571640Y-89409156D01*
X93718474Y-89318588D01*
X93840464Y-89196598D01*
X93931032Y-89049764D01*
X93985298Y-88886001D01*
X93995624Y-88784925D01*
X93995623Y-88211572D01*
X93985298Y-88110495D01*
X93931032Y-87946732D01*
X93840464Y-87799898D01*
X93840463Y-87799897D01*
X93840462Y-87799895D01*
X93835986Y-87794235D01*
X93838215Y-87792472D01*
X93810958Y-87742554D01*
X93808124Y-87716196D01*
X93808124Y-87545688D01*
X93827809Y-87478649D01*
X93844443Y-87458007D01*
X94232702Y-87069748D01*
X94692950Y-86609500D01*
X94724940Y-86577510D01*
X94747161Y-86542143D01*
X94751176Y-86536484D01*
X94777215Y-86503835D01*
X94795333Y-86466209D01*
X94798689Y-86460137D01*
X94820913Y-86424770D01*
X94834704Y-86385353D01*
X94837360Y-86378941D01*
X94855484Y-86341309D01*
X94864782Y-86300569D01*
X94866695Y-86293928D01*
X94880492Y-86254503D01*
X94885167Y-86213008D01*
X94886332Y-86206153D01*
X94893823Y-86173332D01*
X94895624Y-86165442D01*
X94895624Y-85985054D01*
X94895624Y-85583045D01*
X94915309Y-85516006D01*
X94954527Y-85477506D01*
X95013780Y-85440960D01*
X95137836Y-85316904D01*
X95229938Y-85167582D01*
X95285123Y-85001045D01*
X95295624Y-84898257D01*
X95295623Y-84148240D01*
X95285123Y-84045451D01*
X95229938Y-83878914D01*
X95137836Y-83729592D01*
X95013780Y-83605536D01*
X95010943Y-83603786D01*
X95009407Y-83602078D01*
X95008113Y-83601055D01*
X95008287Y-83600833D01*
X94964220Y-83551842D01*
X94952996Y-83482880D01*
X94980837Y-83418797D01*
X95010941Y-83392710D01*
X95013780Y-83390960D01*
X95137836Y-83266904D01*
X95205223Y-83157650D01*
X95257171Y-83110927D01*
X95310762Y-83098748D01*
X98356072Y-83098748D01*
X98423111Y-83118433D01*
X98443753Y-83135067D01*
X103673851Y-88365166D01*
X103707336Y-88426489D01*
X103702352Y-88496181D01*
X103673851Y-88540528D01*
X102662132Y-89552247D01*
X102649875Y-89562068D01*
X102650058Y-89562289D01*
X102644047Y-89567261D01*
X102596696Y-89617684D01*
X102575813Y-89638567D01*
X102575801Y-89638580D01*
X102571545Y-89644065D01*
X102567761Y-89648495D01*
X102535861Y-89682466D01*
X102535860Y-89682468D01*
X102526208Y-89700024D01*
X102515534Y-89716274D01*
X102503253Y-89732109D01*
X102503248Y-89732116D01*
X102484739Y-89774886D01*
X102482169Y-89780132D01*
X102459727Y-89820954D01*
X102454746Y-89840355D01*
X102448445Y-89858758D01*
X102440486Y-89877150D01*
X102440485Y-89877153D01*
X102433195Y-89923175D01*
X102432011Y-89928894D01*
X102420425Y-89974020D01*
X102420424Y-89974030D01*
X102420424Y-89994064D01*
X102418897Y-90013463D01*
X102415764Y-90033242D01*
X102415764Y-90033243D01*
X102420149Y-90079631D01*
X102420424Y-90085469D01*
X102420424Y-101089160D01*
X102400739Y-101156199D01*
X102388574Y-101172132D01*
X102313390Y-101255632D01*
X102218745Y-101419563D01*
X102218742Y-101419570D01*
X102160251Y-101599588D01*
X102160250Y-101599592D01*
X102140464Y-101787848D01*
X102160250Y-101976104D01*
X102160251Y-101976107D01*
X102218742Y-102156125D01*
X102218745Y-102156132D01*
X102313391Y-102320064D01*
X102378000Y-102391819D01*
X102440053Y-102460736D01*
X102593189Y-102571996D01*
X102593194Y-102571999D01*
X102766115Y-102648990D01*
X102766117Y-102648990D01*
X102766121Y-102648992D01*
X102779149Y-102651761D01*
X102840629Y-102684953D01*
X102874406Y-102746115D01*
X102869754Y-102815830D01*
X102841048Y-102860732D01*
X92890352Y-112811429D01*
X92829029Y-112844914D01*
X92802671Y-112847748D01*
X87310762Y-112847748D01*
X87243723Y-112828063D01*
X87205223Y-112788845D01*
X87137836Y-112679592D01*
X87013780Y-112555536D01*
X86864458Y-112463434D01*
X86697921Y-112408249D01*
X86697919Y-112408248D01*
X86595134Y-112397748D01*
X85595122Y-112397748D01*
X85595104Y-112397749D01*
X85492327Y-112408248D01*
X85492324Y-112408249D01*
X85325792Y-112463433D01*
X85325787Y-112463435D01*
X85176466Y-112555537D01*
X85052413Y-112679590D01*
X84960311Y-112828911D01*
X84960310Y-112828914D01*
X84905125Y-112995451D01*
X84905125Y-112995452D01*
X84905124Y-112995452D01*
X84894624Y-113098231D01*
X84894624Y-113848249D01*
X84894625Y-113848267D01*
X84905124Y-113951044D01*
X84905125Y-113951047D01*
X84960309Y-114117579D01*
X84960311Y-114117584D01*
X85052413Y-114266905D01*
X85176470Y-114390962D01*
X85179306Y-114392711D01*
X85180841Y-114394418D01*
X85182135Y-114395441D01*
X85181960Y-114395662D01*
X85226029Y-114444659D01*
X85237250Y-114513622D01*
X85209406Y-114577704D01*
X85179306Y-114603785D01*
X85176470Y-114605533D01*
X85052413Y-114729590D01*
X84960311Y-114878911D01*
X84960310Y-114878914D01*
X84905125Y-115045451D01*
X84905125Y-115045452D01*
X84905124Y-115045452D01*
X84894624Y-115148231D01*
X84894624Y-115898249D01*
X84894625Y-115898267D01*
X84905124Y-116001044D01*
X84905125Y-116001047D01*
X84960309Y-116167579D01*
X84960311Y-116167584D01*
X85052413Y-116316905D01*
X85165719Y-116430211D01*
X85199204Y-116491534D01*
X85194220Y-116561226D01*
X85165719Y-116605573D01*
X84505362Y-117265932D01*
X84377810Y-117393483D01*
X84377807Y-117393487D01*
X84355590Y-117428844D01*
X84351565Y-117434517D01*
X84325534Y-117467158D01*
X84307415Y-117504781D01*
X84304051Y-117510868D01*
X84281836Y-117546224D01*
X84281832Y-117546231D01*
X84268040Y-117585643D01*
X84265379Y-117592068D01*
X84247263Y-117629687D01*
X84237968Y-117670407D01*
X84236043Y-117677089D01*
X84222256Y-117716492D01*
X84217579Y-117757983D01*
X84216415Y-117764837D01*
X84207124Y-117805554D01*
X84207124Y-118692903D01*
X84187439Y-118759942D01*
X84134635Y-118805697D01*
X84065477Y-118815641D01*
X84001921Y-118786616D01*
X83995443Y-118780584D01*
X83893162Y-118678303D01*
X83893158Y-118678300D01*
X83746435Y-118587799D01*
X83746424Y-118587794D01*
X83582776Y-118533567D01*
X83481778Y-118523248D01*
X83432624Y-118523248D01*
X83432624Y-120473247D01*
X83481764Y-120473247D01*
X83481778Y-120473246D01*
X83582776Y-120462928D01*
X83746424Y-120408701D01*
X83746435Y-120408696D01*
X83893157Y-120318196D01*
X84007088Y-120204265D01*
X84068411Y-120170780D01*
X84138103Y-120175764D01*
X84182451Y-120204265D01*
X84296774Y-120318588D01*
X84443608Y-120409156D01*
X84607371Y-120463422D01*
X84708447Y-120473748D01*
X85306800Y-120473747D01*
X85306808Y-120473746D01*
X85306811Y-120473746D01*
X85362154Y-120468092D01*
X85407877Y-120463422D01*
X85571640Y-120409156D01*
X85718474Y-120318588D01*
X85840464Y-120196598D01*
X85931032Y-120049764D01*
X85985298Y-119886001D01*
X85995624Y-119784925D01*
X85995623Y-119211572D01*
X85992435Y-119180367D01*
X85985298Y-119110495D01*
X85972653Y-119072335D01*
X85931032Y-118946732D01*
X85840464Y-118799898D01*
X85840463Y-118799897D01*
X85840462Y-118799895D01*
X85835986Y-118794235D01*
X85838215Y-118792472D01*
X85810958Y-118742554D01*
X85808124Y-118716196D01*
X85808124Y-118278688D01*
X85827809Y-118211649D01*
X85844443Y-118191007D01*
X86229896Y-117805554D01*
X86692950Y-117342500D01*
X86724940Y-117310510D01*
X86747161Y-117275143D01*
X86751176Y-117269484D01*
X86777215Y-117236835D01*
X86795333Y-117199209D01*
X86798689Y-117193137D01*
X86820913Y-117157770D01*
X86834704Y-117118353D01*
X86837360Y-117111941D01*
X86855484Y-117074309D01*
X86864782Y-117033569D01*
X86866695Y-117026928D01*
X86880492Y-116987503D01*
X86885167Y-116946008D01*
X86886332Y-116939153D01*
X86887850Y-116932497D01*
X86895624Y-116898442D01*
X86895624Y-116718054D01*
X86895624Y-116583045D01*
X86915309Y-116516006D01*
X86954527Y-116477506D01*
X87013780Y-116440960D01*
X87137836Y-116316904D01*
X87229938Y-116167582D01*
X87285123Y-116001045D01*
X87295624Y-115898257D01*
X87295623Y-115148240D01*
X87285123Y-115045451D01*
X87229938Y-114878914D01*
X87137836Y-114729592D01*
X87013780Y-114605536D01*
X87010943Y-114603786D01*
X87009407Y-114602078D01*
X87008113Y-114601055D01*
X87008287Y-114600833D01*
X86964220Y-114551842D01*
X86952996Y-114482880D01*
X86980837Y-114418797D01*
X87010941Y-114392710D01*
X87013780Y-114390960D01*
X87137836Y-114266904D01*
X87205223Y-114157650D01*
X87257171Y-114110927D01*
X87310762Y-114098748D01*
X93030381Y-114098748D01*
X93046001Y-114100472D01*
X93046028Y-114100187D01*
X93053784Y-114100919D01*
X93053791Y-114100921D01*
X93122938Y-114098748D01*
X93152474Y-114098748D01*
X93159352Y-114097878D01*
X93165165Y-114097420D01*
X93211751Y-114095957D01*
X93230993Y-114090365D01*
X93250036Y-114086422D01*
X93269916Y-114083912D01*
X93313246Y-114066755D01*
X93318770Y-114064865D01*
X93322520Y-114063775D01*
X93363514Y-114051866D01*
X93380753Y-114041670D01*
X93398227Y-114033110D01*
X93416851Y-114025736D01*
X93416851Y-114025735D01*
X93416856Y-114025734D01*
X93454573Y-113998330D01*
X93459429Y-113995140D01*
X93499544Y-113971418D01*
X93513713Y-113957247D01*
X93528503Y-113944616D01*
X93544711Y-113932842D01*
X93574423Y-113896924D01*
X93578336Y-113892624D01*
X105079144Y-102391817D01*
X105140465Y-102358334D01*
X105210157Y-102363318D01*
X105254504Y-102391819D01*
X107966451Y-105103766D01*
X107999936Y-105165089D01*
X107994952Y-105234781D01*
X107966451Y-105279128D01*
X107691332Y-105554247D01*
X107679075Y-105564068D01*
X107679258Y-105564289D01*
X107673247Y-105569261D01*
X107625896Y-105619684D01*
X107605013Y-105640567D01*
X107605001Y-105640580D01*
X107600745Y-105646065D01*
X107596961Y-105650495D01*
X107565061Y-105684466D01*
X107565060Y-105684468D01*
X107555408Y-105702024D01*
X107544734Y-105718274D01*
X107532453Y-105734109D01*
X107532448Y-105734116D01*
X107513939Y-105776886D01*
X107511369Y-105782132D01*
X107488927Y-105822954D01*
X107483946Y-105842355D01*
X107477645Y-105860758D01*
X107469686Y-105879150D01*
X107469685Y-105879153D01*
X107462395Y-105925175D01*
X107461211Y-105930894D01*
X107449625Y-105976020D01*
X107449624Y-105976030D01*
X107449624Y-105996064D01*
X107448097Y-106015463D01*
X107444964Y-106035242D01*
X107444964Y-106035243D01*
X107449349Y-106081631D01*
X107449624Y-106087469D01*
X107449624Y-118005560D01*
X107429939Y-118072599D01*
X107417774Y-118088532D01*
X107342590Y-118172032D01*
X107247945Y-118335963D01*
X107247942Y-118335970D01*
X107189451Y-118515988D01*
X107189450Y-118515992D01*
X107169664Y-118704248D01*
X107189450Y-118892504D01*
X107189451Y-118892507D01*
X107228091Y-119011430D01*
X107230086Y-119081271D01*
X107194005Y-119141104D01*
X107131304Y-119171932D01*
X107110160Y-119173748D01*
X106887163Y-119173748D01*
X106752874Y-119188878D01*
X106752869Y-119188879D01*
X106582600Y-119248459D01*
X106429861Y-119344432D01*
X106302308Y-119471985D01*
X106206336Y-119624722D01*
X106189146Y-119673848D01*
X106159786Y-119720572D01*
X103795884Y-122084475D01*
X103782257Y-122096253D01*
X103763862Y-122109948D01*
X103763861Y-122109949D01*
X103731452Y-122148573D01*
X103727804Y-122152555D01*
X103722240Y-122158120D01*
X103702591Y-122182969D01*
X103654850Y-122239865D01*
X103650884Y-122245896D01*
X103650805Y-122245844D01*
X103647140Y-122251596D01*
X103647222Y-122251646D01*
X103643430Y-122257792D01*
X103612062Y-122325064D01*
X103578734Y-122391425D01*
X103576266Y-122398208D01*
X103576176Y-122398175D01*
X103573940Y-122404610D01*
X103574031Y-122404641D01*
X103571761Y-122411491D01*
X103556747Y-122484198D01*
X103539623Y-122556453D01*
X103538785Y-122563624D01*
X103538688Y-122563612D01*
X103537996Y-122570383D01*
X103538093Y-122570392D01*
X103537463Y-122577581D01*
X103539624Y-122651815D01*
X103539624Y-124717338D01*
X103539519Y-124720943D01*
X103535921Y-124782716D01*
X103535921Y-124782728D01*
X103537740Y-124793041D01*
X103539624Y-124814572D01*
X103539624Y-125035375D01*
X103519939Y-125102414D01*
X103467135Y-125148169D01*
X103397977Y-125158113D01*
X103334421Y-125129088D01*
X103327943Y-125123056D01*
X102860895Y-124656008D01*
X102849113Y-124642374D01*
X102835432Y-124623998D01*
X102835431Y-124623997D01*
X102835426Y-124623990D01*
X102796789Y-124591569D01*
X102792803Y-124587916D01*
X102787252Y-124582364D01*
X102787247Y-124582360D01*
X102762401Y-124562715D01*
X102757635Y-124558716D01*
X102705507Y-124514975D01*
X102705504Y-124514973D01*
X102699472Y-124511006D01*
X102699525Y-124510924D01*
X102693780Y-124507265D01*
X102693729Y-124507348D01*
X102687582Y-124503556D01*
X102620307Y-124472186D01*
X102553945Y-124438858D01*
X102547159Y-124436388D01*
X102547191Y-124436298D01*
X102540765Y-124434064D01*
X102540735Y-124434156D01*
X102533879Y-124431884D01*
X102461174Y-124416871D01*
X102388916Y-124399746D01*
X102381748Y-124398909D01*
X102381759Y-124398812D01*
X102374991Y-124398120D01*
X102374983Y-124398217D01*
X102367792Y-124397587D01*
X102293556Y-124399748D01*
X101689741Y-124399748D01*
X101622702Y-124380063D01*
X101576947Y-124327259D01*
X101573559Y-124319081D01*
X101572550Y-124316377D01*
X101563491Y-124292087D01*
X101563032Y-124291247D01*
X101426353Y-124040938D01*
X101426348Y-124040930D01*
X101254869Y-123811860D01*
X101254853Y-123811842D01*
X101052529Y-123609518D01*
X101052511Y-123609502D01*
X100823441Y-123438023D01*
X100823433Y-123438018D01*
X100572290Y-123300883D01*
X100572291Y-123300883D01*
X100465039Y-123260880D01*
X100304170Y-123200879D01*
X100304167Y-123200878D01*
X100304161Y-123200876D01*
X100024557Y-123140052D01*
X99739125Y-123119638D01*
X99739123Y-123119638D01*
X99453690Y-123140052D01*
X99174086Y-123200876D01*
X98905957Y-123300883D01*
X98654814Y-123438018D01*
X98654806Y-123438023D01*
X98425736Y-123609502D01*
X98425718Y-123609518D01*
X98223394Y-123811842D01*
X98223378Y-123811860D01*
X98051899Y-124040930D01*
X98051894Y-124040938D01*
X97914759Y-124292081D01*
X97814752Y-124560210D01*
X97753928Y-124839814D01*
X97733514Y-125125246D01*
X97733514Y-125125249D01*
X97753928Y-125410681D01*
X97814755Y-125690295D01*
X97848638Y-125781141D01*
X97853622Y-125850833D01*
X97820137Y-125912155D01*
X96804863Y-126927429D01*
X96743540Y-126960914D01*
X96717183Y-126963748D01*
X96612455Y-126963748D01*
X96612436Y-126963749D01*
X96511371Y-126974073D01*
X96347608Y-127028340D01*
X96347605Y-127028341D01*
X96200772Y-127118909D01*
X96078785Y-127240896D01*
X95988217Y-127387729D01*
X95988215Y-127387734D01*
X95960843Y-127470336D01*
X95933950Y-127551495D01*
X95933950Y-127551496D01*
X95933949Y-127551496D01*
X95923624Y-127652563D01*
X95923624Y-128250917D01*
X95923625Y-128250935D01*
X95933949Y-128352000D01*
X95970233Y-128461497D01*
X95985575Y-128507795D01*
X95988216Y-128515763D01*
X95988217Y-128515766D01*
X96007235Y-128546599D01*
X96078487Y-128662117D01*
X96078785Y-128662599D01*
X96192753Y-128776567D01*
X96226238Y-128837890D01*
X96221254Y-128907582D01*
X96192753Y-128951929D01*
X96078785Y-129065896D01*
X95988217Y-129212729D01*
X95988215Y-129212734D01*
X95985475Y-129221004D01*
X95933950Y-129376495D01*
X95933950Y-129376496D01*
X95933949Y-129376496D01*
X95923624Y-129477563D01*
X95923624Y-130075917D01*
X95923625Y-130075935D01*
X95933949Y-130177000D01*
X95961723Y-130260814D01*
X95984603Y-130329862D01*
X95988216Y-130340763D01*
X95988220Y-130340772D01*
X96080162Y-130489832D01*
X96098624Y-130554929D01*
X96098624Y-130640308D01*
X96078939Y-130707347D01*
X96062305Y-130727989D01*
X96015310Y-130774983D01*
X96015307Y-130774987D01*
X95993090Y-130810344D01*
X95989065Y-130816017D01*
X95963034Y-130848658D01*
X95944915Y-130886281D01*
X95941551Y-130892368D01*
X95919336Y-130927724D01*
X95919332Y-130927731D01*
X95905540Y-130967143D01*
X95902879Y-130973568D01*
X95884763Y-131011187D01*
X95875468Y-131051907D01*
X95873543Y-131058589D01*
X95859756Y-131097992D01*
X95855079Y-131139483D01*
X95853915Y-131146337D01*
X95844624Y-131187054D01*
X95844624Y-131975450D01*
X95824939Y-132042489D01*
X95772135Y-132088244D01*
X95755220Y-132094526D01*
X95700228Y-132110502D01*
X95700227Y-132110503D01*
X95558761Y-132194165D01*
X95558753Y-132194171D01*
X95442547Y-132310377D01*
X95442541Y-132310385D01*
X95358879Y-132451851D01*
X95358878Y-132451854D01*
X95313026Y-132609674D01*
X95313025Y-132609680D01*
X95310124Y-132646552D01*
X95310124Y-133077944D01*
X95313025Y-133114815D01*
X95313026Y-133114821D01*
X95358878Y-133272641D01*
X95358879Y-133272644D01*
X95358880Y-133272646D01*
X95377461Y-133304065D01*
X95442541Y-133414110D01*
X95442547Y-133414118D01*
X95558753Y-133530324D01*
X95558757Y-133530327D01*
X95558759Y-133530329D01*
X95700226Y-133613992D01*
X95718978Y-133619440D01*
X95858050Y-133659845D01*
X95858053Y-133659845D01*
X95858055Y-133659846D01*
X95870346Y-133660813D01*
X95894928Y-133662748D01*
X95894930Y-133662748D01*
X97201320Y-133662748D01*
X97219755Y-133661297D01*
X97238193Y-133659846D01*
X97238195Y-133659845D01*
X97238197Y-133659845D01*
X97308492Y-133639422D01*
X97396022Y-133613992D01*
X97454318Y-133579516D01*
X97517439Y-133562248D01*
X98173124Y-133562248D01*
X98173124Y-133012248D01*
X98673124Y-133012248D01*
X98673124Y-133562248D01*
X99657919Y-133562248D01*
X99657919Y-133562246D01*
X99657724Y-133559761D01*
X99611905Y-133402049D01*
X99528309Y-133260695D01*
X99528302Y-133260686D01*
X99412185Y-133144569D01*
X99412176Y-133144562D01*
X99270820Y-133060965D01*
X99270817Y-133060964D01*
X99113119Y-133015148D01*
X99113113Y-133015147D01*
X99076268Y-133012248D01*
X98673124Y-133012248D01*
X98173124Y-133012248D01*
X97910124Y-133012248D01*
X97843085Y-132992563D01*
X97797330Y-132939759D01*
X97786124Y-132888248D01*
X97786124Y-132836748D01*
X97805809Y-132769709D01*
X97858613Y-132723954D01*
X97910124Y-132712748D01*
X98378170Y-132712748D01*
X99667684Y-132712748D01*
X99734723Y-132732433D01*
X99755365Y-132749067D01*
X100804305Y-133798006D01*
X100837790Y-133859329D01*
X100840624Y-133885686D01*
X100840624Y-133976916D01*
X100840625Y-133976935D01*
X100850949Y-134078000D01*
X100905216Y-134241763D01*
X100905217Y-134241766D01*
X100933271Y-134287248D01*
X100995784Y-134388598D01*
X101117774Y-134510588D01*
X101264608Y-134601156D01*
X101428371Y-134655422D01*
X101529447Y-134665748D01*
X102127800Y-134665747D01*
X102127808Y-134665746D01*
X102127811Y-134665746D01*
X102183154Y-134660092D01*
X102228877Y-134655422D01*
X102392640Y-134601156D01*
X102539474Y-134510588D01*
X102653443Y-134396619D01*
X102714766Y-134363134D01*
X102784458Y-134368118D01*
X102828805Y-134396619D01*
X102942774Y-134510588D01*
X103089608Y-134601156D01*
X103253371Y-134655422D01*
X103354447Y-134665748D01*
X103952800Y-134665747D01*
X103952808Y-134665746D01*
X103952811Y-134665746D01*
X104008154Y-134660092D01*
X104053877Y-134655422D01*
X104217640Y-134601156D01*
X104364474Y-134510588D01*
X104486464Y-134388598D01*
X104577032Y-134241764D01*
X104631298Y-134078001D01*
X104641624Y-133976925D01*
X104641623Y-133885686D01*
X104661307Y-133818649D01*
X104677933Y-133798016D01*
X104871884Y-133604064D01*
X104933207Y-133570582D01*
X104959564Y-133567748D01*
X106289398Y-133567748D01*
X106356437Y-133587433D01*
X106402192Y-133640237D01*
X106412136Y-133709395D01*
X106408474Y-133726343D01*
X106391526Y-133784674D01*
X106391525Y-133784680D01*
X106388624Y-133821552D01*
X106388624Y-134252944D01*
X106391525Y-134289815D01*
X106391526Y-134289821D01*
X106437378Y-134447641D01*
X106437379Y-134447644D01*
X106437380Y-134447646D01*
X106456470Y-134479926D01*
X106521041Y-134589110D01*
X106521047Y-134589118D01*
X106637253Y-134705324D01*
X106637257Y-134705327D01*
X106637259Y-134705329D01*
X106778726Y-134788992D01*
X106820348Y-134801084D01*
X106936550Y-134834845D01*
X106936553Y-134834845D01*
X106936555Y-134834846D01*
X106948846Y-134835813D01*
X106973428Y-134837748D01*
X106973430Y-134837748D01*
X107819170Y-134837748D01*
X109089184Y-134837748D01*
X109156223Y-134857433D01*
X109176865Y-134874067D01*
X110236965Y-135934166D01*
X110236975Y-135934177D01*
X110239307Y-135936509D01*
X110239308Y-135936510D01*
X110366862Y-136064064D01*
X110374323Y-136068752D01*
X110374328Y-136068755D01*
X110420618Y-136121091D01*
X110431265Y-136190145D01*
X110402889Y-136253992D01*
X110344498Y-136292363D01*
X110308354Y-136297748D01*
X60321013Y-136297748D01*
X60253974Y-136278063D01*
X60208219Y-136225259D01*
X60198275Y-136156101D01*
X60227300Y-136092545D01*
X60228033Y-136091707D01*
X62018731Y-134062249D01*
X97188328Y-134062249D01*
X97188523Y-134064734D01*
X97234342Y-134222446D01*
X97317938Y-134363800D01*
X97317945Y-134363809D01*
X97434062Y-134479926D01*
X97434071Y-134479933D01*
X97575427Y-134563530D01*
X97575430Y-134563531D01*
X97733128Y-134609347D01*
X97733134Y-134609348D01*
X97769980Y-134612248D01*
X98173124Y-134612248D01*
X98173124Y-134062248D01*
X98673124Y-134062248D01*
X98673124Y-134612248D01*
X99076268Y-134612248D01*
X99113113Y-134609348D01*
X99113119Y-134609347D01*
X99270817Y-134563531D01*
X99270820Y-134563530D01*
X99412176Y-134479933D01*
X99412185Y-134479926D01*
X99528302Y-134363809D01*
X99528309Y-134363800D01*
X99611905Y-134222446D01*
X99657724Y-134064734D01*
X99657919Y-134062249D01*
X99657919Y-134062248D01*
X98673124Y-134062248D01*
X98173124Y-134062248D01*
X97188329Y-134062248D01*
X97188328Y-134062249D01*
X62018731Y-134062249D01*
X63581862Y-132290700D01*
X74648731Y-119748248D01*
X82195125Y-119748248D01*
X82195125Y-119784902D01*
X82205443Y-119885900D01*
X82259670Y-120049548D01*
X82259675Y-120049559D01*
X82350176Y-120196282D01*
X82350179Y-120196286D01*
X82472085Y-120318192D01*
X82472089Y-120318195D01*
X82618812Y-120408696D01*
X82618823Y-120408701D01*
X82782471Y-120462928D01*
X82883475Y-120473247D01*
X82932623Y-120473246D01*
X82932624Y-120473246D01*
X82932624Y-119748248D01*
X82195125Y-119748248D01*
X74648731Y-119748248D01*
X75089907Y-119248248D01*
X82195124Y-119248248D01*
X82932624Y-119248248D01*
X82932624Y-118523248D01*
X82932623Y-118523247D01*
X82883485Y-118523248D01*
X82883467Y-118523249D01*
X82782471Y-118533567D01*
X82618823Y-118587794D01*
X82618812Y-118587799D01*
X82472089Y-118678300D01*
X82472085Y-118678303D01*
X82350179Y-118800209D01*
X82350176Y-118800213D01*
X82259675Y-118946936D01*
X82259670Y-118946947D01*
X82205443Y-119110595D01*
X82195124Y-119211593D01*
X82195124Y-119248248D01*
X75089907Y-119248248D01*
X90043788Y-102300516D01*
X90045587Y-102298600D01*
X90045720Y-102298246D01*
X90045718Y-102298156D01*
X90045565Y-102297816D01*
X90045551Y-102297804D01*
X90045183Y-102297665D01*
X90042520Y-102297748D01*
X70328142Y-102297748D01*
X70261103Y-102278063D01*
X70215348Y-102225259D01*
X70205404Y-102156101D01*
X70234429Y-102092545D01*
X70236735Y-102089958D01*
X82466635Y-88748248D01*
X90195125Y-88748248D01*
X90195125Y-88784902D01*
X90205443Y-88885900D01*
X90259670Y-89049548D01*
X90259675Y-89049559D01*
X90350176Y-89196282D01*
X90350179Y-89196286D01*
X90472085Y-89318192D01*
X90472089Y-89318195D01*
X90618812Y-89408696D01*
X90618823Y-89408701D01*
X90782471Y-89462928D01*
X90883475Y-89473247D01*
X90932623Y-89473246D01*
X90932624Y-89473246D01*
X90932624Y-88748248D01*
X90195125Y-88748248D01*
X82466635Y-88748248D01*
X82924968Y-88248248D01*
X90195124Y-88248248D01*
X90932624Y-88248248D01*
X90932624Y-87523248D01*
X90932623Y-87523247D01*
X90883485Y-87523248D01*
X90883467Y-87523249D01*
X90782471Y-87533567D01*
X90618823Y-87587794D01*
X90618812Y-87587799D01*
X90472089Y-87678300D01*
X90472085Y-87678303D01*
X90350179Y-87800209D01*
X90350176Y-87800213D01*
X90259675Y-87946936D01*
X90259670Y-87946947D01*
X90205443Y-88110595D01*
X90195124Y-88211593D01*
X90195124Y-88248248D01*
X82924968Y-88248248D01*
X97543037Y-72301262D01*
X97545424Y-72298954D01*
X97545667Y-72298328D01*
X97545663Y-72298148D01*
X97545662Y-72298137D01*
X97545568Y-72297923D01*
X97545542Y-72297899D01*
X97545496Y-72297852D01*
X97545318Y-72297787D01*
X97545097Y-72297696D01*
X97542794Y-72297748D01*
X85283567Y-72297748D01*
X85216528Y-72278063D01*
X85170773Y-72225259D01*
X85160829Y-72156101D01*
X85181817Y-72102876D01*
X98265943Y-53318196D01*
X98662930Y-52748248D01*
X102195125Y-52748248D01*
X102195125Y-52784902D01*
X102205443Y-52885900D01*
X102259670Y-53049548D01*
X102259675Y-53049559D01*
X102350176Y-53196282D01*
X102350179Y-53196286D01*
X102472085Y-53318192D01*
X102472089Y-53318195D01*
X102618812Y-53408696D01*
X102618823Y-53408701D01*
X102782471Y-53462928D01*
X102883475Y-53473247D01*
X102932623Y-53473246D01*
X102932624Y-53473246D01*
X102932624Y-52748248D01*
X102195125Y-52748248D01*
X98662930Y-52748248D01*
X99011196Y-52248248D01*
X102195124Y-52248248D01*
X102932624Y-52248248D01*
X102932624Y-51523248D01*
X102932623Y-51523247D01*
X102883485Y-51523248D01*
X102883467Y-51523249D01*
X102782471Y-51533567D01*
X102618823Y-51587794D01*
X102618812Y-51587799D01*
X102472089Y-51678300D01*
X102472085Y-51678303D01*
X102350179Y-51800209D01*
X102350176Y-51800213D01*
X102259675Y-51946936D01*
X102259670Y-51946947D01*
X102205443Y-52110595D01*
X102195124Y-52211593D01*
X102195124Y-52248248D01*
X99011196Y-52248248D01*
X108918875Y-38023943D01*
X108973343Y-37980185D01*
X109042823Y-37972820D01*
X109105255Y-38004189D01*
G37*
G04 #@! TD.AperFunction*
G04 #@! TA.AperFunction,Conductor*
G36*
X111150827Y-38001105D02*
G01*
X111171371Y-38023943D01*
X121932303Y-53473247D01*
X134908432Y-72102876D01*
X134930596Y-72169137D01*
X134913418Y-72236862D01*
X134862352Y-72284549D01*
X134806682Y-72297748D01*
X122546076Y-72297748D01*
X122545130Y-72297706D01*
X122545026Y-72297748D01*
X122545025Y-72297748D01*
X122544945Y-72297780D01*
X122544758Y-72297849D01*
X122544757Y-72297849D01*
X122544745Y-72297854D01*
X122544669Y-72298039D01*
X122544577Y-72298235D01*
X122544662Y-72298441D01*
X122544727Y-72298618D01*
X122545422Y-72299313D01*
X137749794Y-88885900D01*
X149749150Y-101976107D01*
X149853514Y-102089958D01*
X149884304Y-102152678D01*
X149876297Y-102222087D01*
X149832035Y-102276149D01*
X149765572Y-102297700D01*
X149762107Y-102297748D01*
X130047772Y-102297748D01*
X130045146Y-102297664D01*
X130044709Y-102297828D01*
X130044531Y-102298221D01*
X130044691Y-102298640D01*
X130046494Y-102300557D01*
X159862214Y-136091707D01*
X159891808Y-136154999D01*
X159882486Y-136224244D01*
X159837208Y-136277457D01*
X159770348Y-136297743D01*
X159769234Y-136297748D01*
X129695893Y-136297748D01*
X129628854Y-136278063D01*
X129583099Y-136225259D01*
X129573155Y-136156101D01*
X129602180Y-136092545D01*
X129629925Y-136068752D01*
X129631079Y-136068026D01*
X129637386Y-136064064D01*
X129764940Y-135936510D01*
X130217951Y-135483499D01*
X130249940Y-135451510D01*
X130272160Y-135416144D01*
X130276178Y-135410482D01*
X130302216Y-135377834D01*
X130320335Y-135340209D01*
X130323694Y-135334129D01*
X130345913Y-135298770D01*
X130359705Y-135259355D01*
X130362368Y-135252927D01*
X130380484Y-135215309D01*
X130389782Y-135174569D01*
X130391695Y-135167928D01*
X130405492Y-135128503D01*
X130410167Y-135087008D01*
X130411332Y-135080153D01*
X130412850Y-135073497D01*
X130420624Y-135039442D01*
X130420624Y-134970599D01*
X130440309Y-134903560D01*
X130493113Y-134857805D01*
X130531371Y-134847309D01*
X130577607Y-134842339D01*
X130712455Y-134792044D01*
X130827670Y-134705794D01*
X130913920Y-134590579D01*
X130964215Y-134455731D01*
X130970624Y-134396121D01*
X130970623Y-132924248D01*
X145799125Y-132924248D01*
X145799125Y-132960902D01*
X145809443Y-133061900D01*
X145863670Y-133225548D01*
X145863675Y-133225559D01*
X145954176Y-133372282D01*
X145954179Y-133372286D01*
X146076085Y-133494192D01*
X146076089Y-133494195D01*
X146222812Y-133584696D01*
X146222823Y-133584701D01*
X146386471Y-133638928D01*
X146487475Y-133649247D01*
X146536623Y-133649246D01*
X146536624Y-133649246D01*
X146536624Y-132924248D01*
X145799125Y-132924248D01*
X130970623Y-132924248D01*
X130970623Y-132600376D01*
X130964215Y-132540765D01*
X130962934Y-132537331D01*
X130920757Y-132424248D01*
X145799124Y-132424248D01*
X146536624Y-132424248D01*
X146536624Y-131699248D01*
X146536623Y-131699247D01*
X146487485Y-131699248D01*
X146487467Y-131699249D01*
X146386471Y-131709567D01*
X146222823Y-131763794D01*
X146222812Y-131763799D01*
X146076089Y-131854300D01*
X146076085Y-131854303D01*
X145954179Y-131976209D01*
X145954176Y-131976213D01*
X145863675Y-132122936D01*
X145863670Y-132122947D01*
X145809443Y-132286595D01*
X145799124Y-132387593D01*
X145799124Y-132424248D01*
X130920757Y-132424248D01*
X130913921Y-132405919D01*
X130913917Y-132405912D01*
X130827671Y-132290703D01*
X130827668Y-132290700D01*
X130712459Y-132204454D01*
X130712452Y-132204450D01*
X130577606Y-132154156D01*
X130577607Y-132154156D01*
X130518007Y-132147749D01*
X130518005Y-132147748D01*
X130517997Y-132147748D01*
X130517988Y-132147748D01*
X128722253Y-132147748D01*
X128722247Y-132147749D01*
X128662640Y-132154156D01*
X128527795Y-132204450D01*
X128527788Y-132204454D01*
X128412579Y-132290700D01*
X128412576Y-132290703D01*
X128326330Y-132405912D01*
X128326327Y-132405917D01*
X128277313Y-132537331D01*
X128235441Y-132593264D01*
X128169977Y-132617681D01*
X128101704Y-132602829D01*
X128073450Y-132581678D01*
X127951526Y-132459754D01*
X127951519Y-132459749D01*
X127757958Y-132324215D01*
X127757954Y-132324213D01*
X127728300Y-132310385D01*
X127543787Y-132224345D01*
X127543783Y-132224344D01*
X127543779Y-132224342D01*
X127315537Y-132163186D01*
X127315527Y-132163184D01*
X127080125Y-132142589D01*
X127080123Y-132142589D01*
X127021158Y-132147748D01*
X126844716Y-132163185D01*
X126844714Y-132163185D01*
X126839324Y-132163657D01*
X126839205Y-132162299D01*
X126776211Y-132155257D01*
X126736467Y-132128579D01*
X125669894Y-131062006D01*
X125658112Y-131048372D01*
X125644432Y-131029997D01*
X125644429Y-131029993D01*
X125644426Y-131029991D01*
X125644426Y-131029990D01*
X125605789Y-130997569D01*
X125601803Y-130993916D01*
X125596252Y-130988364D01*
X125596247Y-130988360D01*
X125571401Y-130968715D01*
X125569528Y-130967143D01*
X125514507Y-130920975D01*
X125514504Y-130920973D01*
X125508472Y-130917006D01*
X125508525Y-130916924D01*
X125502780Y-130913265D01*
X125502729Y-130913348D01*
X125496582Y-130909556D01*
X125429307Y-130878186D01*
X125362945Y-130844858D01*
X125356159Y-130842388D01*
X125356191Y-130842298D01*
X125349765Y-130840064D01*
X125349735Y-130840156D01*
X125342879Y-130837884D01*
X125270174Y-130822871D01*
X125197916Y-130805746D01*
X125190748Y-130804909D01*
X125190759Y-130804812D01*
X125183991Y-130804120D01*
X125183983Y-130804217D01*
X125176792Y-130803587D01*
X125102556Y-130805748D01*
X117810624Y-130805748D01*
X117743585Y-130786063D01*
X117697830Y-130733259D01*
X117686624Y-130681748D01*
X117686623Y-130319578D01*
X117686622Y-130319560D01*
X117676298Y-130218495D01*
X117662548Y-130177000D01*
X117622032Y-130054732D01*
X117531464Y-129907898D01*
X117472943Y-129849377D01*
X117439458Y-129788054D01*
X117436624Y-129761696D01*
X117436624Y-128835121D01*
X117456309Y-128768082D01*
X117472939Y-128747444D01*
X117896370Y-128324012D01*
X117909996Y-128312236D01*
X117928382Y-128298550D01*
X117960797Y-128259917D01*
X117964439Y-128255944D01*
X117970010Y-128250374D01*
X117989669Y-128225510D01*
X118037397Y-128168631D01*
X118037401Y-128168622D01*
X118041372Y-128162588D01*
X118041454Y-128162642D01*
X118045101Y-128156918D01*
X118045017Y-128156866D01*
X118048811Y-128150713D01*
X118048813Y-128150711D01*
X118080191Y-128083419D01*
X118113512Y-128017073D01*
X118113514Y-128017060D01*
X118115981Y-128010287D01*
X118116074Y-128010320D01*
X118118310Y-128003888D01*
X118118217Y-128003858D01*
X118120486Y-127997008D01*
X118120485Y-127997008D01*
X118120488Y-127997004D01*
X118135504Y-127924278D01*
X118152624Y-127852047D01*
X118152624Y-127852045D01*
X118152625Y-127852041D01*
X118153463Y-127844874D01*
X118153559Y-127844885D01*
X118154251Y-127838115D01*
X118154155Y-127838107D01*
X118154784Y-127830916D01*
X118152624Y-127756680D01*
X118152624Y-125655190D01*
X118152623Y-125655168D01*
X118152623Y-125125249D01*
X118815514Y-125125249D01*
X118835928Y-125410681D01*
X118896752Y-125690285D01*
X118896754Y-125690291D01*
X118896755Y-125690294D01*
X118986689Y-125931415D01*
X118996759Y-125958414D01*
X119133894Y-126209557D01*
X119133899Y-126209565D01*
X119305378Y-126438635D01*
X119305394Y-126438653D01*
X119507718Y-126640977D01*
X119507736Y-126640993D01*
X119736806Y-126812472D01*
X119736814Y-126812477D01*
X119987957Y-126949612D01*
X119987956Y-126949612D01*
X119987960Y-126949613D01*
X119987963Y-126949615D01*
X120256078Y-127049617D01*
X120256084Y-127049618D01*
X120256086Y-127049619D01*
X120535690Y-127110443D01*
X120535692Y-127110443D01*
X120535696Y-127110444D01*
X120789344Y-127128585D01*
X120821123Y-127130858D01*
X120821124Y-127130858D01*
X120821125Y-127130858D01*
X120849719Y-127128812D01*
X121106552Y-127110444D01*
X121386170Y-127049617D01*
X121654285Y-126949615D01*
X121905439Y-126812474D01*
X122134519Y-126640987D01*
X122336863Y-126438643D01*
X122508350Y-126209563D01*
X122645491Y-125958409D01*
X122745493Y-125690294D01*
X122745495Y-125690285D01*
X122806319Y-125410681D01*
X122806319Y-125410680D01*
X122806320Y-125410676D01*
X122826734Y-125125248D01*
X122806320Y-124839820D01*
X122793900Y-124782728D01*
X122745495Y-124560210D01*
X122745494Y-124560208D01*
X122745493Y-124560202D01*
X122645491Y-124292087D01*
X122645032Y-124291247D01*
X122508353Y-124040938D01*
X122508348Y-124040930D01*
X122336869Y-123811860D01*
X122336853Y-123811842D01*
X122134529Y-123609518D01*
X122134511Y-123609502D01*
X121905441Y-123438023D01*
X121905433Y-123438018D01*
X121654290Y-123300883D01*
X121654291Y-123300883D01*
X121547039Y-123260880D01*
X121386170Y-123200879D01*
X121386167Y-123200878D01*
X121386161Y-123200876D01*
X121106557Y-123140052D01*
X120821125Y-123119638D01*
X120821123Y-123119638D01*
X120535690Y-123140052D01*
X120256086Y-123200876D01*
X119987957Y-123300883D01*
X119736814Y-123438018D01*
X119736806Y-123438023D01*
X119507736Y-123609502D01*
X119507718Y-123609518D01*
X119305394Y-123811842D01*
X119305378Y-123811860D01*
X119133899Y-124040930D01*
X119133894Y-124040938D01*
X118996759Y-124292081D01*
X118896752Y-124560210D01*
X118835928Y-124839814D01*
X118815514Y-125125246D01*
X118815514Y-125125249D01*
X118152623Y-125125249D01*
X118152623Y-124902877D01*
X118152622Y-124902871D01*
X118146215Y-124843264D01*
X118095921Y-124708419D01*
X118095917Y-124708412D01*
X118009671Y-124593203D01*
X118009668Y-124593200D01*
X117894459Y-124506954D01*
X117894452Y-124506950D01*
X117759610Y-124456658D01*
X117759609Y-124456657D01*
X117759607Y-124456657D01*
X117699997Y-124450248D01*
X117699988Y-124450248D01*
X117328867Y-124450248D01*
X117261828Y-124430563D01*
X117216073Y-124377759D01*
X117206129Y-124308601D01*
X117235154Y-124245045D01*
X117254548Y-124226988D01*
X117359670Y-124148294D01*
X117445920Y-124033079D01*
X117496215Y-123898231D01*
X117502624Y-123838621D01*
X117502623Y-122242876D01*
X117496215Y-122183265D01*
X117486837Y-122158122D01*
X117445921Y-122048419D01*
X117445919Y-122048416D01*
X117427357Y-122023620D01*
X117402940Y-121958156D01*
X117402624Y-121949309D01*
X117402624Y-119678490D01*
X117404348Y-119662870D01*
X117404063Y-119662844D01*
X117404795Y-119655088D01*
X117404797Y-119655081D01*
X117402624Y-119585933D01*
X117402624Y-119556398D01*
X117401755Y-119549520D01*
X117401296Y-119543691D01*
X117399833Y-119497120D01*
X117394246Y-119477892D01*
X117390298Y-119458832D01*
X117387788Y-119438956D01*
X117387787Y-119438954D01*
X117387787Y-119438952D01*
X117370636Y-119395635D01*
X117368743Y-119390106D01*
X117355742Y-119345357D01*
X117355740Y-119345354D01*
X117345547Y-119328119D01*
X117336985Y-119310642D01*
X117329611Y-119292018D01*
X117326590Y-119287860D01*
X117302203Y-119254293D01*
X117299012Y-119249434D01*
X117298435Y-119248459D01*
X117276621Y-119211572D01*
X117275296Y-119209331D01*
X117275289Y-119209322D01*
X117261130Y-119195163D01*
X117248492Y-119180367D01*
X117242364Y-119171932D01*
X117236718Y-119164161D01*
X117200812Y-119134457D01*
X117196500Y-119130534D01*
X116483943Y-118417976D01*
X116450458Y-118356653D01*
X116447624Y-118330295D01*
X116447624Y-117338700D01*
X116467309Y-117271661D01*
X116520113Y-117225906D01*
X116589271Y-117215962D01*
X116652827Y-117244987D01*
X116659304Y-117251018D01*
X123356941Y-123948656D01*
X130053321Y-130645036D01*
X130063146Y-130657299D01*
X130063367Y-130657117D01*
X130068338Y-130663126D01*
X130088169Y-130681748D01*
X130118759Y-130710474D01*
X130139653Y-130731368D01*
X130145135Y-130735621D01*
X130149567Y-130739405D01*
X130183542Y-130771310D01*
X130201100Y-130780962D01*
X130217359Y-130791643D01*
X130233188Y-130803921D01*
X130275962Y-130822430D01*
X130281180Y-130824986D01*
X130322032Y-130847445D01*
X130341440Y-130852428D01*
X130359841Y-130858728D01*
X130378228Y-130866685D01*
X130421612Y-130873556D01*
X130424243Y-130873973D01*
X130429963Y-130875157D01*
X130475105Y-130886748D01*
X130495140Y-130886748D01*
X130514538Y-130888274D01*
X130534318Y-130891407D01*
X130534319Y-130891408D01*
X130534319Y-130891407D01*
X130534320Y-130891408D01*
X130580708Y-130887023D01*
X130586546Y-130886748D01*
X151325672Y-130886748D01*
X151392711Y-130906433D01*
X151413353Y-130923067D01*
X151970463Y-131480178D01*
X152003948Y-131541501D01*
X151998964Y-131611193D01*
X151970464Y-131655540D01*
X151870409Y-131755595D01*
X151868661Y-131758430D01*
X151866953Y-131759965D01*
X151865931Y-131761259D01*
X151865709Y-131761084D01*
X151816713Y-131805153D01*
X151747750Y-131816374D01*
X151683668Y-131788530D01*
X151657587Y-131758430D01*
X151655838Y-131755594D01*
X151531781Y-131631537D01*
X151531780Y-131631536D01*
X151424358Y-131565278D01*
X151382460Y-131539435D01*
X151382455Y-131539433D01*
X151363624Y-131533193D01*
X151215921Y-131484249D01*
X151215919Y-131484248D01*
X151113134Y-131473748D01*
X150363122Y-131473748D01*
X150363104Y-131473749D01*
X150260327Y-131484248D01*
X150260324Y-131484249D01*
X150093792Y-131539433D01*
X150093787Y-131539435D01*
X149944466Y-131631537D01*
X149820413Y-131755590D01*
X149728311Y-131904911D01*
X149728310Y-131904914D01*
X149708813Y-131963753D01*
X149669040Y-132021197D01*
X149604524Y-132048020D01*
X149591107Y-132048748D01*
X149558605Y-132048748D01*
X149491566Y-132029063D01*
X149453066Y-131989844D01*
X149444658Y-131976213D01*
X149444464Y-131975898D01*
X149322474Y-131853908D01*
X149231253Y-131797643D01*
X149175642Y-131763341D01*
X149175637Y-131763339D01*
X149152252Y-131755590D01*
X149011877Y-131709074D01*
X149011875Y-131709073D01*
X148910802Y-131698748D01*
X148312454Y-131698748D01*
X148312436Y-131698749D01*
X148211371Y-131709073D01*
X148047608Y-131763340D01*
X148047605Y-131763341D01*
X147900775Y-131853907D01*
X147786451Y-131968231D01*
X147725128Y-132001715D01*
X147655436Y-131996731D01*
X147611089Y-131968230D01*
X147497162Y-131854303D01*
X147497158Y-131854300D01*
X147350435Y-131763799D01*
X147350424Y-131763794D01*
X147186776Y-131709567D01*
X147085778Y-131699248D01*
X147036624Y-131699248D01*
X147036624Y-133649247D01*
X147085764Y-133649247D01*
X147085778Y-133649246D01*
X147186776Y-133638928D01*
X147350424Y-133584701D01*
X147350435Y-133584696D01*
X147497157Y-133494196D01*
X147611088Y-133380265D01*
X147672411Y-133346780D01*
X147742103Y-133351764D01*
X147786451Y-133380265D01*
X147900774Y-133494588D01*
X148047608Y-133585156D01*
X148211371Y-133639422D01*
X148312447Y-133649748D01*
X148910800Y-133649747D01*
X148910808Y-133649746D01*
X148910811Y-133649746D01*
X148966154Y-133644092D01*
X149011877Y-133639422D01*
X149175640Y-133585156D01*
X149322474Y-133494588D01*
X149444464Y-133372598D01*
X149453066Y-133358652D01*
X149505014Y-133311927D01*
X149558605Y-133299748D01*
X149591107Y-133299748D01*
X149658146Y-133319433D01*
X149703901Y-133372237D01*
X149708810Y-133384737D01*
X149728309Y-133443579D01*
X149728310Y-133443581D01*
X149728311Y-133443584D01*
X149755892Y-133488300D01*
X149820412Y-133592904D01*
X149944468Y-133716960D01*
X150093790Y-133809062D01*
X150260327Y-133864247D01*
X150363115Y-133874748D01*
X151113132Y-133874747D01*
X151113140Y-133874746D01*
X151113143Y-133874746D01*
X151169426Y-133868996D01*
X151215921Y-133864247D01*
X151382458Y-133809062D01*
X151531780Y-133716960D01*
X151655836Y-133592904D01*
X151657585Y-133590067D01*
X151659293Y-133588531D01*
X151660317Y-133587237D01*
X151660538Y-133587411D01*
X151709530Y-133543344D01*
X151778492Y-133532120D01*
X151842575Y-133559961D01*
X151868661Y-133590065D01*
X151870412Y-133592904D01*
X151994468Y-133716960D01*
X152143790Y-133809062D01*
X152310327Y-133864247D01*
X152413115Y-133874748D01*
X153163132Y-133874747D01*
X153163140Y-133874746D01*
X153163143Y-133874746D01*
X153219426Y-133868996D01*
X153265921Y-133864247D01*
X153432458Y-133809062D01*
X153581780Y-133716960D01*
X153705836Y-133592904D01*
X153797938Y-133443582D01*
X153853123Y-133277045D01*
X153863624Y-133174257D01*
X153863623Y-132174240D01*
X153862032Y-132158669D01*
X153853123Y-132071451D01*
X153853122Y-132071448D01*
X153830323Y-132002646D01*
X153797938Y-131904914D01*
X153705836Y-131755592D01*
X153581780Y-131631536D01*
X153581779Y-131631535D01*
X153474358Y-131565278D01*
X153427633Y-131513330D01*
X153415515Y-131463635D01*
X153413624Y-131403433D01*
X153413624Y-131373898D01*
X153412755Y-131367020D01*
X153412296Y-131361191D01*
X153410833Y-131314620D01*
X153405246Y-131295392D01*
X153401298Y-131276332D01*
X153398787Y-131256452D01*
X153381636Y-131213135D01*
X153379743Y-131207606D01*
X153366742Y-131162857D01*
X153366740Y-131162854D01*
X153356547Y-131145619D01*
X153347985Y-131128142D01*
X153340611Y-131109518D01*
X153340610Y-131109516D01*
X153313203Y-131071793D01*
X153310012Y-131066934D01*
X153305719Y-131059675D01*
X153286294Y-131026828D01*
X153286292Y-131026826D01*
X153286289Y-131026822D01*
X153272130Y-131012663D01*
X153259492Y-130997867D01*
X153259281Y-130997576D01*
X153247718Y-130981661D01*
X153237935Y-130973568D01*
X153211812Y-130951957D01*
X153207500Y-130948034D01*
X152136927Y-129877460D01*
X152127104Y-129865198D01*
X152126883Y-129865382D01*
X152121910Y-129859371D01*
X152111853Y-129849927D01*
X152071488Y-129812021D01*
X152061043Y-129801576D01*
X152050599Y-129791131D01*
X152045110Y-129786873D01*
X152040685Y-129783095D01*
X152008977Y-129753318D01*
X152006704Y-129751184D01*
X152006701Y-129751183D01*
X151989153Y-129741536D01*
X151972887Y-129730852D01*
X151957057Y-129718573D01*
X151914292Y-129700066D01*
X151909046Y-129697496D01*
X151868217Y-129675051D01*
X151868216Y-129675050D01*
X151848817Y-129670070D01*
X151830405Y-129663766D01*
X151812022Y-129655810D01*
X151812016Y-129655808D01*
X151765998Y-129648520D01*
X151760276Y-129647335D01*
X151715145Y-129635748D01*
X151715143Y-129635748D01*
X151695108Y-129635748D01*
X151675710Y-129634221D01*
X151668286Y-129633045D01*
X151655929Y-129631088D01*
X151655928Y-129631088D01*
X151609540Y-129635473D01*
X151603702Y-129635748D01*
X130864577Y-129635748D01*
X130797538Y-129616063D01*
X130776896Y-129599429D01*
X117499943Y-116322476D01*
X117466458Y-116261153D01*
X117463624Y-116234795D01*
X117463624Y-113171935D01*
X117483309Y-113104896D01*
X117495474Y-113088963D01*
X117514015Y-113068370D01*
X117570657Y-113005464D01*
X117665303Y-112841532D01*
X117723798Y-112661504D01*
X117743584Y-112473248D01*
X117723798Y-112284992D01*
X117665303Y-112104964D01*
X117570657Y-111941032D01*
X117443995Y-111800360D01*
X117443994Y-111800359D01*
X117290858Y-111689099D01*
X117290853Y-111689096D01*
X117117931Y-111612105D01*
X117117926Y-111612103D01*
X116972125Y-111581113D01*
X116932770Y-111572748D01*
X116743478Y-111572748D01*
X116743476Y-111572748D01*
X116597404Y-111603796D01*
X116527737Y-111598480D01*
X116472004Y-111556342D01*
X116447899Y-111490762D01*
X116447624Y-111482506D01*
X116447624Y-100472911D01*
X116467309Y-100405872D01*
X116479475Y-100389938D01*
X116491157Y-100376964D01*
X116585803Y-100213032D01*
X116644298Y-100033004D01*
X116661945Y-99865092D01*
X116688528Y-99800482D01*
X116697575Y-99790386D01*
X117599713Y-98888248D01*
X135893125Y-98888248D01*
X135893125Y-98924902D01*
X135903443Y-99025900D01*
X135957670Y-99189548D01*
X135957675Y-99189559D01*
X136048176Y-99336282D01*
X136048179Y-99336286D01*
X136170085Y-99458192D01*
X136170089Y-99458195D01*
X136316812Y-99548696D01*
X136316823Y-99548701D01*
X136480471Y-99602928D01*
X136581475Y-99613247D01*
X136630623Y-99613246D01*
X136630624Y-99613246D01*
X136630624Y-98888248D01*
X135893125Y-98888248D01*
X117599713Y-98888248D01*
X118099713Y-98388248D01*
X135893124Y-98388248D01*
X136630624Y-98388248D01*
X136630624Y-97663248D01*
X136630623Y-97663247D01*
X136581485Y-97663248D01*
X136581467Y-97663249D01*
X136480471Y-97673567D01*
X136316823Y-97727794D01*
X136316812Y-97727799D01*
X136170089Y-97818300D01*
X136170085Y-97818303D01*
X136048179Y-97940209D01*
X136048176Y-97940213D01*
X135957675Y-98086936D01*
X135957670Y-98086947D01*
X135903443Y-98250595D01*
X135893124Y-98351593D01*
X135893124Y-98388248D01*
X118099713Y-98388248D01*
X118618912Y-97869049D01*
X118631166Y-97859234D01*
X118630983Y-97859012D01*
X118636990Y-97854040D01*
X118637001Y-97854034D01*
X118667899Y-97821130D01*
X118684351Y-97803612D01*
X118694795Y-97793166D01*
X118705244Y-97782719D01*
X118709503Y-97777226D01*
X118713276Y-97772809D01*
X118745186Y-97738830D01*
X118754839Y-97721268D01*
X118765513Y-97705018D01*
X118777797Y-97689184D01*
X118796304Y-97646415D01*
X118798873Y-97641172D01*
X118821320Y-97600341D01*
X118821321Y-97600340D01*
X118826301Y-97580939D01*
X118832602Y-97562536D01*
X118840562Y-97544144D01*
X118847854Y-97498097D01*
X118849035Y-97492400D01*
X118860624Y-97447267D01*
X118860624Y-97427231D01*
X118862151Y-97407830D01*
X118865284Y-97388052D01*
X118860899Y-97341663D01*
X118860624Y-97335825D01*
X118860624Y-92523748D01*
X118880309Y-92456709D01*
X118933113Y-92410954D01*
X118984624Y-92399748D01*
X122728105Y-92399748D01*
X137324272Y-92399748D01*
X137391311Y-92419433D01*
X137411953Y-92436067D01*
X142220305Y-97244419D01*
X142253790Y-97305742D01*
X142256624Y-97332100D01*
X142256624Y-97422610D01*
X142236939Y-97489649D01*
X142197722Y-97528147D01*
X142141983Y-97562528D01*
X142088466Y-97595537D01*
X141964409Y-97719594D01*
X141962661Y-97722430D01*
X141960953Y-97723965D01*
X141959931Y-97725259D01*
X141959709Y-97725084D01*
X141910713Y-97769153D01*
X141841750Y-97780374D01*
X141777668Y-97752530D01*
X141751587Y-97722430D01*
X141749838Y-97719594D01*
X141625781Y-97595537D01*
X141625780Y-97595536D01*
X141476458Y-97503434D01*
X141309921Y-97448249D01*
X141309919Y-97448248D01*
X141207134Y-97437748D01*
X140457122Y-97437748D01*
X140457104Y-97437749D01*
X140354327Y-97448248D01*
X140354324Y-97448249D01*
X140187792Y-97503433D01*
X140187787Y-97503435D01*
X140038466Y-97595537D01*
X139914413Y-97719590D01*
X139822311Y-97868911D01*
X139822310Y-97868914D01*
X139802813Y-97927753D01*
X139763040Y-97985197D01*
X139698524Y-98012020D01*
X139685107Y-98012748D01*
X139652605Y-98012748D01*
X139585566Y-97993063D01*
X139547066Y-97953844D01*
X139538658Y-97940213D01*
X139538464Y-97939898D01*
X139416474Y-97817908D01*
X139325253Y-97761643D01*
X139269642Y-97727341D01*
X139269637Y-97727339D01*
X139225526Y-97712722D01*
X139105877Y-97673074D01*
X139105875Y-97673073D01*
X139004802Y-97662748D01*
X138406454Y-97662748D01*
X138406436Y-97662749D01*
X138305371Y-97673073D01*
X138141608Y-97727340D01*
X138141605Y-97727341D01*
X137994775Y-97817907D01*
X137880451Y-97932231D01*
X137819128Y-97965715D01*
X137749436Y-97960731D01*
X137705089Y-97932230D01*
X137591162Y-97818303D01*
X137591158Y-97818300D01*
X137444435Y-97727799D01*
X137444424Y-97727794D01*
X137280776Y-97673567D01*
X137179778Y-97663248D01*
X137130624Y-97663248D01*
X137130624Y-99613247D01*
X137179764Y-99613247D01*
X137179778Y-99613246D01*
X137280776Y-99602928D01*
X137444424Y-99548701D01*
X137444435Y-99548696D01*
X137591157Y-99458196D01*
X137705088Y-99344265D01*
X137766411Y-99310780D01*
X137836103Y-99315764D01*
X137880451Y-99344265D01*
X137994774Y-99458588D01*
X138141608Y-99549156D01*
X138305371Y-99603422D01*
X138406447Y-99613748D01*
X139004800Y-99613747D01*
X139004808Y-99613746D01*
X139004811Y-99613746D01*
X139060154Y-99608092D01*
X139105877Y-99603422D01*
X139269640Y-99549156D01*
X139416474Y-99458588D01*
X139538464Y-99336598D01*
X139547066Y-99322652D01*
X139599014Y-99275927D01*
X139652605Y-99263748D01*
X139685107Y-99263748D01*
X139752146Y-99283433D01*
X139797901Y-99336237D01*
X139802810Y-99348737D01*
X139822310Y-99407582D01*
X139914412Y-99556904D01*
X140038468Y-99680960D01*
X140187790Y-99773062D01*
X140354327Y-99828247D01*
X140457115Y-99838748D01*
X141207132Y-99838747D01*
X141207140Y-99838746D01*
X141207143Y-99838746D01*
X141263426Y-99832996D01*
X141309921Y-99828247D01*
X141476458Y-99773062D01*
X141625780Y-99680960D01*
X141749836Y-99556904D01*
X141751585Y-99554067D01*
X141753293Y-99552531D01*
X141754317Y-99551237D01*
X141754538Y-99551411D01*
X141803530Y-99507344D01*
X141872492Y-99496120D01*
X141936575Y-99523961D01*
X141962661Y-99554065D01*
X141964412Y-99556904D01*
X142088468Y-99680960D01*
X142237790Y-99773062D01*
X142404327Y-99828247D01*
X142507115Y-99838748D01*
X143257132Y-99838747D01*
X143257140Y-99838746D01*
X143257143Y-99838746D01*
X143313426Y-99832996D01*
X143359921Y-99828247D01*
X143526458Y-99773062D01*
X143675780Y-99680960D01*
X143799836Y-99556904D01*
X143891938Y-99407582D01*
X143947123Y-99241045D01*
X143957624Y-99138257D01*
X143957623Y-98138240D01*
X143952361Y-98086732D01*
X143947123Y-98035451D01*
X143947122Y-98035448D01*
X143930470Y-97985197D01*
X143891938Y-97868914D01*
X143799836Y-97719592D01*
X143675780Y-97595536D01*
X143566526Y-97528148D01*
X143519803Y-97476201D01*
X143507624Y-97422610D01*
X143507624Y-97104385D01*
X143509348Y-97088771D01*
X143509062Y-97088744D01*
X143509796Y-97080981D01*
X143507624Y-97011851D01*
X143507624Y-96982299D01*
X143507624Y-96982298D01*
X143506753Y-96975407D01*
X143506296Y-96969593D01*
X143504833Y-96923020D01*
X143499246Y-96903792D01*
X143495298Y-96884732D01*
X143492788Y-96864856D01*
X143475631Y-96821523D01*
X143473743Y-96816007D01*
X143460743Y-96771260D01*
X143450542Y-96754011D01*
X143441984Y-96736542D01*
X143434610Y-96717916D01*
X143434607Y-96717912D01*
X143434607Y-96717911D01*
X143407222Y-96680219D01*
X143404014Y-96675335D01*
X143380296Y-96635230D01*
X143380287Y-96635219D01*
X143366129Y-96621061D01*
X143353494Y-96606268D01*
X143341717Y-96590060D01*
X143305817Y-96560361D01*
X143301505Y-96556438D01*
X138135527Y-91390460D01*
X138125704Y-91378198D01*
X138125483Y-91378382D01*
X138120510Y-91372371D01*
X138070088Y-91325021D01*
X138059643Y-91314576D01*
X138049199Y-91304131D01*
X138043710Y-91299873D01*
X138039285Y-91296095D01*
X138005306Y-91264186D01*
X138005304Y-91264184D01*
X138005301Y-91264183D01*
X137987753Y-91254536D01*
X137971487Y-91243852D01*
X137955657Y-91231573D01*
X137912892Y-91213066D01*
X137907646Y-91210496D01*
X137866817Y-91188051D01*
X137866816Y-91188050D01*
X137847417Y-91183070D01*
X137829005Y-91176766D01*
X137810622Y-91168810D01*
X137810616Y-91168808D01*
X137764598Y-91161520D01*
X137758876Y-91160335D01*
X137713745Y-91148748D01*
X137713743Y-91148748D01*
X137693708Y-91148748D01*
X137674310Y-91147221D01*
X137660419Y-91145021D01*
X137654529Y-91144088D01*
X137654528Y-91144088D01*
X137608140Y-91148473D01*
X137602302Y-91148748D01*
X118305971Y-91148748D01*
X118282739Y-91146552D01*
X118274712Y-91145021D01*
X118274710Y-91145021D01*
X118265757Y-91145584D01*
X118217399Y-91148626D01*
X118213527Y-91148748D01*
X117409824Y-91148748D01*
X117342785Y-91129063D01*
X117297030Y-91076259D01*
X117285824Y-91024748D01*
X117285824Y-74869500D01*
X117305509Y-74802461D01*
X117322143Y-74781819D01*
X120743895Y-71360067D01*
X120805218Y-71326582D01*
X120831576Y-71323748D01*
X126407381Y-71323748D01*
X126423001Y-71325472D01*
X126423028Y-71325187D01*
X126430784Y-71325919D01*
X126430791Y-71325921D01*
X126499938Y-71323748D01*
X126529474Y-71323748D01*
X126536352Y-71322878D01*
X126542165Y-71322420D01*
X126588751Y-71320957D01*
X126607993Y-71315365D01*
X126627036Y-71311422D01*
X126646916Y-71308912D01*
X126690246Y-71291755D01*
X126695770Y-71289865D01*
X126699520Y-71288775D01*
X126740514Y-71276866D01*
X126757753Y-71266670D01*
X126775227Y-71258110D01*
X126793851Y-71250736D01*
X126793851Y-71250735D01*
X126793856Y-71250734D01*
X126831573Y-71223330D01*
X126836429Y-71220140D01*
X126876544Y-71196418D01*
X126890713Y-71182247D01*
X126905503Y-71169616D01*
X126921711Y-71157842D01*
X126951423Y-71121924D01*
X126955336Y-71117624D01*
X127771910Y-70301050D01*
X127784172Y-70291228D01*
X127783989Y-70291007D01*
X127789991Y-70286040D01*
X127790001Y-70286034D01*
X127837365Y-70235596D01*
X127858244Y-70214718D01*
X127862494Y-70209237D01*
X127866275Y-70204809D01*
X127898186Y-70170830D01*
X127907837Y-70153272D01*
X127918520Y-70137009D01*
X127930797Y-70121184D01*
X127949307Y-70078406D01*
X127951867Y-70073180D01*
X127974321Y-70032340D01*
X127979302Y-70012935D01*
X127985606Y-69994527D01*
X127993562Y-69976143D01*
X128000853Y-69930101D01*
X128002032Y-69924410D01*
X128013624Y-69879267D01*
X128013624Y-69859231D01*
X128015151Y-69839830D01*
X128018284Y-69820052D01*
X128013899Y-69773663D01*
X128013624Y-69767825D01*
X128013624Y-69627886D01*
X128033309Y-69560847D01*
X128072525Y-69522348D01*
X128181780Y-69454960D01*
X128305836Y-69330904D01*
X128397938Y-69181582D01*
X128453123Y-69015045D01*
X128463624Y-68912257D01*
X128463623Y-67912240D01*
X128458361Y-67860732D01*
X128453123Y-67809451D01*
X128453122Y-67809448D01*
X128397938Y-67642914D01*
X128305836Y-67493592D01*
X128181780Y-67369536D01*
X128032458Y-67277434D01*
X127865921Y-67222249D01*
X127865919Y-67222248D01*
X127763134Y-67211748D01*
X127013122Y-67211748D01*
X127013104Y-67211749D01*
X126910327Y-67222248D01*
X126910324Y-67222249D01*
X126743792Y-67277433D01*
X126743787Y-67277435D01*
X126594466Y-67369537D01*
X126470409Y-67493594D01*
X126468661Y-67496430D01*
X126466953Y-67497965D01*
X126465931Y-67499259D01*
X126465709Y-67499084D01*
X126416713Y-67543153D01*
X126347750Y-67554374D01*
X126283668Y-67526530D01*
X126257587Y-67496430D01*
X126255838Y-67493594D01*
X126131781Y-67369537D01*
X126131780Y-67369536D01*
X125982458Y-67277434D01*
X125815921Y-67222249D01*
X125815919Y-67222248D01*
X125713134Y-67211748D01*
X124963122Y-67211748D01*
X124963104Y-67211749D01*
X124860327Y-67222248D01*
X124860324Y-67222249D01*
X124693792Y-67277433D01*
X124693787Y-67277435D01*
X124544466Y-67369537D01*
X124420411Y-67493592D01*
X124368737Y-67577369D01*
X124316789Y-67624093D01*
X124247826Y-67635314D01*
X124183744Y-67607471D01*
X124175518Y-67599952D01*
X124167475Y-67591909D01*
X124167474Y-67591908D01*
X124076253Y-67535643D01*
X124020642Y-67501341D01*
X124020637Y-67501339D01*
X123997252Y-67493590D01*
X123856877Y-67447074D01*
X123856875Y-67447073D01*
X123755802Y-67436748D01*
X123157454Y-67436748D01*
X123157436Y-67436749D01*
X123056371Y-67447073D01*
X122892608Y-67501340D01*
X122892605Y-67501341D01*
X122745775Y-67591907D01*
X122631451Y-67706231D01*
X122570128Y-67739715D01*
X122500436Y-67734731D01*
X122456089Y-67706230D01*
X122342162Y-67592303D01*
X122342158Y-67592300D01*
X122195435Y-67501799D01*
X122195424Y-67501794D01*
X122031776Y-67447567D01*
X121930778Y-67437248D01*
X121881624Y-67437248D01*
X121881624Y-69387247D01*
X121930764Y-69387247D01*
X121930778Y-69387246D01*
X122031776Y-69376928D01*
X122195424Y-69322701D01*
X122195435Y-69322696D01*
X122342157Y-69232196D01*
X122456088Y-69118265D01*
X122517411Y-69084780D01*
X122587103Y-69089764D01*
X122631451Y-69118265D01*
X122745774Y-69232588D01*
X122892608Y-69323156D01*
X123056371Y-69377422D01*
X123157447Y-69387748D01*
X123755800Y-69387747D01*
X123755808Y-69387746D01*
X123755811Y-69387746D01*
X123811154Y-69382092D01*
X123856877Y-69377422D01*
X124020640Y-69323156D01*
X124167474Y-69232588D01*
X124175518Y-69224543D01*
X124236836Y-69191059D01*
X124306528Y-69196041D01*
X124362463Y-69237910D01*
X124368737Y-69247127D01*
X124420409Y-69330900D01*
X124420412Y-69330904D01*
X124544468Y-69454960D01*
X124693790Y-69547062D01*
X124860327Y-69602247D01*
X124963115Y-69612748D01*
X125713132Y-69612747D01*
X125713140Y-69612746D01*
X125713143Y-69612746D01*
X125769426Y-69606996D01*
X125815921Y-69602247D01*
X125982458Y-69547062D01*
X126131780Y-69454960D01*
X126255836Y-69330904D01*
X126257585Y-69328067D01*
X126259293Y-69326531D01*
X126260317Y-69325237D01*
X126260538Y-69325411D01*
X126309530Y-69281344D01*
X126378492Y-69270120D01*
X126442575Y-69297961D01*
X126468661Y-69328065D01*
X126470412Y-69330904D01*
X126594468Y-69454960D01*
X126618309Y-69469665D01*
X126665034Y-69521611D01*
X126676258Y-69590573D01*
X126648416Y-69654656D01*
X126640895Y-69662885D01*
X126267352Y-70036429D01*
X126206029Y-70069914D01*
X126179671Y-70072748D01*
X120603867Y-70072748D01*
X120588246Y-70071023D01*
X120588219Y-70071309D01*
X120580457Y-70070574D01*
X120511296Y-70072748D01*
X120481773Y-70072748D01*
X120474902Y-70073615D01*
X120469083Y-70074073D01*
X120422498Y-70075537D01*
X120422492Y-70075538D01*
X120403250Y-70081128D01*
X120384211Y-70085071D01*
X120364341Y-70087582D01*
X120364327Y-70087585D01*
X120321007Y-70104736D01*
X120315482Y-70106628D01*
X120270737Y-70119628D01*
X120270734Y-70119629D01*
X120253490Y-70129827D01*
X120236029Y-70138381D01*
X120217398Y-70145758D01*
X120217386Y-70145765D01*
X120179694Y-70173150D01*
X120174811Y-70176357D01*
X120134704Y-70200077D01*
X120120538Y-70214243D01*
X120105748Y-70226875D01*
X120089538Y-70238652D01*
X120089535Y-70238655D01*
X120059834Y-70274557D01*
X120055901Y-70278879D01*
X116276532Y-74058247D01*
X116264275Y-74068068D01*
X116264458Y-74068289D01*
X116258447Y-74073261D01*
X116211096Y-74123684D01*
X116190213Y-74144567D01*
X116190201Y-74144580D01*
X116185945Y-74150065D01*
X116182161Y-74154495D01*
X116150261Y-74188466D01*
X116150260Y-74188468D01*
X116140608Y-74206024D01*
X116129934Y-74222274D01*
X116117653Y-74238109D01*
X116117648Y-74238116D01*
X116099139Y-74280886D01*
X116096569Y-74286132D01*
X116074127Y-74326954D01*
X116069146Y-74346355D01*
X116062845Y-74364758D01*
X116054886Y-74383150D01*
X116054885Y-74383153D01*
X116047595Y-74429175D01*
X116046411Y-74434894D01*
X116034825Y-74480020D01*
X116034824Y-74480030D01*
X116034824Y-74500064D01*
X116033297Y-74519463D01*
X116030164Y-74539242D01*
X116030164Y-74539243D01*
X116034549Y-74585631D01*
X116034824Y-74591469D01*
X116034824Y-87744907D01*
X116015139Y-87811946D01*
X115962335Y-87857701D01*
X115893177Y-87867645D01*
X115829621Y-87838620D01*
X115818675Y-87827880D01*
X115792995Y-87799360D01*
X115792994Y-87799359D01*
X115639858Y-87688099D01*
X115639853Y-87688096D01*
X115466931Y-87611105D01*
X115466926Y-87611103D01*
X115321125Y-87580113D01*
X115281770Y-87571748D01*
X115092478Y-87571748D01*
X115060021Y-87578646D01*
X114907321Y-87611103D01*
X114907316Y-87611105D01*
X114734395Y-87688096D01*
X114692508Y-87718529D01*
X114626701Y-87742008D01*
X114558648Y-87726182D01*
X114509953Y-87676076D01*
X114495623Y-87618210D01*
X114495623Y-87424377D01*
X114495622Y-87424371D01*
X114489215Y-87364764D01*
X114438921Y-87229919D01*
X114438917Y-87229912D01*
X114352671Y-87114703D01*
X114352668Y-87114700D01*
X114237459Y-87028454D01*
X114237452Y-87028450D01*
X114102606Y-86978156D01*
X114102607Y-86978156D01*
X114043007Y-86971749D01*
X114043005Y-86971748D01*
X114042997Y-86971748D01*
X114042989Y-86971748D01*
X111069624Y-86971748D01*
X111002585Y-86952063D01*
X110956830Y-86899259D01*
X110945624Y-86847748D01*
X110945624Y-68662248D01*
X120644125Y-68662248D01*
X120644125Y-68698902D01*
X120654443Y-68799900D01*
X120708670Y-68963548D01*
X120708675Y-68963559D01*
X120799176Y-69110282D01*
X120799179Y-69110286D01*
X120921085Y-69232192D01*
X120921089Y-69232195D01*
X121067812Y-69322696D01*
X121067823Y-69322701D01*
X121231471Y-69376928D01*
X121332475Y-69387247D01*
X121381623Y-69387246D01*
X121381624Y-69387246D01*
X121381624Y-68662248D01*
X120644125Y-68662248D01*
X110945624Y-68662248D01*
X110945624Y-68162248D01*
X120644124Y-68162248D01*
X121381624Y-68162248D01*
X121381624Y-67437248D01*
X121381623Y-67437247D01*
X121332485Y-67437248D01*
X121332467Y-67437249D01*
X121231471Y-67447567D01*
X121067823Y-67501794D01*
X121067812Y-67501799D01*
X120921089Y-67592300D01*
X120921085Y-67592303D01*
X120799179Y-67714209D01*
X120799176Y-67714213D01*
X120708675Y-67860936D01*
X120708670Y-67860947D01*
X120654443Y-68024595D01*
X120644124Y-68125593D01*
X120644124Y-68162248D01*
X110945624Y-68162248D01*
X110945624Y-44749269D01*
X110965309Y-44682230D01*
X111018113Y-44636475D01*
X111087271Y-44626531D01*
X111095588Y-44628018D01*
X111101327Y-44629247D01*
X111204115Y-44639748D01*
X111804132Y-44639747D01*
X111804140Y-44639746D01*
X111804143Y-44639746D01*
X111860426Y-44633996D01*
X111906921Y-44629247D01*
X112073458Y-44574062D01*
X112222780Y-44481960D01*
X112346836Y-44357904D01*
X112438938Y-44208582D01*
X112494123Y-44042045D01*
X112504624Y-43939257D01*
X112504623Y-42339240D01*
X112494123Y-42236451D01*
X112438938Y-42069914D01*
X112346836Y-41920592D01*
X112222780Y-41796536D01*
X112073458Y-41704434D01*
X111906921Y-41649249D01*
X111906919Y-41649248D01*
X111804134Y-41638748D01*
X111204122Y-41638748D01*
X111204104Y-41638749D01*
X111101323Y-41649249D01*
X111095567Y-41650481D01*
X111025893Y-41645258D01*
X110970103Y-41603195D01*
X110945910Y-41537648D01*
X110945624Y-41529225D01*
X110945624Y-38094818D01*
X110965309Y-38027779D01*
X111018113Y-37982024D01*
X111087271Y-37972080D01*
X111150827Y-38001105D01*
G37*
G04 #@! TD.AperFunction*
G04 #@! TA.AperFunction,Conductor*
G36*
X123640113Y-132276433D02*
G01*
X123685868Y-132329237D01*
X123695812Y-132398395D01*
X123666787Y-132461951D01*
X123660755Y-132468429D01*
X123502015Y-132627168D01*
X123502010Y-132627174D01*
X123366524Y-132820668D01*
X123366523Y-132820670D01*
X123266694Y-133034755D01*
X123266691Y-133034761D01*
X123209488Y-133248247D01*
X123209488Y-133248248D01*
X124106438Y-133248248D01*
X124080631Y-133288404D01*
X124040124Y-133426359D01*
X124040124Y-133570137D01*
X124080631Y-133708092D01*
X124106438Y-133748248D01*
X123209488Y-133748248D01*
X123266691Y-133961734D01*
X123266694Y-133961740D01*
X123366523Y-134175826D01*
X123502018Y-134369330D01*
X123554755Y-134422067D01*
X123588240Y-134483390D01*
X123583256Y-134553082D01*
X123541384Y-134609015D01*
X123475920Y-134633432D01*
X123467074Y-134633748D01*
X114347622Y-134633748D01*
X114280583Y-134614063D01*
X114234828Y-134561259D01*
X114224884Y-134492101D01*
X114237980Y-134454892D01*
X114237309Y-134454602D01*
X114240404Y-134447448D01*
X114286224Y-134289734D01*
X114286419Y-134287249D01*
X114286419Y-134287248D01*
X111341829Y-134287248D01*
X111341828Y-134287249D01*
X111342023Y-134289734D01*
X111387843Y-134447448D01*
X111390939Y-134454602D01*
X111389535Y-134455209D01*
X111404541Y-134514349D01*
X111382382Y-134580612D01*
X111327917Y-134624376D01*
X111280626Y-134633748D01*
X111252063Y-134633748D01*
X111185024Y-134614063D01*
X111164382Y-134597429D01*
X110708881Y-134141928D01*
X110675396Y-134080605D01*
X110680380Y-134010913D01*
X110708877Y-133966571D01*
X111187148Y-133488299D01*
X111248471Y-133454815D01*
X111318163Y-133459799D01*
X111374096Y-133501671D01*
X111398513Y-133567135D01*
X111389614Y-133619440D01*
X111390019Y-133619558D01*
X111388995Y-133623081D01*
X111388630Y-133625229D01*
X111387843Y-133627046D01*
X111342023Y-133784761D01*
X111341828Y-133787246D01*
X111341829Y-133787248D01*
X114286419Y-133787248D01*
X114286419Y-133787246D01*
X114286224Y-133784759D01*
X114286223Y-133784753D01*
X114247464Y-133651343D01*
X114247663Y-133581473D01*
X114285605Y-133522803D01*
X114349244Y-133493960D01*
X114366540Y-133492748D01*
X115032237Y-133492748D01*
X115050206Y-133494057D01*
X115053819Y-133494586D01*
X115072880Y-133497378D01*
X115123108Y-133492983D01*
X115128509Y-133492748D01*
X115136375Y-133492748D01*
X115136380Y-133492748D01*
X115159004Y-133490103D01*
X115167860Y-133489068D01*
X115186352Y-133487450D01*
X115241832Y-133482597D01*
X115241836Y-133482595D01*
X115248908Y-133481136D01*
X115248927Y-133481232D01*
X115255565Y-133479760D01*
X115255543Y-133479664D01*
X115262564Y-133477999D01*
X115262575Y-133477998D01*
X115332326Y-133452610D01*
X115402821Y-133429251D01*
X115402830Y-133429245D01*
X115409369Y-133426197D01*
X115409410Y-133426286D01*
X115415533Y-133423322D01*
X115415489Y-133423234D01*
X115421936Y-133419994D01*
X115421944Y-133419992D01*
X115483965Y-133379200D01*
X115547168Y-133340216D01*
X115547173Y-133340210D01*
X115552832Y-133335737D01*
X115552893Y-133335814D01*
X115558172Y-133331514D01*
X115558109Y-133331438D01*
X115563636Y-133326799D01*
X115563641Y-133326797D01*
X115570589Y-133319433D01*
X115614592Y-133272791D01*
X115705318Y-133182066D01*
X115766642Y-133148582D01*
X115792999Y-133145748D01*
X115830571Y-133145748D01*
X115897610Y-133165433D01*
X115918252Y-133182066D01*
X116012774Y-133276588D01*
X116159608Y-133367156D01*
X116323371Y-133421422D01*
X116424447Y-133431748D01*
X116997800Y-133431747D01*
X116997808Y-133431746D01*
X116997811Y-133431746D01*
X117077134Y-133423643D01*
X117098877Y-133421422D01*
X117262640Y-133367156D01*
X117409474Y-133276588D01*
X117531464Y-133154598D01*
X117622032Y-133007764D01*
X117676298Y-132844001D01*
X117686624Y-132742925D01*
X117686623Y-132380747D01*
X117706307Y-132313709D01*
X117759111Y-132267954D01*
X117810623Y-132256748D01*
X123573074Y-132256748D01*
X123640113Y-132276433D01*
G37*
G04 #@! TD.AperFunction*
G04 #@! TA.AperFunction,Conductor*
G36*
X113980914Y-120812762D02*
G01*
X113997633Y-120826769D01*
X114552305Y-121381441D01*
X114585790Y-121442764D01*
X114588624Y-121469122D01*
X114588624Y-123976359D01*
X114587315Y-123994331D01*
X114583994Y-124017003D01*
X114583993Y-124017006D01*
X114588388Y-124067225D01*
X114588624Y-124072632D01*
X114588624Y-124080504D01*
X114592303Y-124111983D01*
X114598774Y-124185955D01*
X114600234Y-124193022D01*
X114600140Y-124193041D01*
X114601617Y-124199700D01*
X114601710Y-124199679D01*
X114603373Y-124206699D01*
X114628760Y-124276450D01*
X114652119Y-124346940D01*
X114655174Y-124353492D01*
X114655086Y-124353532D01*
X114658053Y-124359659D01*
X114658139Y-124359616D01*
X114661380Y-124366069D01*
X114702170Y-124428088D01*
X114741156Y-124491292D01*
X114745638Y-124496961D01*
X114745560Y-124497021D01*
X114749857Y-124502296D01*
X114749933Y-124502233D01*
X114754574Y-124507764D01*
X114808580Y-124558716D01*
X115365305Y-125115441D01*
X115398790Y-125176764D01*
X115401624Y-125203122D01*
X115401624Y-126498618D01*
X115401625Y-126498624D01*
X115408032Y-126558231D01*
X115458326Y-126693076D01*
X115458330Y-126693083D01*
X115544576Y-126808292D01*
X115544579Y-126808295D01*
X115659788Y-126894541D01*
X115659795Y-126894545D01*
X115704742Y-126911309D01*
X115794641Y-126944839D01*
X115854251Y-126951248D01*
X116399996Y-126951247D01*
X116459607Y-126944839D01*
X116506286Y-126927429D01*
X116534291Y-126916984D01*
X116603983Y-126912000D01*
X116665306Y-126945485D01*
X116698790Y-127006809D01*
X116701624Y-127033166D01*
X116701624Y-127415374D01*
X116681939Y-127482413D01*
X116665305Y-127503055D01*
X116241882Y-127926477D01*
X116228251Y-127938258D01*
X116209863Y-127951947D01*
X116177452Y-127990573D01*
X116173804Y-127994555D01*
X116168240Y-128000120D01*
X116148591Y-128024969D01*
X116100850Y-128081865D01*
X116096884Y-128087896D01*
X116096805Y-128087844D01*
X116093140Y-128093596D01*
X116093222Y-128093646D01*
X116089430Y-128099792D01*
X116058062Y-128167064D01*
X116024734Y-128233425D01*
X116022266Y-128240208D01*
X116022176Y-128240175D01*
X116019940Y-128246610D01*
X116020031Y-128246641D01*
X116017761Y-128253491D01*
X116002747Y-128326198D01*
X115985623Y-128398453D01*
X115984785Y-128405624D01*
X115984688Y-128405612D01*
X115983996Y-128412383D01*
X115984093Y-128412392D01*
X115983463Y-128419581D01*
X115985624Y-128493815D01*
X115985624Y-129761696D01*
X115965939Y-129828735D01*
X115949305Y-129849377D01*
X115890785Y-129907896D01*
X115800217Y-130054729D01*
X115800215Y-130054734D01*
X115793190Y-130075935D01*
X115745950Y-130218495D01*
X115745950Y-130218496D01*
X115745949Y-130218496D01*
X115735624Y-130319563D01*
X115735624Y-130319571D01*
X115735624Y-130559209D01*
X115735625Y-130681748D01*
X115715941Y-130748787D01*
X115663137Y-130794542D01*
X115611625Y-130805748D01*
X114356896Y-130805748D01*
X114289857Y-130786063D01*
X114244102Y-130733259D01*
X114234158Y-130664101D01*
X114239457Y-130645360D01*
X114238692Y-130645138D01*
X114286721Y-130479821D01*
X114286722Y-130479815D01*
X114289624Y-130442944D01*
X114289624Y-130011552D01*
X114286722Y-129974680D01*
X114286721Y-129974674D01*
X114240869Y-129816854D01*
X114240868Y-129816851D01*
X114240868Y-129816850D01*
X114157205Y-129675383D01*
X114157203Y-129675381D01*
X114157200Y-129675377D01*
X114040994Y-129559171D01*
X114040986Y-129559165D01*
X113903017Y-129477571D01*
X113899522Y-129475504D01*
X113899521Y-129475503D01*
X113899520Y-129475503D01*
X113899517Y-129475502D01*
X113741697Y-129429650D01*
X113741691Y-129429649D01*
X113704820Y-129426748D01*
X113704818Y-129426748D01*
X113698624Y-129426748D01*
X113631585Y-129407063D01*
X113585830Y-129354259D01*
X113574624Y-129302748D01*
X113574624Y-128920111D01*
X113594309Y-128853072D01*
X113647113Y-128807317D01*
X113716271Y-128797373D01*
X113737617Y-128802402D01*
X113770871Y-128813422D01*
X113871947Y-128823748D01*
X114470300Y-128823747D01*
X114470308Y-128823746D01*
X114470311Y-128823746D01*
X114525654Y-128818092D01*
X114571377Y-128813422D01*
X114735140Y-128759156D01*
X114881974Y-128668588D01*
X115003964Y-128546598D01*
X115094532Y-128399764D01*
X115148798Y-128236001D01*
X115159124Y-128134925D01*
X115159123Y-127561572D01*
X115153145Y-127503055D01*
X115148798Y-127460495D01*
X115124687Y-127387734D01*
X115094532Y-127296732D01*
X115003964Y-127149898D01*
X114891590Y-127037524D01*
X114862749Y-126992254D01*
X114856482Y-126975035D01*
X114856163Y-126974073D01*
X114843992Y-126937341D01*
X114833127Y-126904552D01*
X114833123Y-126904546D01*
X114830073Y-126898004D01*
X114830162Y-126897962D01*
X114827197Y-126891838D01*
X114827109Y-126891883D01*
X114823870Y-126885435D01*
X114823868Y-126885428D01*
X114783071Y-126823400D01*
X114776331Y-126812472D01*
X114744093Y-126760204D01*
X114739615Y-126754542D01*
X114739691Y-126754481D01*
X114735391Y-126749202D01*
X114735317Y-126749265D01*
X114730677Y-126743736D01*
X114730675Y-126743734D01*
X114730673Y-126743731D01*
X114700927Y-126715667D01*
X114676666Y-126692777D01*
X113848943Y-125865054D01*
X113815458Y-125803731D01*
X113812624Y-125777373D01*
X113812624Y-125068690D01*
X113812623Y-125068668D01*
X113812623Y-124316377D01*
X113812622Y-124316371D01*
X113809921Y-124291247D01*
X113807059Y-124264618D01*
X113806215Y-124256764D01*
X113755921Y-124121919D01*
X113755917Y-124121912D01*
X113669671Y-124006703D01*
X113669668Y-124006700D01*
X113554459Y-123920454D01*
X113554452Y-123920450D01*
X113419610Y-123870158D01*
X113419609Y-123870157D01*
X113419607Y-123870157D01*
X113359997Y-123863748D01*
X113359988Y-123863748D01*
X112988867Y-123863748D01*
X112921828Y-123844063D01*
X112876073Y-123791259D01*
X112866129Y-123722101D01*
X112895154Y-123658545D01*
X112914548Y-123640488D01*
X113019670Y-123561794D01*
X113105920Y-123446579D01*
X113156215Y-123311731D01*
X113162624Y-123252121D01*
X113162624Y-122472797D01*
X113162624Y-122067067D01*
X113182309Y-122000028D01*
X113235113Y-121954273D01*
X113236188Y-121953788D01*
X113254580Y-121945598D01*
X113353854Y-121901399D01*
X113506995Y-121790136D01*
X113633657Y-121649464D01*
X113728303Y-121485532D01*
X113786798Y-121305504D01*
X113806584Y-121117248D01*
X113786798Y-120928992D01*
X113786796Y-120928987D01*
X113786631Y-120927412D01*
X113799200Y-120858682D01*
X113846932Y-120807658D01*
X113914673Y-120790540D01*
X113980914Y-120812762D01*
G37*
G04 #@! TD.AperFunction*
G04 #@! TA.AperFunction,Conductor*
G36*
X105698289Y-125485433D02*
G01*
X105718931Y-125502067D01*
X105878855Y-125661991D01*
X105890631Y-125675616D01*
X105904322Y-125694006D01*
X105921061Y-125708052D01*
X105942949Y-125726419D01*
X105946937Y-125730074D01*
X105952492Y-125735629D01*
X105952500Y-125735636D01*
X105961819Y-125743004D01*
X105977361Y-125755293D01*
X106034241Y-125803021D01*
X106034242Y-125803021D01*
X106034244Y-125803023D01*
X106040277Y-125806991D01*
X106040223Y-125807072D01*
X106045957Y-125810726D01*
X106046009Y-125810643D01*
X106052161Y-125814437D01*
X106119452Y-125845815D01*
X106185799Y-125879136D01*
X106185801Y-125879136D01*
X106192588Y-125881607D01*
X106192554Y-125881699D01*
X106198983Y-125883933D01*
X106199014Y-125883841D01*
X106205863Y-125886110D01*
X106205864Y-125886110D01*
X106205868Y-125886112D01*
X106278593Y-125901128D01*
X106325118Y-125912155D01*
X106350820Y-125918247D01*
X106350821Y-125918247D01*
X106350825Y-125918248D01*
X106350829Y-125918248D01*
X106357998Y-125919086D01*
X106357986Y-125919183D01*
X106364759Y-125919875D01*
X106364768Y-125919779D01*
X106371957Y-125920408D01*
X106371961Y-125920407D01*
X106371962Y-125920408D01*
X106446192Y-125918248D01*
X106646460Y-125918248D01*
X106713499Y-125937933D01*
X106759254Y-125990737D01*
X106769750Y-126028994D01*
X106772033Y-126050231D01*
X106822326Y-126185076D01*
X106822330Y-126185083D01*
X106908576Y-126300292D01*
X106908579Y-126300295D01*
X107023788Y-126386541D01*
X107023795Y-126386545D01*
X107068742Y-126403309D01*
X107158641Y-126436839D01*
X107218251Y-126443248D01*
X107763996Y-126443247D01*
X107823607Y-126436839D01*
X107823612Y-126436837D01*
X107898291Y-126408984D01*
X107967983Y-126404000D01*
X108029306Y-126437485D01*
X108062790Y-126498809D01*
X108065624Y-126525166D01*
X108065624Y-126748748D01*
X108045939Y-126815787D01*
X107993135Y-126861542D01*
X107941624Y-126872748D01*
X107371454Y-126872748D01*
X107371436Y-126872749D01*
X107270371Y-126883073D01*
X107106608Y-126937340D01*
X107106605Y-126937341D01*
X106959772Y-127027909D01*
X106837785Y-127149896D01*
X106747217Y-127296729D01*
X106747215Y-127296734D01*
X106726918Y-127357987D01*
X106692950Y-127460495D01*
X106692950Y-127460496D01*
X106692949Y-127460496D01*
X106682624Y-127561563D01*
X106682624Y-128134917D01*
X106682625Y-128134935D01*
X106692949Y-128236000D01*
X106700191Y-128257853D01*
X106746780Y-128398449D01*
X106747216Y-128399763D01*
X106747217Y-128399766D01*
X106759439Y-128419581D01*
X106818765Y-128515764D01*
X106837785Y-128546599D01*
X106908805Y-128617619D01*
X106942290Y-128678942D01*
X106945124Y-128705300D01*
X106945124Y-129116859D01*
X106943815Y-129134831D01*
X106940494Y-129157503D01*
X106940493Y-129157506D01*
X106944888Y-129207725D01*
X106945124Y-129213132D01*
X106945124Y-129221004D01*
X106948803Y-129252484D01*
X106954737Y-129320322D01*
X106940970Y-129388822D01*
X106892354Y-129439004D01*
X106865805Y-129450204D01*
X106778728Y-129475502D01*
X106778727Y-129475503D01*
X106637261Y-129559165D01*
X106637253Y-129559171D01*
X106521047Y-129675377D01*
X106521041Y-129675385D01*
X106437379Y-129816851D01*
X106437378Y-129816854D01*
X106391526Y-129974674D01*
X106391525Y-129974680D01*
X106388624Y-130011552D01*
X106388624Y-130442944D01*
X106391525Y-130479815D01*
X106391526Y-130479821D01*
X106408474Y-130538153D01*
X106408275Y-130608022D01*
X106370333Y-130666692D01*
X106306695Y-130695536D01*
X106289398Y-130696748D01*
X105625318Y-130696748D01*
X105444929Y-130696748D01*
X105444927Y-130696748D01*
X105444921Y-130696749D01*
X105404222Y-130706038D01*
X105397366Y-130707203D01*
X105355867Y-130711880D01*
X105316452Y-130725671D01*
X105309770Y-130727596D01*
X105269063Y-130736888D01*
X105231449Y-130755001D01*
X105225025Y-130757663D01*
X105185599Y-130771459D01*
X105183562Y-130772740D01*
X105182014Y-130773185D01*
X105179325Y-130774481D01*
X105179104Y-130774024D01*
X105117588Y-130791748D01*
X103165624Y-130791748D01*
X103098585Y-130772063D01*
X103052830Y-130719259D01*
X103041624Y-130667748D01*
X103041624Y-130616748D01*
X103061309Y-130549709D01*
X103114113Y-130503954D01*
X103165624Y-130492748D01*
X104331820Y-130492748D01*
X104350255Y-130491297D01*
X104368693Y-130489846D01*
X104368695Y-130489845D01*
X104368697Y-130489845D01*
X104410315Y-130477753D01*
X104526522Y-130443992D01*
X104539546Y-130436288D01*
X104591864Y-130419492D01*
X104592612Y-130419426D01*
X104609106Y-130417983D01*
X104614507Y-130417748D01*
X104622375Y-130417748D01*
X104622380Y-130417748D01*
X104645004Y-130415103D01*
X104653860Y-130414068D01*
X104672352Y-130412450D01*
X104727832Y-130407597D01*
X104727836Y-130407595D01*
X104734908Y-130406136D01*
X104734927Y-130406232D01*
X104741565Y-130404760D01*
X104741543Y-130404664D01*
X104748564Y-130402999D01*
X104748575Y-130402998D01*
X104818326Y-130377610D01*
X104888821Y-130354251D01*
X104888830Y-130354245D01*
X104895369Y-130351197D01*
X104895410Y-130351286D01*
X104901533Y-130348322D01*
X104901489Y-130348234D01*
X104907936Y-130344994D01*
X104907944Y-130344992D01*
X104969965Y-130304200D01*
X105033168Y-130265216D01*
X105033173Y-130265210D01*
X105038832Y-130260737D01*
X105038893Y-130260814D01*
X105044172Y-130256514D01*
X105044109Y-130256438D01*
X105049631Y-130251802D01*
X105049641Y-130251797D01*
X105100592Y-130197791D01*
X105384370Y-129914012D01*
X105397996Y-129902236D01*
X105416382Y-129888550D01*
X105448797Y-129849917D01*
X105452439Y-129845944D01*
X105458010Y-129840374D01*
X105477669Y-129815510D01*
X105525397Y-129758631D01*
X105525401Y-129758622D01*
X105529372Y-129752588D01*
X105529454Y-129752642D01*
X105533101Y-129746918D01*
X105533017Y-129746866D01*
X105536811Y-129740713D01*
X105536813Y-129740711D01*
X105568191Y-129673419D01*
X105601512Y-129607073D01*
X105601514Y-129607060D01*
X105603981Y-129600287D01*
X105604074Y-129600320D01*
X105606310Y-129593888D01*
X105606217Y-129593858D01*
X105608486Y-129587008D01*
X105608485Y-129587008D01*
X105608488Y-129587004D01*
X105623504Y-129514278D01*
X105640624Y-129442047D01*
X105640624Y-129442045D01*
X105640625Y-129442041D01*
X105641463Y-129434874D01*
X105641559Y-129434885D01*
X105642251Y-129428115D01*
X105642155Y-129428107D01*
X105642784Y-129420916D01*
X105642421Y-129408455D01*
X105640624Y-129346680D01*
X105640624Y-127357992D01*
X105640624Y-127354690D01*
X105640623Y-127354668D01*
X105640623Y-126602377D01*
X105640622Y-126602371D01*
X105640234Y-126598765D01*
X105634215Y-126542765D01*
X105625384Y-126519089D01*
X105583921Y-126407919D01*
X105583917Y-126407912D01*
X105497671Y-126292703D01*
X105497668Y-126292700D01*
X105382459Y-126206454D01*
X105382452Y-126206450D01*
X105247610Y-126156158D01*
X105247609Y-126156157D01*
X105247607Y-126156157D01*
X105187997Y-126149748D01*
X105187988Y-126149748D01*
X104816867Y-126149748D01*
X104749828Y-126130063D01*
X104704073Y-126077259D01*
X104694129Y-126008101D01*
X104723154Y-125944545D01*
X104742548Y-125926488D01*
X104847670Y-125847794D01*
X104933920Y-125732579D01*
X104984215Y-125597731D01*
X104986499Y-125576491D01*
X105013238Y-125511940D01*
X105070631Y-125472093D01*
X105109788Y-125465748D01*
X105631250Y-125465748D01*
X105698289Y-125485433D01*
G37*
G04 #@! TD.AperFunction*
G04 #@! TA.AperFunction,Conductor*
G36*
X107095211Y-120939686D02*
G01*
X107151144Y-120981558D01*
X107175198Y-121042906D01*
X107175938Y-121049946D01*
X107189450Y-121178504D01*
X107189451Y-121178507D01*
X107247942Y-121358525D01*
X107247944Y-121358529D01*
X107247945Y-121358532D01*
X107342591Y-121522464D01*
X107383774Y-121568202D01*
X107414004Y-121631193D01*
X107415624Y-121651174D01*
X107415624Y-123330617D01*
X107415625Y-123330624D01*
X107422032Y-123390231D01*
X107472326Y-123525076D01*
X107472330Y-123525083D01*
X107558576Y-123640292D01*
X107558577Y-123640292D01*
X107558578Y-123640294D01*
X107619713Y-123686060D01*
X107663691Y-123718982D01*
X107705561Y-123774916D01*
X107710545Y-123844607D01*
X107677059Y-123905930D01*
X107615736Y-123939414D01*
X107589379Y-123942248D01*
X107218254Y-123942248D01*
X107218247Y-123942249D01*
X107158640Y-123948656D01*
X107023795Y-123998950D01*
X107023788Y-123998954D01*
X106908579Y-124085200D01*
X106908576Y-124085203D01*
X106822330Y-124200412D01*
X106822327Y-124200418D01*
X106793854Y-124276757D01*
X106751982Y-124332691D01*
X106686517Y-124357107D01*
X106618244Y-124342255D01*
X106589991Y-124321104D01*
X106539895Y-124271008D01*
X106528113Y-124257374D01*
X106514432Y-124238998D01*
X106514431Y-124238997D01*
X106514426Y-124238990D01*
X106475789Y-124206569D01*
X106471803Y-124202916D01*
X106466252Y-124197364D01*
X106466247Y-124197360D01*
X106441401Y-124177715D01*
X106438532Y-124175308D01*
X106384507Y-124129975D01*
X106384504Y-124129973D01*
X106378472Y-124126006D01*
X106378525Y-124125924D01*
X106372780Y-124122265D01*
X106372729Y-124122348D01*
X106366582Y-124118556D01*
X106299307Y-124087186D01*
X106232945Y-124053858D01*
X106226159Y-124051388D01*
X106226191Y-124051298D01*
X106219765Y-124049064D01*
X106219735Y-124049156D01*
X106212879Y-124046884D01*
X106140174Y-124031871D01*
X106067916Y-124014746D01*
X106060748Y-124013909D01*
X106060759Y-124013812D01*
X106053991Y-124013120D01*
X106053983Y-124013217D01*
X106046792Y-124012587D01*
X105972556Y-124014748D01*
X105114624Y-124014748D01*
X105047585Y-123995063D01*
X105001830Y-123942259D01*
X104990624Y-123890748D01*
X104990624Y-122993122D01*
X105010309Y-122926083D01*
X105026943Y-122905441D01*
X105983075Y-121949309D01*
X106964198Y-120968185D01*
X107025519Y-120934702D01*
X107095211Y-120939686D01*
G37*
G04 #@! TD.AperFunction*
G04 #@! TA.AperFunction,Conductor*
G36*
X115115958Y-102134917D02*
G01*
X115171891Y-102176789D01*
X115196308Y-102242253D01*
X115196624Y-102251099D01*
X115196624Y-118558003D01*
X115194899Y-118573620D01*
X115195185Y-118573647D01*
X115194450Y-118581413D01*
X115196624Y-118650562D01*
X115196624Y-118680091D01*
X115196625Y-118680108D01*
X115197492Y-118686979D01*
X115197950Y-118692798D01*
X115199414Y-118739372D01*
X115199415Y-118739375D01*
X115205004Y-118758615D01*
X115208948Y-118777659D01*
X115211460Y-118797540D01*
X115228614Y-118840867D01*
X115230506Y-118846395D01*
X115243505Y-118891136D01*
X115253704Y-118908382D01*
X115262262Y-118925851D01*
X115269638Y-118944480D01*
X115297022Y-118982171D01*
X115300230Y-118987055D01*
X115323951Y-119027164D01*
X115323957Y-119027172D01*
X115338114Y-119041328D01*
X115350752Y-119056124D01*
X115362529Y-119072334D01*
X115362530Y-119072335D01*
X115398433Y-119102036D01*
X115402744Y-119105958D01*
X115765300Y-119468514D01*
X116115305Y-119818519D01*
X116148790Y-119879842D01*
X116151624Y-119906200D01*
X116151624Y-120655839D01*
X116131939Y-120722878D01*
X116079135Y-120768633D01*
X116009977Y-120778577D01*
X115946421Y-120749552D01*
X115922086Y-120720937D01*
X115887092Y-120664204D01*
X115882614Y-120658541D01*
X115882690Y-120658480D01*
X115878391Y-120653202D01*
X115878317Y-120653265D01*
X115873677Y-120647736D01*
X115873675Y-120647734D01*
X115873673Y-120647731D01*
X115843927Y-120619667D01*
X115819666Y-120596777D01*
X114727895Y-119505008D01*
X114716113Y-119491374D01*
X114702432Y-119472998D01*
X114702431Y-119472997D01*
X114702426Y-119472990D01*
X114663789Y-119440569D01*
X114659803Y-119436916D01*
X114654252Y-119431364D01*
X114654247Y-119431360D01*
X114629401Y-119411715D01*
X114572507Y-119363975D01*
X114572504Y-119363973D01*
X114566472Y-119360006D01*
X114566525Y-119359924D01*
X114560780Y-119356265D01*
X114560729Y-119356348D01*
X114554582Y-119352556D01*
X114487307Y-119321186D01*
X114420945Y-119287858D01*
X114414159Y-119285388D01*
X114414191Y-119285298D01*
X114407765Y-119283064D01*
X114407735Y-119283156D01*
X114400879Y-119280884D01*
X114328173Y-119265871D01*
X114291301Y-119257132D01*
X114273230Y-119250723D01*
X114273218Y-119250758D01*
X114096386Y-119188881D01*
X114096373Y-119188878D01*
X113962084Y-119173748D01*
X113962078Y-119173748D01*
X111930078Y-119173748D01*
X110025078Y-119173748D01*
X109040088Y-119173748D01*
X108973049Y-119154063D01*
X108927294Y-119101259D01*
X108917350Y-119032101D01*
X108922157Y-119011430D01*
X108943910Y-118944480D01*
X108960798Y-118892504D01*
X108980584Y-118704248D01*
X108960798Y-118515992D01*
X108902303Y-118335964D01*
X108807657Y-118172032D01*
X108732474Y-118088532D01*
X108702244Y-118025540D01*
X108700624Y-118005560D01*
X108700624Y-106365500D01*
X108720309Y-106298461D01*
X108736943Y-106277819D01*
X109161496Y-105853267D01*
X109222819Y-105819782D01*
X109249177Y-105816948D01*
X110989581Y-105816948D01*
X111005201Y-105818672D01*
X111005228Y-105818387D01*
X111012984Y-105819119D01*
X111012991Y-105819121D01*
X111082138Y-105816948D01*
X111111674Y-105816948D01*
X111118552Y-105816078D01*
X111124365Y-105815620D01*
X111170951Y-105814157D01*
X111190193Y-105808565D01*
X111209236Y-105804622D01*
X111229116Y-105802112D01*
X111272446Y-105784955D01*
X111277970Y-105783065D01*
X111281720Y-105781975D01*
X111322714Y-105770066D01*
X111339953Y-105759870D01*
X111357427Y-105751310D01*
X111376051Y-105743936D01*
X111376051Y-105743935D01*
X111376056Y-105743934D01*
X111413773Y-105716530D01*
X111418629Y-105713340D01*
X111458744Y-105689618D01*
X111472913Y-105675447D01*
X111487703Y-105662816D01*
X111503911Y-105651042D01*
X111533623Y-105615124D01*
X111537536Y-105610824D01*
X114984945Y-102163416D01*
X115046266Y-102129933D01*
X115115958Y-102134917D01*
G37*
G04 #@! TD.AperFunction*
G04 #@! TA.AperFunction,Conductor*
G36*
X109075332Y-95884371D02*
G01*
X109126809Y-95931614D01*
X109144624Y-95995650D01*
X109144624Y-104213395D01*
X109124939Y-104280434D01*
X109072135Y-104326189D01*
X109002977Y-104336133D01*
X108939421Y-104307108D01*
X108932943Y-104301076D01*
X105841343Y-101209476D01*
X105807858Y-101148153D01*
X105805024Y-101121795D01*
X105805024Y-96121798D01*
X105824709Y-96054759D01*
X105877513Y-96009004D01*
X105946671Y-95999060D01*
X106010227Y-96028085D01*
X106036410Y-96059796D01*
X106072206Y-96121798D01*
X106072591Y-96122464D01*
X106199253Y-96263136D01*
X106352389Y-96374396D01*
X106352394Y-96374399D01*
X106525316Y-96451390D01*
X106525321Y-96451392D01*
X106710478Y-96490748D01*
X106710479Y-96490748D01*
X106899768Y-96490748D01*
X106899770Y-96490748D01*
X107084927Y-96451392D01*
X107257854Y-96374399D01*
X107367241Y-96294924D01*
X107433044Y-96271446D01*
X107501098Y-96287271D01*
X107512995Y-96294916D01*
X107622390Y-96374396D01*
X107622394Y-96374399D01*
X107795316Y-96451390D01*
X107795321Y-96451392D01*
X107980478Y-96490748D01*
X107980479Y-96490748D01*
X108169768Y-96490748D01*
X108169770Y-96490748D01*
X108354927Y-96451392D01*
X108527854Y-96374399D01*
X108680995Y-96263136D01*
X108807657Y-96122464D01*
X108902303Y-95958532D01*
X108902692Y-95957335D01*
X108903103Y-95956732D01*
X108904949Y-95952589D01*
X108905706Y-95952926D01*
X108942128Y-95899659D01*
X109006486Y-95872459D01*
X109075332Y-95884371D01*
G37*
G04 #@! TD.AperFunction*
G04 #@! TA.AperFunction,Conductor*
G36*
X112538458Y-97829875D02*
G01*
X112582805Y-97858376D01*
X114144305Y-99419876D01*
X114177790Y-99481199D01*
X114180624Y-99507557D01*
X114180624Y-101147195D01*
X114160939Y-101214234D01*
X114144305Y-101234876D01*
X111157305Y-104221876D01*
X111095982Y-104255361D01*
X111026290Y-104250377D01*
X110970357Y-104208505D01*
X110945940Y-104143041D01*
X110945624Y-104134195D01*
X110945624Y-99748248D01*
X110965309Y-99681209D01*
X111018113Y-99635454D01*
X111069624Y-99624248D01*
X113641571Y-99624248D01*
X113641571Y-99624247D01*
X112229252Y-98211928D01*
X112195767Y-98150605D01*
X112200751Y-98080913D01*
X112229252Y-98036566D01*
X112407443Y-97858376D01*
X112468766Y-97824891D01*
X112538458Y-97829875D01*
G37*
G04 #@! TD.AperFunction*
G04 #@! TA.AperFunction,Conductor*
G36*
X116023615Y-92419433D02*
G01*
X116048724Y-92440774D01*
X116054450Y-92447133D01*
X116054454Y-92447137D01*
X116207589Y-92558396D01*
X116207594Y-92558399D01*
X116380516Y-92635390D01*
X116380521Y-92635392D01*
X116565678Y-92674748D01*
X116565679Y-92674748D01*
X116754968Y-92674748D01*
X116754970Y-92674748D01*
X116940127Y-92635392D01*
X117113054Y-92558399D01*
X117266195Y-92447136D01*
X117269112Y-92443895D01*
X117271924Y-92440774D01*
X117331411Y-92404127D01*
X117364072Y-92399748D01*
X117485624Y-92399748D01*
X117552663Y-92419433D01*
X117598418Y-92472237D01*
X117609624Y-92523748D01*
X117609624Y-94348907D01*
X117589939Y-94415946D01*
X117537135Y-94461701D01*
X117467977Y-94471645D01*
X117404421Y-94442620D01*
X117393475Y-94431880D01*
X117367795Y-94403360D01*
X117367794Y-94403359D01*
X117214658Y-94292099D01*
X117214653Y-94292096D01*
X117041731Y-94215105D01*
X117041726Y-94215103D01*
X116895925Y-94184113D01*
X116856570Y-94175748D01*
X116667278Y-94175748D01*
X116634821Y-94182646D01*
X116482121Y-94215103D01*
X116482116Y-94215105D01*
X116309194Y-94292096D01*
X116309189Y-94292099D01*
X116156054Y-94403358D01*
X116156050Y-94403362D01*
X116150324Y-94409722D01*
X116090837Y-94446369D01*
X116058176Y-94450748D01*
X114876971Y-94450748D01*
X114853739Y-94448552D01*
X114845712Y-94447021D01*
X114845710Y-94447021D01*
X114836757Y-94447584D01*
X114788399Y-94450626D01*
X114784527Y-94450748D01*
X114619623Y-94450748D01*
X114552584Y-94431063D01*
X114506829Y-94378259D01*
X114495623Y-94326748D01*
X114495623Y-94028377D01*
X114495622Y-94028371D01*
X114489215Y-93968764D01*
X114438921Y-93833919D01*
X114438917Y-93833912D01*
X114352671Y-93718703D01*
X114352668Y-93718700D01*
X114237459Y-93632454D01*
X114237452Y-93632450D01*
X114102606Y-93582156D01*
X114102607Y-93582156D01*
X114043007Y-93575749D01*
X114043005Y-93575748D01*
X114042997Y-93575748D01*
X114042989Y-93575748D01*
X111069624Y-93575748D01*
X111002585Y-93556063D01*
X110956830Y-93503259D01*
X110945624Y-93451748D01*
X110945624Y-93398747D01*
X110965309Y-93331708D01*
X111018113Y-93285953D01*
X111069619Y-93274747D01*
X114042996Y-93274747D01*
X114102607Y-93268339D01*
X114237455Y-93218044D01*
X114352670Y-93131794D01*
X114438920Y-93016579D01*
X114489215Y-92881731D01*
X114495624Y-92822121D01*
X114495624Y-92523748D01*
X114515309Y-92456709D01*
X114568113Y-92410954D01*
X114619624Y-92399748D01*
X115956576Y-92399748D01*
X116023615Y-92419433D01*
G37*
G04 #@! TD.AperFunction*
G04 #@! TA.AperFunction,Conductor*
G36*
X115948017Y-89081297D02*
G01*
X116006065Y-89120183D01*
X116033875Y-89184280D01*
X116034824Y-89199588D01*
X116034824Y-91024748D01*
X116015139Y-91091787D01*
X115962335Y-91137542D01*
X115910824Y-91148748D01*
X114619623Y-91148748D01*
X114552584Y-91129063D01*
X114506829Y-91076259D01*
X114495623Y-91024748D01*
X114495623Y-90726377D01*
X114495622Y-90726371D01*
X114489215Y-90666764D01*
X114438921Y-90531919D01*
X114438917Y-90531912D01*
X114352671Y-90416703D01*
X114352668Y-90416700D01*
X114237459Y-90330454D01*
X114237452Y-90330450D01*
X114102606Y-90280156D01*
X114102607Y-90280156D01*
X114043007Y-90273749D01*
X114043005Y-90273748D01*
X114042997Y-90273748D01*
X114042989Y-90273748D01*
X111069624Y-90273748D01*
X111002585Y-90254063D01*
X110956830Y-90201259D01*
X110945624Y-90149748D01*
X110945624Y-90096747D01*
X110965309Y-90029708D01*
X111018113Y-89983953D01*
X111069619Y-89972747D01*
X114042996Y-89972747D01*
X114102607Y-89966339D01*
X114237455Y-89916044D01*
X114352670Y-89829794D01*
X114438920Y-89714579D01*
X114489215Y-89579731D01*
X114495624Y-89520121D01*
X114495624Y-89326286D01*
X114515309Y-89259247D01*
X114568113Y-89213492D01*
X114637271Y-89203548D01*
X114692508Y-89225967D01*
X114734390Y-89256396D01*
X114734394Y-89256399D01*
X114907316Y-89333390D01*
X114907321Y-89333392D01*
X115092478Y-89372748D01*
X115092479Y-89372748D01*
X115281768Y-89372748D01*
X115281770Y-89372748D01*
X115466927Y-89333392D01*
X115639854Y-89256399D01*
X115792995Y-89145136D01*
X115818674Y-89116616D01*
X115878160Y-89079968D01*
X115948017Y-89081297D01*
G37*
G04 #@! TD.AperFunction*
M02*
